<svg width="954" height="298" viewBox="0 0 954 298" fill="none" xmlns="http://www.w3.org/2000/svg">
<path d="M24.5556 60H101.927V238H24.5556C24.5556 238 10.5628 173.541 12.1211 142.438C13.6794 111.334 24.5556 60 24.5556 60Z" fill="#CA9C65"/>
<path d="M929.866 60H852.495V238H929.866C929.866 238 943.859 173.541 942.301 142.438C940.742 111.334 929.866 60 929.866 60Z" fill="#CA9C65"/>
<path d="M43.2797 40H122.585V257H43.2797C43.2797 257 28.937 178.418 30.5343 140.5C32.1315 102.582 43.2797 40 43.2797 40Z" fill="#FDD9AD"/>
<path d="M906.31 40H827.004V257H906.31C906.31 257 920.652 178.418 919.055 140.5C917.458 102.582 906.31 40 906.31 40Z" fill="#FDD9AD"/>
<path d="M69.3544 18C69.3544 18 314.626 38.4072 472.608 38.5C631.417 38.5933 877.986 18 877.986 18C877.986 18 890.04 103.592 889.315 159C888.692 206.657 877.986 280 877.986 280C877.986 280 631.165 268.434 472.608 268.5C314.879 268.565 69.3544 280 69.3544 280C69.3544 280 58.3139 206.682 57.6711 159C56.9238 103.57 69.3544 18 69.3544 18Z" fill="#FCE6CB"/>
<path d="M187.43 205.105V200.425C187.43 198.995 187.3 197.63 187.04 196.33C187.69 195.16 187.755 191.65 187.235 185.8C186.975 182.68 186.715 180.145 186.455 178.195C186.325 176.245 186.26 174.88 186.26 174.1V172.54C186.26 172.02 186.26 171.5 186.26 170.98C186.39 170.33 186.52 169.68 186.65 169.03C186.78 166.04 186.975 164.025 187.235 162.985C187.365 162.595 187.69 162.075 188.21 161.425C188.73 160.645 188.99 159.865 188.99 159.085C188.99 153.235 189.25 146.995 189.77 140.365C190.42 133.605 190.81 127.3 190.94 121.45C191.07 116.9 191.135 113.26 191.135 110.53C191.135 107.8 191.2 106.11 191.33 105.46C191.46 103.77 191.46 101.95 191.33 100C191.33 97.92 191.33 95.97 191.33 94.15C191.33 93.76 191.265 93.5 191.135 93.37L196.205 89.275H213.17C214.99 89.015 216.29 88.95 217.07 89.08C217.85 89.21 218.37 89.405 218.63 89.665L222.92 92.785C224.09 94.215 225.065 95.06 225.845 95.32C226.755 95.45 227.47 95.255 227.99 94.735C228.64 94.085 229.225 93.305 229.745 92.395C230.265 91.355 230.785 90.38 231.305 89.47L241.64 90.055L257.045 96.49C257.565 97.01 258.02 97.53 258.41 98.05C258.8 98.44 259.19 98.765 259.58 99.025C260.23 99.675 260.815 100.26 261.335 100.78C261.985 101.3 262.44 101.56 262.7 101.56C262.96 101.56 264.195 101.885 266.405 102.535C268.745 103.185 270.825 105.005 272.645 107.995C274.075 107.995 275.505 108.45 276.935 109.36C278.495 110.27 279.795 111.31 280.835 112.48C281.875 113.52 282.655 114.56 283.175 115.6C283.825 116.51 284.02 117.03 283.76 117.16C281.55 119.24 280.835 121.06 281.615 122.62C282.525 124.18 283.825 125.285 285.515 125.935C286.035 128.145 287.075 129.705 288.635 130.615C290.195 131.395 291.365 131.98 292.145 132.37C292.145 132.76 292.275 134.775 292.535 138.415C292.795 141.925 293.185 147.06 293.705 153.82C293.965 157.2 294.225 160.19 294.485 162.79C294.745 165.26 295.005 167.34 295.265 169.03C295.525 170.07 295.72 171.045 295.85 171.955C295.98 172.735 296.11 173.45 296.24 174.1C296.37 174.75 294.16 178.455 289.61 185.215C284.93 191.715 282.59 196.07 282.59 198.28H272.255C271.735 198.28 271.085 198.54 270.305 199.06C269.525 199.45 268.745 199.905 267.965 200.425L264.845 202.375C264.455 202.505 264.065 202.57 263.675 202.57C263.285 202.57 262.83 202.635 262.31 202.765C261.53 202.895 260.49 203.025 259.19 203.155C258.02 203.285 256.655 203.48 255.095 203.74C251.845 204.39 249.115 204.78 246.905 204.91C244.695 205.04 242.875 204.975 241.445 204.715C241.315 203.025 236.895 203.545 228.185 206.275C225.975 206.925 223.7 207.51 221.36 208.03C219.02 208.42 216.875 208.745 214.925 209.005C213.755 209.265 212.585 209.46 211.415 209.59C210.375 209.72 209.335 209.85 208.295 209.98L204.005 209.005C203.225 209.135 202.445 209.33 201.665 209.59C200.885 209.72 200.365 209.785 200.105 209.785C199.715 209.785 199.13 209.655 198.35 209.395C197.7 209.135 197.115 209.005 196.595 209.005C196.335 209.005 195.75 209.07 194.84 209.2C194.06 209.2 193.54 209.33 193.28 209.59L187.43 205.105ZM225.26 197.695C226.56 197.175 227.925 196.46 229.355 195.55C230.915 194.51 232.215 194.185 233.255 194.575H238.715C238.975 194.575 239.56 194.25 240.47 193.6C241.38 192.82 242.03 192.43 242.42 192.43C242.94 192.43 243.2 192.69 243.2 193.21C243.2 193.6 243.915 193.795 245.345 193.795C245.865 193.795 247.1 193.535 249.05 193.015C251 192.365 253.08 191.52 255.29 190.48C257.63 189.44 259.45 188.66 260.75 188.14C262.18 187.62 263.025 187.295 263.285 187.165C263.415 186.905 263.48 186.58 263.48 186.19C263.61 185.8 263.805 185.345 264.065 184.825C264.325 184.045 264.585 183.135 264.845 182.095C265.235 181.055 265.755 179.82 266.405 178.39C267.315 175.27 268.03 172.865 268.55 171.175C269.07 169.485 269.33 168.315 269.33 167.665L263.09 144.655C263.09 143.745 263.155 143.03 263.285 142.51C263.285 141.86 263.285 141.08 263.285 140.17C263.415 139.13 263.545 137.895 263.675 136.465C264.195 130.875 264.52 128.08 264.65 128.08C264.52 127.95 264.065 127.235 263.285 125.935C262.635 124.635 261.66 122.88 260.36 120.67C259.06 118.33 257.955 115.925 257.045 113.455C256.265 110.855 255.615 109.555 255.095 109.555L239.69 99.61H225.065C225.065 101.17 224.74 102.08 224.09 102.34C223.44 102.47 223.115 102.665 223.115 102.925V106.435C223.115 107.475 223.115 108.71 223.115 110.14C223.115 111.57 223.05 113.195 222.92 115.015V127.885C220.71 129.055 219.475 130.42 219.215 131.98C219.215 133.15 218.63 134.97 217.46 137.44C217.2 137.7 217.07 138.155 217.07 138.805C217.07 140.625 217.07 141.925 217.07 142.705C217.2 143.355 217.07 144.525 216.68 146.215C216.42 146.475 216.68 148.75 217.46 153.04C218.24 157.59 218.695 159.93 218.825 160.06C218.695 160.71 218.5 161.62 218.24 162.79C218.11 163.96 217.85 165.325 217.46 166.885C217.07 168.445 216.81 169.615 216.68 170.395C216.55 171.175 216.485 171.695 216.485 171.955C216.485 173.515 216.68 176.31 217.07 180.34C217.2 182.42 217.265 184.24 217.265 185.8C217.395 187.23 217.46 188.27 217.46 188.92C217.72 189.96 217.915 191 218.045 192.04C218.305 193.08 218.565 194.185 218.825 195.355L225.26 197.695ZM361.595 89.08V104.29C360.035 110.4 358.735 115.795 357.695 120.475C356.785 125.025 356.07 129.25 355.55 133.15C355.03 137.05 354.705 140.755 354.575 144.265C354.575 147.775 354.705 151.48 354.965 155.38C355.225 160.06 355.095 164.285 354.575 168.055C354.055 171.825 353.535 175.27 353.015 178.39C352.625 181.51 352.365 184.5 352.235 187.36C352.105 190.09 352.495 192.885 353.405 195.745L354.38 200.62L351.065 206.275L325.13 211.345L318.11 206.86C318.24 206.34 318.955 205.625 320.255 204.715C321.685 203.675 322.4 202.635 322.4 201.595C322.4 200.035 322.4 198.93 322.4 198.28C322.4 197.63 322.27 196.59 322.01 195.16C321.75 194.51 322.075 192.43 322.985 188.92C324.025 185.28 324.48 180.34 324.35 174.1C324.35 170.98 324.35 168.705 324.35 167.275C324.48 165.715 324.545 164.74 324.545 164.35C324.675 163.83 324.675 163.635 324.545 163.765C324.545 163.895 324.415 163.96 324.155 163.96C324.285 162.92 324.48 161.75 324.74 160.45C325 159.02 325.26 157.59 325.52 156.16C325.78 155.38 325.975 154.6 326.105 153.82C326.235 153.04 326.365 152.195 326.495 151.285C326.885 150.895 326.82 150.115 326.3 148.945C325.91 147.775 325.455 146.865 324.935 146.215C324.545 145.565 324.35 145.305 324.35 145.435C324.35 145.435 324.48 145.435 324.74 145.435C325 145.435 325.39 145.175 325.91 144.655C326.43 144.005 326.95 142.77 327.47 140.95L326.105 132.37C326.365 132.37 326.56 132.435 326.69 132.565C326.95 132.695 327.08 132.63 327.08 132.37C327.08 131.98 327.015 131.265 326.885 130.225C326.755 129.185 326.495 127.56 326.105 125.35C325.585 121.06 325.52 118.525 325.91 117.745C326.3 116.835 326.885 116.445 327.665 116.575C328.315 116.055 328.835 115.535 329.225 115.015C329.745 114.495 330.07 113.845 330.2 113.065C330.33 112.285 330.265 111.245 330.005 109.945C329.875 108.515 329.485 106.695 328.835 104.485C328.185 102.535 328.25 100.585 329.03 98.635C329.81 96.685 330.265 94.735 330.395 92.785L334.49 88.69C336.31 88.69 338.715 88.69 341.705 88.69C344.695 88.56 347.295 88.43 349.505 88.3C354.185 87.91 357.565 87.715 359.645 87.715L361.595 89.08ZM490.704 206.47L483.879 207.64C482.319 207.9 480.694 207.9 479.004 207.64C477.314 207.38 475.559 207.25 473.739 207.25C473.349 207.25 472.764 207.25 471.984 207.25C471.204 207.25 470.294 207.25 469.254 207.25C468.344 207.25 467.434 207.315 466.524 207.445C465.614 207.445 464.834 207.445 464.184 207.445L459.894 204.52C460.284 201.92 460.154 200.035 459.504 198.865C458.984 197.695 458.594 196.59 458.334 195.55C458.074 194.77 457.554 193.535 456.774 191.845C455.994 190.155 455.279 188.205 454.629 185.995C454.629 185.605 453.979 184.435 452.679 182.485C451.379 180.535 450.339 178.78 449.559 177.22L447.219 178.195C446.569 178.195 445.854 178.39 445.074 178.78C444.294 179.17 442.344 179.365 439.224 179.365C438.834 178.585 438.184 178.065 437.274 177.805C436.364 177.415 435.324 177.35 434.154 177.61C433.114 177.74 432.009 178.13 430.839 178.78C429.799 179.43 428.889 180.21 428.109 181.12L420.114 182.29C419.594 181.12 419.009 180.21 418.359 179.56C417.839 178.78 417.254 178.065 416.604 177.415C416.084 176.765 415.629 176.05 415.239 175.27C414.849 174.49 414.654 173.45 414.654 172.15C417.254 171.5 418.749 170.655 419.139 169.615C419.659 168.575 420.049 168.12 420.309 168.25C421.089 168.64 421.804 168.835 422.454 168.835C421.544 168.835 421.284 168.705 421.674 168.445C422.064 168.185 423.819 167.535 426.939 166.495L441.174 164.74L444.099 166.885C446.179 167.405 447.739 167.535 448.779 167.275C449.819 167.015 450.534 166.56 450.924 165.91C451.314 165.13 451.509 164.285 451.509 163.375C451.639 162.465 451.769 161.685 451.899 161.035C452.159 159.605 451.834 158.435 450.924 157.525C450.144 156.485 449.039 155.575 447.609 154.795C447.349 153.365 446.829 151.74 446.049 149.92C445.399 147.97 444.554 145.695 443.514 143.095C442.604 140.625 441.759 138.025 440.979 135.295C440.329 132.435 439.744 129.835 439.224 127.495C438.704 125.155 438.314 123.205 438.054 121.645C437.794 120.085 437.599 119.175 437.469 118.915C435.649 117.745 434.154 117.68 432.984 118.72C431.814 119.63 430.839 120.995 430.059 122.815C429.409 124.635 428.954 126.585 428.694 128.665C428.564 130.615 428.564 131.98 428.694 132.76C428.564 133.02 428.239 133.475 427.719 134.125C427.199 134.645 426.614 135.23 425.964 135.88C425.314 136.53 424.729 137.18 424.209 137.83C423.689 138.35 423.364 138.74 423.234 139C422.714 139.91 422.584 140.885 422.844 141.925C423.104 142.965 422.909 143.875 422.259 144.655C419.659 149.335 416.604 153.04 413.094 155.77C412.184 156.55 411.469 157.655 410.949 159.085C410.429 160.515 410.104 162.01 409.974 163.57C409.844 165.13 409.974 166.69 410.364 168.25C410.754 169.68 411.469 170.85 412.509 171.76C411.209 172.54 410.169 173.385 409.389 174.295C408.739 175.075 408.154 175.985 407.634 177.025C407.244 177.935 406.854 178.975 406.464 180.145C406.074 181.185 405.619 182.355 405.099 183.655C402.889 189.505 401.784 192.56 401.784 192.82L399.054 198.475L396.519 208.81C396.649 210.76 395.934 211.93 394.374 212.32C392.944 212.71 390.604 212.905 387.354 212.905C384.234 213.685 381.504 214.075 379.164 214.075C376.824 213.945 376.044 212.71 376.824 210.37C380.204 202.31 382.674 196.33 384.234 192.43C385.924 188.4 386.769 185.345 386.769 183.265C386.769 182.615 387.029 182.095 387.549 181.705C388.199 181.185 388.719 180.795 389.109 180.535C389.239 180.275 389.694 178.91 390.474 176.44C391.384 173.97 392.359 171.24 393.399 168.25C394.439 165.13 395.414 162.205 396.324 159.475C397.364 156.615 398.144 154.665 398.664 153.625C399.834 151.155 401.199 148.36 402.759 145.24C404.449 142.12 406.399 139.13 408.609 136.27C409.779 134.71 410.754 132.565 411.534 129.835C412.444 127.105 413.289 124.115 414.069 120.865C414.849 117.615 415.694 114.3 416.604 110.92C417.514 107.54 418.684 104.42 420.114 101.56C420.894 101.3 423.169 98.44 426.939 92.98C427.199 92.72 427.394 92.46 427.524 92.2C427.784 91.81 428.044 91.485 428.304 91.225L453.264 89.665C453.784 90.315 454.369 91.095 455.019 92.005C455.669 92.915 456.384 93.89 457.164 94.93C459.634 98.05 461.129 100.52 461.649 102.34C462.169 104.16 462.494 105.395 462.624 106.045C462.364 106.435 463.729 110.855 466.719 119.305C467.499 121.385 468.149 123.725 468.669 126.325C469.189 128.925 469.579 131.395 469.839 133.735C470.099 135.945 470.229 137.895 470.229 139.585C470.229 141.145 470.164 141.99 470.034 142.12C469.774 142.25 471.854 143.875 476.274 146.995C477.314 147.775 477.899 148.49 478.029 149.14C478.289 149.79 478.289 150.375 478.029 150.895C477.899 151.415 477.639 151.87 477.249 152.26C476.859 152.65 476.664 152.91 476.664 153.04L481.929 160.06C481.929 160.06 483.424 165.715 486.414 177.025C488.104 182.485 489.339 187.165 490.119 191.065C490.899 194.835 491.289 197.76 491.289 199.84C491.289 200.1 491.354 200.295 491.484 200.425C491.484 200.295 491.614 200.62 491.874 201.4L490.704 206.47ZM540.532 208.225L538.192 209.005C536.372 209.655 534.227 210.11 531.757 210.37C529.417 210.5 527.922 210.565 527.272 210.565C526.882 210.565 525.972 210.5 524.542 210.37C523.242 210.11 522.267 209.98 521.617 209.98C521.227 209.98 520.707 210.305 520.057 210.955L511.282 207.835C511.282 207.185 511.282 206.6 511.282 206.08C511.412 205.56 511.542 204.975 511.672 204.325C511.932 202.505 512.127 200.815 512.257 199.255C512.517 197.565 512.517 196.005 512.257 194.575C513.297 193.535 513.427 190.35 512.647 185.02C511.867 179.56 511.477 176.115 511.477 174.685C511.477 174.295 511.607 173.255 511.867 171.565C512.127 169.875 512.387 168.38 512.647 167.08C512.777 166.69 513.037 166.17 513.427 165.52C513.947 164.87 514.207 164.155 514.207 163.375C513.947 159.605 514.077 156.55 514.597 154.21C515.247 151.74 515.442 149.27 515.182 146.8C515.052 146.15 515.117 145.5 515.377 144.85C515.637 144.2 515.767 143.355 515.767 142.315V135.88C515.767 134.06 515.767 132.045 515.767 129.835C515.767 127.495 515.832 124.83 515.962 121.84C516.092 115.99 516.157 112.09 516.157 110.14C516.287 108.19 516.482 106.825 516.742 106.045C516.872 104.745 517.197 103.705 517.717 102.925C518.367 102.145 518.692 100.845 518.692 99.025C518.692 98.895 518.432 98.505 517.912 97.855C517.522 97.205 517.002 96.36 516.352 95.32C515.962 94.8 515.702 94.15 515.572 93.37C515.442 92.59 515.377 91.875 515.377 91.225C515.507 90.445 515.572 89.795 515.572 89.275C515.702 88.755 515.767 87.26 515.767 84.79C519.277 83.75 522.852 83.23 526.492 83.23C530.132 83.23 533.057 83.1 535.267 82.84C536.047 82.71 536.632 82.58 537.022 82.45C537.542 82.32 537.997 82.255 538.387 82.255C538.777 82.125 539.232 82.06 539.752 82.06C540.402 81.93 541.312 81.865 542.482 81.865C543.002 83.165 543.717 84.595 544.627 86.155C545.537 87.715 546.252 89.145 546.772 90.445C548.462 92.785 550.087 93.89 551.647 93.76C553.207 93.63 554.637 93.045 555.937 92.005C557.367 90.965 558.537 89.86 559.447 88.69C560.357 87.39 560.942 86.74 561.202 86.74L583.237 86.935L600.007 98.44C600.657 99.09 601.502 99.87 602.542 100.78C603.582 101.56 604.687 102.665 605.857 104.095C608.457 106.825 610.407 108.125 611.707 107.995L616.387 114.82C616.127 115.21 615.542 116.38 614.632 118.33C613.852 120.15 612.682 122.75 611.122 126.13C608.132 133.15 606.637 138.61 606.637 142.51L602.737 144.85C600.137 145.89 598.837 148.555 598.837 152.845C596.627 152.585 592.987 153.43 587.917 155.38C586.487 156.03 584.927 156.485 583.237 156.745C581.547 156.875 579.987 157.005 578.557 157.135C577.647 157.265 576.737 157.33 575.827 157.33C575.047 157.33 574.202 157.33 573.292 157.33L571.147 162.205C569.587 161.035 567.832 160.255 565.882 159.865C563.932 159.475 561.982 159.345 560.032 159.475C558.212 159.605 556.457 159.865 554.767 160.255C553.077 160.645 551.647 161.1 550.477 161.62C546.187 163.18 543.977 163.96 543.847 163.96H542.677C542.807 164.09 542.872 164.285 542.872 164.545C542.612 165.845 542.157 167.405 541.507 169.225C540.987 170.915 540.727 172.085 540.727 172.735C540.727 173.515 540.792 174.62 540.922 176.05C541.052 177.35 541.182 179.105 541.312 181.315C541.442 183.395 541.507 185.15 541.507 186.58C541.637 188.01 541.702 189.115 541.702 189.895L542.482 195.16C542.742 196.2 542.937 197.24 543.067 198.28C543.197 199.19 543.392 200.165 543.652 201.205L540.532 208.225ZM547.747 103.705C547.747 104.745 547.747 105.98 547.747 107.41C547.877 108.84 548.007 110.465 548.137 112.285C548.787 120.345 548.982 125.155 548.722 126.715C546.122 128.275 544.562 130.615 544.042 133.735C543.652 135.425 543.262 137.05 542.872 138.61C542.482 140.04 542.027 141.275 541.507 142.315L541.117 142.705C541.117 144.135 541.117 145.175 541.117 145.825C541.247 146.475 541.312 147.255 541.312 148.165L545.017 150.7L548.722 149.725C548.722 152.585 552.232 152.52 559.252 149.53C566.142 146.67 570.042 145.24 570.952 145.24H579.142C580.182 143.81 581.417 142.315 582.847 140.755C584.277 139.065 584.992 138.025 584.992 137.635L587.527 123.4L586.357 118.525L560.422 100H551.842L547.747 103.705ZM604.297 208.615C604.037 207.445 603.257 206.665 601.957 206.275C601.437 205.755 601.242 205.04 601.372 204.13C601.502 203.22 601.372 202.635 600.982 202.375C600.852 202.115 600.722 201.985 600.592 201.985C600.462 201.985 600.267 201.92 600.007 201.79C599.877 201.53 599.487 201.075 598.837 200.425C598.447 199.905 597.992 199.385 597.472 198.865C596.952 198.215 596.367 197.37 595.717 196.33C594.287 194.51 593.182 193.08 592.402 192.04C591.622 190.87 591.037 190.155 590.647 189.895C590.127 189.635 589.347 189.115 588.307 188.335C587.267 187.555 586.552 187.1 586.162 186.97C585.772 186.58 585.447 186.125 585.187 185.605C584.927 185.085 584.667 184.695 584.407 184.435C584.147 184.175 583.822 183.265 583.432 181.705C583.042 180.145 582.652 178.78 582.262 177.61C580.832 176.31 578.687 173.97 575.827 170.59C574.917 169.68 574.397 169.095 574.267 168.835L576.802 165.13L586.162 169.81C586.292 169.94 586.942 169.94 588.112 169.81C589.412 169.68 590.777 169.615 592.207 169.615C593.637 169.485 595.002 169.485 596.302 169.615C597.732 169.745 598.642 170.135 599.032 170.785C599.552 171.435 600.202 171.89 600.982 172.15C601.762 172.41 602.542 172.67 603.322 172.93C604.232 173.06 604.947 173.19 605.467 173.32C606.117 173.45 606.507 173.71 606.637 174.1L610.537 181.315C611.057 181.965 611.967 183.07 613.267 184.63C614.697 186.06 616.582 188.075 618.922 190.675C623.602 196.135 626.007 198.93 626.137 199.06L625.552 205.885L609.952 210.37L604.297 208.615ZM732.943 86.35L741.328 89.665C741.328 91.615 741.263 93.37 741.133 94.93C741.003 96.36 740.743 97.725 740.353 99.025C740.093 100.065 739.378 101.82 738.208 104.29C737.168 106.63 736.323 109.685 735.673 113.455C735.543 114.365 735.088 115.34 734.308 116.38C733.528 117.42 732.618 118.46 731.578 119.5C730.668 120.54 729.693 121.645 728.653 122.815C727.613 123.855 726.768 124.895 726.118 125.935C723.648 131.135 721.503 135.36 719.683 138.61C717.863 141.86 716.563 144.525 715.783 146.605L714.613 149.53L713.638 154.99V161.23C713.638 161.88 713.638 162.595 713.638 163.375C713.638 164.155 713.703 165 713.833 165.91C713.833 167.73 713.638 169.81 713.248 172.15C712.988 174.36 712.598 176.635 712.078 178.975C711.688 181.185 711.298 183.265 710.908 185.215C710.648 187.035 710.518 188.53 710.518 189.7L712.858 201.205L710.908 206.665L689.653 211.54H688.288C687.768 211.54 687.118 211.605 686.338 211.735C685.688 211.735 684.908 211.735 683.998 211.735H681.658L675.417 206.08C676.198 205.3 676.588 203.415 676.588 200.425C676.588 199.125 676.653 198.215 676.783 197.695C677.043 197.175 676.913 196.265 676.393 194.965C676.263 194.185 676.328 192.625 676.588 190.285C676.848 187.945 677.303 184.76 677.953 180.73C678.213 178.65 678.343 176.57 678.343 174.49C678.473 172.28 678.538 170.33 678.538 168.64C678.538 166.82 678.408 165.39 678.148 164.35C678.018 163.18 677.758 162.595 677.368 162.595C677.108 162.335 676.848 162.01 676.588 161.62C676.458 161.23 676.263 160.84 676.003 160.45C675.613 159.8 675.093 158.955 674.443 157.915C673.793 156.875 673.078 155.64 672.298 154.21C670.868 151.74 669.698 150.05 668.788 149.14C668.008 148.23 667.228 147.58 666.448 147.19C665.798 146.67 665.018 146.215 664.108 145.825C663.198 145.305 661.963 144.265 660.403 142.705C658.973 137.115 656.503 131.85 652.993 126.91C649.613 121.97 645.908 117.225 641.878 112.675C639.148 109.685 637.133 107.085 635.833 104.875C634.663 102.665 633.168 100.845 631.348 99.415L630.568 90.64C631.738 89.86 633.038 89.34 634.468 89.08C635.118 88.95 636.093 88.69 637.393 88.3C638.823 87.78 640.253 87.26 641.683 86.74C643.243 86.09 644.608 85.44 645.778 84.79C646.948 84.14 647.663 83.49 647.923 82.84L654.553 83.035C655.723 84.075 656.698 84.985 657.478 85.765C658.388 86.545 659.168 87.39 659.818 88.3C662.028 91.03 664.693 92.98 667.813 94.15C667.813 96.23 668.203 98.115 668.983 99.805C669.893 101.365 670.673 102.73 671.323 103.9C672.233 105.07 673.208 105.915 674.248 106.435C675.418 106.825 676.393 108.19 677.173 110.53C677.173 110.79 677.043 111.31 676.783 112.09C676.523 112.87 676.133 113.715 675.613 114.625C675.223 115.405 674.768 116.185 674.248 116.965C673.858 117.615 673.468 117.94 673.078 117.94C672.688 117.94 672.688 118.07 673.078 118.33C673.598 118.59 674.313 118.915 675.223 119.305C676.263 119.695 677.368 120.215 678.538 120.865C679.838 121.385 681.073 122.035 682.243 122.815C682.243 123.075 682.113 123.4 681.853 123.79C681.723 124.05 681.723 124.44 681.853 124.96C682.113 125.48 682.568 126.13 683.218 126.91C683.998 127.69 685.363 128.73 687.313 130.03C689.133 131.46 690.108 132.63 690.238 133.54C690.368 134.32 690.238 135.1 689.848 135.88C689.458 136.53 689.198 137.245 689.068 138.025C688.938 138.805 689.458 139.78 690.628 140.95C691.408 141.73 692.513 142.185 693.943 142.315C695.373 142.315 696.738 142.185 698.038 141.925C699.468 141.535 700.703 141.015 701.743 140.365C702.913 139.715 703.563 139 703.693 138.22C704.213 136.53 704.668 134.97 705.058 133.54C705.578 131.98 706.098 130.68 706.618 129.64C708.308 128.21 709.413 126.975 709.933 125.935C710.583 124.895 711.233 123.465 711.883 121.645C712.663 119.955 713.248 118.395 713.638 116.965C714.158 115.535 714.548 114.755 714.808 114.625C715.718 112.025 716.888 109.295 718.318 106.435C719.878 103.445 721.113 100.325 722.023 97.075C722.673 94.865 723.258 92.85 723.778 91.03C724.428 89.21 724.883 87.715 725.143 86.545L732.943 86.35Z" fill="#403D3A"/>
</svg>
