<svg width="343" height="277" viewBox="0 0 343 277" fill="none" xmlns="http://www.w3.org/2000/svg">
<ellipse cx="170.5" cy="138.5" rx="161.5" ry="123.5" fill="#FDD9AD"/>
<path d="M188.64 69.0186C186.9 69.2015 184.98 67.8016 183.606 66.2884C183.178 65.8185 183.864 64.5031 183.577 64.1131C183.036 63.3584 182.154 63.8421 181.633 62.9845C181.463 62.6938 182.409 60.5653 182.214 60.3107C181.132 58.9285 179.661 59.1153 178.39 58.2426C176.518 56.9532 174.586 55.8051 172.624 54.7553C169.378 52.6683 164.863 51.2737 160.049 49.9137C157.778 49.2715 155.09 46.8529 152.45 47.479C152.142 47.5542 152.092 49.5881 152.017 49.7478C150.847 52.1898 151.599 48.1569 151.079 47.5517C149.111 45.2722 146.683 44.7336 144.41 45.1257C144.302 45.1452 144.194 45.1671 144.087 45.1911C143.114 45.4173 143.576 49.5252 142.907 47.1714C142.86 47.0122 143.345 44.9021 143.118 44.6444C142.608 44.0647 141.457 44.319 141.032 44.099C140.216 43.6643 140.064 43.669 139.25 43.5532C138.153 43.378 136.935 42.1688 135.685 42.5269C135.418 42.6097 135.523 44.8395 135.078 45.17C134.635 45.5 133.586 45.2031 133.275 44.6488C132.967 44.0944 133.296 42.3848 133.272 41.9829C133.09 38.5917 131.366 43.0902 131.204 43.1902C128.123 44.8571 125.883 42.0003 123.174 41.7994C121.121 41.6532 118.903 42.3833 117.021 42.1711C114.783 41.9112 112.92 40.6569 110.935 40.8815C110.727 40.9033 110.998 43.4939 110.758 43.526C109.977 43.6317 109.249 43.7012 108.741 43.6996C108.495 43.6973 108.302 43.6798 108.288 43.614C108.311 43.5256 108.362 43.4972 109.438 42.9781C108.402 43.068 107.381 43.0037 106.257 42.7919C105.954 42.7354 105.302 40.5281 104.932 40.3532C102.771 39.2598 97.8649 36.843 102.081 45.8914C100.915 46.1333 99.4997 46.5526 97.4827 45.4814C96.183 44.7935 95.4054 42.3364 95.2381 43.7135C95.201 44.0207 96.6151 45.6906 96.4711 46.013C95.863 47.3694 94.3118 47.5704 93.8964 49.2227C93.8188 49.5602 94.9845 51.1214 95.1247 51.4508C96.2385 54.1329 92.7256 50.8623 92.332 50.7222C89.4586 49.6327 88.9998 51.1889 87.6391 52.0886C87.3256 52.2946 89.211 54.1604 88.9642 54.435C88.0234 55.4388 86.9139 56.1969 85.5342 56.6324C85.0982 56.7177 84.6235 56.7539 84.1012 56.737C83.6948 56.7212 82.5362 54.7971 82.2654 54.705C81.0498 54.3568 83.6244 57.6898 82.5664 57.4015C82.3427 57.3493 81.1453 55.8632 80.9886 55.7219C78.4946 53.5346 81.3239 57.2598 81.3326 57.3915C81.3887 59.2521 77.3485 56.4186 76.9024 57.9242C76.8614 58.0997 78.8822 59.4623 78.6672 59.8468C77.2617 62.4095 75.0086 64.4037 71.7663 66.0938C71.2652 66.3598 69.8762 65.146 69.6692 65.0571C66.3875 63.7504 70.2703 66.3886 70.3516 66.6027C70.8532 68.2895 66.8022 67.5838 71.4051 70.8433C67.2855 74.7811 68.4892 80.8502 61.902 85.048C61.8229 85.1032 59.678 84.2505 59.5301 84.3621C57.6947 85.7582 61.2733 86.4 64.7847 89.4987C65.1521 89.867 64.3265 89.987 63.2465 89.9516C61.9207 89.706 60.1518 89.2732 59.9323 89.2271C58.5062 88.9246 55.4839 87.2793 55.1911 87.2589C52.8699 87.1514 63.3278 91.5277 62.9023 92.526C62.8715 92.55 61.011 91.5946 60.7842 91.5969C60.0732 91.6017 60.7225 92.1913 59.9519 92.1662C58.1699 92.1055 53.0152 90.1506 55.5723 92.3236C55.9052 92.6029 61.8929 94.9564 61.2184 95.7581C60.9462 96.0731 60.338 97.7593 59.7534 98.0542C59.1698 98.3505 57.4101 97.2024 57.3134 97.1997C54.2642 97.3308 53.4302 96.4041 49.4516 95.3715C45.4933 94.3282 54.3742 98.0788 55.2441 98.7699C56.1124 99.458 53.6447 99.4334 52.8292 99.3277C52.0132 99.2233 50.9378 98.4067 50.4451 98.4157C47.2185 98.4867 54.5414 100.965 55.736 102.031C58.5551 104.572 51.6994 102.358 50.6402 102.958C50.3527 103.122 51.919 103.619 51.9523 103.904C52.0568 105.037 49.8023 104.579 51.1573 106.466C51.3814 106.767 54.8395 109.477 51.7531 108.6C51.3093 108.471 49.8162 107.473 49.2759 107.664C48.4691 107.942 47.6241 108.757 47.8589 109.608C48.0309 110.242 50.9016 111.073 49.8075 111.211C49.3917 111.264 48.3903 110.375 47.6147 110.22C47.4794 110.192 47.3512 110.187 47.2344 110.212C46.4492 110.384 45.9328 111.557 45.7617 112.02C45.5909 112.485 47.6943 113.263 47.8096 113.367C48.4636 113.974 48.988 115.302 48.948 115.373C47.2659 119.232 42.1588 120.909 41.3631 125.097C41.2984 125.423 43.4759 126.327 43.4875 126.388C43.852 127.809 38.7274 124.141 36.5209 123.848C40.7906 125.966 39.8138 125.97 39.9198 126.891C39.9746 127.336 41.7007 128.018 41.8521 128.135C44.0796 129.92 40.6918 128.585 39.992 128.325C37.4118 127.38 40.0756 129.228 38.3509 128.596C36.6373 127.971 34.534 126.217 34.2186 126.889C35.6302 127.869 39.8309 129.458 40.2065 130.295C41.6365 133.442 36.7077 135.29 35.5994 136.619C34.4904 137.95 34.5147 138.584 33.5206 139.156C31.7057 140.228 34.9468 141.164 35.7855 142.836C36.6372 144.485 29.6405 140.302 28.0143 139.638C26.3867 138.98 27.908 139.958 26.9642 139.692C26.0206 139.426 25.1545 138.508 24.6248 138.751C24.0922 138.998 26.2964 141.527 27.8537 142.502C31.1612 144.549 35.0374 145.89 33.2404 146.288C33.1338 146.311 31.319 145.156 31.0077 145.296C28.6239 146.409 27.5657 148.286 25.5809 149.523C25.3082 149.699 23.1193 148.736 22.9277 148.856C22.7006 149.001 22.5392 149.203 22.4654 149.354C21.9157 150.44 25.5214 150.839 29.2754 152.263C23.4806 151.003 19.7846 150.871 19.5506 152.404C19.4215 153.301 22.0186 153.429 23.7907 154.099C24.3254 154.289 22.5109 154.729 23.7223 154.908C27.6848 155.448 32.1484 155.226 30.3411 156.211C30.2557 156.259 28.0791 156.051 27.9435 156.224C27.0683 157.394 31.2389 157.469 31.8062 158.497C32.2472 159.282 29.9248 161.178 29.7435 162.389C23.1768 163.583 24.9368 164.577 29.5162 163.937C29.501 164.703 29.9564 165.407 29.5518 166.286C29.4153 166.59 27.5165 166.978 27.3252 167.068C24.3386 168.511 28.7275 167.549 28.941 167.641C31.1 168.794 28.4751 171.428 32.2243 171.806C32.3608 171.822 36.6606 170.097 33.7285 171.843C33.5284 171.967 31.3578 172.258 31.54 173.091C31.7129 173.907 30.1411 176.441 32.6029 176.596C33.1967 176.638 36.8853 175.621 34.5124 177.449C34.19 177.697 32.9614 178.211 32.3502 178.643C31.4934 179.252 31.8464 179.223 32.22 179.183C32.6816 179.105 33.1368 178.934 31.3077 180.219C27.9815 182.444 26.4115 185.532 29.5178 184.898C29.619 184.893 32.595 182.658 32.7929 182.949C33.1206 183.438 33.2422 184.61 33.7614 185.015C34.0101 185.208 35.3353 183.31 35.4034 183.313C37.6521 183.489 37.5615 185.9 39.0642 187.815C39.3548 188.179 41.8324 185.96 41.3654 188.511C40.9069 191.326 34.9397 201.011 38.2431 199.617C39.6396 199.085 46.3982 186.395 44.7816 193.787C47.9956 193.218 49.2175 197.348 52.5254 196.263C52.6472 196.327 53.0291 196.338 53.1657 196.355C53.28 196.269 53.3927 196.173 53.5032 196.068C53.6582 195.943 53.7634 191.92 53.999 191.95C54.3823 192 54.8474 193.827 55.182 193.902C56.5998 194.256 57.3889 192.405 58.5952 192.275C59.0652 192.215 59.5281 194.104 60.1328 194.005C60.7502 193.893 60.1632 191.388 61.3416 192.228C62.2266 192.872 64.9782 197.351 66.0867 197.488C63.8726 192.848 64.4335 192.698 64.6618 191.045C64.7017 190.726 63.6919 189.236 63.6661 189.004C63.533 188.031 64.5157 189.185 64.3212 188.146C64.2741 187.897 63.4272 186.359 63.3379 186.07C62.5309 183.563 65.2446 186.556 65.7414 187.062C67.5839 189.01 66.6807 186.891 67.6078 187.537C68.5434 188.176 68.5861 189.646 69.3848 189.897C70.5609 190.267 71.4678 189.864 72.2372 189.453L71.7257 189.671C71.9894 189.602 72.2668 189.53 72.5469 189.499C72.9375 189.447 72.2551 187.191 72.3002 187.13C73.1721 186.37 74.4401 188.745 74.4224 184.044C76.5098 195.948 74.8755 182.82 76.4835 185.038C76.608 185.218 77.5846 190.844 77.2433 191.738C76.8958 192.632 75.9911 190.947 75.5663 192.312C75.4519 192.634 75.3306 198.034 75.3073 198.365C75.0046 200.954 73.7967 192.518 73.6555 192.064C72.4079 187.133 72.6855 192.966 72.878 193.341C72.8828 193.438 72.8887 193.526 72.8954 193.607L74.2631 193.025C74.1732 194.739 72.8821 194.334 72.7064 195.874C72.5791 196.928 75.3603 201.774 74.7953 201.907C72.8356 202.39 68.5918 195.845 70.0577 202.7C70.3443 204.169 73.4745 209.443 69.8715 205.86C69.6234 205.646 66.7368 202.152 67.2227 204.966C67.2807 205.323 67.9905 206.955 67.9357 207.141C67.5414 208.361 66.4826 207.263 65.8426 208.229C65.1989 209.196 64.3454 210.558 63.0191 210.313C62.2075 210.175 60.5024 207.186 60.0237 206.464C58.67 204.386 58.4508 208.328 57.3957 205.631C56.4517 202.898 56.6108 198.506 55.2678 196.844C55.8482 201.431 56.3509 206.151 56.8259 210.777C55.803 210.862 54.7543 210.807 53.7009 210.667C52.4814 210.514 49.0717 210.419 47.9843 209.846C46.5482 208.857 45.2024 207.582 43.5229 207.105C43.2326 207.027 42.6352 209.459 42.3006 209.435C40.8679 209.31 40.4082 207.217 38.8012 207.302C37.5548 207.376 35.311 209.258 33.8583 209.304C35.424 204.196 33.0265 205.02 32.0038 203.915C31.6528 203.536 32.359 202.311 32.2849 201.743C32.0002 199.63 30.2172 203.988 29.5268 204.442C26.4798 206.296 31.8229 197.169 30.2399 196.445C30.1862 196.427 25.9526 200.363 25.5616 200.511C23.2296 201.652 26.5465 198.803 26.2004 198.032C25.563 196.598 25.7446 195.034 23.3636 195.107C22.6965 195.166 19.2066 196.696 20.3866 193.956C20.547 193.604 21.9778 192.406 21.982 192.249C22.0177 189.541 17.4645 193.184 14.8796 193.01C12.6875 192.832 13.7146 189.446 14.7264 187.929C14.9575 187.732 15.1629 187.567 15.3131 187.453C16.8551 186.28 16.9886 186.517 16.945 186.819C17.0042 187.166 17.0113 187.531 17.1195 187.502C19.2248 186.908 19.5503 186.231 19.4629 185.561C19.5005 185.312 19.3634 185.089 19.3637 184.825C24.4696 182.193 23.8075 181.628 19.3462 184.145C18.8605 184.423 19.5448 184.6 19.3637 184.825C14.0871 186.87 12.9893 186.275 17.2914 183.056C19.3128 181.553 22.1098 180.752 20.5436 179.872C19.8359 179.465 16.3416 181.337 15.1016 181.207C12.2584 180.878 14.9133 177.665 13.8418 176.47C13.447 176.022 11.6144 177.298 11.2718 177.009C10.3503 176.219 11.5742 174.804 10.4503 174.045C10.3452 173.975 8.26671 174.912 8.13196 174.591C7.06708 172.132 7.84752 169.458 7.34248 166.619C7.08927 165.263 5.48159 162.858 5.60878 161.269C5.77591 158.485 9.08039 155.274 8.47481 153.039C8.09146 151.533 5.81647 151.616 4.35778 150.756C1.53719 148.992 7.26398 147.452 8.13246 147.412C8.15678 147.411 8.44197 148.781 9.71237 148.322C12.1651 148.402 8.13852 147.436 8.13246 147.412C8.39324 147.372 8.74999 146.834 9.04678 146.214C9.73709 144.152 10.1144 143.493 10.0226 143.031C9.92322 142.63 7.85516 142.025 7.84188 141.83C7.50092 137.558 8.1109 135.248 10.1514 133.396C10.2103 133.375 12.3241 134.519 12.4357 134.458C14.0276 133.678 11.8322 131.523 10.8072 129.706C9.793 127.871 10.7351 127.329 14.695 128.655C14.6354 127.647 16.8136 127.42 18.1173 127.317C19.4187 127.219 15.3278 124.952 15.2745 124.855C13.5444 121.788 16.436 122.044 17.7173 120.507C18.3387 119.77 18.5987 117.822 18.6179 116.688C18.6278 115.785 19.8141 115.884 19.5393 114.9C19.503 114.768 17.6129 113.889 17.5561 113.825C15.7314 111.942 20.0537 114.659 20.937 114.932C24.1451 115.933 25.8873 116.403 24.9932 114.759C24.7893 114.381 18.6224 110.359 18.4477 109.768C18.2298 109.011 20.457 110.421 20.1688 109.599C20.1463 109.529 18.7047 108.789 18.9385 108.495C20.0055 107.122 21.6965 105.914 22.3682 104.263C22.4644 104.042 20.0397 103.134 20.141 102.796C20.623 101.201 21.5269 99.6519 23.3189 98.7915C23.7684 98.5808 25.2588 99.6194 25.7734 99.7869C26.9511 100.167 27.1358 100.002 26.9082 99.6429C26.5261 99.0649 25.0193 97.9678 25.0015 97.8796C24.2135 94.4382 28.9404 94.4531 28.2851 91.0815C28.2433 90.8918 24.1501 87.7473 28.2855 89.089C28.5609 89.1779 32.796 90.5434 30.2321 88.8791C30.071 88.7766 27.8683 88.1263 28.3062 87.7198C28.746 87.3077 27.7173 85.8845 30.3159 86.1852C31.135 86.2791 35.4112 87.5059 32.4872 85.4161C32.2835 85.2703 25.4438 81.067 30.645 82.8486C31.5007 83.1427 36.803 85.4997 34.4334 83.4776C33.973 83.0877 32.657 82.8736 32.0977 82.1268C31.2352 80.9772 33.0432 80.7001 31.0362 78.824C30.6789 78.4965 27.34 76.2928 30.3128 76.9499C30.778 77.0535 32.4873 77.9803 32.8065 77.7892C33.1827 77.566 33.4323 77.2799 33.6231 76.9616C33.5115 77.4037 33.4906 77.2551 33.5844 77.0517C33.686 76.834 33.929 76.5265 34.5452 76.2728C35.1183 76.0397 38.0241 77.2264 38.9678 77.0419C39.9075 76.8685 40.9886 76.1522 39.8019 75.1785C38.6178 74.1951 33.681 73.2329 33.5663 72.3036C33.1037 68.1566 37.2928 65.1134 39.3763 61.3553C39.6892 60.7918 37.8343 60.5773 38.1897 59.6812C39.4236 56.4151 41.0262 49.7298 46.062 48.9077C50.014 48.3309 50.2593 52.278 52.3205 51.3354C53.2804 50.9281 49.0217 46.8671 49.0161 46.5522C48.7963 43.5901 51.8581 43.7799 52.5424 41.6625C52.6913 41.2172 50.5879 40.0788 50.7423 39.7081C51.2698 38.4112 52.9745 38.037 53.6905 36.9617C54.0066 36.4783 52.613 35.3407 53.0838 35.0368C54.1978 34.2979 55.5556 33.9926 57.6173 34.3379C57.8006 34.374 58.8284 36.4885 59.5393 35.9167C60.6996 34.9778 63.1169 35.0353 63.3252 32.645C63.3808 31.9337 60.8439 28.6983 63.4885 30.2241C64.0472 30.5417 66.8042 34.6305 65.2347 30.4754C65.1314 30.191 64.7837 29.035 64.656 27.9117C64.2594 26.4431 64.1762 25.1312 65.8047 26.6536C66.5344 27.3284 69.3077 30.3002 69.2799 29.5386C69.2676 29.4227 67.7894 27.7705 67.9499 27.3894C68.5494 26.0696 69.7642 25.4875 70.4293 24.1667C70.6085 23.8077 68.8563 22.254 69.166 21.7781C70.0109 20.47 71.837 19.8963 73.4555 19.6463C74.0473 19.5628 74.8166 21.3285 74.9645 21.4762C77.3878 23.8685 75.1302 19.9422 75.156 19.6056C75.3684 17.5512 77.3969 18.7428 78.1431 17.5782C78.3519 17.2621 76.9625 15.5991 76.9154 15.4002C76.5128 13.421 78.1676 16.9594 78.7896 17.0621C80.5365 17.3634 81.6852 16.4282 82.7533 15.4567C83.1454 15.0969 81.3467 13.2678 81.72 12.9663C83.9091 11.1368 87.015 9.69459 90.475 9.60682C91.1233 9.59653 91.5909 11.4989 91.8857 11.8462C93.8946 14.2998 93.2618 10.0077 93.3795 9.52534C93.8304 7.35644 94.9312 8.74834 95.7763 8.07699C95.8157 8.04561 95.8552 8.01446 95.895 7.98356C101.748 5.54904 103.237 5.61484 105.39 5.21568C107.332 4.9517 108.879 4.92666 110.327 4.99168C113.199 5.13058 115.609 5.6638 117.646 6.09458C122.964 7.23525 126.642 9.37513 131.386 9.32317C131.689 9.32301 131.618 6.7485 131.884 6.71587C135.285 6.40968 138.412 7.73517 141.775 7.36001C142.053 7.33406 141.924 4.88102 142.381 4.75863C143.296 4.4881 144.43 4.74782 145.221 5.6172C145.613 6.03728 144.796 8.03783 145.194 8.4184C146.13 9.31042 147.184 9.60691 148.28 9.34513C148.748 9.22865 148.363 6.68616 148.95 6.72693C148.956 6.72726 148.961 6.72759 148.967 6.72792C152.611 6.91311 156.374 6.89132 160.02 10.5413C160.27 10.7923 159.927 15.8257 160.623 14.9347C160.831 13.551 161.022 11.9169 161.217 10.4347C167.17 10.3439 173.108 12.8322 180.099 14.7247C180.4 14.8066 180.481 12.0822 181.077 12.2308C182.052 12.4747 183.065 12.679 184.082 12.938C185.973 13.4065 187.806 14.0816 189.23 16.4612C189.431 16.7881 188.017 21.2692 188.994 20.8087C189.157 20.7201 190.533 20.4624 191.116 19.5693C191.201 19.4338 191.586 17.2632 191.995 17.3145C194.334 17.6427 196.544 18.8171 198.427 20.7927C198.721 21.113 197.653 23.2282 197.863 23.4776C199.334 25.224 201.871 24.1601 203.054 26.7843C203.84 28.55 202.101 32.2254 201.458 36.2029C201.356 36.7594 202.097 37.1129 201.364 39.3072C199.472 44.8034 197.038 50.6923 195.076 56.5705C194.854 57.1992 195.064 57.2483 194.922 57.4207C194.891 57.465 194.79 57.4988 194.642 57.5432C194.487 57.5874 193.907 57.4715 193.56 57.486C193.189 57.4912 193.807 58.0397 194.053 58.4328C194.212 58.6475 194.183 58.7965 194.197 58.9821C194.202 59.1633 194.179 59.3507 194.124 59.5456C194.2 59.803 193.416 60.6576 192.925 61.6465C192.592 62.3317 191.974 64.6054 191.488 65.4618C191.016 66.3223 191.443 64.3858 190.767 65.359C190.071 66.341 189.386 68.9305 188.64 69.0186ZM23.9525 126.848C26.2359 127.332 19.0041 123.412 20.4232 124.94C20.5005 125.019 23.8398 126.825 23.9525 126.848ZM47.9132 201.891C48.2959 198.176 45.8912 202.972 45.5366 205.827C45.2142 208.688 47.8091 203.021 47.9132 201.891ZM61.1322 199.041C59.1956 196.664 62.2645 207.922 63.0654 205.191C63.114 205.035 61.2528 199.176 61.1322 199.041ZM198.242 36.3302C198.215 36.4362 198.692 36.7023 198.739 36.6038C199.82 34.2078 198.853 33.6735 198.242 36.3302ZM68.5599 192.366C67.5036 191.156 67.6132 193.187 68.9228 194.7C69.9939 195.908 69.8916 193.862 68.5599 192.366ZM47.0005 101.263C47.1159 101.306 47.3749 101.016 46.7449 100.728C44.7168 99.797 45.0661 100.531 47.0005 101.263ZM81.5885 188.504C79.0472 188.667 76.3583 179.319 78.4664 180.01C78.8799 180.122 78.3209 183.184 78.972 183.933C80.2905 185.267 79.3644 179.264 81.0806 182.146C81.4449 182.662 81.7792 188.509 81.5878 188.518C81.588 188.513 81.5883 188.509 81.5885 188.504ZM32.8631 131.13C32.9649 131.17 33.2961 130.763 33.2068 130.701C31.027 129.237 30.358 130.057 32.8631 131.13ZM60.1994 83.0187C60.4338 83.0472 61 82.0101 60.8131 81.8958C56.9487 79.9736 55.7701 82.1313 60.1994 83.0187ZM29.5721 162.44C32.2425 162.419 32.6423 162.803 29.5189 163.934C29.5792 163.421 29.5037 162.942 29.5721 162.44Z" fill="#CA9C65"/>
<path d="M208.685 26.8454C213.666 27.296 219.838 29.587 224.445 31.8419C225.886 32.5443 224.747 33.7588 225.739 34.3121C227.651 35.3868 229.761 35.1978 231.657 36.4033C232.272 36.8073 230.834 38.8123 231.493 39.1849C235.17 41.2376 238.98 41.672 243.282 43.584C244.423 44.0956 245.576 44.6198 246.927 45.261C248.341 45.9629 249.571 46.448 252.548 48.2677C264.541 57.0593 266.773 64.3036 271.033 70.415C276.934 80.0738 281.61 88.8698 286.525 98.2347C287.34 99.8024 288.094 101.528 288.834 103.317C290.903 108.292 292.808 113.748 295.737 117.934C296.204 118.597 297.782 117.239 298.001 117.298C301.386 118.28 297.38 119.44 297.607 121.082C298.517 127.589 301.264 133.875 304.409 138.535C304.65 138.889 304.928 139.05 305.217 139.098C306.692 139.635 308.105 137 307.597 140.339C307.549 140.609 305.25 140.733 305.398 141.634C305.768 143.669 307.363 147.156 307.575 148.737C307.99 151.743 308.098 152.225 308.487 155.034C308.968 158.917 307.936 163.45 307.934 167.456C307.937 168.337 310.278 167.441 310.461 168.914C310.669 170.405 309.718 174.13 308.862 175.209C308.033 176.294 306.501 175.301 306.061 175.408C302.431 176.111 305.428 181.379 305.235 182.051C304.553 185.1 303.526 187.682 301.19 190.848C300.203 191.772 297.128 196.205 295.054 201.194C294.415 202.716 293.787 204.316 293.137 205.937C291.109 210.975 288.01 215.866 284.761 219.177C279.345 224.648 274.175 227.099 269.401 231.161C268.891 231.585 271.1 233.15 270.486 233.667C267.861 235.871 265.241 237.912 262.53 239.838C255.253 244.979 248.601 245.871 242.78 246.092C241.812 246.106 242.554 243.634 241.579 243.508C235.565 242.815 227.157 239.118 225.013 249.287C223.036 249.261 220.852 249.24 218.755 248.931C216.926 248.7 215.151 248.248 213.625 247.44C211.418 246.254 213.386 243.692 210.83 244.842C210.246 245.095 211.08 247.246 210.188 247.459C206.404 248.348 202.261 247.541 198.376 248.355C197.587 248.526 197.628 250.481 197.374 250.812C195.189 253.486 192.519 248.424 191.941 247.987C188.094 245.353 184.933 244.969 181.316 244.157C180.857 244.068 180.307 243.971 179.694 243.841C178.943 243.685 179.35 246.419 178.633 246.37C174.843 246.097 169.934 245.556 165.329 244.175C164.297 243.863 165.36 241.682 164.868 241.419C162.683 240.29 162.025 244.477 159.918 243.494C159.471 243.292 159.79 241.395 159.714 241.183C158.524 237.853 157.238 242.475 156.904 242.568C156.21 242.775 155.562 242.82 154.94 242.75C150.084 242.318 147.277 238.071 143.399 236.993C142.805 236.822 143.098 239.605 141.463 238.968C135.774 236.66 131.329 233.603 127.198 230.313C122.734 226.754 119.783 222.964 117.203 219.115C116.363 217.842 118.405 217.33 118.496 217.105C119.935 213.59 115.918 216.157 115.451 215.925C111.906 214.056 112.453 208.835 106.671 210.784C105.201 208.725 103.649 206.769 102.136 205.08C96.5951 198.834 89.3377 193.538 83.6213 185.619C79.7446 180.355 78.9479 175.345 78.7581 170.763C78.7472 170.548 81.0493 170.168 81.0202 169.747C80.7726 164.757 77.6658 166.701 72.5555 164.922C71.2767 164.476 75.6732 160.714 75.9822 160.402C77.1304 159.263 80.6396 159.026 80.8307 158.702C82.2868 156.031 71.554 159.664 70.7269 157.096C70.7183 157.008 72.8143 156.708 72.9406 156.425C73.2027 155.837 72.8518 155.462 72.7138 155.014C72.6225 154.724 72.5917 154.414 72.7359 154.057C73.736 151.567 78.9387 149.841 75.3075 147.779C74.8545 147.486 68.5347 149.165 68.451 145.903C68.3617 144.614 68.1124 139.085 68.6779 137.63C69.1768 136.164 71.1876 137.317 71.283 137.209C74.2979 133.633 75.3362 135.193 79.5536 133.957C83.7759 132.869 74.1781 131.964 73.2272 131.049C72.2749 130.12 74.9827 127.887 75.8835 127.448C76.7805 126.985 77.9131 128.018 78.4605 127.564C82.0636 124.623 74.1267 124.966 72.9033 123.417C70.9827 120.954 73.7018 119.919 76.0749 118.848C77.2868 118.169 78.4322 117.57 78.9307 116.767C79.343 116.108 77.6013 116.193 77.6761 115.489C78.0504 112.664 80.7081 112.124 80.1784 108.556C80.0737 107.998 77.4473 103.731 80.9943 103.895C81.4981 103.93 82.7394 105.345 83.6307 104.595C84.9631 103.47 86.8059 101.236 87.2586 99.468C87.5905 98.161 84.3276 97.7744 85.9899 96.9179C86.726 96.5501 87.4191 98.5999 88.6781 97.8397C89.9277 97.0823 91.7969 94.2844 92.5039 93.2154C93.201 92.1485 90.992 91.4038 90.9301 91.2331C90.6041 90.2138 91.213 87.5817 91.3515 87.4048C92.2364 86.1551 93.1813 84.9743 94.1662 83.843C100.844 76.1387 109.697 71.9709 117.852 66.6944C118.614 66.2103 117.042 64.3697 117.148 64.2741C119.595 62.0199 120.032 68.7085 122.715 69.7907C120.533 65.551 122.003 65.8151 123.807 64.5745C124.687 63.9746 123.528 62.4379 123.55 62.2279C124.121 59.0363 126.367 62.1286 126.829 62.7587C127.173 63.1982 127.45 63.4307 127.683 63.5299C128.662 63.9487 128.931 61.98 129.856 63.2521C130.966 64.8239 130.245 67.7887 132.065 67.2694C132.174 65.4803 129.608 61.5371 130.929 60.4537C136.116 56.083 148.196 58.6316 152.69 59.6234C157.376 60.3986 158.908 60.4331 161.451 61.5552C165.94 63.6955 164.956 60.0973 168.335 59.4196C171.713 58.8007 167.994 66.2097 167.921 68.0063C167.815 69.7968 168.748 68.1963 168.952 69.2623C169.149 70.3259 167.781 71.1534 168.785 71.8359C169.409 72.2601 171.184 71.6415 172.683 70.7353C173.565 70.1764 174.382 69.5435 174.773 68.951C177.005 65.672 176.893 61.1745 179.895 64.0128C180.053 64.1782 178.549 65.8419 179.183 66.3716C184.231 70.5234 188.543 74.612 191.559 79.4732C191.961 80.1401 189.828 81.3933 190.041 81.7994C192.23 86.0483 193.872 82.0579 198.81 80.6746C194.222 84.4786 192.637 88.0193 195.048 90.4927C196.498 91.9817 198.088 89.9064 200.328 89.5667C200.511 89.5394 200.629 89.6874 200.726 89.9063C200.985 90.4943 201.066 91.5879 201.839 91.1052C205.307 88.9628 207.522 84.814 208.815 88.7406C208.865 88.9162 206.928 90.0405 207.214 90.5362C209.028 93.746 212.398 91.2491 215.406 93.9379C217.774 96.0545 219.301 101.995 221.016 105.163C215.572 109.004 218.572 110.632 223.214 109.417C224.319 111.559 225.888 113.738 226.259 116.655C226.372 117.675 224.322 117.635 224.165 117.823C224.069 117.919 223.982 118.01 223.903 118.096C221.796 120.151 226.005 120.07 226.285 120.587C229.035 126.15 225.586 130.604 228.599 135.899C228.705 136.082 233.313 136.739 229.821 137.89C229.581 137.948 227.629 136.086 227.254 138.479C226.875 140.919 223.823 144.933 225.28 148.559C225.641 149.422 228.884 152.295 225.624 153.248C225.184 153.369 223.95 152.822 223.157 152.951C220.634 153.339 225.023 155.076 220.872 155.162C216.706 155.265 213.308 156.417 214.799 160.172C214.824 160.249 216.155 161.116 216.973 161.985C217.425 162.472 217.713 162.966 217.544 163.296C216.789 164.789 215.012 166.454 214.114 167.868C213.685 168.55 215.89 169.388 215.848 169.529C213.614 175.109 209.024 176.81 203.892 179.647C202.989 180.146 202.12 184.598 198.974 183.595C195.601 182.434 191.803 171.618 189.102 176.183C188.069 177.965 191.931 192.066 185.287 186.973C184.58 187.551 183.859 188.051 183.107 188.531C180.756 190.072 178.001 190.483 175.313 190.553C173.072 190.506 170.696 189.077 167.387 188.015C167.1 187.938 163.675 190.291 163.07 189.646C162.214 188.72 163.099 186.933 162.627 186.248C161.463 184.498 159.912 183.25 158.466 181.836C157.473 180.857 156.584 179.765 156.047 178.448C155.561 177.211 157.501 176.827 157.063 175.446C156.673 174.101 153.89 173.795 154.651 171.461C155.25 169.667 160.243 167.64 160.775 166.01C155.647 166.201 155.639 164.871 154.408 162.329C154.172 161.833 152.357 162.253 152.153 162.008C151.29 160.969 152.846 160.203 151.951 159.184C151.737 158.934 149.995 158.717 149.724 158.491C147.348 156.489 151.736 154.452 152.494 154.223C155.386 153.117 153.335 151.902 154.651 150.901C155.96 149.962 156.734 152.067 157.703 150.847C159.653 148.41 160.578 144.971 161.676 142.146C161.672 142.16 161.668 142.174 161.665 142.186C161.603 142.309 161.218 141.844 160.773 141.462C160.334 141.066 159.775 140.803 159.805 140.726C160.124 140.075 160.896 139.767 161.558 139.735C163.342 139.699 164.011 140.816 167.19 139.156C163.765 144.223 163.915 143.998 165.472 143.488C166.965 142.918 169.662 141.931 169.813 144.095C169.835 144.441 165.546 148.222 164.23 147.896C162.944 147.608 163.312 145.2 161.699 145.45C161.525 145.485 160.245 146.247 159.483 147.456C158.645 148.628 158.776 150.338 158.989 150.585C159.62 151.544 160.981 151.778 161.87 151.368C162.793 150.972 163.277 150.065 163.414 149.116C163.816 147.079 162.865 144.87 162.843 144.636C162.558 143.458 162.205 142.961 162.117 142.783C162.016 142.602 162.244 142.698 162.713 142.516C163.173 143.674 164.486 145.02 164.573 145.402C165.33 148.72 163.504 150.54 164.183 153.071C164.631 154.706 170.048 156.105 169.668 157.028C168.495 159.898 160.55 160.662 167.186 163.963C168.629 164.599 174.691 163.988 169.965 165.866C169.653 165.909 165.415 167.873 168.309 168.213C168.67 168.244 170.42 167.922 170.586 167.996C171.661 168.458 170.393 169.211 171.248 169.63C172.107 170.032 173.238 170.062 172.982 170.802C172.904 171.046 172.146 171.775 171.431 172.573C170.897 173.399 170.349 174.211 170.157 174.586C168.998 176.939 172.704 175.39 171.005 177.731C169.406 180.196 165.087 181.907 165.293 184.811C168.676 181.658 172.183 178.458 175.539 175.238C176.368 176.184 177.021 177.061 177.113 177.473C177.214 177.981 176.475 177.444 173.441 177.87C173.865 177.841 174.217 177.781 174.532 177.676C174.785 177.584 173.952 175.23 174.143 175.082C174.614 174.688 175.279 175.152 176.109 175.061C177.494 174.521 178.521 174.099 179.435 173.393C181.45 171.826 182.367 168.471 183.821 166.95C187.407 171.053 189.226 167.968 191.119 167.262C191.796 167.009 192.555 168.199 193.246 168.279C195.832 168.521 192.31 165.288 192.262 164.41C191.834 160.758 198.731 168.833 200.613 166.67C200.767 166.515 197.754 161.494 197.548 161.177C196.576 158.799 199.165 162.318 199.992 161.978C201.473 161.36 203.268 161.161 202.66 158.895C202.506 158.172 199.769 155.82 202.568 156.155C202.775 156.173 203.394 156.418 203.926 156.624C204.35 156.787 204.719 156.925 204.783 156.896C207.285 155.513 201.789 153.377 200.265 151.665C198.737 149.959 203.145 149.133 204.388 148.957C207.592 148.58 205.419 150.131 205.685 150.26C208.89 151.896 208.734 150.181 209.314 149.012C214.946 150.179 215.031 148.231 209.889 147.79C209.329 147.738 209.63 148.827 209.314 149.012C204.096 146.596 203.746 144.868 209.303 143.681C211.9 143.106 214.611 144.538 214.041 141.207C213.765 139.705 209.771 139.742 208.844 138.423C206.718 135.495 210.608 132.31 209.972 129.634C209.74 128.707 207.597 129.654 207.362 129.053C206.726 127.521 208.221 126.035 207.194 124.929C207.1 124.843 204.906 125.453 204.822 125.141C204.674 124.644 204.599 124.257 204.606 124.035C204.813 124.457 204.854 124.198 204.808 123.84C204.759 123.462 204.628 122.927 204.43 122.333C204.027 121.132 203.378 119.72 202.398 118.319C201.199 116.573 197.731 114.184 196.389 112.224C194.117 108.856 192.953 102.824 189.844 100.77C189.82 100.753 189.795 100.736 189.771 100.72C187.568 99.2367 186.357 101.231 184.487 101.542C180.838 102.118 182.052 95.7488 182.284 94.814C182.29 94.7802 184.192 95.9188 184.2 94.2854C185.435 92.0935 182.306 94.8215 182.284 94.814C182.424 94.1871 179.803 90.9131 178.957 90.7346C178.486 90.6188 177.194 92.351 176.981 92.2659C174.47 91.24 172.422 90.3301 171.033 89.681C169.613 89.0188 168.924 88.5384 167.818 87.605C167.786 87.5476 168.655 85.3066 168.556 85.1958C168.441 85.0617 168.315 84.9553 168.179 84.8741C165.507 83.6057 162.93 85.5368 160.444 86.5158C157.731 87.5886 156.43 86.7182 155.911 82.4254C154.223 82.6292 152.254 80.5451 150.965 79.3521C149.661 78.1551 149.294 82.8378 149.19 82.923C145.837 85.8061 144.052 83.2462 140.276 83.4458C138.805 83.5185 136.219 84.5805 134.394 85.6221C134.088 85.8058 133.806 85.9874 133.566 86.1538C132.405 86.9771 131.239 86.2554 130.352 87.4009C130.237 87.5537 131.227 89.393 131.213 89.4867C131.068 92.2823 129.503 87.4091 128.853 86.7068C126.476 84.1824 124.861 83.0017 123.9 85.3702C123.625 85.9436 126.502 92.7933 126.249 93.496C125.839 94.446 124.582 92.1124 124.169 93.2116C124.134 93.3044 125.123 94.5831 124.624 94.8814C122.332 96.2734 119.415 97.8194 117.547 100.408C117.292 100.752 119.633 101.938 119.318 102.441C119.221 102.597 119.121 102.755 119.02 102.914C116.88 106.082 114.401 109.169 111.553 111.319C110.794 111.885 109.629 110.404 109.077 110.263C105.709 109.452 108.687 113.471 108.63 113.728C107.23 119.819 101.734 122.309 102.621 125.159C102.609 125.453 102.604 125.749 102.607 126.047C102.606 126.563 106.778 130.744 102.32 130.919C102.024 130.925 97.4306 131.223 100.199 132.811C100.375 132.901 102.733 132.684 102.282 133.795C101.829 134.936 103.075 136.759 100.472 137.774C99.6519 138.049 95.1521 138.923 98.6517 140.19C98.8881 140.457 106.85 141.446 101.434 142.214C100.546 142.345 94.7439 142.909 97.8648 143.734C98.4675 143.849 99.6881 143.306 100.567 143.656C101.635 144.035 101.046 144.864 102.124 145.179C102.535 145.644 103.049 146.059 103.731 146.422C104.307 146.71 108.668 147.424 106.252 149.75C105.873 150.111 103.892 150.255 103.913 151.068C104.003 154.938 106.225 158.026 105.82 161.098C105.68 162.172 102.551 162.695 102.089 163.93C101.619 165.161 101.559 167.19 103.128 167.122C104.648 166.974 108.962 164.44 109.43 164.475C109.699 164.407 109.672 163.997 109.185 163.326C112.922 167.106 116.474 173.108 122.175 179.203C123.148 180.254 123.558 178.143 125.095 179.626C125.557 180.073 126.053 180.542 126.58 181.039C133.05 187.309 140.138 193.658 141.045 199.244C141.827 204.154 136.592 202.423 138.015 205.437C138.775 206.936 143.594 203.391 143.868 203.373C144.725 203.424 145.248 203.588 145.54 203.777C147.598 205.165 148.653 207.333 150.864 208.022C151.48 208.208 152.194 205.888 152.686 206.055C154.342 206.587 155.178 208.217 155.965 208.352C156.298 208.398 156.94 206.717 157.01 206.894C157.188 207.272 156.244 207.799 155.899 209.48C155.91 209.635 155.644 211.855 155.717 211.944C155.738 211.958 155.767 211.988 155.811 212.028C158.313 212.447 161.251 213.726 164.159 212.299C165.118 211.822 165.33 207.719 167.265 210.647C167.679 211.261 166.854 216.149 169.5 212.026C169.9 211.333 174.514 205.859 176.456 209.764C176.96 210.787 178.013 214.937 179.381 214.461C179.576 214.382 179.099 212.105 180.243 212.025C182.931 211.894 185.758 212.204 189.68 213.047C190.441 213.153 191.234 213.215 192.053 213.153C192.689 213.099 192.304 210.682 193.206 210.662C195.671 210.601 198.687 211.608 201.221 212.515C202.157 212.854 201.36 214.689 201.411 214.9C202.345 218.322 203.335 213.847 203.7 213.6C206.102 212.126 207.88 214.249 210.132 213.62C210.741 213.45 210.229 211.313 210.344 211.117C211.51 209.194 210.74 213.095 211.564 213.485C212.852 214.091 214.231 214.242 215.594 214.158C216.958 214.066 218.275 213.843 219.528 213.602C220.547 213.402 219.157 211.025 220.075 210.874C225.476 209.934 230.735 209.603 234.794 210.216C235.555 210.335 235.484 212.308 235.719 212.709C237.445 215.502 237.887 211.074 237.972 210.631C238.605 208.565 239.401 210.069 239.771 209.581C240.03 209.154 239.84 208.936 239.129 209.31C245.594 203.678 253.476 198.708 257.301 195.686C260.018 193.525 261.117 192.828 262.283 191.527C265.314 187.092 265.688 183.882 272.264 172.117C273.114 170.811 270.092 170.697 270.862 169.491C271.036 169.227 271.215 168.963 271.4 168.699C271.138 168.995 271.066 169.067 271.032 169.076C271 169.082 271.019 169.015 271.053 168.924C271.125 168.734 271.266 168.427 271.41 168.098C271.706 167.426 272.037 166.627 272.297 165.825C272.822 164.215 273.071 162.535 272.659 161.115C272.594 160.89 270.184 161.282 269.999 160.979C269.599 160.371 269.635 159.721 270.231 158.93C270.511 158.527 272.641 158.443 272.866 157.995C273.33 157.021 273.175 156.006 272.516 155.242C272.367 155.001 272.213 154.762 272.055 154.527C271.374 153.523 269.944 156.243 269.231 154.849C264.46 145.498 260.402 138.024 258.631 128.188C258.511 127.514 262.646 124.575 261.121 123.83C259.85 124.423 258.418 125.233 257.092 125.924C256.409 124.859 255.749 123.805 255.088 122.723C249.186 113.132 243.941 102.109 238.493 93.6073C237.861 92.6508 237.23 91.7177 236.604 90.8206C236.288 90.3693 234.691 92.7094 234.071 91.8494C232.61 89.8263 231.091 88.0549 230.202 86.9835C229.764 86.4488 229.515 86.1265 229.585 86.0032C229.637 85.8695 230.066 85.9277 230.397 85.7305C231.034 86.0246 231.362 86.0961 231.561 86.1051C231.755 86.1098 231.827 86.046 231.845 85.9558C231.876 85.7709 231.701 85.4807 231.473 85.153C231.166 84.769 233.043 80.4353 231.285 80.5953C230.993 80.6263 228.28 80.4364 227.273 81.2094C227.141 81.3308 226.986 83.5705 226.135 83.3868C221.066 82.2521 215.484 80.2932 210.342 77.6235C209.501 77.186 211.015 75.1577 210.429 74.8286C206.253 72.5083 200.894 73.0392 197.061 69.9484C194.466 67.8652 196.497 64.1993 195.851 59.9642C195.752 59.3646 193.973 58.8545 194.405 56.5819C195.493 50.8667 197.83 44.8782 198.886 38.7621C199.121 37.4462 196.318 38.2651 198.52 35.4693C198.677 35.2841 200.693 34.6585 201.381 33.6969C201.863 33.0335 201.846 30.6143 202.698 29.8205C203.552 29.0281 203.774 31.1052 205.073 30.2442C206.383 29.3716 206.538 26.6591 208.685 26.8454ZM144.617 74.3921C143.032 72.2547 143.599 80.4636 144.791 78.4009C144.848 78.2919 144.695 74.4975 144.617 74.3921ZM174.685 184.195C174.423 186.004 174.771 185.589 174.548 184.36C174.389 183.143 173.916 181.12 174.549 179.692C175.219 178.284 175.722 179.243 175.509 180.572C175.345 181.909 174.762 183.648 174.685 184.195ZM162.299 174.785C160.696 177.997 170.845 172.184 168.203 172.195C168.057 172.198 162.405 174.617 162.299 174.785ZM203.312 60.5778C203.312 60.4653 202.039 60.0504 201.985 60.1489C200.686 62.5238 203.229 63.3507 203.312 60.5778ZM158.272 155.947C156.564 156.416 158.035 158.852 160.115 158.232C161.768 157.786 160.369 155.439 158.272 155.947ZM82.7775 117.919C82.6497 117.906 82.2719 118.768 82.9452 118.945C85.1012 119.501 84.859 118.173 82.7775 117.919ZM173.731 155.809C173.152 155.266 172.542 154.423 172.275 153.528C171.812 151.576 172.554 150.141 173.13 148.625C173.118 148.611 173.084 148.568 173.071 148.556C173.79 146.714 175.162 145.453 176.393 145.518C176.46 145.582 176.629 145.801 176.69 145.87C177.427 146.085 178.359 147.105 178.733 148.096C178.86 148.467 178.033 148.614 176.976 148.541C175.925 148.482 174.824 148.531 174.892 149.412C174.939 150.224 175.331 150.684 175.837 150.83C177.172 151.066 179.876 149.604 179.982 152.688C180.023 153.46 174.071 156.181 173.714 155.812C173.72 155.811 173.725 155.81 173.731 155.809ZM143.031 64.602C142.991 64.4925 141.647 64.5127 141.63 64.6265C141.211 67.2881 143.787 67.2578 143.031 64.602ZM82.1694 173.593C81.947 173.737 83.1101 176.968 83.3926 176.98C87.872 176.572 85.7842 170.705 82.1694 173.593ZM220.903 105.312C223.939 105.041 225.335 106.573 223.213 109.409C222.522 107.976 221.668 106.667 220.903 105.312Z" fill="#CA9C65"/>
<path d="M76.3437 213.847C73.9519 213.312 63.3011 209.94 46.9832 205.354C33.5345 201.575 27.0053 189.784 20.9387 175.055C18.3903 168.868 18.6738 158.774 19.231 140.319C19.5723 129.014 20.9592 113.807 22.2012 103.337C24.0785 87.5111 26.6067 80.9541 27.9348 78.514C29.3632 75.8898 34.0396 71.3635 44.1138 62.1828C60.079 47.6339 73.2362 39.9 80.3334 35.0985C95.3481 24.9405 108.977 19.7402 114.304 18.244C117.113 17.4552 120.256 17.0675 133.106 17.2005C145.957 17.3336 168.452 18.1169 182.919 19.2375C203.244 20.8119 213.12 25.0285 221.182 28.9232C229.401 32.8942 239.677 39.2515 251.39 45.05C264.492 51.5364 272.746 57.1638 290.043 69.775C308.567 83.2816 311.842 91.2294 321.243 103.781C327.588 112.253 331.427 127.54 333.641 142.673C335.324 154.172 332.329 169.309 329.395 183.303C327.358 193.012 321.678 202.673 315.091 213.467C310.196 221.488 301.615 227.045 293.09 232.231C288.312 235.138 281.789 239.578 271.953 245.061C264.188 249.39 254.095 251.802 237.891 254.761C227.834 256.598 213.688 256.706 201.057 256.434C177.601 255.93 165.174 253.243 161.648 252.08C159.453 251.355 156.575 249.96 148.213 245.111C139.851 240.262 126.127 231.901 115.91 224.057C105.693 216.212 99.3978 209.139 94.0373 202.331C83.9737 189.55 78.6336 176.271 75.9229 165.259C72.6612 152.008 70.0679 142.999 71.399 128.724C72.1433 120.743 75.317 110.362 79.8413 99.1072C83.13 90.9259 93.0343 83.5581 103.522 75.6397C108.605 71.8024 112.912 69.9832 119.646 67.5964C127.968 64.647 139.282 64.3161 155.092 64.2303C164.759 64.1779 177.75 65.4521 186.582 66.7387C199.867 68.6737 206.638 73.1012 215.314 80.3089C231.7 93.9216 243.494 107.039 247.722 113.313C251.271 118.581 251.9 127.425 251.546 139.68C251.147 153.46 246.201 167.677 242.067 179.064C237.664 191.196 224.902 200.021 214.191 204.393C211.29 205.577 200.199 205.682 181.239 203.13C171.865 201.868 164.516 193.981 158.509 187.338C147.21 174.841 143.738 164.574 143.069 160.063C142.366 155.317 144.623 151.075 146.703 148.321C149.866 144.134 158.61 145.42 166.822 147.537C170.254 154.52 173.148 158.811 173.665 160.776C173.864 161.787 173.934 162.824 174.006 163.892" stroke="#6F1A1A" stroke-width="13" stroke-linecap="round"/>
</svg>
