<svg xmlns="http://www.w3.org/2000/svg" width="511" height="112" fill="none" viewBox="0 0 511 112"><path fill="#fff" d="M76.088 61.297c.96-.13 2.07.198 2.907.578.257.118.085.529.263.63.366.197.695.017 1.047.245.116.077-.093.733.03.8.647.352 1.303.235 1.99.432 3.323.967 6.642 1.416 10.056 1.824 1.126.134 2.488.77 3.659.512.137-.03.06-.621.086-.67.41-.74.266.449.53.608 1.05.628 2.232.673 3.235.426.429-.107-.027-1.269.419-.621.031.044-.064.672.056.736.273.145.776.019.985.062.402.086.469.078.848.071.515-.004 1.145.28 1.692.11.116-.038-.073-.67.109-.79.181-.118.679-.092.855.049.176.14.136.649.173.762.307.96.797-.428.866-.467 1.275-.649 2.46-.023 3.69-.128l.047-.005c.6-.075 1.03-.493 1.459-.702.514-.246 1.198-.381 1.642-1.021.046-.066-.6-.466-.55-.542.52-.802 1.109-1.736 2.076-2.756.098-.104.646.307.782.215.218-.15.501-.326.75-.53.566-.145.693-.978-1.432-.742.073-.12.108-.358.283-.75q.086-.123.21-.286c.239-.343.968-.524.555-.618-.093-.02-.587.382-.68.339-.378-.166-.525-.66-1.099-.777-.117-.021-.499.398-.589.452-.723.443-.072-.814-.086-.959-.04-1.029-.688-1.18-1.257-1.662-.133-.113-.449.61-.594.522a6 6 0 0 1-.682-.484c0-.016-.207-.265-.488-.612-.092-.116.24-.685.202-.773-.205-.389-.635.761-.839.43-.047-.07.131-.596.135-.658.043-.978-.454.298-.504.317-.693.261-.877-1.205-1.601-1.105-.084.014.002.734-.228.731a13.5 13.5 0 0 1-4.754-.91c-.249-.093-.053-.615-.067-.68-.227-1.024-.433.333-.515.382-.651.353-1.242-.797-1.701.82-2.108-.453-4.234.024-6.372-.374a9.5 9.5 0 0 1-1.695-.536c-.034-.013-.068-.684-.137-.706-.836-.252-.54.762-.712 2.1-.027.332-.741-1.074-.814-1.17-.229-.369-.364-1.365-.427-1.432-.54-.504.433 2.645.056 2.769-.015-.001-.153-.595-.207-.64-.17-.144-.198.122-.374-.036-.401-.367-1.111-1.814-1.155-.78 0 .133.813 1.815.443 1.889-.152.025-.723.358-.943.352-.223-.01-.418-.595-.441-.611-.878-.404-.874-.79-1.77-1.62-.915-.805.713 1.481.796 1.803.085.318-.624.016-.848-.1-.222-.12-.345-.506-.5-.552-1.032-.274.634 1.269.759 1.736.332 1.085-1.27-.275-1.752-.106-.124.042.27.32.226.423-.176.403-.82.13-.713.885.013.128.7 1.23-.146.806-.123-.06-.448-.477-.654-.416-.306.088-.709.4-.752.737-.03.248.793.58.421.626-.166.022-.427-.458-.708-.388-.269.066-.58.511-.705.718l-.017.028c-.11.189.491.459.517.499.145.226.197.716.18.743-.813 1.417-2.444 2.564-2.533 4.416-.007.143.68.214.685.237.172.516-1.511-.262-2.182-.054 1.364.253 1.073.394 1.155.759.04.176.585.191.636.217.755.385-.308.351-.529.36-.808.021.085.356-.455.378-.537.028-1.265-.36-1.31-.016.476.17 1.795.128 1.965.406.562.902-.296 2.286-.665 3.187-.046.085-.08.173-.1.247-.15.644-.036.877-.193 1.296-.26.781.677.416 1.169.795.5.367-1.867.534-2.36.682-.49.154.04.147-.22.286-.258.142-.635-.002-.699.24-.064.247.948.656 1.484.605 1.134-.103 2.228-.61 1.945-.015-.017.035-.645.09-.678.218-.237 1.022.037 1.988-.03 3.037-.01.146-.7.272-.713.361-.123.931.87.25 2.231.17-1.64.545-2.531 1.172-2.29 1.77.144.357.81-.004 1.394.006.176.003-.19.453.153.352 1.12-.335 2.202-1.087 1.987-.318-.011.035-.623.224-.618.325.034.663 1.159.206 1.575.713.325.397.093 1.546.275 2.12-.543.294-.846.523-.965.686-.259.342.336.367 1.173-.02.134.31.403.55.467.917.023.126-.455.43-.493.48-.57.802.524.069.606.082.884.227.79 1.43 1.994 1.087.046-.011.82-1.113.444-.185-.023.066-.574.442-.289.68.27.23.589 1.23 1.342.878.188-.08.877-.974.794-.09-.01.12-.184.467-.214.686-.08.703.463-.549.267.608-.16.955-.05 1.791.461 1.712.07.027.28.035.355.04a.84.84 0 0 0 .281-.288c.018-.025.101-1.11.282-1.102.284.013.72.213 1.018.188.143-.013.01-.676.034-.69.947-.436 1.674.11 2.74.277.197.032.656-.928 1.093-.246.482.745.403 4.065 1.281 3.181.369-.356.34-4.556 1.282-2.497 1.238-.701 2.627.205 3.811-.784.054-.044.031-1.224.169-1.233.207-.012.419.502.571.51.642.046 1.105-.523 1.703-.574.227-.02.266.547.538.522.273-.027.292-.79.726-.519.329.208.932 1.627 1.335 1.716-.317-1.461-.063-1.487.286-1.973.067-.094-.14-.58-.114-.65.101-.3.347.086.435-.234.021-.077-.093-.575-.082-.666.087-.793.775.225.895.403.455.673.436-.005.72.235s.048.68.341.797c.516.204 1.057.066 1.538-.043q.137-.033.262-.058c.213-.044-.09-.672-.063-.694.397-.273 1.007.326.935-1.052 1.118 3.343.185-.394.974.14.063.044.509 1.645.376 1.927-.132.281-.539-.155-.713.277-.042.101-.036 1.7-.062 1.803-.208.807-.839-1.594-.891-1.721-.42-1.015-.555-.338-.631.143-.035.173-.056.32-.079.357-.4.639-.925.405-1.277.877-.23.306.114 1.895-.124 1.9-.794.018-1.569-2.129-1.845-.048-.06.444.49 2.141-.379.906-.055-.078-.747-1.232-.812-.39-.008.107.105.612.074.663-.207.334-.476-.03-.727.227-.252.256-.548.62-.924.517-.226-.06-.678-.954-.821-1.166-.405-.613-.487.539-.813-.237-.323-.782-.232-2.078-.768-2.522.232 1.325.448 2.69.669 4.024-1.013.14-2.074-.121-3.072.089-.124.027.111.723-.02.77-.559.2-1.124-.242-1.69.038-.434.218-.849 1.04-1.314 1.285-.466-1.495-1.114-.901-1.645-.992-.186-.031-.213-.442-.351-.564-.522-.45-.177.884-.29 1.11-.5.96-.8-2.104-1.451-1.977-.032.005-.34 1.674-.396 1.78-.335.692-.105-.565-.347-.67-.442-.192-.768-.563-1.239-.054-.138.15-.437 1.192-.763.416-.043-.101-.05-.644-.082-.674-.225-.198-.351-.053-.44.232-.274-.015-1.042-.045-1.298-.144-.297.363-.609 1.067-.951 1.328-.58.43-.817-.903-.804-1.262.004-.935.361-.266.407-.342.53-.9.071-.873-.195-1.07.56-1.574.153-1.633-.277-.2-.045.157.245.106.277.2-.849 1.43-1.504 1.386-1.35-.242.08-.762.664-1.395-.13-1.468-.363-.042-.808 1.028-1.25 1.134-1.039.226-1.282-1.245-1.973-1.605-.262-.138-.448.528-.646.444-.535-.232-.565-.908-1.12-1.138-.052-.022-.44.526-.572.4-.952-.913-1.35-2.084-1.945-3.255l-.076-.148c-.239-.44-.987-1.076-1.16-1.582-.312-.88.075-2.304-.45-2.922-.343-.412-.902-.046-1.404-.077-.978-.071.176-1.386.368-1.563.007-.003.315.352.542.008.607-.385-.537-.004-.542-.008.118-.12-.058-1.012-.234-1.139-.098-.07-.668.191-.708.15-.938-.975-1.477-2.194-1.49-3.588.006-.027.696-.145.704-.203.14-.814-.787-1.139-1.389-1.776-.6-.633-.48-1.302.699-1.799-.182-.555.364-1.417.736-1.892.153-.2.016-.353-.199-.477-.313-.111-.78-.19-.794-.207-.756-.883.071-1.337.322-2.316.12-.466.073-1.48.035-2.071-.036-.464.332-.671.224-1.128-.014-.062-.618-.137-.637-.16-.597-.64.793-.075 1.072-.11 1.02-.125 1.559-.185 1.283-.877-.066-.151-1.99-1.164-2.02-1.478-.037-.396.645-.026.591-.44-.003-.035-.452-.183-.352-.401.459-1.014 1.199-2.022 1.718-3.075.073-.145-.684-.319-.585-.537.33-.728.785-1.466 1.363-2.065.208-.203.438-.392.684-.552.21-.133.542.297.697.35.928.328.107-.842.135-.92.592-1.795 2.433-1.993 3.449-3.68.04-.087-.246-1.765.838-1.013.077.046 1.134.85.863-.041-.015-.057-.597-.452-.228-.638.36-.18.675-.93 1.541-.609.28.097 1.26 1 1.21-.139-.03-.07-.322-2.528.66-1.225.16.216.831 1.758 1.027.722.041-.202-.313-.458-.112-.802.321-.533 1.083-.346 1.43-1.253.054-.16.172-1.402.79-.673.093.114.143.686.345.694.955.047 1.808-.517 2.764-.263.334.091.304 1.014.642 1.217.34.202.961.378 1.254-.056.3-.435-.152-1.865.358-2.007q.273-.075.55-.116c1.487-.307 2.985.395 4.504.502.245.017.04-.501.401-.512 1.326-.047 3.711-.503 4.883.654.933.924-.308 1.545.406 1.936.334.186.815-1.478.905-1.526.892-.489 1.443.302 2.257.15.172-.032.074-.729.222-.747.505-.069.992.295 1.49.307.224.004.257-.519.456-.449.488.164.908.458 1.313 1.037.036.053-.396.63-.022.729.602.16 1.242.804 2.176.58.27-.07.687-1.196.955-.218.063.21-.624 1.47.49.593.095-.07.6-.367 1.156-.43.556-.067 1.195.139 1.242.825.024.254-.07.956.003 1.401-.036.14-.031.232.049.225.039-.007.358-.573.522-.522.574.19 1.02.635 1.665.908.174.074.39-.61.639-.481.686.353 1.378 1.184 1.901 2.015.191.307-.374.514-.399.575-.426.958.697.245.859.31.964.4.976 1.413 1.659 2.221.191.234.621-.266.7-.243.803.303-.417.431-.332.845.064.328.151.66.249.996.188.712.504 1.481.75 2.311.124.43.729-.223.832.187.488 1.825.374 4.393-.619 6.393a7 7 0 0 1-.552.75c-.158.187-.621-.16-.758-.163-.946-.043-.018.885.037 1.046.263.713-.28.705-.418 1.194-.627 2.386-3.107 5.412-5.998 7.003-2.167 1.251-4.45 1.684-6.456 1.748-.846-.012-1.69.013-2.591.145-.14.02.064.75-.057.776-1.564.308-3.124.11-4.68.392-.128.022.087.719-.118.777a2.02 2.02 0 0 1-1.398-.105c-.212-.102.049-.716-.163-.806a2.36 2.36 0 0 0-1.511-.127c-.211.053.123.769-.153.782-1.885.106-3.743.228-5.612-.737-.13-.067-.216-1.534-.493-1.258-.029.406-.037.884-.055 1.319-2.713.18-5.37-.442-8.053-.684-.113-.01.037.778-.184.762-1.268-.09-2.522.04-3.758-.83-.122-.085.046-1.442-.338-1.265-.072.032-.658.168-.824.452-.024.043.027.687-.155.691a7.25 7.25 0 0 1-3.178-.713c-.165-.08.077-.74-.04-.802-.812-.434-1.778-.005-2.477-.68-.435-.45-.196-1.609-.367-2.778-.015-.165-.313-.206-.286-.876-.003-1.692.229-3.537.217-5.34.01-.194-.188-.195-.378-.254-.187-.058-.33-.184.01-.66.015-.032.257-.125.395-.245.144-.12.3-.27.37-.426.094-.215-.008-.906.162-1.178.156-.273.29.31.532-.003.231-.319.203-1.102.637-1.159m-1.926 7.64c.684-.22-1.687-.548-1.157-.155.029.019 1.124.167 1.157.156m25.36 22.446c-.562-.978-.592.597-.184 1.358.413.76.36-1.062.185-1.358m3.932-1.52c-.62-.72-.01 2.618.346 1.843.021-.044-.31-1.802-.346-1.843M75.734 71.21c-.003-.032-.244-.084-.25-.053-.193.746.285.849.25.053m31.485 16.944c-.244-.414-.523.196-.22.711.244.414.524-.196.22-.71m-24.06-32.91c.027.023.178-.073.039-.22-.449-.469-.51-.16-.04.22M113.85 86.54c-1.01.108-2.252-2.478-1.11-2.424.206.01-.211.969.093 1.156.557.341.451-1.442 1.128-.633.123.148-.052 1.9-.112 1.905zM77.037 69.104c.032-.002.09-.236.06-.246-.74-.22-.857.255-.06.246m15.457-16.63c.02.064.534.086.549.025.214-1.262-.921-1.305-.549-.025m-9.841 31.088q.187-.035.33-.042c.49-.06.52.112-.08.673-.063-.176-.146-.339-.208-.513zm55.69-21.02c.627-.315 1.503-.237 2.202-.049.22.058.195.493.345.553.297.115.521-.136.823.01.102.049.109.73.214.767.566.2 1.028-.06 1.574-.017 2.708.207 5.298-.072 7.966-.365.878-.097 2.068.25 2.887-.223.096-.056-.105-.614-.096-.666.133-.798.312.383.549.488.947.411 1.853.24 2.562-.179.268-.16-.188-.998.045-.808q.026.04.081.143c.024.04.144.656.21.707.152.115.319-.06.408-.044.182.032.205.014.337-.045.173-.071.551.053.639-.205.014-.053-.439-.51-.465-.632-.028-.118.117-.182.269-.124.151.06.506.418.599.488.811.563-.036-.54-.059-.569-.116-.791.839-.973 1.215-1.844q.051-.123.097-.258c.111-.391.047-.864.152-1.277.145-.56.532-1.103.466-1.786-.006-.071-.76.02-.769-.063-.103-.878-.128-1.806.192-2.897h.001c.048-.036.704-.118.786-.176.56-.277 1.188-1.938-1.345-.484-.041-.262-.155-.58.057-1.187.115-.345.608-.69.472-.737a.2.2 0 0 0-.087.016c-.072.027-.46.528-.525.545-.25.088-.27-.155-.529.097-.05.054-.226.593-.263.688-.253.784.03-.552-.021-.663-.148-.778-.533-.509-.924-.5-.096.001.065.753-.018.782-.393.13-.876.16-1.455.005l-.128-.046c-.126-.05-.174-.704-.244-.759-.323-.23-.061.967-.343.774-.061-.038-.196-.577-.222-.632-.427-.87-.14.462-.157.5-.272.525-1.08-.672-1.449-.275-.039.048.378.625.256.717-.807.615-1.779 1.056-3.008 1.38-.19.05-.442-.43-.493-.472-.814-.638-.004.465-.01.54-.086.575-1.207.076-.283 1.447-1.602.903-2.266 2.787-4.155 3.71a6 6 0 0 1-.662.24c-.028.01-.541-.424-.596-.402-.668.283.248.8 1.112 1.801.223.243-1.229-.336-1.343-.365-.406-.133-1.204-.739-1.29-.752-.697-.067 2.163 1.573 2.005 1.855-.01.006-.518-.329-.585-.333-.21-.012-.042.184-.269.165-.52-.05-1.992-.697-1.308.027.091.09 1.797.855 1.591 1.087-.087.093-.269.595-.436.692-.168.097-.691-.221-.719-.221-.899.114-1.148-.156-2.339-.339-1.191-.162 1.476.71 1.742.896.266.184-.459.28-.702.293-.243.01-.577-.204-.723-.171-.957.236 1.269.61 1.653.881.918.618-1.158.335-1.44.64-.074.078.404.112.429.202.094.347-.583.413-.067.888.083.082 1.265.572.331.608-.135.006-.634-.153-.771-.033-.205.179-.369.544-.223.79.108.18.978.09.691.263-.128.078-.606-.147-.804.007-.2.156-.219.609-.214.781s.658.125.7.142c.243.101.535.434.534.461.003 1.38-1.058 2.744-.59 4.15.036.108.711-.019.724-.003.315.352-1.519.2-2.102.525 1.378-.158 1.14.02 1.318.276.086.123.614 0 .669.006.83.108-.204.344-.414.402-.774.212.172.25-.344.396-.512.147-1.31.032-1.27.296.502.015 1.767-.327 1.999-.158.717.52.296 1.61.13 2.338-.041.127-.067.24-.066.33.01.5.159.62.098.957-.083.626.72.052 1.236.097.517.024-1.594 1.094-2.012 1.39-.408.309.075.097-.126.304-.198.212-.581.25-.572.463.015.228 1.047.12 1.5-.168.97-.587 1.806-1.435 1.687-.917-.007.032-.533.37-.531.474.048.817.562 1.359.866 2.142.043.11-.46.594-.437.666.248.751.78-.316 1.785-1.19-1.056 1.365-1.511 2.346-1.073 2.642.259.174.616-.493 1.051-.85.129-.108.042.442.253.154.684-.944 1.176-2.153 1.302-1.492.005.031-.356.557-.314.624.282.437.887-.615 1.357-.552.365.048.671.983 1.042 1.248-.257.67-.343 1.055-.315 1.216l-.112-.028c.111.26.396-.194.623-1.014.29.095.63.065.894.287.091.076-.049.624-.044.686.065.97.373-.303.443-.345.763-.4 1.223.653 2.009-.223.027-.032.227-1.365.29-.367.004.07-.292.651.02.736.308.085.825.873 1.336.3.125-.137.506-1.196.632-.323.017.118-.056.5-.037.718.064.696.279-.652.317.516.036 1.167.291 2.065.818 1.313.017-.021.227-1.086.365-1.056.22.05.522.303.756.316.112.007.099-.668.119-.678.785-.309 1.268.33 2.06.645.148.06.63-.825.872-.086.266.809-.256 4.077.537 3.335.327-.296.896-4.448 1.325-2.265 1.047-.493 1.971.639 3.019-.117.047-.033.202-1.197.308-1.181.16.027.246.572.361.608.482.165.92-.304 1.383-.238.176.024.123.588.334.616s.337-.717.629-.365c.148.179.311.91.492 1.428l.049-.003c.102.254.206.455.311.506-.095-1.493.107-1.475.421-1.899.06-.082-.057-.594-.032-.66.101-.278.258.14.347-.163.021-.072-.031-.58-.018-.669.109-.767.555.335.643.524.32.723.329.05.539.32.215.267.021.678.252.824.483.3 1.02.107 1.448.028.171-.035-.106-.67-.085-.69.293-.248.833.357.65-1.003 1.192 3.311.109-.382.77.152.053.043.59 1.615.511 1.894-.084.28-.457-.15-.565.275-.022.1.092 1.682.07 1.785-.151.802-.812-1.592-.86-1.72-.539-1.38-.494.33-.575.467-.336.618-.795.35-1.116.786-.212.282 0 1.893-.224 1.875-.756-.064-1.188-2.301-1.639-.289-.098.429.166 2.192-.424.834-.018-.042-.129-.352-.255-.572-.029-.002-.115.01-.144.006-.12-.243-.261-.382-.351.04-.022.102-.008.62-.039.664-.21.287-.362-.123-.594.08-.232.201-.513.5-.785.327-.164-.103-.38-1.066-.457-1.302-.219-.68-.45.436-.584-.387-.133-.828.126-2.085-.218-2.62-.016 1.344-.051 2.724-.077 4.077-.79-.05-1.556-.498-2.344-.46-.098.005-.018.73-.125.756-.448.101-.816-.428-1.284-.242-.361.146-.788.892-1.175 1.065-.144-1.549-.72-1.058-1.112-1.225-.137-.058-.099-.467-.189-.608-.337-.52-.256.85-.374 1.056-.508.88-.323-2.193-.835-2.156-.026 0-.488 1.61-.545 1.708-.347.64-.002-.573-.173-.709-.314-.249-.509-.659-.94-.215-.127.131-.493 1.125-.64.316-.019-.106.049-.644.029-.678-.373-.568-.544 1.127-.846 1.677-.304.55-.554-.659-.594-1.004-.106-.894.19-.357.21-.442.23-1.006-.055-.858-.253-.966.146-1.665-.145-1.596-.203-.105-.006.162.169.025.203.105-.354 1.61-.697 1.785-.878.223-.082-.732.167-1.546-.359-1.298-.24.112-.287 1.264-.52 1.553-.537.658-.997-.48-1.482-.37-.175.04-.09.685-.214.734-.328.13-.54-.374-.877-.174-.031.02-.048.682-.145.678-.69-.02-1.231-.458-1.916-.614-.204-.057-.819-.155-1.007-.254a4 4 0 0 0-.172-.073c-.41-.158-1.294-.13-1.696-.399-.708-.456-1.132-1.767-1.838-1.924-.468-.11-.732.5-1.149.767-.826.51-.555-1.206-.472-1.45.003-.006.425.105.445-.297.312-.644-.438.299-.445.298.038-.16-.522-.778-.728-.792-.114-.005-.474.508-.527.496a4.33 4.33 0 0 1-2.91-2.448c-.004-.027.579-.413.564-.47-.185-.784-1.155-.727-1.944-1.124-.783-.392-.882-1.076.102-1.873-.33-.44-.028-1.323.207-1.781.233-.453-1.111-.275-1.146-.312q-.04-.041-.077-.082c-.862-.58-.195-1.128-.179-1.9.01-.373-.275-1.092-.465-1.489-.152-.312.146-.54-.083-.823-.031-.038-.63.055-.655.045-.751-.283.739-.24.997-.332.938-.33 1.437-.508.959-.903-.109-.087-2.255-.259-2.389-.448-.169-.24.598-.18.403-.428-.016-.021-.487.002-.472-.16.064-.75.332-1.568.306-2.355-.002-.108-.753.011-.768-.149-.067-.747.013-1.588.434-2.293.106-.173.616-.007.774-.03.959-.138-.361-.62-.379-.684-.479-1.457.924-2.282.703-3.794-.018-.074-1.264-1.078.024-.992.087.001 1.39.129.624-.36-.048-.03-.731-.069-.575-.333.155-.259-.1-.876.728-1.006.263-.047 1.557.157.757-.58-.065-.035-1.936-1.536-.386-1.085.255.075 1.768.818 1.178.044-.113-.152-.523-.17-.631-.485-.163-.492.454-.702.019-1.465-.08-.129-.898-1.01-.004-.81.139.032.581.39.709.3.604-.418.682-1.218 1.403-1.547.253-.113.914.524 1.252.48.227-.029.514-.14.628-.347.041-.082.041-.188-.025-.323-.203-.413-1.471-1.153-1.376-1.457.42-1.327 1.937-1.836 2.986-2.818.158-.147-.349-.362-.14-.606.732-.885 2.024-2.834 3.667-2.735 1.275.103.809 1.346 1.563 1.2.35-.06-.379-1.623-.336-1.72.361-.936 1.285-.653 1.832-1.245.116-.124-.37-.632-.263-.732.369-.353.977-.331 1.381-.59.181-.117-.079-.572.124-.622.48-.122.971-.09 1.578.202.053.028.029.732.354.635.532-.16 1.3.099 1.772-.539.14-.19-.133-1.356.46-.647.087.105.216.847.347.811.047-.013.09-.16.134-.54.005-.213.438-2.001 1.015-.997.149.264.563 1.389.756 1.18.028-.033-.176-.654.008-.74.659-.287 1.447-.273 2.324-.443.24-.045-.096-.724.277-.768 1.031-.125 2.522.29 3.646.935.412.237-.09.637-.077.705.11 1.084.897.01 1.114.03 1.262.118 1.702 1.179 2.568 1.74.244.166.518-.433.599-.434l.033.002c.643-.072-.341.505-.237.776.284.769.838 1.322 1.363 1.893.193.211.586-.48.758-.277 1.024 1.2 1.894 2.975 1.929 5.076.002.391-.595.261-.705.362a1 1 0 0 0-.13.134c-.529.347.578.495.699.564.588.32.122.556.262.905.702 1.718.482 4.245-.045 6.308-.338 1.371-.885 2.623-1.559 3.83-.445.674-.914 1.54-1.485 2.66-.077.146.65.378.589.514-.826 1.76-2.598 3.452-4.564 4.927-.165.123.465.562.2.784-.542.46-1.367.83-2.076.873-.344.022-.171-.7-.5-.672a7 7 0 0 0-1.69.324q-.115.045-.223.109c-.146.089.273.725.07.787-1.378.428-2.73.89-4.357.314-.112-.04-.532-1.446-.67-1.125.077.4.187.865.28 1.29-1.989.706-4.115.652-6.176.993-.088.015.219.745.048.778-.971.186-1.877.584-3.018.015-.114-.056-.319-1.407-.569-1.15-.043.047-.446.307-.506.62-.007.047.189.66.052.704a4.6 4.6 0 0 1-2.574.015c-.147-.04-.118-.734-.223-.768-.728-.24-1.361.389-2.091-.116-.477-.342-.521-1.525-.925-2.63-.062-.155-.312-.139-.435-.8-.322-1.66-.508-3.507-.865-5.274-.054-.386-.452.111-.341-.862.023-.069.266-.426.265-.749.009-.224-.186-.885-.139-1.178.059-.295.232.257.337-.096.084-.353-.101-1.111.17-1.25m.257 14.631c.61-.335-1.762-.024-1.157.158a18 18 0 0 0 1.157-.158m26.451 12.013c-.288-1.062-.537.484-.336 1.304.206.82.425-.983.336-1.304m3.216-.762c-.369-.827-.392 2.566-.005 1.875.023-.039.027-1.827.005-1.875m-27.948-16.167c-.007-.031-.196-.031-.198 0 .025.767.408.766.198 0m31.148 15.124c-.172-.44-.435.125-.227.675.174.443.448-.128.227-.674m-30.216-22.729c.036.005.099-.12-.098-.165-.633-.144-.5.09.098.165m35.503 21.355c-.804.138-2.092-2.395-1.217-2.349.162.007-.026.951.236 1.13.486.324.139-1.417.787-.644.12.141.246 1.86.194 1.867zm-35.332-9.394c.031-.01.033-.198.002-.198-.767.007-.772.393-.002.198m4.369-18.214c.024.014.09-.026.157-.08.098-.084.196-.196.173-.225-.473-.541-.885-.582-.944-.391-.044.144.122.412.614.696m4.359 25.222q.14-.204.247-.322l-.441-.11c.22-.341.38-.215.402.553-.15-.06-.305-.096-.459-.144l.355.09zM193.799 44c1.952 1.249 2.765 2.717 3.255 3.86.145.355-.309.453-.231.705.145.483.565.73.646 1.21.026.163-.638.376-.599.535.2.854.735 1.412 1.005 2.177l.011.031c1.783 4.566 1.944 9.065 1.364 13.003-.19 1.324-1.001 2.764-.965 4.063.005.152.601.17.644.206.65.58-.494.216-.703.47-.829 1.01-1.155 2.192-1.185 3.275-.012.46 1.233.303.486.585-.05.02-.631-.242-.725-.139-.212.233-.233.77-.334.962-.197.373-.208.441-.311.81-.147.505-.604 1.025-.602 1.59.002.122.662.13.722.339.058.211-.112.664-.298.787-.187.123-.66-.065-.779-.065-1.006.004.179.86.197.934.271 1.36-.68 2.23-.753 3.21l-.004.083c-.013.379.038.8.094 1.215q.044.312.08.611a10 10 0 0 1 .036.378c0-.002.005.038-.008-.082l-.012-.093a3 3 0 0 0-.057-.307l-.028-.11-.019-.07c-.033-.09-.068-.302-.332-.778-.153-.244-.342-.612-.999-1.106-.59-.509-2.205-.942-3.346-.43-1.125.468-1.495 1.09-1.725 1.424-.218.355-.292.575-.348.73-.045.132-.07.228-.089.307a3 3 0 0 0-.063.322c-.021.142-.025.208-.029.261-.004.058-.004.08-.005.106-.003.093-.001.077-.001.091l.001-.03c.047-1.215.44-2.208.469-3.357.004-.122-.76-.039-.756-.19.041-1.599.327-3.163 1.085-4.61.076-.144.697.162.812.026.692-.849 2.253-1.983-.447-3.135.244-.604.533-1.336 1.233-1.748.45-.265 1.066.25.874-.254-.042-.114-.687-.14-.704-.301-.068-.676.309-1.296.163-1.99-.031-.142-.586-.261-.674-.324-.712-.523.744-.643.87-.72.947-.602.847-1.266 1.102-2.008.06-.172-.73-.199-.698-.374.175-.901.544-1.784 1.161-2.509.138-.16.688.23.785.164.423-.289-.696-.793-.31-1.077.08-.06.584.177.646.184.98.108-.217-.56-.223-.629-.107-.877 1.393-.828 1.485-1.597.01-.092-.717-.166-.649-.411a10.55 10.55 0 0 1 2.585-4.488c.19-.197.585.199.651.212 1.029.203-.123-.539-.131-.64-.013-.316.198-.51.365-.702.27-.337.448-.637-.191-1.419 2.253-2.568 4.378-5.227 7.697-5.394.04-.003.302.618.38.61.941-.071.303-.91.3-2.326.008-.36 1.073.844 1.15.934.301.32.573 1.291.649 1.345.598.427-.78-2.572-.256-2.792.018-.002.182.587.248.625.203.121.244-.155.45-.013.478.332 1.138 1.794 1.249.76.015-.134-.716-1.862-.216-1.944.197-.033 1.015-.335 1.284-.287.267.046.281.671.306.691.836.583.697.97 1.309 2.022.598 1.055-.221-1.628-.177-1.964s.66.185.821.382c.163.195.12.6.245.703.819.674-.042-1.42.074-1.905.294-1.147 1.134.804 1.619.92.134.032-.053-.415.051-.48.306-.181.593.095.883-.012.138-.044.282-.13.452-.296.068-.109.753-1.353 1.024-.39.03.136-.154.635.05.779.308.214.811.446 1.173.378.272-.05.251-.953.481-.6.097.156-.302.55-.119.802.18.248.76.456.981.54.221.08.373-.562.408-.595.212-.18.781-.252.819-.23 1.395.642 2.263 1.855 3.236 2.829.422.418.838.802 1.336 1.148.133.094.541-.464.566-.455.608.212-1.003 1.16-1.2 1.836.978-.982.95-.65 1.314-.459.176.093.523-.328.575-.351.818-.294.129.536-.015.702-.517.626.349.222-.007.636-.36.4-1.144.641-.944.907.465-.2 1.373-1.167 1.71-1.048 1.339.486 1.349 2.886 1.474 3.686.171.836.32 1.077.265 1.592-.12.922.746.401 1.288.882.533.494-1.853.6-2.341.76-.491.15.038.144-.226.273-.264.125-.632-.005-.708.205-.074.203.886.64 1.422.67 1.137.053 2.293-.333 1.929.31-.022.037-.651-.026-.704.109-.401 1.057-.428 2.097-.9 3.064-.066.132-.752-.024-.798.05-.49.768.692.55 1.947 1.123-1.712-.25-2.78-.097-2.854.48-.048.352.707.381 1.203.685.15.092-.399.282-.055.378 1.124.323 2.447.261 1.833.844-.029.025-.64-.167-.694-.074-.354.594.827.88.83 1.615.002.582-.941 1.377-1.218 1.948-1.874-.502-1.587.143-.369.743-.163.37-.216.805-.515 1.13-.101.107-.608-.15-.671-.153-.982-.06.198.513.217.615.096.56-.235.964-.449 1.36-.159.282-.237.624.087 1.077.025.039 1.31.442.311.368-.07-.002-.595-.413-.735-.069-.139.332-1.001.917-.463 1.55.128.156 1.169.606.291.755-.119.021-.499-.062-.719-.036-.7.092.646.32-.525.404-1.17.08-2.076.48-1.307 1.113.023.021 1.095.205 1.072.38-.039.28-.271.681-.263.98.004.143.674.05.686.075.382.93-.188 1.605-.36 2.652-.032.196.929.626.255 1.065-.734.495-4.061.49-3.141 1.381.375.382 4.561.12 2.564 1.172.611.92.275 1.996.666 2.95.054.271.385.465.66.503.29-.016.583-.092.871-.265.064-.036.207-1.206.333-1.197.194.016.337.552.486.576.624.113 1.106-.428 1.673-.471.218-.02.263.548.535.516.276-.034.251-.793.689-.55.33.186 1.083 1.536 1.541 1.554-.508-1.407-.25-1.466.001-2.005.047-.104-.244-.545-.233-.618.032-.307.342.025.35-.302.001-.079-.22-.54-.233-.629-.13-.77.728.07.897.204.612.526.389-.115.719.03.342.138.268.629.584.641.569.017 1.056-.359 1.452-.7.008-.006.028-.027.035-.033l.179-.175c.161-.16-.441-.516-.429-.55.167-.424 1.032-.345.088-1.351 3.007 1.835-.113-.407.78-.495.071-.007 1.519.811 1.609 1.124.087.316-.523.293-.396.759.04.1.991 1.411 1.011 1.533.222.887-1.69-.71-1.801-.786-.894-.557-.69-.005-.526.455-.016.013-.056.056-.073.068.056.196.109.374.099.427-.152.819-.804.852-1.036 1.45-.158.39.644 1.803.354 1.915-.999.37-2.194-1.574-2.228.578-.019.458.814 2.047-.376 1.003-.084-.061-.982-1.099-1.016-.244-.006.109.148.603.111.66-.255.371-.59.037-.907.321-.316.284-.718.673-1.182.578-.285-.055-.76-.958-.904-1.177-.413-.628-.64.517-.925-.284-.263-.809-.023-2.09-.524-2.586.079 1.342.132 2.723.186 4.075-.651.018-1.296-.1-1.923-.231-1.74-.241-3.834-1.465-4.179-3.186-.061-.544-.121-1.081-.28-1.588-.042-.13-.709.183-.772.045-.265-.585.121-1.227-.203-1.812-.254-.451-1.103-.862-1.373-1.36 1.471-.55.852-1.219.934-1.792.027-.198.438-.227.557-.376.445-.555-.886-.192-1.112-.316-.963-.552 2.102-.835 1.988-1.51-.005-.032-1.664-.42-1.768-.487-.679-.394.568-.088.682-.346.211-.472.599-.786.125-1.335-.141-.158-1.155-.58-.351-.871.105-.038.646.007.679-.024.556-.562-1.142-.674-1.692-1.08-.55-.412.678-.874 1.028-.94.904-.191.348.26.433.285 1.002.28.863-.118.985-.4 1.663.154 1.613-.234.12-.292-.163-.004-.038.242-.12.292-1.599-.445-1.737-1.005-.138-1.26.751-.113 1.527.26 1.363-.483-.069-.339-1.219-.464-1.457-.833-.534-.868.767-1.496.889-2.26a.2.2 0 0 0-.003-.065c-.086-.151-.632-.225-.648-.344-.047-.352.497-.463.377-.855-.012-.035-.658-.184-.634-.28.173-.742.775-1.27.997-2.064.11-.39-.083-1.15.071-1.53.265-.648 1.358-1.353 1.207-1.995-.097-.408-.763-.403-1.19-.615-.829-.397.77-.776 1.016-.845.009-.003.136.342.488.192.712-.048-.485-.19-.488-.192.161-.035.352-.688.228-.821-.066-.073-.692-.057-.715-.094-.528-.863-.707-1.613-.494-2.407.011-.015.709-.065.726-.1.259-.505-.635-.69-1.194-.927-.561-.24-.445-.484.664-.988-.211-.214.19-.714.417-1.036.227-.324-1.059.127-1.089.122-.992-.173-.385-.71-.55-1.244-.073-.25-.511-.54-.784-.637-.215-.078-.051-.374-.328-.374-.036 0-.463.431-.485.442-.649.368.479-.594.639-.809.578-.783.829-1.26.286-1.138-.134.02-1.654 1.526-1.797 1.573-.118.026.014-.165.091-.313.047-.105.068-.191-.041-.18-.023.002-.304.38-.386.293-.39-.401-.77-.982-1.28-1.221-.068-.034-.359.661-.458.626-.465-.163-.858-.38-1.001-.806-.035-.108.187-.584.226-.735.202-.929-.354.33-.356.357-.281.312-.098.167.617-.096-.403-.052-.821-.04-1.214.283-.061.047-.183 1.57-.66.393-.03-.079-.535-1.281-.505-.383.003.056.285.668.056.656-.233-.01-.449.505-.941-.11-.151-.194-.755-1.354-.731-.289-.009.077.315 2.403-.339.942-.108-.24-.64-1.844-.682-.91-.005.18.233.495.154.773-.115.428-.602.131-.601.945-.003.145.248 1.282-.257.554-.08-.114-.258-.651-.371-.67-.547-.088-.805.455-1.38.32-.206-.044-.566-.885-.839-1.014-.272-.13-.71-.147-.649.304.065.449.982 1.589.84 1.814-.577.959-1.772.841-2.402 1.355-.088.072.36.347.271.467-.183.248-.249.626-.396.815-.328.562-.761 1.06-1.394 1.248-1.141.354-1.322-.853-1.911-.438-.284.205 1.12 1.196 1.14 1.283.207.855-.67 1-.707 1.677-.007.14.673.287.661.4-.034.39-.469.645-.551.998-.035.16.461.326.368.45-.216.298-.532.504-1.115.658-.054.014-.583-.422-.701-.18-.188.387-.832.73-.532 1.368.091.19 1.212.6.33.618-.184.004-1.508-.553-.462.207.172.131 1.552 1.251.437 1.189-.293-.016-1.472-.192-1.353.035.02.032.659.143.673.3.038.555-.191 1.047-.153 1.61.011.151.707.146.704.363-.006.592-.366 1.223-.715 1.704-.13.177-.622-.106-.683-.108-1.003-.024.226.462.28.557.314.597-.377.804-.329 1.287.011.132.641.197.689.235.468.379-.578-.076-.737.053-.451.363-.519.877-.54 1.346-.007.172.743.142.729.294-.069.897-.311 1.776-.849 2.555-.103.147-.637-.047-.769-.034-.921.088.228.625.332.717.47.43-.039.493.01.815.243 1.567-.229 3.327-.443 4.673q-.033.202-.068.397c-.003.09 0 .078-.016.398-.014.09.024.094-.107.902a7 7 0 0 1-.174.725l-.059.188-.018.052-.009.027-.05.14a7 7 0 0 1-.321.74c-.345.582-.733 1.605-2.646 2.817-1.863 1.377-5.886 1.025-7.285-.189-1.552-1.088-1.904-1.897-2.219-2.395-.281-.513-.389-.819-.477-1.06a8 8 0 0 1-.1-.306l-.024-.084-.022-.077-.035-.135c-.08-.324-.102-.472-.122-.595-.04-.258-.036-.26-.044-.33l-.012-.137c-.015-.214-.012-.267-.012-.336a10 10 0 0 1 .056-.798c.032-.304.071-.592.112-.88a80 80 0 0 1 .279-1.745c.203-1.255.447-2.292.595-3.372.023-.156-.738-.145-.727-.283.172-1.746.845-3.151 1.001-4.617.014-.12-.712-.13-.712-.328-.004-.411.155-.87.468-1.187.152-.153.676.239.816.081a1.82 1.82 0 0 0 .483-1.253c-.004-.191-.771-.092-.722-.326.313-1.597.49-3.03 1.614-4.315.077-.087 1.542.02 1.291-.233-.402-.066-.877-.125-1.308-.186.02-2.03.508-3.772.243-5.277-.011-.061-.744.215-.768.105-.148-.65-.517-1.04-.118-1.945.037-.09 1.261-.704.971-.8h-.001c-.065-.036-.451-.341-.763-.288-.046.01-.554.403-.642.292-.503-.655-.823-1.4-.913-2.145-.013-.12.589-.454.582-.546-.054-.668-.857-.686-.279-1.008.474-.195.998-1.263 1.513-2.3.036-.075.092-.103.195-.197.101-.093.229-.267.221-.605-.181-1.693.287-3.533.163-5.34-.024-.199-.725-.213-1.347-.11-.596.11-1.087.131-.106-.653.065-.053.783-.302 1.439-.397.656-.109 1.219-.133 1.465-.234.338-.135-.012-.947.678-1.038.701-.073.992.68 1.691.694.68.017.95-.76 1.864-.213m30.351 11.197c.487-.498-1.671.537-1.062.482a21 21 0 0 0 1.062-.482m-.472 34.19c.899-.688-.67-.553-1.377-.044-.699.523 1.108.261 1.377.043m6.43 1.08c-.641-.717-.12 2.638.35 1.843.027-.046-.311-1.802-.35-1.843m-42.047-38.369c.018-.027-.084-.156-.107-.133-.536.541-.377.758.107.133m45.793 36.086c-.347-.33-.48.333-.054.756.356.336.502-.35.054-.756M214.65 46.687c-.011-.035-.183-.035-.141.163.132.635.323.413.141-.163m23.916 36.19c-.592.896-3.301-.029-2.559-.733.137-.138.606.766.939.676.62-.187-.832-1.223.209-1.217.194-.005 1.454 1.22 1.413 1.278zm-11.885-29.05c.027-.02-.051-.244-.082-.235-.731.235-.587.663.082.235m-21.956-5.15c-.046-.054-.573.186-.557.25.405 1.205 1.416.756.557-.25m24.114 21.1c.672.45.666.807-.315.746.122-.24.202-.502.315-.746m85.656-38.165c-.058.61-.585 1.22-1.1 1.616-.162.127-.51-.132-.64-.05-.255.164-.159.457-.438.6-.095.047-.667-.32-.752-.263-.467.317-.486.786-.812 1.176-1.589 1.887-2.718 3.969-3.875 6.11-.382.706-1.296 1.4-1.331 2.265-.004.101.569.252.608.286.599.526-.485.025-.698.148-.841.478-1.174 1.249-1.195 1.999-.008.32 1.199.417.477.49-.049.006-.615-.273-.705-.216-.205.131-.216.506-.31.63-.185.235-.194.282-.287.534-.132.343-.564.657-.552 1.076.004.09.649.184.711.345s-.098.478-.279.545c-.18.066-.645-.136-.761-.152-.983-.132.18.67.197.73.255 1.082-.718 1.637-.968 2.502-.188.655-.141 1.425-.342 2.036-.244.73-.744 1.273-.865 2.012-.013.078.741.17.727.264-.157 1.004-.458 1.956-1.158 2.831-.071.09-.694-.173-.804-.09-.659.495-2.132 1.26.65 2.115-.182.384-.377.86-1.006 1.14-.406.18-1.086-.155-.824.183.058.076.696.08.737.186.17.446-.093.876.184 1.315.058.089.624.132.722.166.799.286-.592.459-.698.523-.79.462-.534.902-.583 1.397-.012.115.756.026.772.137q.009.066.015.131a2.73 2.73 0 0 1-.398 1.683c-.082.13-.725-.018-.797.043-.311.272.91.375.637.635-.056.056-.61.006-.671.014-.961.134.389.319.418.36.394.535-1.028.844-.836 1.363.024.061.728-.065.754.106.177 1.147-.012 2.344-.548 3.49-.082.18-.612.065-.677.078-1.011.208.353.293.405.349.381.437-.744.913.888 1.155-.485 1.946.557 3.75-.673 5.786-.014.026-.685.059-.71.11-.306.627.716.395 2.028.613.329.053-1.159.535-1.267.58-.399.151-1.4.185-1.476.228-.588.358 2.672-.136 2.721.2-.003.011-.611.054-.666.091-.175.115.078.175-.116.294-.447.276-2.019.595-1.047.768.126.02 1.963-.336 1.926-.02-.018.12.11.658.018.82-.09.174-.702.183-.725.198-.703.565-1.058.47-2.173.913-1.107.453 1.627-.172 1.951-.153.323.021-.258.445-.462.577-.206.126-.601.116-.712.212-.721.638 1.4-.123 1.865-.09 1.101.073-.852.823-.961 1.186-.029.1.407-.099.47-.039.241.221-.322.596.345.696.113.027 1.347-.244.55.216-.113.072-.609.234-.671.375a.6.6 0 0 0-.052.27c.014.115.094.212.223.21.163-.01.73-.655.596-.41-.051.117-.482.393-.529.601-.047.216.246.417.37.47.123.057.399-.535.432-.566.179-.181.494-.365.508-.359.425.168.873.613 1.432.963.364.281.901.454 1.423.25.088-.033-.019-.71-.006-.722.266-.308.178 1.522.476 2.104-.172-1.376-.016-1.137.194-1.319.097-.088-.036-.611-.033-.667.029-.827.291.196.36.403.243.763.194-.18.364.327.176.501.138 1.303.379 1.245-.034-.499-.451-1.738-.329-1.977.419-.886 1.794-.225 2.353-.307.541-.071.665-.216 1.023-.157.641.104.11-.724.263-1.257.153-.535.885 1.72 1.123 2.174.239.452.095-.055.26.18.167.233.166.608.35.645.184.039.218-.958.056-1.468-.343-1.08-.972-2.096-.463-1.864.03.014.214.613.317.636.815.166 1.47-.105 2.275-.026.111.012.338.671.407.685.718.14.02-.817-.285-2.114.711 1.574 1.339 2.442 1.746 2.245.241-.116-.145-.766-.238-1.315-.029-.166.377.206.243-.124-.44-1.078-1.194-2.146-.567-1.894.029.013.272.602.349.605.504.016-.023-1.077.314-1.427.265-.276 1.193.053 1.618-.051.95 1.692 1.086 1.103.556-.137.263-.088.481-.303.803-.278.111.009.344.523.385.57.636.73.078-.452.102-.526.298-.754 1.259-.183 1.277-1.326.001-.041-.677-1.206-.021-.455.045.052.194.68.465.569.189-.078.66.058.931-.112l-.133.102c.096-.088.144-.224.096-.437-.033-.177-.649-1.104.083-.63.1.063.358.353.537.477.577.39-.366-.595.572.097.937.693 1.82 1.015 1.493.165-.008-.027-.771-.797-.679-.882.149-.137.505-.227.629-.404.059-.085-.519-.432-.518-.454.086-.75.832-.79 1.431-1.297.114-.097-.503-.864.253-.748.832.112 3.616 1.908 3.255.875-.137-.436-3.792-2.474-1.624-2.035-.122-1.07 1.22-1.505.803-2.658-.019-.052-1.081-.548-1.036-.634.07-.129.612-.035.679-.123.292-.368-.034-.888.158-1.27.072-.144.595.073.68-.101.086-.177-.589-.508-.172-.656.246-.084 1.21.041 1.744.005l-.008.025c.155-.006.273-.026.328-.069-1.425-.455-1.343-.615-1.623-1.037-.054-.081-.57-.177-.622-.223-.219-.195.225-.167-.019-.363-.058-.048-.544-.206-.619-.254-.657-.413.533-.358.74-.346.786.042.185-.256.519-.312.333-.054.614.285.844.17.475-.24.552-.723.699-1.078.056-.143-.623-.266-.63-.292-.06-.357.73-.42-.493-1.035 3.386.952-.259-.294.556-.49.065-.016 1.646.495 1.831.704.184.21-.374.233-.078.537.069.072 1.454.825 1.532.888.607.497-1.75-.278-1.884-.309-1.444-.324.039.519.123.633.381.526-.051.715.21 1.13.168.272 1.705.8 1.608.934-.317.442-2.534-.07-.811.998.368.228 2.094.66.649.6-.031-.001-.203-.016-.388-.017l.02-.067c-.359.01-.764.066-.286.326.092.05.589.195.622.235.215.266-.218.274-.089.533.127.262.334.594.093.78-.145.112-1.122.007-1.369.004-.708-.015.289.529-.534.396-.826-.138-1.949-.75-2.555-.617 1.275.43 2.578.885 3.857 1.327-.278.694-.933 1.251-1.156 1.995-.027.093.683.261.672.37-.057.46-.682.627-.682 1.142.003.399.526 1.097.518 1.554-1.492-.45-1.284.298-1.623.62-.116.11-.47-.1-.639-.073-.628.101.643.617.771.823.528.903-2.127-.654-2.345-.174-.009.02 1.158 1.23 1.208 1.337.36.652-.502-.277-.717-.18-.395.178-.852.14-.733.772.039.182.639 1.072-.133.763-.101-.041-.506-.402-.547-.402-.698.007.584 1.125.822 1.727.235.604-.931.125-1.229-.056-.784-.45-.154-.38-.208-.45-.651-.802-.721-.47-.938-.374-1.214-1.147-1.339-.881-.218.102.124.106.133-.124.218-.102 1.039 1.282.896 1.721-.426.858-.373-.245-.683-.61-.908-.732-.076.052-.274.237-.358.274-.125-.109-.229-.112-.316.086-.101.226.576 1.16.587 1.522.022.83-1.006.202-1.286.57-.103.133.355.593.295.703-.157.295-.614.018-.739.374-.011.033.382.567.308.62-.547.415-1.273.35-1.901.693-.3.165-.666.787-1.018.896-.611.196-1.734-.29-2.1.162-.24.292.13.843.201 1.311.132.912-1.038-.246-1.204-.434-.005-.007.194-.28-.1-.51-.398-.59.103.505.1.51-.111-.118-.72.014-.772.178-.029.09.275.638.255.674-.498.86-1.208 1.36-2.114 1.43-.019-.005-.273-.657-.314-.662-.572-.094-.538.815-.743 1.443-.209.628-.598.593-1.249-.447-.25.253-.862-.095-1.212-.318-.347-.224.035 1.081.019 1.115-.467 1.05-1.139.437-1.965.515-.402.039-1.15.396-1.608.615-.357.176-.63-.11-.971.13-.047.033.063.63.05.655-.363.762-.289-.733-.396-.989-.394-.935-.556-1.433-1.078-.974-.099.106-.545 2.233-.86 2.338-.385.133-.189-.617-.601-.472-.036.011-.079.483-.337.43a8 8 0 0 1-.913-.248c-.64-.253-1.324-.586-2.109-.832-.144-.048-.216.723-.436.661-1.025-.29-2.362-.96-3.363-2.269-.239-.323.294-.555.334-.726.287-.99-1.174-.574-1.303-.695a4.8 4.8 0 0 1-.965-1.046c-1.368-2.217-.519-2.94-1.363-3.964-.051-.054-1.607-.232-.436-.746.077-.036 1.281-.536.38-.537-.056 0-.672.28-.659.027.016-.24-.5-.548.153-.996.205-.145 1.419-.622.362-.718-.073.004-2.434-.07-.888-.494.255-.071 1.923-.323 1.013-.523-.176-.04-.528.143-.789.004-.401-.21-.008-.627-.8-.848-.139-.035-1.309-.119-.475-.437.131-.05.697-.068.745-.18.234-.522-.204-.987.128-1.515.116-.188 1.031-.203 1.254-.41.222-.207.419-.575-.014-.72-.434-.144-1.857.208-2.001-.067-.624-1.184.133-2.466.189-3.674.009-.182-.502-.004-.526-.27-.094-.97-.637-2.65.454-3.514.874-.682 1.56.145 1.912-.367.168-.244-1.523-.495-1.576-.553-.545-.574.203-.992-.024-1.508-.047-.108-.732-.006-.764-.099-.117-.318.192-.651.141-.95-.025-.135-.548-.118-.505-.243.095-.296.321-.564.818-.836.045-.025.69.167.72-.05.046-.349.543-.78.059-1.196-.146-.125-1.339-.176-.505-.404.175-.049 1.604.08.379-.273-.204-.06-1.85-.647-.761-.846.286-.052 1.466-.159 1.29-.313-.028-.021-.673.024-.729-.1a1.5 1.5 0 0 1-.087-.285c-.069-.374-.035-.753-.161-1.142-.044-.133-.722.006-.766-.193-.123-.544.111-1.178.377-1.662.099-.174.63.017.691.01.991-.095-.298-.377-.365-.46-.399-.498.26-.764.156-1.182-.027-.116-.658-.129-.71-.159-.506-.31.581.026.725-.1.407-.351.431-.814.419-1.225-.005-.153-.749-.108-.745-.245.013-.818.236-1.624.784-2.304.104-.128.634.074.765.07.917-.021-.215-.562-.314-.656-.452-.421.058-.439.028-.732-.155-1.436.57-2.999 1.093-4.164.681-1.529 1.545-2.592 1.867-4.113.021-.096-.719-.22-.71-.306.154-1.107.762-2.048.905-3.156.013-.09-.697-.19-.699-.344a1.05 1.05 0 0 1 .461-.875c.15-.103.659.278.798.17.326-.25.492-.577.501-.946.003-.157-.753-.182-.696-.369.369-1.27.702-2.547 2.044-3.459.092-.063 1.492.38 1.297.1-.375-.157-.823-.326-1.227-.486.46-1.875 1.632-3.448 2.437-5.182.034-.074-.737-.243-.675-.386.357-.83.508-1.736 1.582-2.274.106-.054 1.34.535 1.259.202-.015-.06-.019-.507-.248-.721-.036-.031-.649-.22-.614-.347.218-.737.683-1.42 1.353-1.948.109-.083.673.316.755.26.59-.424.409-1.257 1.218-1.524.548-.186 1.545.451 2.678.76.16.044.287-.16.898.122 1.536.707 3.156 1.61 4.799 2.352.354.16.105-.286.874.278.052.038.239.366.503.552.182.13.828.365 1.049.555s-.332.017-.089.277c.247.26.973.544.952.803m-7.389 62.52c-.404-.563.202 1.752.308 1.127a18 18 0 0 0-.308-1.126m20.883-16.936c-1.091-.09.292.64 1.13.727.84.078-.798-.705-1.13-.727m.197-3.063c-.89.068 2.336 1.12 1.786.573-.031-.03-1.734-.577-1.786-.573m-22.791-46.45c.03.011.132-.133.105-.15-.648-.407-.852-.118-.105.15M328.216 71.2c-.467-.048-.052.39.529.448.467.048.052-.388-.529-.448m-31.329 17.049c.032-.016.031-.14-.162-.083-.624.18-.399.304.162.082m32.858-21.593c-.359.626-3.145.097-2.586-.53.101-.113.74.585 1.038.501.544-.154-1.041-.949-.041-.947.183.001 1.615.943 1.592.979zm-23.551 24.75c-.013-.03-.182-.014-.177.017.109.758.463.723.177-.018m-9.079-10.383c.066-.015.088-.405.026-.412-1.258-.079-1.306.725-.026.412m18.57 4.175c-.221-.754-.08-.938.524-.179-.181.046-.344.13-.524.179"/><path fill="#fff" d="M279.766 38.282c.289-.2.762.031 1.128.342.113.096.05.52.129.605.162.167.306-.04.461.159.052.067-.021.738.034.794.315.3.582.131.897.277 1.515.717 3.012.978 4.57 1.294.502.104 1.137.718 1.655.455.062-.031.03-.621.042-.67.19-.742.12.447.241.606.481.628.996.686 1.467.462.193-.097.009-1.27.198-.61.013.044-.041.67.012.737.118.15.349.04.444.091.182.1.213.094.388.103.235.017.504.33.758.19.055-.031-.012-.674.075-.782.087-.109.317-.053.394.1.077.151.04.656.053.771.103.977.371-.372.405-.405.619-.565 1.146.21 1.72.213.446 0 .912-.25 1.329-.21.501.048.918.4 1.399.345.051-.005-.001-.76.062-.767.674-.081 1.313.008 1.977.524.066.053-.028.714.038.806.408.55 1.015 1.864 1.293-1.017.273.115.615.236.845.82.152.376-.008 1.096.188.79.044-.068-.005-.7.061-.755.277-.228.577-.019.858-.342.057-.067.049-.634.066-.736.145-.824.349.544.394.644.352.745.622.457.964.48.08.005-.005-.757.072-.78.402-.103.808-.033 1.186.31.085.078-.002.725.038.796.176.302.233-.921.403-.654.037.054.008.609.014.67.092.958.202-.396.23-.426.35-.404.549 1.014.876.818.039-.025-.039-.728.071-.755a2.3 2.3 0 0 1 1.393.098c.03-.007.125.011.156.006q.43.19.829.543c.108.094-.011.614-.008.68.044 1.021.216-.331.256-.38.317-.347.505.81.816-.792 1.203.65 2.492-.168 3.605 1.372.015.018-.063.685-.035.718.342.403.343-.642.692-1.893.087-.314.162 1.234.17 1.348.03.419-.109 1.408-.095 1.49.122.643.346-2.647.576-2.63.006.005-.07.608-.056.67.046.193.123-.043.165.17.096.492.02 2.094.294 1.18.035-.12.14-1.987.335-1.883.077.043.435.038.53.167.093.129-.024.724-.019.751.212.816.082 1.137.127 2.325.044 1.182.226-1.616.306-1.924.081-.306.228.365.258.597.031.232-.06.609-.027.741.219.866.235-1.378.365-1.814.306-1.032.309 1.054.498 1.273.052.06.044-.416.098-.456.212-.153.278.504.549-.071.045-.094.326-1.325.368-.402.005.134-.083.646-.01.769.11.183.322.314.468.153.107-.12.066-.98.166-.706.045.123-.097.612-.01.8.087.19.359.19.461.181s.101-.66.113-.702c.07-.245.289-.54.306-.538.852-.008 1.573 1.15 2.418.86.066-.022.083-.706.094-.716.254-.265-.085 1.528.021 2.148.098-1.383.171-1.125.343-1.262.084-.067.089-.606.101-.66.185-.802.172.254.173.47.005.796.168-.13.172.403.004.528-.181 1.294-.03 1.297.086-.49.09-1.792.222-1.99.49-.755 1.234.334 1.562.47.331.137.455.057.645.255.339.357.294-.614.563-1.03s-.065 1.929-.081 2.438.068-.008.081.274-.105.618-.023.732c.083.113.416-.764.505-1.29.18-1.115.176-2.304.39-1.866.012.026-.095.641-.046.71.401.52.817.59 1.228 1.058.054.065-.069.748-.038.794.318.477.305-.698.634-1.968-.219 1.713-.216 2.774.049 2.812.157.023.212-.73.375-1.247.049-.156.114.372.172.021.191-1.145.216-2.447.447-1.903.01.026-.096.652-.057.695.25.28.409-.923.721-1.037.258-.088.6.693.847.841-.221 1.928.077 1.514.335.197.172.075.369.021.513.224.05.07-.052.623-.052.684 0 .959.223-.325.265-.372.482-.443.677.574 1.19-.333.018-.033.209-1.368.193-.378-.002.068-.208.66-.029.73.184.072.413.83.764.246.082-.14.386-1.204.393-.34.001.117-.069.498-.075.714-.017.69.203-.655.141.505-.064 1.16.003 2.044.359 1.289.011-.022.223-1.082.301-1.053.131.048.28.298.409.311.062.006.128-.662.14-.673.492-.302.721.342 1.11.683.085.067.509-.78.528-.032-.025.81-.908 3.98-.59 3.255.05-.148.376-1.224.72-1.966a3 3 0 0 1 .242-.49c.031-.074.072-.166.132-.192.061-.029.092.011.101.031.005.115-.142.008-.32-.505a.27.27 0 0 1-.172.177l.036-.004c-.473.142-.96-.54-1.425.13-.024.036-.063 1.203-.127 1.19-.094-.023-.162-.565-.229-.6-.279-.154-.518.318-.786.252-.101-.024-.078-.588-.198-.617-.119-.028-.187.715-.354.36-.129-.272-.273-1.786-.436-1.96.015 1.495-.096 1.466-.29 1.863-.037.077.01.597-.007.66-.071.27-.145-.161-.211.132-.016.07-.012.58-.025.667-.112.753-.318-.394-.353-.593-.135-.759-.189-.094-.29-.393-.1-.298.044-.673-.071-.854-.239-.374-.542-.29-.782-.313-.096-.006-.029.676-.042.69-.199.174-.401-.55-.509.808-.143-3.511-.119.34-.404-.362-.023-.057-.052-1.717.033-1.96.085-.245.216.274.334-.106.028-.09.186-1.645.207-1.74.169-.736.2 1.745.21 1.88.107 1.471.299-.206.35-.322.234-.531.436-.183.63-.563.128-.246.128-1.871.228-1.822.332.161.475 2.427.765.458.062-.42-.028-2.195.228-.802.016.088.212 1.363.302.553.011-.102.002-.62.018-.664.107-.283.189.128.307-.072s.256-.497.398-.325c.084.103.216 1.064.263 1.3.132.676.221-.442.315.379.098.825-.004 2.086.206 2.615-.038-1.345-.069-2.725-.104-4.077.393.034.796.451 1.168.37.045-.012-.045-.731.001-.762.113-.074.229.062.341.148l-.354.04a.09.09 0 0 1-.06.082c-.049.02-.082.01-.301.027-.094.007-.216.014-.385.04-.095.02-.143.016-.325.077a4 4 0 0 0-.743.358 4.6 4.6 0 0 0-1.106.948c-.304.301-1.176 1.633-1.189 3.126-.068 1.484.602 2.761.989 3.293.264.397.509.673.715.89.405.423.723.659.858.796.113.125.2.225.272.312.143.172.22.285.249.346.637-1.413.338-.96.251-1.12-.033-.058.055-.46.045-.598-.051-.518-.252.83-.335 1.032-.331.866.223-2.163-.051-2.135-.014 0-.445 1.592-.483 1.69-.247.633.073-.568.004-.702-.137-.247-.178-.65-.449-.206-.078.132-.375 1.121-.368.323.001-.105.088-.64.081-.673-.133-.555-.386 1.13-.589 1.685-.203.553-.24-.64-.228-.98.02-.883.128-.36.144-.445.204-1.006.044-.85-.051-.95.21-1.659.042-1.58-.101-.098-.015.162.09.019.101.097-.316 1.612-.503 1.799-.496.254.006-.723.188-1.544-.109-1.274-.137.122-.237 1.27-.382 1.567-.33.68-.527-.426-.791-.288-.098.05-.085.686-.155.742-.185.15-.277-.337-.479-.117-.018.02-.057.68-.111.682-.386.032-.695-.429-1.104-.486-.194-.027-.59.295-.795.2-.35-.162-.677-1.16-1.021-.962-.222.127-.246.787-.375 1.225-.25.85-.383-.731-.399-.976 0-.008.188-.145.13-.491.018-.707-.128.488-.13.491-.009-.158-.343-.342-.427-.223-.045.064-.086.688-.108.71-.522.51-.984.624-1.441.286-.007-.013.072-.707.054-.73-.239-.335-.491.5-.763.984-.272.483-.436.297-.46-.91-.191.134-.376-.416-.487-.75-.109-.333-.253 1.02-.268 1.046-.46.822-.621.026-1.009-.131-.18-.076-.572.087-.792.217-.174.105-.245-.222-.415-.032-.023.025-.055.63-.064.653-.233.707-.022-.76-.034-1.027-.046-.97-.072-1.486-.325-1.054-.057.099-.384 2.21-.484 2.327-.131.148-.021-.61-.159-.436-.012.014-.05.484-.124.457-.344-.12-.714-.427-1.074-.41-.05 0-.049.751-.122.764-.343.06-.712.002-1.019-.375-.076-.095.019-.612.014-.769-.034-.947-.293.404-.321.427-.646.606-1.022-.665-1.683-.127-.036.032-.407 1.472-.422.21-.001-.084-.013-1.374-.183-.506-.01.054.008.72-.11.643-.119-.077-.353.348-.469-.39-.036-.233-.065-1.522-.309-.516-.019.07-.44 2.356-.405.76.006-.264.152-1.945-.105-1.097-.05.164-.013.545-.127.772-.175.35-.336-.116-.576.62-.042.13-.265 1.261-.308.386-.007-.137.069-.696.016-.764-.253-.322-.569.032-.811-.377-.087-.145.031-1.049-.052-1.3s-.271-.5-.409-.093-.13 1.863-.299 1.967c-.743.45-1.357-.449-2.047-.624-.103-.026-.054.499-.208.497-.58-.003-1.556.416-1.974-.72-.332-.91.211-1.547-.065-1.927-.133-.181-.409 1.491-.448 1.542a1 1 0 0 1-.07.082l.354.015c-.318.359-.537-.288-.829-.077-.064.047-.012.731-.066.764-.186.116-.375-.192-.55-.139-.079.026-.072.548-.143.507-.171-.093-.319-.315-.486-.807-.015-.044.1-.693-.03-.719-.211-.04-.465-.527-.711-.031-.073.15-.092 1.343-.233.517-.029-.173.03-1.606-.163-.37-.033.206-.349 1.873-.481.794-.036-.284-.121-1.459-.21-1.276-.012.03.026.672-.046.733-.256.206-.518.134-.776.332-.069.054.025.72-.078.779-.282.164-.62-.01-.9-.22-.102-.08-.024-.629-.031-.689-.108-.974-.194.338-.235.414-.251.456-.43-.163-.655-.003-.062.043-.026.67-.039.726-.134.544-.026-.58-.105-.705-.218-.353-.476-.306-.71-.229-.086.03.002.757-.075.775-.457.12-.907.045-1.348-.36-.083-.078-.024-.636-.04-.764-.11-.895-.299.322-.34.437-.188.529-.253.033-.414.124-.779.451-1.747.114-2.493-.096-.957-.27-1.707-.808-2.627-.678-.059.008-.006.752-.057.768-.653.174-1.295-.122-1.943.087-.053.016.017.722-.068.772-.169.105-.403.065-.579-.161-.087-.11.035-.714-.052-.811-.203-.229-.42-.28-.625-.169-.088.049.038.771-.075.779-.803.065-1.572.184-2.359-.755-.055-.065-.094-1.531-.213-1.25-.012.406-.015.885-.021 1.32-1.149.226-2.28-.29-3.439-.376-.05-.003.031.774-.066.771-.547-.015-1.069.197-1.638-.58-.055-.076-.016-1.442-.178-1.237-.024.038-.282.218-.349.514-.009.044.031.683-.05.7-.451.093-.967-.058-1.428-.454-.079-.066.016-.743-.04-.796-.373-.366-.824.143-1.241-.489-.277-.426-.143-1.596-.227-2.758-.004-.163-.241-.207-.203-.88.191-1.68.402-3.52.574-5.314.02-.19.045-.196.414-.184.104.026.525.012 1.405.53a4.2 4.2 0 0 1 1.451 1.544c.412.738.506 1.507.538 1.79.023.299.081.195.052-.393-.016-.566-.358-1.705-1.005-2.445-1.338-1.476-2.263-1.486-2.332-1.678-.059-.047-.363-.19-.404-.317-.043-.13-.041-.288-.032-.447.011-.22.064-.901.073-1.183.013-.28-.007.292.059-.036.062-.333.058-1.111.178-1.2m45.099 12.398c-.073-.662-.309 1.719-.115 1.162.01-.03.119-1.13.115-1.162m13.129-3.203c.218 1.046.244-.51.088-1.318-.153-.807-.152 1.001-.088 1.318m-1.699.83c.218.826.166-2.566-.024-1.876-.011.04.012 1.827.024 1.875m-56.626-.117c-.002-.032-.11-.066-.113-.034-.08.758.139.825.113.034m54.885.98c.066.459.241-.073.158-.643-.066-.458-.241.073-.158.643m-16.31-1.617c.001-.035-.074-.074-.088.127-.048.648.075.474.088-.127m13.304 1.665c.444.128.716 2.93.23 2.614-.087-.057.19-.894.078-1.146-.205-.46-.341 1.3-.549.356-.038-.172.215-1.837.242-1.828zm-6.499-1.407c0-.032-.104-.071-.109-.04-.127.751.083.831.109.04m-11.13-2.077c-.001-.068-.241-.15-.254-.088-.22 1.23.264 1.397.254.088m18.409 1.043c.194-.747.349-.82.336.144-.112-.064-.232-.085-.336-.144m23.87-21.947c.324.992.219 2.355-.023 3.365-.074.32-.508.188-.579.408-.139.424.089.8-.088 1.223-.061.137-.74 0-.789.143-.262.78-.069 1.496-.196 2.275-.635 3.796-1.01 7.37-1.484 11.025-.157 1.222-.841 2.633-.645 3.891.023.149.617.094.664.125.718.483-.462.267-.636.536-.687 1.079-.815 2.309-.655 3.41.07.455 1.267.076.583.49-.047.03-.664-.125-.739-.005-.167.272-.09.82-.153 1.041-.126.43-.124.484-.156.884-.05.535-.405 1.202-.3 1.775.024.126.675.004.771.209.096.204.007.73-.156.902-.163.17-.661.06-.778.084-.992.205.317.896.345.977.473 1.475-.376 2.637-.466 4.004-.063.992.114 2.152.015 3.091-.122 1.154-.535 2.114-.551 3.24-.002.12.76.03.759.177-.016 1.551-.202 3.093-.811 4.565-.061.15-.709-.091-.811.056-.606.907-2.01 2.31.833 3.053-.116.472-.239 1.025-.554 1.505a2.2 2.2 0 0 1-.388.453c-.401.35-1.094-.071-.821.416.061.11.701.022.744.183.18.68-.088 1.39.171 2.081.054.141.621.162.718.21.79.407-.628.804-.74.905-.837.799-.633 1.472-.773 2.295-.033.19.754.076.748.265-.038.982-.28 1.98-.802 2.852-.118.195-.714-.128-.803-.042-.383.37.792.726.44 1.09-.073.078-.603-.095-.666-.092-.989.038.281.555.294.63.199.924-1.307 1.089-1.331 1.908-.002.1.734.082.685.354a10.8 10.8 0 0 1-1.774 4.25 7 7 0 0 1-.337.49c-.115.15-.224.277-.388.485-.276.325-.591-.198-.663-.202-.545-.07-.492.015-.45.334.069.278.2.659.108.78-.035.1-.786.856-1.891.717-1.167-.134-1.713-1.111-1.761-1.241a2.6 2.6 0 0 1-.219-.693c-.022-.154-.027-.269-.042-.392-.059-.538-.183-.725-1.017-1.028.45-3.334-.095-6.202 1.683-8.963.022-.036.679.113.718.043.483-.822-.572-.78-1.756-1.54-.297-.195 1.288-.43 1.405-.451.432-.084 1.399.2 1.485.165.681-.302-2.594-.7-2.516-1.245.008-.016.598.143.664.107.209-.114-.009-.29.218-.393.525-.24 2.124-.105 1.277-.72-.11-.08-1.974-.275-1.81-.745.066-.184.173-1.034.334-1.252.16-.217.726.047.755.035.894-.5 1.179-.202 2.396-.311 1.212-.107-1.564-.51-1.849-.693-.285-.185.446-.531.692-.602.246-.072.597.138.742.062.955-.507-1.313-.547-1.709-.85-.936-.722 1.185-.733 1.479-1.164.079-.117-.406-.106-.426-.229-.074-.489.616-.621.144-1.262-.077-.103-1.208-.79-.252-.862.138-.01.62.21.776.044.232-.245.462-.74.365-1.086-.071-.256-.964-.192-.637-.418.145-.1.575.25.807.056.231-.189.36-.807.402-1.04.041-.232-.618-.267-.656-.296-.214-.175-.402-.694-.39-.733.457-2.026 2.038-3.513 2.463-5.528.035-.16-.637-.32-.638-.347-.049-.626 1.458.474 2.158.385-1.295-.497-.972-.62-.944-1.04.013-.202-.515-.34-.558-.378-.412-.412-.073-.426.254-.365.161.025.319.067.389.083.792.193.069-.434.597-.29.517.155 1.056.777 1.222.475-.37-.348-1.637-.757-1.656-1.133-.072-1.51 2.306-2.575 3.077-2.972.788-.475.995-.697 1.535-.815.975-.18.208-.851.571-1.527.385-.667 1.086 1.62 1.373 2.047.275.434.136-.077.332.144.191.222.154.614.382.63.216.02.424-1.024.334-1.554-.207-1.12-.873-2.148-.115-1.958.042.012.117.641.269.66 1.188.128 2.274-.067 3.367.21.149.04.116.744.201.775.88.338.437-.783.815-2.121.044 1.73.387 2.752.992 2.73.365-.01.274-.76.509-1.298.072-.163.354.35.4-.005.158-1.158-.121-2.46.598-1.938.031.025-.077.658.03.698.674.266.797-.944 1.589-1.038.625-.075 1.61.782 2.254 1.02-.206 1.165-.037 1.495.23 1.291.195-.126.467-.453.769-.903.571.234 1.253.559 1.557 1.11.101.186-.39.492-.414.554-.473.87.616.17.748.26 1.174.843.461 2.044 1.621 2.76.041.023 1.374-.199.466.269-.062.027-.697-.15-.686.263.009.028.015.114.021.142l-.002.031c-.004.47-.683 1.321-.053 1.92.152.142 1.249.528.391.829-.117.038-.503-.01-.719.045-.687.172.673.304-.489.492-1.162.19-2.04.576-1.272 1.198.022.02 1.093.216 1.065.404-.046.302-.298.712-.315 1.022-.008.15.668.105.678.132.295 1.049-.37 1.716-.745 2.761-.07.191.773.867.008 1.161-.837.323-4.049-.507-3.391.53.264.409 4.338 1.46 2.097 1.86.343 1.422-.94 2.493-.395 3.954.024.065 1.144.44 1.106.58-.06.21-.616.237-.676.383-.155.356-.093.724-.051 1.093.041.249.073.503.013.752-.053.228-.603.083-.666.358-.061.277.657.538.263.877-.299.255-1.836.405-2.045.78 1.489.141 1.435.401 1.794.893.07.094.596.037.656.083.255.189-.186.315.095.496.067.044.577.079.661.116.733.314-.439.689-.643.757-.774.256-.117.427-.427.64-.308.214-.667-.143-.86.116-.399.54-.34 1.263-.376 1.827-.011.225.674.086.688.118.163.466-.569.927.787 1.199-3.514.287.336.282-.369.935-.057.051-1.718.114-1.961-.089s.278-.507-.099-.793c-.089-.065-1.64-.471-1.733-.526-.73-.43 1.752-.443 1.889-.461 1.474-.216-.19-.717-.302-.845-.515-.582-.149-1.055-.506-1.548-.231-.323-1.852-.433-1.79-.683.21-.836 2.49-.958.588-1.884-.404-.2-2.19-.175-.746-.672.091-.034 1.403-.366.623-.7-.098-.042-.614-.091-.653-.139-.251-.319.179-.47.017-.807-.163-.337-.411-.753-.193-1.094.074-.115.424-.216.759-.294.007-.03.014-.124.022-.154.258-.045.507-.078.615-.103.716-.162-.338-.629.502-.666.845-.038 2.032.495 2.632.134-1.325-.23-2.682-.487-4.013-.728.202-.958.779-1.84.864-2.817.01-.122-.724-.105-.733-.237-.034-.556.544-.952.419-1.54-.1-.454-.795-1.03-.929-1.497 1.562-.076 1.128-.81 1.323-1.272.068-.164.475-.105.622-.21.545-.397-.831-.337-1.03-.484-.851-.62 2.216-.34 2.203-.985.001-.035-1.595-.594-1.692-.656-.632-.406.574-.007.714-.214.256-.383.669-.634.222-1.135-.132-.149-1.132-.53-.328-.742.105-.028.646.02.679-.006.555-.48-1.148-.57-1.715-.863-.566-.288.619-.668.959-.754.88-.213.372.18.457.195 1.021.17.853-.157.941-.396 1.672-.02 1.572-.38.084-.252-.162.014-.007.204-.084.252-1.638-.234-1.847-.547-.325-.978.711-.205 1.558-.056 1.226-.628-.153-.257-1.296-.09-1.622-.28-.158-.092-.237-.19-.267-.294l.065.454c-.153-.387.37-.927.161-1.123-.092-.08-.654.221-.734.188-.199-.054.19-.307.012-.138-.013.02-.582.357-.563.4.06.15.321.363.643.482.321.125.66.137.835.118a2 2 0 0 0-.317-.09c-.351-.07-1.058.208-1.436.105-.649-.182-1.501-1.163-2.113-.914-.389.16-.279.818-.415 1.273-.246.881-.879-.63-.992-.86-.006-.008.311-.193.103-.514-.172-.692-.101.511-.103.514-.063-.153-.735-.223-.842-.075-.059.078.074.69.043.72-.73.679-1.376 1.001-2.142.962-.016-.008-.231-.673-.268-.682-.53-.139-.47.77-.506 1.352-.042.586-.256.516-1.048-.405-.114.247-.674-.005-1.037-.126-.366-.119.496.937.504.965.247.93-.42.504-.812.817-.173.133-.238.572-.214.855l-.001.051c.003.266-.358.287-.281.62.012.042.581.25.598.27.559.536-.753-.161-1.02-.208-.974-.163-1.52-.183-1.251.383.06.133 1.963 1.134 2.024 1.337.073.269-.622-.058-.526.23.008.024.456.172.389.305-.308.631-.803 1.317-.969 2.083-.024.102.732.175.71.325-.107.712-.33 1.464-.842 2.088-.127.15-.61-.08-.77-.08-.971.009.281.656.294.715.339 1.438-1.083 2.18-.772 3.653.018.083 1.349.919.067.939-.085 0-1.396.018-.572.4.051.024.731-.013.615.248-.117.261.241.775-.541 1.026-.246.078-1.56.15-.611.679.065.038 2.257.957.652.896-.264-.01-1.926-.31-1.14.257.153.108.548.018.747.27.306.385-.206.746.478 1.263.121.091 1.212.553.318.667-.14.019-.688-.132-.769-.014-.383.55-.096 1.253-.557 1.801-.164.204-1.054-.02-1.324.18-.271.202-.558.635-.171.915.387.286 1.859.188 1.935.557.336 1.563-.645 2.985-.824 4.37-.026.199.498.058.5.336a6 6 0 0 0 .129 1.12c.014.069.03.108.004-.047a4 4 0 0 0-.115-.466c-.129-.36-.191-.835-1.002-2.014a7.12 7.12 0 0 0-4.012-2.72c-2.129-.562-4.163.062-5.195.67-1.185.714-1.256.932-1.549 1.21-.239.261-.39.47-.499.636-.234.369-.209.414-.24.533-.015.098.001.158.035.194.071.064.192.075.34.078.157.001.308-.006.445.01.313.006.539.152.731.29.202.13.368.251.551.218a.5.5 0 0 0 .168-.092c.274-.226-1.19-1.128-1.217-1.21-.267-.828.591-1.025.564-1.687-.006-.136-.695-.226-.694-.338-.004-.378.398-.655.44-1.005.018-.158-.493-.273-.416-.398.178-.303.467-.536 1.024-.745.052-.02.63.345.717.095.139-.4.732-.816.347-1.408-.116-.175-1.284-.42-.414-.562.181-.03 1.572.333.428-.27-.188-.108-1.721-1-.61-1.11.293-.03 1.484-.036 1.332-.247-.025-.029-.674-.036-.712-.193-.123-.546.024-1.08-.104-1.643-.035-.15-.721-.026-.754-.243-.09-.602.161-1.308.425-1.869.099-.207.631-.004.692-.014.995-.162-.299-.435-.368-.525-.409-.564.239-.908.113-1.408-.034-.139-.665-.09-.719-.12-.524-.315.583-.028.719-.194a1.4 1.4 0 0 0 .261-.48c.113-.38.098-.777.068-1.147-.017-.2-.756-.025-.763-.204-.056-1.056.085-2.142.553-3.147.09-.187.64-.029.77-.06.91-.218-.28-.7-.389-.8-.502-.449.003-.592-.063-.977-.336-1.873.141-4.089.461-5.827.411-2.215 1.062-3.961 1.065-6.095.002-.139-.75-.048-.759-.169-.077-1.539.311-3 .195-4.536-.008-.126-.724.009-.761-.195-.08-.42-.01-.922.241-1.324.122-.198.708.115.818-.085.257-.466.339-.97.255-1.452-.037-.206-.776.055-.768-.209.042-1.844.023-3.633 1.052-5.41.071-.125 1.541-.16 1.274-.443-.405-.041-.883-.064-1.317-.096-.099-2.638.519-5.217.644-7.788.005-.11-.775.066-.769-.145.032-1.203-.178-2.37.577-3.587.073-.12 1.441-.081 1.228-.433-.038-.058-.233-.602-.534-.728-.045-.017-.68.096-.703-.073a7 7 0 0 1 .289-3.003c.053-.16.742-.044.786-.16.3-.834-.295-1.638.228-2.467.352-.556 1.54-.51 2.651-.937.157-.06.139-.394.803-.502 1.669-.273 3.527-.35 5.304-.659.383-.066-.099-.501.871-.338.065.012.422.33.749.38.226.034.89-.168 1.186-.075.296.095-.255.31.099.484.359.174 1.121-.013 1.262.414m-5.011 38.157c-.639-.272 1.128 1.342.839.812a23 23 0 0 0-.839-.812m12.925 12.98c1.104-.232-.39-.737-1.238-.58-.847.153.904.65 1.238.58m.13 4.305c.882-.377-2.477-.865-1.858-.257.035.036 1.807.28 1.858.257m-17.838-53.865c.032-.007.037-.25.005-.253-.769-.043-.78.436-.005.253m18.317 58.137c.466-.122-.037-.579-.618-.43-.468.123.037.585.618.43m-20.726-8.556c-.036-.003-.102.166.096.202.639.115.508-.163-.096-.203m20.638 15.645c.118-1.051 2.921-1.678 2.61-.558-.056.204-.897-.432-1.148-.172-.457.483 1.305.776.368 1.273-.171.09-1.843-.48-1.834-.545zM348.98 61.138c-.028-.017-.215.147-.194.173.49.59.841.288.194-.173m-8.088 24.93c-.069.008-.197.566-.137.594 1.2.432 1.462-.69.137-.594m23.891-30.523c.213-.35.418-.53.57-.498.236.047.418.323.426.831a3.4 3.4 0 0 0-.551-.197c-.145-.043-.294-.085-.445-.136m17.892-.681c.421-.048.93.39 1.289.849.11.142-.11.513-.038.63.15.23.399.1.536.358.045.087-.266.69-.213.767.288.418.723.388 1.069.657 1.749 1.339 3.68 2.192 5.665 3.042.649.278 1.338 1.083 2.109.992.09-.01.177-.596.204-.64.416-.665.06.474.185.665.496.758 1.207.97 1.868.872.282-.043.251-1.244.383-.547.01.047-.179.648-.12.728.134.18.465.13.582.202.225.143.268.145.498.194.311.071.636.442.998.356.077-.02.083-.669.214-.759.13-.09.419.01.499.174.08.165-.036.658-.034.775.013.989.554-.302.599-.33.888-.457 1.48.378 2.244.43.569.035 1.179-.196 1.692-.162q.102.008.201.025c-.367.02-.955.175-1.429.544-.48.364-.703.792-.789 1.045-.149.513-.021.525-.059.467-.005-.015-.76-.028-.768-.036-.073-.17-.109-.985.183-1.868.029-.091.697-.155.765-.258.406-.622 1.382-1.897-1.462-1.302-.003-.371-.037-.825.397-1.335.279-.328 1.03-.378.648-.525-.085-.033-.651.259-.734.194-.347-.271-.303-.73-.745-.958-.091-.045-.609.184-.712.202-.831.143.323-.643.389-.743.494-.744.079-.977-.092-1.414-.04-.101-.685.322-.748.236a2.22 2.22 0 0 1-.407-1.604c.019-.14.651-.318.69-.4.084-.18-.169-.146-.418-.111-.226.063-.441.143-.349.041.038-.043.529-.302.581-.335.79-.546-.413.086-.437.105-.213.048-.022-.115.148-.341.177-.219.322-.5.206-.46-.022.015-.426.59-.444.611-.047.078.028.105-.057.026-.079-.076-.308-.214-.701-.364a2 2 0 0 0-.185-.149c-.098-.064-.179-.587-.198-.65-.381-.95-.077.383-.075.436-.068.407-.852-.476-.233 1.037-1.31.105-1.794 1.87-3.914 2.204-.026.006-.525-.444-.576-.43-.621.177.258.748 1.074 1.778.207.255-1.178-.461-1.283-.508-.384-.18-1.134-.843-1.215-.868-.654-.177 2.03 1.738 1.854 1.985-.01.004-.48-.383-.544-.397-.202-.044-.053.163-.269.107-.498-.132-1.855-.99-1.253-.22.08.098 1.65 1.115 1.423 1.291-.091.069-.339.498-.514.546-.177.049-.63-.36-.657-.366-.875-.116-1.074-.416-2.174-.887-1.099-.465 1.296.996 1.519 1.229.222.232-.483.118-.715.057-.231-.062-.51-.338-.653-.354-.939-.09 1.088.888 1.397 1.235.736.813-1.167-.058-1.494.092-.088.04.352.227.355.31.004.323-.642.142-.286.714.057.094 1.015.936.137.623-.126-.046-.543-.361-.703-.315-.239.068-.496.293-.439.544.044.186.868.461.55.486-.142.011-.507-.36-.737-.317-.23.041-.394.385-.448.52-.053.134.554.375.586.406.186.18.331.57.319.59-.505 1.104-1.994 1.611-2.207 2.847-.017.096.622.345.626.363.113.414-1.4-.622-2.046-.688 1.257.586.972.594 1.009.865.018.13.526.314.571.347.661.503-.334.141-.541.073-.759-.252.031.265-.477.098-.505-.164-1.131-.657-1.218-.456.419.272 1.656.694 1.773.934.168.34.068.643-.133.9-.312.381-.899.7-1.065.95-.267.4-.227.573-.484.775-.462.375.512.492.85.896.344.396-1.896-.377-2.398-.472-.503-.09-.012.098-.297.082-.285-.015-.585-.232-.724-.12-.141.117.644.713 1.154.876 1.076.352 2.261.468 1.786.688-.028.013-.623-.18-.7-.122-.593.474-.724 1.086-1.212 1.643-.068.078-.748-.073-.796-.028-.495.49.687.417 1.958.784-1.715-.192-2.784-.117-2.816.312-.018.252.737.242 1.263.41.159.05-.362.207-.008.244 1.158.114 2.455-.017 1.938.34-.025.018-.659-.033-.698.025-.247.376.966.393 1.131.752.128.277-.561.86-.63 1.224-1.926.248-1.43.569-.088.467-.016.229.106.448-.026.694-.044.087-.602.17-.659.193-.889.376.401.163.461.189l.072.048c.213.098.152.275.189.46.034.177.167.346.646.209.04-.006 1.091-.848.394-.149-.044.053-.607.34-.51.524.08.172-.089 1.018.567.744.163-.06.957-.827.565-.056-.052.106-.297.405-.398.598-.31.62.508-.47-.041.557-.549 1.025-.713 1.954.04 1.46.024-.014.626-.914.714-.848.146.11.282.427.464.501.086.035.306-.602.325-.606a.8.8 0 0 1 .277.001l-.146-.044c.491.002.797.53 1.32.84.115.07.6-.778.722-.03.142.821-.608 4.04.136 3.352.31-.274 1.128-4.378 1.303-2.18.898-.437 1.594.736 2.503.026.041-.031.232-1.187.318-1.167.127.034.171.581.264.622.389.184.768-.268 1.145-.185.142.03.078.592.252.628.173.035.303-.705.53-.344.173.275.343 1.793.588 1.97.01-1.496.174-1.464.459-1.862.054-.076-.009-.596.016-.66.101-.269.204.161.3-.132.023-.07.016-.581.034-.668.152-.754.447.388.502.587.2.754.272.088.419.382.153.295-.049.675.125.851a.9.9 0 0 0 .421.241h-.021c.241.07.491.044.707.063.136.008.054-.675.074-.69.293-.168.556.566.766-.785.067 3.516.187-.335.575.387.031.058-.011 1.718-.143 1.956-.132.237-.293-.29-.474.084-.045.088-.316 1.635-.345 1.729-.245.73-.22-1.75-.231-1.887-.116-1.474-.423.198-.489.314-.154.249-.293.304-.426.333l.069-.002c-.164.038-.324.04-.477.246-.187.251-.16 1.876-.321 1.831-.54-.15-.743-2.415-1.219-.446-.103.42.008 2.196-.384.8-.025-.088-.303-1.367-.472-.56-.022.101-.027.619-.055.662-.19.279-.307-.135-.512.058-.205.194-.458.482-.687.299-.136-.11-.279-1.08-.335-1.319-.152-.687-.404.418-.477-.41-.071-.833.207-2.078-.052-2.627-.082 1.343-.181 2.72-.272 4.07-.676-.084-1.305-.566-1.982-.57-.085.002-.066.73-.16.749-.393.078-.675-.47-1.091-.311-.325.125-.758.842-1.112.989.007-1.552-.532-1.101-.857-1.295-.113-.067-.041-.472-.104-.617-.238-.541-.309.825-.433 1.021-.539.836-.051-2.203-.49-2.206-.021 0-.609 1.559-.67 1.651-.38.605.066-.569-.067-.718-.06-.067-.112-.143-.163-.213-.156-.059-.641-.152-.783-.24-.164-.266-.303-.475-.757-.29-.169.077-.931.84-.788.017.02-.107.296-.575.288-.615-.145-.686-1.006.78-1.574 1.11-.577.324-.333-.933-.202-1.258.315-.852.363-.203.424-.267.695-.766.345-.789.211-.996.957-1.368.68-1.453-.142-.209-.088.138.15.121.142.21-1.123 1.21-1.644 1.077-.961-.36.329-.671 1.017-1.167.42-1.311-.272-.075-1.019.806-1.425.837-.956.035-.657-1.312-1.136-1.828-.185-.203-.606.336-.756.195-.411-.407-.18-1.052-.586-1.572-.037-.049-.581.25-.686.096l-.008-.011c-.309-.843-.025-1.615-.126-2.414-.05-.387-.481-1.043-.433-1.448.074-.716 1.023-1.54.807-2.097-.138-.37-.799-.318-1.241-.5-.856-.371.743-.838.99-.879.008-.001.138.329.489.186.71-.039-.486-.181-.489-.186.158-.035.37-.646.262-.784-.06-.076-.685-.114-.704-.154-.449-.934-.443-1.871.05-2.68.015-.012.69.172.719.142.419-.414-.325-.935-.689-1.5-.363-.56-.084-.865 1.131-.71-.04-.353.616-.599 1.008-.715.39-.114-.856-.657-.872-.69-.412-.797.074-1.03.505-1.39.101-.07.198-.148.275-.25.179-.235.25-.832.256-1.182.002-.275.353-.266.272-.562-.01-.04-.567-.281-.583-.3-.535-.554.736.216.997.287.946.257 1.454.385 1.196-.109-.059-.113-1.863-1.271-1.911-1.452-.059-.233.591.175.512-.078-.006-.021-.428-.232-.356-.327.329-.444.846-.844 1.07-1.368.033-.071-.675-.333-.639-.442.171-.51.475-1.014 1.033-1.3.139-.07.559.254.708.305.905.308-.173-.566-.176-.615-.103-1.158 1.336-1.177 1.34-2.324-.003-.062-1.033-1.188.136-.689.079.032 1.268.554.608-.05-.041-.038-.664-.29-.499-.426.164-.135-.031-.653.734-.496.242.047 1.426.578.717-.204-.053-.05-1.741-1.686-.333-.92.232.127 1.613 1.095 1.076.347-.103-.146-.477-.266-.578-.534-.154-.415.402-.422-.023-1.119-.078-.12-.863-.99-.047-.632.127.056.548.435.658.392.525-.203.528-.829 1.149-.982.217-.052.872.587 1.173.603.299.018.71-.11.514-.522-.192-.416-1.436-1.196-1.327-1.5.505-1.349 2.117-1.802 3.461-2.702.205-.135-.284-.416.016-.655.935-.844 3.679-2.874 5.966-2.017l.004.002c1.062.744-.021 1.57.723 1.834.333.13.675-1.582.809-1.638 1.146-.572 2.11.25 3.455.436.292.047.233-.695.493-.64.919.196 1.677.942 2.399 1.398.327.206.587-.252.852.013.615.626.959 1.323.997 2.16-.002.071-.749.172-.475.561.416.602.437 1.463 1.022 1.9a1 1 0 0 0 .118.033c.183.037 1.265-.47.624.104-.134.12-1.46.67-.218.4.205-.047 1.927-.305 1.045.358-.232.175-1.238.8-1.015.847.035.005.59-.325.693-.247.354.28.459.691.806.993.093.08.64-.331.76-.202.334.357.397.956.369 1.45-.011.184-.565.278-.616.312-.835.536.429.161.524.195.573.21.105.717.388 1.012.076.083.639-.201.698-.201.588.017-.525.25-.595.42-.201.477-.015.857.187 1.207.074.127.712-.257.771-.14.364.702.546 1.535.369 2.442-.035.17-.601.215-.717.278-.812.425.45.459.581.51.598.232.147.487.303.797.378.794.613 1.74.539 3.379-.077.836-.096 1.877-.961 3.717a8.05 8.05 0 0 1-2.606 3.04c-1.328.94-2.905 1.321-3.986 1.362a8 8 0 0 1-.51.01c-1.781-.256-2.999-.868-4.521-.896-.097-.003-.083.747-.169.754-1.125.052-2.126-.39-3.212-.359-.089.001-.084.718-.232.743a.99.99 0 0 1-.905-.323c-.118-.133.179-.692.059-.814-.28-.284-.611-.4-.962-.356-.149.02-.082.77-.266.74-1.255-.184-2.497-.344-3.482-1.554-.068-.084.22-1.523-.022-1.294-.113.39-.231.854-.345 1.274-1.801-.219-3.361-1.191-5.03-1.791-.072-.026-.177.755-.317.71-.795-.26-1.663-.315-2.229-1.32-.058-.1.42-1.38.116-1.266-.056.021-.463.074-.656.321-.028.038-.169.664-.294.64-.705-.142-1.381-.54-1.925-1.161-.091-.103.27-.693.208-.771-.413-.543-1.223-.305-1.582-1.131-.251-.564.373-1.573.661-2.712.029-.166-.212-.314.075-.924.779-1.501 1.692-3.113 2.499-4.725.087-.173.09-.165.204-.17.117 0 .273-.056.329-.572.004-.035-.041-.167 0-.287.04-.12.117-.257.191-.398.101-.196.39-.816.519-1.066.131-.25-.09.28.11.007.205-.276.474-1.007.648-1.032m-2.574 15.07c.683.074-1.475-.96-1.059-.492.023.024 1.025.49 1.059.492m10.763 19.846c-.173-1.073-.486.457-.367 1.286.125.827.422-.961.367-1.286m2.735-.628c-.273-.84-.432 2.55-.076 1.874.021-.038.092-1.825.076-1.874M379.108 64.11c.008-.031-.12-.118-.141-.092-.373.668-.094.85.141.092m17.125 24.206c-.104-.457-.357.078-.232.647.103.457.362-.08.232-.647m-9.164-26.18c.032.015.117-.063-.057-.165-.561-.327-.484-.099.057.165m13.446 26.227c-.627-.167-.869-2.987-.174-2.63.125.064-.329.876-.181 1.138.268.477.575-1.267.817-.307.044.175-.426 1.814-.463 1.802zm-17.747-17.351c.03.01.121-.117.094-.133-.652-.4-.842-.134-.094.133m9.125-13.288c.057.035.323-.183.283-.23-.826-.95-1.39-.482-.283.23m-8.925 23.118c.778.044.889.173-.036.454.025-.155.01-.3.036-.454m45.087-31.408c.383.634.366 1.518.21 2.204-.047.218-.482.217-.534.368-.104.285.157.5.02.788-.047.098-.726.14-.76.239-.183.55.082.968.043 1.48-.192 2.536-.017 4.91.064 7.37.029.818-.431 1.862-.051 2.65.045.092.621-.048.671-.036.777.182-.415.252-.546.46-.515.83-.462 1.656-.15 2.34.135.292 1.261-.155.645.232-.041.027-.672.024-.729.116-.126.208.027.551-.006.703-.065.294-.054.34-.031.609.025.367-.238.83-.057 1.21.04.08.667-.095.79.028.122.122.102.483-.037.617-.139.135-.646.132-.759.164-.955.265.429.548.467.598.654.914-.048 1.81.017 2.71.043.585.264 1.191.328 1.767q.019.172.018.34c-.01.878-.364 1.604-.341 2.43.001.088.76.02.763.13.03 1.164-.176 2.31-.85 3.334-.068.102-.701-.14-.808-.046-.64.59-2.111 1.298.626 2.285-.205.423-.443.935-1.102 1.182-.424.158-1.065-.255-.841.12.049.084.685.15.712.265.116.49-.207.903-.005 1.403.043.102.595.229.687.28.741.423-.667.388-.781.43-.415.165-.59.356-.673.555-.061.166-.095.324-.132.484a3.6 3.6 0 0 1-.191.578c-.043.092-.134.317-.376.64-.368.571-1.329 1.236-.517 1 .132-.03.232-.047.262-.012.027.036.103.035-.021.172-.153.126-.382.437-1.389.68a3.57 3.57 0 0 1-2.013-.183 3.65 3.65 0 0 1-2.027-2.021 4 4 0 0 1-.248-.843c-.05-.293-.051-.32-.065-.435a6 6 0 0 1-.032-.484c-.006-.22.011-.472.041-.631.063-.388.186-.69.382-1.019.087-.128.723.049.798-.01.323-.252-.889-.44-.599-.696.059-.052.608.033.67.029.967-.066-.367-.342-.392-.39-.35-.596 1.094-.775.953-1.3-.018-.062-.731-.008-.739-.182-.057-1.17.296-2.355 1.014-3.395.11-.16.614.038.68.037 1.031-.029-.3-.339-.342-.403-.299-.5.892-.748-.664-1.293.846-1.803.271-3.847 2.052-5.446.021-.02.671.146.71.105.478-.495-.567-.58-1.743-1.203-.295-.159 1.271-.15 1.387-.153.426-.011 1.385.28 1.47.265.67-.13-2.572-.738-2.502-1.087.008-.01.593.157.658.14.205-.053-.013-.192.21-.24.516-.106 2.099.152 1.251-.345-.11-.064-1.953-.392-1.801-.685.063-.118.153-.679.306-.805.152-.127.717.11.745.105.869-.233 1.157-.008 2.354.052 1.192.06-1.553-.513-1.839-.668-.284-.155.427-.306.667-.325.239-.02.59.16.732.126.924-.23-1.308-.516-1.706-.765-.939-.598 1.145-.36 1.42-.613.075-.07-.401-.12-.425-.206-.085-.343.588-.352.103-.836-.079-.078-1.205-.697-.272-.626.135.011.613.223.761.13.22-.137.426-.437.323-.692-.077-.186-.946-.265-.634-.377.139-.048.568.253.789.152.218-.094.326-.5.361-.654.033-.154-.607-.282-.645-.308-.167-.121-.323-.392-.376-.513q-.022-.05-.019-.058c.367-1.271 1.806-2.042 1.912-3.37.009-.104-.654-.279-.66-.297-.147-.424 1.46.463 2.113.451-1.31-.452-1.028-.492-1.083-.777-.029-.136-.554-.265-.602-.294-.701-.45.327-.194.54-.146.781.172-.051-.273.472-.16.52.112 1.185.557 1.258.335-.441-.237-1.715-.535-1.848-.776-.507-.908.9-1.716 1.199-2.176.295-.454.281-.66.564-.877.517-.404-.452-.578-.722-1.075-.266-.504 1.847.579 2.336.73.487.152.026-.102.307-.049.281.054.549.309.701.22.15-.085-.526-.803-.993-1.063-.99-.549-2.147-.858-1.61-1.047.032-.01.572.308.664.254.711-.426 1.034-1.056 1.71-1.476.094-.056.68.322.741.293.639-.292-.493-.637-1.507-1.505 1.504.85 2.522 1.174 2.716.832.122-.212-.56-.535-.946-.934-.117-.12.423-.024.131-.228-.95-.67-2.168-1.162-1.478-1.315.031-.005.542.377.612.334.452-.26-.554-.943-.359-1.494.155-.434 1.241-.641 1.748-.944 1.359 1.386 1.247.87.756-.403q.16-.082.33-.166c.294-.14.623-.272.961-.209.155.03.183.6.214.654.382.89.313-.403.427-.464.463-.281.926-.091 1.277.076.366.17.664.306 1.248.076.035-.02.76-1.161.454-.196-.029.062-.554.458-.28.684.29.236.296 1.15 1.018.963.172-.05 1.13-.655.691.111-.061.103-.352.36-.474.54-.394.574.619-.34-.103.577-.723.916-1.18 1.69-.337 1.431.025-.007.888-.663.958-.559.111.167.127.525.266.674.067.072.531-.417.552-.412.721.252.553.99.862 1.661.039.083.443-.072.596-.023l-.452-.127c.091-.041.192.004.308.233.386.742.576 4.05 1.183 3.152.27-.368-.272-4.515.643-2.508.744-.726 1.886.078 2.497-.96.028-.046-.259-1.183-.17-1.2.136-.023.403.457.509.454.451 0 .625-.578 1.019-.67.149-.036.327.502.507.456.182-.046-.012-.772.361-.548.281.172 1.088 1.47 1.391 1.524-.619-1.36-.452-1.405-.343-1.89.02-.094-.256-.54-.258-.609-.011-.29.264.057.239-.253-.006-.075-.219-.539-.236-.626-.151-.759.609.157.737.318.354.44.357.23.427.157l-.011.005c.026-.029.063-.037.136.02.262.207.221.64.46.728.496.18.921-.14 1.268-.351.139-.087-.341-.585-.33-.61.137-.303.858.041.086-1.088 2.49 2.482-.092-.368.664-.13.06.02 1.288 1.14 1.352 1.421.062.284-.463.07-.372.495.033.093.783 1.497.792 1.609.132.837-1.402-1.123-1.49-1.226-1.005-1.083-.332.479-.383.645-.129.7-.651.571-.786 1.056-.033.109.027.354.111.63-.014.005-.051.027-.065.03.161.527.408 1.17.311 1.179-.49.041-1.615-1.934-1.229.054.08.425.929 1.99-.012.886-.06-.07-.856-1.109-.676-.303.023.102.239.572.231.624-.058.335-.346.013-.461.28-.114.267-.239.643-.542.581-.182-.036-.735-.85-.89-1.042-.443-.553-.227.562-.65-.157-.417-.725-.662-1.98-1.142-2.366.475 1.258.947 2.556 1.414 3.826-.733.23-1.595.069-2.33.347-.092.036.208.701.113.758-.411.238-.927-.159-1.341.148-.32.241-.573 1.076-.946 1.34-.507-1.44-.969-.888-1.412-.948-.993-.026-2.997-.305-3.672-1.035l-.032-.035c-.175-.206.109-.507.074-.715-.067-.732-.809.428-1.068.48-1.099.197 1.111-1.954.724-2.264-.018-.016-1.456.838-1.56.873-.679.237.397-.413.381-.615-.027-.367.141-.772-.424-.687-.168.024-1.069.549-.584-.095.063-.085.473-.44.486-.474.182-.587-1.079.562-1.6.85-.517.291.186-.67.39-.946.533-.706.328-.203.394-.258.785-.662.534-.666.5-.819 1.15-1.213.924-1.288-.04-.152-.106.123.074.078.04.152-1.23 1.092-1.438 1.182-.575-.094.4-.602.992-1.204.572-1.143-.184.034-.83.988-1.063 1.208-.26.255-.236.166-.176.02.064-.145.15-.352.162-.26.018.07-.206.66-.18.735.111.206.351-.227.572.01.026.021-.029.683.07.688.468.031.886-.247 1.066-.475.363-.283.421-.46.461-.5.049-.058.209.303.055.397-.254.138-1.358.104-1.35.572.007.295.613.564.957.872.675.58-.883.2-1.125.144-.008-.002-.041-.279-.399-.323-.662-.254.397.32.399.323-.155-.04-.5.32-.429.464.039.078.614.323.624.358.229.813.111 1.46-.426 1.963-.016.006-.65-.289-.681-.271-.445.246.244.81.586 1.309.344.492.087.67-1.096.395.045.288-.582.425-.958.5-.377.076.876.607.894.633.592.845-.252.866-.582 1.385-.156.24-.175.846-.143 1.183.027.27-.326.302-.212.58.015.039.593.221.612.238.592.487-.754-.141-1.02-.185-.967-.159-1.491-.219-1.177.239.071.106 1.997 1.045 2.068 1.215.088.22-.608-.102-.497.134.009.02.453.178.395.278-.266.466-.721.918-.863 1.457-.021.073.716.234.697.342-.038.218-.099.44-.196.65-.096.19-.264.39-.525.552-.114.067-.595-.15-.749-.176-.939-.153.307.446.323.483.407.926-.952 1.212-.594 2.2.022.056 1.359.752.1.616-.084-.009-1.373-.15-.55.192.051.021.718.077.612.23-.105.156.262.53-.502.61-.24.023-1.532-.077-.585.373.066.032 2.249.872.663.661-.261-.035-1.907-.41-1.119.044.153.087.541.071.742.257.31.284-.191.473.492.885.121.072 1.206.489.322.471-.138-.002-.681-.16-.759-.09-.375.332-.085.815-.544 1.141-.162.116-1.043-.126-1.311-.022s-.555.364-.174.596c.38.231 1.84.323 1.911.576.314 1.095-.697 1.952-.986 2.952-.043.148.49.106.464.33-.094.824.176 2.302-1.017 2.86-.955.448-1.521-.365-1.939.023-.199.186 1.442.646 1.487.705.467.572-.318.811-.147 1.288.036.096.726.093.749.174.086.266-.253.525-.226.776.013.114.534.154.483.249-.119.235-.362.435-.873.61-.047.017-.678-.195-.721-.022-.069.304-.584.591-.117.978.141.108 1.33.214.493.331-.175.026-1.601-.128-.383.192.202.059 1.848.503.771.524-.285.012-1.459.066-1.274.066.029-.005.671.011.733-.02.026-.023.047-.068.06-.155.005-.12.043-.096-.035-.63-.045-.254-.098-.592-.341-1.21a6.3 6.3 0 0 0-1.809-2.474c-.9-.8-2.644-1.585-4.327-1.502a6.44 6.44 0 0 0-3.578 1.206c-1.214.923-1.427 1.42-1.695 1.79-.22.345-.345.619-.376.675-.16.319-.195.405-.226.412-.029.011-.055-.017-.092-.074-.035-.057-.557-.143-.703-.224a.1.1 0 0 1-.028-.056c-.034-.515.27-.971.573-1.292.112-.118.617.122.677.128.985.088-.259-.345-.319-.419-.356-.443.304-.53.219-.861-.022-.091-.644-.185-.694-.215-.49-.291.572.099.718.025.412-.208.439-.544.424-.848-.007-.112-.742-.149-.74-.246-.004-.574.167-1.105.644-1.56.091-.085.634.062.764.06.906-.01-.269-.403-.378-.462-.496-.288.004-.301-.065-.503-.345-.964.031-1.99.209-2.802q.05-.224.107-.436c.213-1.135.521-2.123.309-3.256-.015-.084-.75.063-.772-.009-.257-.922-.056-1.868-.37-2.79-.025-.075-.714.11-.777-.007a.8.8 0 0 1 .063-.846c.094-.137.714-.038.796-.175.192-.319.204-.644.054-.932-.065-.123-.757.158-.786-.007-.21-1.127-.483-2.215.27-3.5.052-.09 1.492-.376 1.188-.504-.404.047-.877.12-1.308.179-.481-1.618-.257-3.346-.488-5.01-.01-.07-.751.194-.774.057-.135-.78-.494-1.491.1-2.434.058-.094 1.405-.331 1.154-.522-.045-.033-.297-.344-.607-.375-.047-.003-.657.193-.699.085-.233-.628-.239-1.328-.009-2.053.039-.113.725-.163.759-.246.226-.61-.412-1.044.064-1.65.318-.413 1.484-.6 2.549-1.083.147-.078.124-.251.761-.466 1.606-.53 3.417-.936 5.127-1.51.369-.127-.17-.437.808-.462.067.003.461.23.783.199.225-.012.856-.293 1.157-.267.303.038-.224.28.138.348.366.07 1.099-.2 1.266.07m3.341 9.433c-.682-.05 1.538.843 1.082.437a22 22 0 0 0-1.082-.437m14.372-4.814c-.595-.916-.326.624.12 1.339.46.709.067-1.063-.12-1.339m2.461-1.773c-.62-.638.663 2.504.724 1.73.004-.044-.687-1.693-.724-1.73m-29.679-.032c.03-.011.023-.163-.009-.16-.755.114-.741.417.009.16m31.82-1.87c-.277-.378-.305.218.042.687.277.378.3-.215-.042-.687m-24.757 17.444c-.036-.005-.096.102.1.148.631.154.494-.05-.1-.148m28.65-20.513c-.576.513-2.898-1.108-2.247-1.38.123-.058.516.776.811.819.554.055-.707-1.187.218-.846.176.055 1.26 1.377 1.22 1.41zm-25.587 10.622c-.031-.008-.117.13-.089.145.677.355.85.079.089-.145m-5.954 16.255c-.068-.003-.199.357-.14.38 1.186.417 1.453-.304.14-.38m9.681-27.157c-.35-.727-.022-1.106.712-.434-.278.122-.493.292-.712.434m23.509 16.884c.793-.31 1.704-.19 2.431.029.22.068.166.502.322.568.317.127.546-.112.86.046.105.054.071.736.18.777.573.225 1.061-.014 1.632.048 2.777.315 5.47.094 8.232-.189.914-.094 2.128.253 2.992-.232.099-.057-.105-.614-.096-.666.138-.8.317.382.563.484.985.399 1.924.21 2.655-.226.313-.188-.338-1.224.178-.684.035.036.116.663.227.702.254.085.615-.132.793-.132.341.006.392-.016.693-.096.404-.101.975.053 1.372-.216.082-.059-.226-.636-.112-.784.113-.149.515-.216.691-.113.177.103.272.602.33.705.487.87.531-.562.576-.612.729-.733 1.632-.556 2.493-.68a.35.35 0 0 0 .183-.016c.102-.05.098-.137.045-.169-.052-.036-.129-.018-.103-.027.064 0 .523-.369.48-1.124-.003-.08-.76-.012-.765-.109a9 9 0 0 1-.015-.523c-.009-.724.049-1.444.323-2.1.032-.08.696-.164.764-.261.266-.358.672-1.062.303-1.057-.233-.029-.691.218-1.411 1 .079-.075.172-.183.211-.788.011-.391.352-1.042.07-.804-.06.055-.172.68-.239.72-.26.17-.553-.069-.888.256-.066.067-.047.634-.063.736-.111.825-.414-.525-.504-.617-.561-.696-.959-.34-1.482-.255-.123.02.171.737.061.783a3.37 3.37 0 0 1-1.938.189c-.161-.033-.215-.693-.302-.74-.388-.199-.102.994-.463.83-.077-.034-.208-.574-.238-.628-.463-.857-.208.484-.243.527-.437.57-1.257-.645-1.759-.26-.059.047.322.658.143.75-1.191.619-2.623.94-4.128.853-.235-.012-.254-.562-.288-.62-.531-.893-.236.443-.289.514-.352.436-.989-.126-1.147.598-.021.15-.019.356.015.641-2.031.052-3.178 1.722-5.599 1.897-.03.004-.432-.535-.493-.523-.738.149.041.855.644 2.04.158.29-1.141-.586-1.246-.638-.371-.216-1.009-.99-1.091-1.02-.674-.211 1.747 2.026 1.514 2.283-.012.005-.43-.438-.495-.456-.207-.054-.09.178-.31.113-.504-.157-1.797-1.113-1.305-.24.067.111 1.56 1.236 1.295 1.43-.082.06-.285.348-.456.51a.3.3 0 0 1-.125.071c-.168.036-.628-.363-.653-.371-.883-.095-1.088-.389-2.238-.757-1.164-.322 1.347.934 1.587 1.15.24.21-.481.199-.725.19-.243-.015-.553-.263-.702-.244-.986.171 1.206.727 1.567 1.024.88.651-1.168.23-1.466.548-.078.078.399.125.421.216.085.35-.595.415-.081.9.082.088 1.266.571.332.62-.135.009-.636-.147-.772-.02-.203.188-.364.575-.213.828.111.186.979.068.696.257-.126.086-.609-.138-.805.03-.196.169-.205.647-.196.83s.661.112.703.13c.245.098.545.444.544.473.034 1.483-1.004 2.956-.589 4.493.032.12.711.016.723.034.301.407-1.526.141-2.123.453 1.384-.09 1.139.092 1.3.381.079.14.613.046.668.058.822.188-.227.367-.441.411-.738.152.04.275-.292.379l-.084.016c-.522.1-1.311-.092-1.287.201.5.032 1.784-.197 2.003-.075.416.205.413.471.402.886-.018.403-.033.92.078 1.173.224.505.422.585.504.955.174.673.732-.145 1.291-.205.56-.067-1.202 1.52-1.515 1.925-.308.41.101.076-.035.331-.134.257-.495.394-.429.598.067.208 1.042-.14 1.429-.511.828-.777 1.44-1.806 1.491-1.223.003.034-.455.464-.421.573.285.854.927 1.363 1.341 2.16.056.11-.415.626-.386.698.315.747.767-.357 1.777-1.245-1.013 1.4-1.423 2.396-.985 2.686.26.173.618-.493 1.066-.84.134-.105.046.45.266.168.716-.92 1.222-2.13 1.387-1.426.006.033-.383.539-.336.612.146.231.382.111.646-.056.259-.19.535-.442.759-.411.325.043.593.96.975 1.209-.629 1.838-.015 1.564.49.312.259.127.573.122.81.356.083.08-.085.62-.085.682.023.974.388-.285.454-.326.741-.383 1.233.65 1.959-.28.028-.034.114-1.38.251-.39.012.068-.232.674.084.731.308.058.937.78 1.373.139.108-.154.323-1.257.585-.416.035.114.025.502.08.714.182.677.17-.688.412.456s.69 1.98 1.099 1.137c.014-.024.021-1.11.168-1.108.238.004.599.189.845.15.118-.018-.041-.674-.022-.688.732-.472 1.368.038 2.257.159.164.023.456-.952.875-.29.461.723.681 4.026 1.313 3.12.256-.363-.084-4.544.84-2.509.2-.15.419-.228.633-.265.013 0 .051-.013.064-.015.792-.248 1.72.054 2.359-.772.037-.046-.153-1.206-.039-1.224.171-.025.417.47.544.47.534.011.848-.568 1.34-.636.186-.026.281.533.502.501.221-.031.159-.785.547-.523.294.2.922 1.598 1.255 1.688-.391-1.443-.184-1.469.065-1.947.048-.093-.163-.574-.147-.644.061-.295.296.088.345-.228.013-.076-.12-.57-.117-.66.018-.783.668.232.779.41.424.673.362.003.615.246.251.244.083.674.333.796.21.103.42.129.625.117.313-.023.608-.128.873-.19.176-.044-.133-.665-.112-.686.299-.266.888.307.647-1.045 1.371 3.242.101-.389.803.097.056.04.712 1.567.635 1.857-.079.29-.501-.109-.603.327-.019.101.144 1.685.122 1.79-.14.816-.903-1.548-.958-1.673-.609-1.352-.501.359-.573.499a.87.87 0 0 1-.444.455c-.005 0-.02.005-.025.006-.206.096-.416.126-.563.39-.167.296.224 1.874.035 1.872-.625-.004-1.433-2.134-1.471-.085-.008.438.586 2.116-.213.889-.05-.078-.714-1.219-.677-.389.004.105.146.603.128.653-.125.328-.374-.03-.54.224-.166.253-.349.613-.65.518-.181-.056-.649-.924-.789-1.129-.401-.59-.304.544-.668-.207-.368-.754-.472-2.035-.969-2.444.374 1.292.742 2.623 1.111 3.924-.752.176-1.608-.016-2.336.273-.089.037.22.698.13.755-.161.101-.347.093-.535.074-.135.024-.524.153-.661.159-.243-.062-.501-.142-.736.02-.32.22-.571 1.042-.912 1.297-.495-1.475-.961-.864-1.401-.933-.154-.024-.211-.431-.335-.546-.469-.426-.069.886-.142 1.115-.324.977-.845-2.056-1.372-1.9-.026.007-.149 1.682-.188 1.79-.228.705-.132-.557-.347-.65-.394-.17-.692-.526-1.066.002-.107.155-.307 1.207-.64.446-.044-.1-.08-.642-.11-.67-.522-.481-.377 1.216-.617 1.815-.243.6-.776-.544-.882-.878-.283-.861.155-.385.161-.472.077-1.032-.22-.834-.461-.908-.125-1.667-.431-1.552-.248-.071.021.162.197-.003.248.07-.114 1.649-.52 1.878-.969.356-.208-.715-.042-1.552-.601-1.242-.256.138-.161 1.289-.405 1.6-.573.71-1.267-.397-1.851-.282-.218.042-.068.688-.223.738-.419.13-.712-.382-1.153-.204-.041.017-.048.683-.18.67-1.014-.084-1.808-.693-2.849-1.047-.501-.163-1.562-.195-2.067-.529-.335-.215-.636-.57-.91-.942-.274-.495-.527-1.007-.931-1.09-.426-.09-.702.515-1.094.799-.765.548-.446-1.108-.377-1.352.003-.008.391.06.415-.328.295-.65-.409.328-.415.328.04-.16-.477-.69-.67-.672-.104.012-.425.55-.473.546-1.141-.114-2.106-.636-2.781-1.601-.007-.023.471-.533.45-.58-.278-.65-1.155-.299-1.941-.365-.781-.063-1.027-.592-.347-1.647-.419-.254-.432-1.148-.383-1.657.048-.506-1.131.163-1.178.141-1.392-.655-1.111-1.82-1.367-3.333-.078-.482-.285-1.283-.392-2.06a5 5 0 0 0-.173-.457c-.128-.284.185-.472-.028-.74-.029-.037-.633.022-.656.011-.735-.282.75-.186 1.012-.259.953-.267 1.46-.428.993-.82-.106-.089-2.247-.295-2.377-.469-.165-.225.601-.161.409-.398-.015-.02-.487-.002-.47-.154.071-.708.331-1.506.29-2.293-.004-.108-.753.025-.77-.133-.082-.744-.026-1.606.381-2.368.102-.186.615-.026.774-.056.955-.173-.373-.651-.391-.72-.492-1.576.903-2.554.854-4.404-.015-.082-1.132-1.353.184-1.25.091-.002 1.402.177.724-.457-.041-.043-.743-.097-.512-.443.225-.333.154-1.17 1.088-1.306.274-.047 1.378.247 1.145-.48a2 2 0 0 0-.113-.2c-.055-.049-1.523-1.958-.108-1.178.232.13 1.54 1.193 1.151.29-.073-.176-.473-.28-.502-.619-.04-.526.623-.609.38-1.46-.047-.147-.639-1.197.194-.809.129.062.478.512.625.45.699-.29.972-1.07 1.768-1.246.279-.06.778.712 1.125.737.348.024.871-.097.822-.584-.044-.49-1.163-1.464-.896-1.81 1.197-1.524 3.282-1.758 5.005-2.36.26-.09-.155-.48.224-.648.583-.256 1.337-.63 2.155-.895.582-.205 1.315-.342 1.987.108.934.612.337 1.53.954 1.698.299.078.008-1.61.048-1.68.399-.713 1.064-.156 1.535-.566.098-.086-.242-.69-.156-.756.292-.23.749-.066 1.058-.233.139-.076-.059-.56.092-.57.358-.027.725.081 1.209.437.043.032.047.716.302.657.415-.098 1.062.202 1.403-.421.1-.187-.233-1.335.318-.637.117.146.424 1.549.457.252-.005-.214.228-2.01.832-1.049.158.253.656 1.339.802 1.116.02-.035-.232-.635-.084-.733.531-.336 1.18-.397 1.819-.697.176-.082-.2-.697.073-.798.743-.279 1.844-.209 2.783.01.345.082.096.629.121.689.352.979.648-.317.804-.383.934-.39 1.621.334 2.606.438.286.037.268-.62.339-.658.765-.335-.017.598.307.835.894.673 2.056 1.207 3.076 1.914.375.263.426-.633.771-.372a9 9 0 0 1 1.933 2.01c1.094 1.598 1.36 2.852 1.416 3.918.008.314-.583.277-.689.37-.756.615.54.863.68.983.631.483.173.786.324 1.252.28.877.384 1.817.358 2.77-.034.883-.177 2.904-1.071 5.005-1.235 3.248-4.687 5.38-6.828 5.86a9 9 0 0 0-1.535.481c-.108.044.237.714.147.761-1.171.577-2.452.674-3.632 1.248-.097.046.25.679.101.775-.302.2-.743.29-1.145.17-.196-.057-.14-.703-.332-.748a1.63 1.63 0 0 0-1.242.175c-.156.094.29.72.071.789-1.486.478-2.947.975-4.692.421-.117-.038-.54-1.445-.699-1.12.074.4.181.867.271 1.292-2.154.732-4.458.674-6.681.977-.097.013.2.75.015.78-1.052.168-2.064.547-3.252-.06-.117-.06-.261-1.42-.538-1.17-.043.044-.503.293-.579.603-.01.046.162.666.014.705a5.1 5.1 0 0 1-2.739-.09c-.147-.047-.081-.739-.185-.778-.744-.273-1.452.328-2.094-.21-.433-.362-.44-1.545-.813-2.658-.055-.157-.247-.15-.378-.808-.391-1.646-.595-3.493-1.013-5.248-.024-.094-.076-.131-.144-.148-.087-.012-.196 0-.305-.004-.219-.004-.413-.085-.148-.644.008-.036.26-.192.358-.338.125-.153.257-.335.278-.5.032-.228-.206-.882-.106-1.183.098-.301.355.24.488-.112.14-.358-.016-1.122.315-1.257m-.386 17.645c.46-.576-1.782.264-1.074.458.037.008 1.053-.427 1.074-.458m29.7 8.237c-.614-.915-.362.632.092 1.344.452.713.094-1.066-.092-1.344m2.918-1.679c-.589-.695.31 2.577.493 1.81.011-.044-.459-1.77-.493-1.81m-30.614-14.42c-.01-.032-.194-.04-.199-.008-.005.766.373.782.199.007m33.525 12.737c-.23-.413-.415.185-.128.699.23.413.413-.184.128-.699m-33.226-18.779c.036.005.105-.126-.09-.178-.628-.166-.507.09.09.178m38.664 16.905c-.875.289-2.367-2.134-1.519-2.168.162-.012.084.947.364 1.096.54.256-.044-1.419.709-.752.149.117.508 1.81.446 1.829zm-38.406-4.316c.026-.017-.019-.21-.049-.202-.754.16-.644.599.049.202m5.521-18.216c.05.045.42-.167.394-.224-.569-1.133-1.376-.664-.394.224m5.155 24.644c.412-.669.605-.706.498.26-.165-.098-.34-.158-.498-.26M43.469 11.335c-.156 1.135-.823 2.466-1.456 3.441-.197.306-.547.008-.701.213-.302.403-.237.887-.565 1.276-.11.128-.693-.258-.795-.119-.551.766-.639 1.626-1.04 2.45-1.884 3.874-3.283 7.832-4.616 11.909l-.205.629c-.478 1.46-1.544 3.104-1.702 4.704-.018.189.58.235.618.282.576.72-.526.233-.773.54-.978 1.213-1.453 2.722-1.605 4.1-.065.594 1.22.349.43.73-.054.027-.616-.285-.724-.15-.242.304-.324 1.004-.448 1.255-.242.49-.264.59-.41 1.071-.208.67-.736 1.374-.812 2.143-.013.16.662.14.696.412.034.273-.209.91-.42 1.09-.208.173-.665-.061-.788-.056-1.028.038.046 1.174.049 1.282.025 1.921-1.164 3.204-1.662 4.852-.38 1.26-.543 2.657-.946 3.841-.48 1.397-1.189 2.497-1.564 3.883-.04.146.733.205.685.384-.511 1.905-1.19 3.754-2.28 5.456-.11.172-.662-.275-.81-.115-.888.974-2.722 2.364-.21 3.953l-.097.198c-.34.686-.737 1.453-1.436 1.908-.496.33-1.052-.312-.925.32.028.14.68.17.677.367-.015.836-.46 1.61-.361 2.458.021.173.579.285.664.356.695.578-.79.827-.92.93-.987.822-.894 1.644-1.13 2.58-.056.219.745.132.72.346-.142 1.102-.428 2.193-.929 3.178-.113.217-.719-.095-.806.004-.375.46.822.741.5 1.162-.065.091-.609-.032-.671-.021-.987.179.335.574.358.647.32.919-1.126 1.412-.915 2.277.028.098.724-.133.76.132.075.527.154 1.034.233 1.425.005.051-.067.126.133.438.19.298.595.697 1.078 1.094.222.178-.144.602-.154.668-.07 1.06.586-.157.68-.18.795-.128 1.274 1.151 2.133-.327 1.797.695 3.857.75 5.888 1.008 1.415.182 2.815.397 4.3.936.045.014.002.688.093.714 1.095.307.83-.724 1.367-2.056.127-.333.82 1.132.89 1.236.225.39.176 1.402.245 1.474.584.558.043-2.694.642-2.791.02.002.039.614.1.665.194.16.316-.106.511.07.444.41.91 1.955 1.294.918.045-.135-.456-1.936.096-1.974.227-.011 1.157-.288 1.454-.253.296.04.287.67.313.69.957.544.781.941 1.524 1.943.764.986-.236-1.638-.191-1.984.042-.342.79.087 1.004.249.214.164.183.585.349.66 1.102.48-.168-1.428-.087-1.94.152-1.2 1.413.514 2.048.435.167-.02-.157-.39-.051-.49.41-.393 1.02.02 1.27-.808.049-.14-.189-1.451.557-.84.11.086.278.595.538.565.349-.036.875-.268 1.109-.584a1 1 0 0 0 .06-.097c.128-.263-.632-.75-.223-.738.185 0 .294.56.625.519.334-.038.856-.57 1.028-.79.176-.219-.409-.54-.425-.586-.093-.266-.018-.84.008-.874 1.283-1.72 3.255-3.298 3.86-5.684.048-.188-.633-.33-.632-.361-.023-.699 1.467.457 2.204.255-1.312-.453-.975-.616-.952-1.096.011-.233-.533-.314-.577-.353-.643-.599.42-.433.643-.413.818.075.025-.477.574-.434.545.04 1.157.634 1.301.212-.423-.288-1.753-.427-1.835-.812-.312-1.45 1.416-3.368 1.843-4.32.425-.939.442-1.284.802-1.802.647-.927-.39-.851-.597-1.633-.208-.776 1.938.274 2.452.341.513.069.048-.194.351-.22s.55.328.738.094-.435-1.235-.908-1.5c-1.004-.551-2.234-.602-1.609-1.168.037-.032.585.294.695.16.863-1.08 1.316-2.341 2.134-3.427.114-.148.718.225.791.141.22-.25.276-.431.22-.584-.14-.383-.974-.593-1.748-1.226 1.61.62 2.735.625 2.95-.244.12-.516-.639-.583-1.106-.983-.14-.117.422-.38.078-.492-1.127-.342-2.436-.214-1.862-.843.026-.03.652.116.698.008.287-.719-.926-.818-1.128-1.45-.084-.253.017-.623.105-1.043.11-.34.22-.606.18-.765 1.651-1.075.664-1.489-.224-.428-.207-.213-.61-.314-.942-.616-.117-.104.143-.61.144-.674-.02-1.005-.597.192-.691.22a2.1 2.1 0 0 1-.912-.05c-.773-.191-1.432-.617-2.335-.05-.045.029-.297 1.354-.448.339-.012-.07.442-.627-.078-.746-.518-.12-1.443-.957-2.228-.398-.192.133-.726 1.186-1.013.31-.039-.119.04-.5-.015-.72-.177-.699-.386.653-.589-.517-.201-1.169-.762-2.065-1.556-1.278-.028.023-.212 1.1-.454 1.082-.385-.03-.914-.247-1.32-.226-.191.01-.045.676-.077.69-1.233.427-2.144-.1-3.54-.154-.264-.01-.791 1.008-1.394.4-.697-.653-.848-4.013-2.012-2.91-.502.46.15 4.613-1.378 2.865-1.44 1.09-3.426.858-4.54 2.466-.05.072.372 1.184.216 1.268-.233.122-.663-.245-.842-.167-.508.212-.826.642-1.183 1.02a2.4 2.4 0 0 1-.605.509c-.265.148-.491-.378-.802-.211-.308.163-.118.921-.72.865-.457-.045-1.516-1.184-1.994-1.124.702 1.32.405 1.45.063 2.07-.066.12.28.528.26.608-.076.34-.452.047-.511.401-.016.086.208.545.207.641.003.665-.656.31-1.007.061a4 4 0 0 1-.198-.149c-.665-.53-.554.147-.944-.007-.388-.157-.141-.673-.523-.704-.788-.065-1.58.352-2.247.593-.265.1.166.661.134.69-.485.38-1.299-.083-1.12 1.302-1.633-3.136-.21.446-1.253.085-.082-.03-.739-1.557-.588-1.873.15-.316.692.035.883-.445.046-.113-.074-1.734-.05-1.844.194-.866 1.166 1.417 1.241 1.534.825 1.257.744-.517.836-.68.436-.75 1.107-.656 1.474-1.23.242-.375-.393-1.871-.121-1.94a.7.7 0 0 1 .308-.007c.84.148 1.894 1.418 1.773-.49-.033-.458-1.027-1.937.189-1.009.072.062 1.123.938.952.1-.022-.106-.286-.551-.271-.61.106-.39.485-.14.643-.475.157-.335.288-.777.663-.83.078-.012.221.055.386.151.017-.01.067-.05.085-.06.334.172.747.454.905.533.679.355.373-.79 1.035-.244.656.554.999 1.84 1.784 1.956-.731-1.13-1.456-2.306-2.173-3.453 1.21-.752 2.72-1.143 4.051-1.839.167-.088-.318-.659-.142-.773.75-.474 1.658-.29 2.428-.784.593-.383 1.11-1.348 1.79-1.73.835 1.365 1.73.613 2.512.613.273-.001.334.406.536.506.765.375.228-.913.39-1.156.723-1.03 1.207 2.009 2.1 1.84.038-.009.521-1.699.6-1.806.496-.704.13.563.475.66.643.183 1.05.556 1.76.06.196-.146.698-1.174 1.11-.38.05.105.017.647.058.68.738.538.803-1.162 1.277-1.724.465-.561 1.107.654 1.217 1.001.295.898-.295.357-.324.443-.286 1.01.217.86.565.972-.064 1.67.433 1.607.37.11-.01-.163-.303-.03-.37-.11.424-1.614 1.066-1.775 1.52-.19.215.745-.14 1.546.75 1.337.398-.092.387-1.252.775-1.52.911-.607 1.788.609 2.61.578.303-.01.123-.68.336-.708.278-.037.517.078.757.189.29.123.57.242.938.2.065-.007.065-.685.278-.643 1.58.4 3.552 1.046 5.76 3.897.58.784 1.22 1.995 1.506 2.875.184.492.319.992.345 1.386.138 1.713-.927 3.569-.909 4.787.008.823.68.777 1.044 1.225.7.914-1.157 1.658-1.43 1.697-.007.002.042-.679-.386-.443-.732-.02.385.433.386.443-.049.012-.125.11-.211.251-.203.293-.446.834-.406 1.003.03.127.641.27.645.332.085 1.49-.2 2.85-.92 4.098-.02.02-.672-.235-.71-.186-.551.676.094 1.45.367 2.246.267.81-.06 1.261-1.328 1.273-.017.531-.757 1.077-1.195 1.373-.442.307.828.795.842.84.439 1.393-.522 1.8-1.05 2.935-.25.53-.477 1.73-.573 2.395-.078.54-.485.707-.48 1.246 0 .072.587.234.601.262.464.787-.808-.018-1.095-.013-1.046.016-1.609.042-1.473.865.031.188 1.786 1.49 1.76 1.843-.03.443-.655-.025-.673.444-.003.04.426.237.287.475-.639 1.1-1.563 2.23-2.345 3.478-.111.173.658.37.503.633-.724 1.222-1.847 2.549-3.27 3.373-.351.2-.518-.356-.685-.416-.978-.38-.668 1.114-.768 1.22l-.052.06c-1.64 1.975-3.78 1.77-5.565 3.23-.085.079-.419 1.82-1.293.811-.062-.065-.908-1.112-.938-.164-.003.06.474.59.022.684-.45.094-1.014.756-1.826.246-.264-.158-1.047-1.258-1.32-.123-.002.077-.315 2.551-1.017 1.077-.114-.244-.45-1.894-.913-.902-.092.192.224.508-.067.812-.45.468-1.224.159-1.754 1.008-.086.149-.417 1.363-.939.557-.08-.126-.042-.7-.256-.735-1.011-.167-2.005.309-3.025-.022-.36-.117-.23-1.035-.597-1.262-.368-.226-1.073-.442-1.442-.025-.37.418.05 1.87-.533 1.985-1.088.209-2.184.126-3.254-.086-1.232-.266-2.472-.699-3.79-.944-.344-.065-.122.49-.642.428-1.836-.201-5.714-.441-7.705-2.682-1.433-1.75 1.152-1.13 0-2.17-.492-.469-2.25.307-2.502.156-1.894-.98-2.784-3.174-3.258-5.279a7 7 0 0 0-.175-.619c-.105-.316-.722.125-.804-.157-.277-.962-.03-1.882-.103-2.635-.033-.342-.555-.266-.515-.582a3.42 3.42 0 0 1 .877-1.95c.048-.052.669.372.727-.092.097-.765.68-1.599.304-2.48-.113-.256-1.29-.467-.394-.847.188-.081 1.578.29.458-.506-.19-.124-1.646-1.447-.49-1.715.303-.068 1.52-.159 1.396-.458-.02-.043-.68-.03-.692-.269-.03-.85.23-1.655.237-2.506 0-.227-.724-.07-.701-.405.06-.923.521-1.979.958-2.752.164-.29.631.077.695.07 1.04-.099-.163-.66-.201-.805-.22-.88.54-1.26.59-1.976.017-.199-.623-.253-.664-.306-.4-.55.583.073.778-.134.547-.572.74-1.338.888-2.042.054-.261-.73-.205-.672-.438l.021-.089c.302-1.273.79-2.524 1.554-3.602.148-.21.633.11.77.101.958-.058-.043-.922-.118-1.069-.34-.668.196-.719.253-1.198.271-2.34 1.443-4.959 2.283-6.982 1.089-2.627 2.246-4.6 2.889-7.232.041-.166-.72-.214-.695-.36.377-1.886 1.187-3.611 1.512-5.513.029-.158-.712-.133-.69-.392.043-.533.258-1.142.62-1.589.173-.215.662.28.825.06a3.43 3.43 0 0 0 .663-1.739c.024-.267-.778-.08-.693-.411.554-2.237 1.038-4.465 2.537-6.47.104-.14 1.557.101 1.37-.295-.386-.13-.85-.25-1.267-.372.175-.922.406-1.837.657-2.726.684-2.428 1.609-4.77 2.354-7.176.044-.141-.773-.109-.692-.384.467-1.59.717-3.197 1.946-4.59.12-.138 1.403.342 1.349-.189-.011-.094.032-.855-.195-1.125-.035-.038-.685-.097-.632-.331a12.1 12.1 0 0 1 1.69-3.901c.13-.193.703.241.801.105.688-.96.577-2.284 1.5-3.11.62-.55 1.651.072 2.868.077.171 0 .336-.411.98-.22 1.623.482 3.312 1.27 5.048 1.76.374.105.163-.58.943.045.052.043.213.542.482.74.186.14.876.232 1.097.46.22.229-.375.201-.138.537.242.337 1.014.48.949.97m13.767 64.94c-.746.16 1.496.997 1.095.403-.022-.03-1.059-.412-1.096-.403m-25.354-22.96c.99.662.622-.886-.114-1.426-.758-.523-.196 1.23.114 1.425m-4.2 3.657c.942.364-.963-2.446-1.012-1.58-.004.05.958 1.557 1.012 1.58m6.186-48.157c.032.005.16-.287.133-.304-.67-.398-.926.186-.133.304M23.68 60.141c.361.34.61-.367.159-.784-.243-.228-.43.016-.393.33a.75.75 0 0 0 .234.454m19.69 31.653c-.021-.028-.242.042-.15.221.29.581.509.272.15-.22M15.463 63.431c1.277-.32 3 2.032 1.527 2.23-.266.035.227-1.032-.172-1.157-.726-.227-.516 1.567-1.418.886-.162-.126-.01-1.946.064-1.963zm38.981 12.124c-.033-.002-.164.287-.137.304.662.41.928-.174.137-.304M30.421 93.381c-.018-.065-.72-.116-.742-.056-.374 1.249 1.103 1.356.742.056m26.626-37.029c-.702.348-.678.497-.263-.393.126.15.222.257.263.393"/></svg>