<svg xmlns="http://www.w3.org/2000/svg" width="241" height="201" fill="none" viewBox="0 0 241 201"><ellipse cx="120.5" cy="101" fill="#d9d9d9" rx="98.5" ry="95"/><path fill="#d9d9d9" d="M79.377 27.409c-2.751 1.43-5.942 3.038-8.45 4.646-.788.5-.681-.126-1.243.22-1.098.69-1.874 1.656-2.976 2.419-.37.255-.428-.612-.803-.334a22 22 0 0 0-1.934 1.65c-1.24 1.175-2.408 2.464-3.714 3.732-6.845 6.718-13.387 14.021-18.587 21.68-1.89 2.835-3.132 5.75-3.688 9.08-.382 2.036-.538 4.495-1.101 7.702-.428 2.047-.563 4.362-.41 6.505.039.531.624.204.674.304.776 1.54-.424 1.051-.545 2.097-.459 4.151-.056 8.877.639 12.899q.013.079.03.149c.329 1.502 1.22-.242.78 1.56-.03.129-.702-.252-.714.242-.026 1.112.301 3.19.334 4.041.062 1.652.094 1.927.227 3.478.175 2.119.067 4.665.39 6.911.07.48.66-.205.83.546.17.76.285 2.773.2 3.447-.087.685-.617.447-.72.576-.885 1.093.745 3.158.831 3.383.095.332.188.662.28.966 1.3 4.415 2.27 8.894 3.519 13.687.262.975.533 1.967.802 2.965.738 2.754 1.804 5.306 2.916 7.702.82 1.793 1.676 3.566 2.47 5.455.775 1.868 1.673 3.647 2.893 5.404.243.347.589-.485.884-.068 2.07 2.94 4.569 5.518 7.203 8.813.573.828 1.987 1.911 3.5 2.852.454.283-.46.571-.015.891 2.752 1.992 7.88 5.064 10.773 2.957 2.275.852 5.095 1.837 7.03 3.04 1.253.777-.28 1.06 1.48 1.28.399.051.092-.705.677-.583 2.448.513 5.001 1.527 7.463 1.99.501.092.547-.489.715-.541.278-.08.56-.069.835.002 1.198.313 2.224 1.661 2.529 1.866 2.933 1.926 5.224 2.764 7.828 3.663.597.198.131-.749.697-.596q.262.07.52.133c2.327.484 6.011.681 9.14 1.098.753.097.04.726.402.805 1.604.339 1.993-.879 3.534-.594.327.058.135.611.194.672.922.968 1.749-.381 1.992-.409 3.044-.388 4.997 1.025 7.955.824.353-.026-.444-.727.549-.757q3.764-.114 7.631-.062c4.065.064 8.113-.111 12.032-.553.982-.114.402.544.475.595 1.214.785 1.568-.701 1.861-.824 2.369-.949 5.003-.569 6.214-2.644 2.041-.523 4.109-1.138 6.259-1.683 5.965-1.544 12.001-3.206 17.223-5.398 1.623-.731 3.839-2.778 5.869-4.469.106-.092.435.543.645.358 2.51-2.244 1.293-2.463 1.803-4.975.129-.635 2.424-.913 2.609-.949.68-.139 1.041.955 1.225.87 1.491-.714-1.144-2.738.325-4.301.05-.044.298.575.463.489.428-.224.648-.644 1.009-.917q.104-.077.234-.132c1.092-.447 2.635.257 3.01-1.743.034-.255-1.63-1.107-.576-2.44.44-.52 2.039-3.143 2.56-3.861.534-.701.766.116.819.075 1.851-1.707 1.703-.763 3.319-1.295 1.611-.56-1.046-1.531-1.104-2.109-.056-.577 1.31-1.879 1.703-2.18.394-.297.506.361.79.064 1.868-1.99-.779-1.617-.825-2.574-.126-2.248 2.404-2.821 3.341-4.428.253-.434-.345-.253-.205-.677l.022-.066c.552-1.612 1.539-2.339 1.738-4.38.036-.341-.531-2.285.697-2.919.176-.09.508.489.886-.166.565-.977 1.376-2.825 1.62-4.013.18-.877-.967-.212-.342-1.169.278-.427.441.606.923-.21.483-.813 1.232-3.062 1.497-3.924.267-.864-.504-.596-.522-.68-.099-.491.131-2.227.174-2.366.753-2.494 1.593-4.914 2.255-7.233 1.275-4.579 2.103-9.268 1.734-14.121-.044-.576-.716-.17-.73-.258-.363-1.948 1.52-.466 2.053-1.908-1.374.283-1.16-.552-1.436-1.934-.136-.664-.636-.247-.697-.303-.905-.903.058-1.696.25-1.904.707-.755-.32-1.35.14-1.873.453-.526 1.38.405 1.167-.948-.548-.3-1.677.885-2.041-.088-.741-2.018-1.276-5.047-1.579-8.106-.204-2.443-.292-4.698-.477-6.093-.41-3.08-.714-4.028-.947-5.81-.496-3.2-1.13-1.821-2.141-3.492-1.067-1.594 1.436-1.629 1.808-2.085.159-.207.126-.342.05-.464-.096-.155-.257-.289-.201-.537.096-.455.756.132.472-.711-.272-.877-2.28-2.48-2.894-2.405-1.291.111-1.683 1.576-2.564-.36-.053-.112.685-.164.453-.58-1.539-2.716-3.863-5.108-5.855-7.74a83 83 0 0 1-1.256-1.715c-.312-.44.524-.542.347-.804-1.85-2.73-1.943-1.081-4.098-1.523 1.543-.867 1.664-2.317-.031-4.145-1.019-1.095-1.392-.39-2.439-.72-.315-.1-.671-1.217-1.059-1.107-1.269.357-1.512 1.959-2.91-.208-.061-.096.64-.288.397-.59-1.573-1.947-2.638-1.298-4.657-3.062-1.58-1.38-3.796-4.478-5.496-6.176.391-.408.5-.799.417-1.14-.196-.829-1.531-1.344-2.645-1.057-1.135-1.066-2.466-2.107-3.495-3.238-.355-.389.272-.59.261-.68-.141-1.378-1.508-.842-1.799-1.028-1.868-1.238-3.196-2.742-4.596-4.226-.721-.768-1.849-1.374-3.179-1.635-.126-.024-.876 1.095-1.241-.168-.031-.088 1.251-.167-.174-.883-1.414-.71-4.035-2.501-6.395-2.702-.569-.05-2.258.494-3.019-.699-.101-.16.188-.466.059-.743-.415-.886-1.252.257-1.614-1.117-.318-1.206-1.331-2.431-3.193-2.804a6 6 0 0 0-.848-.107c-.077-.006-.989.787-1.654.504-1.06-.455-2.515-1.245-3.666-1.62-.551-.18-.409.574-.508.555-3.75-.812-6.261-1.955-10.385-2.61a2 2 0 0 0-.447 0c-1.014.075-2.788.51-3.99-.17-1.581-.874.275-4.099-3.567-3.467-1.585.265-3.497 4.387-6.226 2.274-5.202.637-10.298.064-15.284 2.18-.218.09-.644 1.409-1.183 1.539-.804.19-1.383-.216-1.963-.102-1.274.244-2.456.604-3.668.876-1.088.246-2.15.532-3.257.743-.88.175-.704-.449-1.764-.212-1.061.25-1.537 1.153-3.027 1.266-1.121.086-2.702-.957-4.176-.55.51 1.41-.45 1.75-1.915 2.852-.28.213.271.533.15.657-.482.517-1.214.388-1.647.924-.106.13.113.591.04.723-.599 1.128-2.648.904-3.01.872-1.369-.132-1.524.712-2.439.876-.914.166.056-.802-.934-.458l-.149.053-.028.018c-1.941.877-4.14 2.38-5.927 3.521-.73.469.139.716.043.797-1.401 1.12-3.316 1.525-3.373 3.207-1.551-1.145-1.69-.859-1.8-.205-.105.612-.183 1.539-1.377 1.98-.193.069-1.38-1.123-.885-1.779.333-.44 1.017-.702 1.636-1.105.3-.195.588-.427.811-.73.16-.217.514-2.332.632-2.522.907-1.488 2.458.466 2.602.534 1.589.714 2.163-1.66 2.496-2.014 1.363-1.458 2.902-2.166 4.104-3.241.03-.02.12-.076.152-.093a8 8 0 0 0 .417-.337c.92-.79.246-2.273 1.107-2.68 2.9-1.35 4.836.208 6.772-2.816.43-.639-.875-2.039 1.868-1.652.181.019 2.257.582 2.951-.504.088-.138-.083-.626.065-.723 1.003-.633 1.862-.47 3.02-.997 1.159-.526 2.593-1.17 4.059-1.267.685-.048 1.594.407 2.166.702.134.09.247.164.328.205 1.03.525 1.8-.803 2.594-.154.827.642-.103 2.184 1.706 2.263-.284-1.316-.5-2.688-.753-4.02 3.669-.991 7.975-1.524 12.023-1.966.508-.06-.083-.728.456-.808 2.307-.33 4.338.087 6.683-.158 1.807-.192 3.798-.937 5.713-1.07 1.097 1.57 3.874 1.174 5.89 1.458.683.096.609.503 1.093.673.616.212.946.197 1.127.073.372-.243.133-.915.512-1.025 2.48-.673 2.324 2.391 4.99 2.787.13.013 2.229-1.221 2.515-1.25 1.722-.262.123.615 1.056.98 1.692.684 2.744 1.425 4.842 1.674.609.067 2.328-.37 3.077.788.099.152-.18.624-.082.698.523.379.946.513 1.32.51.874-.017 1.481-.822 2.388-.905 1.277-.118 2.556 1.617 2.792 2.065.608 1.162-.831.091-.908.153-.939.742.368 1.045 1.303 1.482-.442 1.619.949 2.024.972.447.002-.172-.807-.304-.972-.447 1.411-1.225 2.978-.878 4.111 1.184.532.971-.51 1.456 1.971 2.096 1.131.304 1.14-.934 2.238-.817 2.406.342 4.792 2.19 7.387 4.665q.116.116.242.225c.585.5.503-.473.917-.15 1.11.85 1.764 2.075 3.058 2.893.118.073.302-.643.66-.34 2.61 2.19 4.749 4.462 7.484 6.992l.393.361c1.39 1.264 4.105 3.3 5.462 4.712 2.367 2.436 4.618 6.065 6.771 7.988 1.407 1.261 1.598.509 2.482.792 1.711.544 2.431 3.645 2.494 4.077.002.013-1.203-1.079-.871-.211-.184.845.856.199.871.211.05.282 2.092 2.785 2.604 3.18.281.214.621-.344.758-.226q.282.248.556.492c2.72 2.363 6.133 5.387 8.549 9.672.039.083-.622.346-.527.534.833 1.69 1.734 2.846 2.659 4.058.523.696 1.031 1.386 1.489 2.16 1.267 2.154 1.517 4.013.635 5.554.518 1.614.408 4.02.298 5.368-.108 1.352 1.26 1.32 1.305 1.431.663 1.627.89 2.947 1.004 4.223.101 1.25.156 2.744.454 4.688.28 1.755 1.06 5.315 1.417 7.324.295 1.578.059 2.565.353 4.03.039.2.632-.039.659.022.812 1.637-.712.902-.959 1.255-.917 1.275-1.396 2.012-.974 4.106.098.467 2.182 1.972 2.246 2.909.079 1.189-.649.699-.569 1.935.004.106.479.129.381.892-.302 2.337-.829 4.785-1.431 7.196-.328 1.319-.667 2.505-.975 3.669-.128.47.761.076.588.754-.819 3.183-1.931 6.491-3.281 9.313-.334.69-.671.066-.872.171-1.221.645-.419 2.45-.478 2.687-1.086 4.538-3.135 7.767-4.891 11.837-.379.876-.739 1.8-1.068 2.799-.091.291.252 3.094-1.351 3.556-.108.034-1.722.456-1.341 1.695.023.078.915-.248.34.79-.572 1.032-1.042 2.969-2.48 4.104-.459.367-2.158.821-2.096 2.716.033.103.632 3.533-1.249 3.43-.313-.021-1.57-1.111-2.056 1.013-.102.413.634.07.187 1.04-.522 1.111-1.637 2.167-2.636 3.445a3.9 3.9 0 0 0-.52 1.073c-.082.276.007 1.858-1.26 1.968-.199.018-.431-.567-.81-.24-1.807 1.564-3.21 3.789-5.263 5.493-.73.604-1.08-.364-1.923.195-.841.56-2.394 1.844-2.959 2.929-.588 1.098 1.416 1.274.023 2.63-.783.715-1.636 1.468-3.162 2.286-6.246 3.184-11.808 3.802-17.337 5.242-.923.229-.028.527-1.377.897l-.366.102c-4.129 1.197-13.105 4.687-18.109 4.212-4.002-.296.745-1.669-2.221-1.61-1.405.017-2.774 1.831-3.125 1.912-2.251.546-4.092.378-5.944.268-.827-.055-1.658-.083-2.56-.008-.57.049-.008.732-.497.765-1.659.121-3.414-.182-5.009-.125-.71.027-.587.55-1.243.51-1.579-.09-2.977-.311-4.52-.806-.141-.046.816-.692-.362-.721-1.897-.045-4.257-.545-6.473-.09-.665.136-.715 1.333-2.119.469-.301-.182.14-1.598-1.575-.42-.274.2-3.235 1.742-4.659.524-.388-.319-1.245-1.577-2.187-1.525-.135.009.299.722-.51.665a15 15 0 0 1-2.348-.373c-2.242-.534-4.14-1.344-5.858-1.903-.604-.197 0 .781-.885.47-2.012-.712-4.03-1.648-5.806-2.394q-.608-.251-1.169-.489c-.825-.351-.068-.683-.11-.759-.7-1.252-1.694-.189-2.05-.223-2.205-.221-3.608-1.301-5.592-1.742-.547-.123-.353.593-.475.613-1.262.183-.111-.64-.776-.974-1.861-.939-4.08-1.566-6.129-2.129-.757-.208-.136.75-.813.555-4-1.156-8.203-2.579-12.291-4.953-.77-.459-.018-.716-.127-.911-.719-1.331-3.024-1.276-3.544-1.497-1.951-.761-2.641-1.712-4.024-3.313a4 4 0 0 0-.286-.318c-3.69-3.468-9.307-10.096-11.856-16.441-.492-1.15-1.057-2.343-1.631-3.583-1.786-3.73-3.174-7.906-3.912-11.648-.783-4.012-1.813-7.648-3.262-12.313-.162-.541-.723.212-.872-.257a47 47 0 0 1-1.109-4.259c-1.044-5.656-.963-9.842-1.564-14.414-.056-.478-.702.266-.815-.487-.239-1.556-.377-3.52-.307-5.11.033-.78.736.192.757-.589.048-1.792-.105-3.7-.424-5.509l-.011-.067c-.145-.82-.719.506-.85-.562-.823-7.294-1.849-14.378-.128-22.88.084-.374.735-.654 1.173-1.123.23-.144.386-.352.317-.668-.397-.107-.873-.153-1.303-.225-.041-5.07 1.52-14.763 5.838-20.576 2.518-3.81 5.187-7.197 7.891-10.579.285-.354-.813-.22-.263-.91 3.184-3.979 6.214-7.859 10.278-11.182.4-.326 1.232.784 2.101-.462.152-.224 1.581-2.013 1.782-2.644.024-.09-.73-.227-.225-.778a63 63 0 0 1 1.573-1.646c2.595-2.618 5.619-5.178 8.977-7.198.656-.39.393.631.86.363 3.27-1.901 6.737-4.293 10.152-5.077 2.273-.512 1.939.908 3.464 1.537.213.089 1.49-.38 1.798.224.768 1.516.83 3.476 1.722 5.064.189.34 1.67-.664 1.034.578-.048.084-1.1.82-1.265 1.229-.116.282.486.78.193 1.198-.287.416-.935.058-1.452.631-.501.576.066 1.171-1.11 1.792m140.027 55.247q-.028.077-.043.145c-.228 1.031 1.856.765 1.242-.194l-.034-.055c-.039-.054-1.142.04-1.165.104M108.678 5.496c1.751.775 2.643-.888 1.385-1.543-1.281-.64-1.934 1.316-1.385 1.544M92.998 9.74c1.992.407 1.654-2.984-.263-1.864-.112.066.145 1.842.263 1.864m-19.424 9.446c.03.018.938-.379.948-.416.164-.919-1.68-.112-.948.416m4.582-2.716c.715.138 1.937-1.076 1.046-1.264-.725-.15-1.944 1.092-1.046 1.264m130.038 126.733c-.04.003-.349.619-.159.688.612.221.833-.73.159-.688M55.572 31.764c3.246-2.402 6.862-1.614 3.243.774-.655.439.79-1.746-.156-1.33-1.736.766-1.599 2.907-3.66 3.334-.372.075.383-2.647.576-2.786zm161.101 52.005c-.03.025.108.972.144.987.836.363.564-1.51-.144-.987m-32.145 91.329c-.08.003-1.652 1.465-1.664 1.538.016 1.723 3.306-1.312 1.664-1.538m-3.309-141.961a3.5 3.5 0 0 1-.488-.084c-1.024-.247-1.755-.948-1.744-2.046.639.617 1.298 1.217 1.934 1.836q.15.146.298.294"/><path fill="#403d3a" d="M124.223 100.29c.223.134.047.479-.212.789-.08.097-.505.125-.579.197-.143.142.081.215-.091.367-.059.05-.729.123-.775.174a.45.45 0 0 0-.126.353c-.04-.117-.066-.28-.205-.436-.347-.405-.868-.853-1.278-1.015-.413-.175-.656-.134-.72-.055-.153.119.142.329.367.472.155.117.459.705.44.434l-.132-.657c-.2-.718.067.442.091.6.024.257.015.422-.097.574-.175.223-.516.458-.821.688-.213.161-1.099-.649-.665-.07.032.033.616.267.65.348.076.18-.073.285-.033.336.079.092.076.089.081.102.014.017.333-.07.186-.194-.033-.025-.673.029-.784-.002-.109-.028-.062-.142.084-.203.147-.057.652-.082.766-.1.966-.164-.4-.231-.436-.247l-.066-.047c-.498-.379.149-.841.068-1.215-.064-.289-.385-.487-.405-.638-.009-.154.171-.343.307-.2a.6.6 0 0 1 .07.086c.026.034-.555.521-.509.578.239.323.882.676 1.391.661.513 0 .767-.242.748-.5a17 17 0 0 0-.245-.767c-.106-.311-.527-.784-.577-.537-.026.161.146.625.769 1.605-.149-.036-.349-.031-.84-.377-.319-.22-.711-.835-.614-.512.022.072.467.522.471.592.021.29-.269.283-.168.646.022.075.434.463.5.542.539.629-.543-.212-.643-.25-.718-.311-.636.041-.799.215-.039.041.596.465.582.519a.57.57 0 0 1-.156.271c-.112.104-.268.148-.493.127-.085-.009-.618-.38-.688-.399-.311-.067.744.556.496.46-.052-.018-.544-.275-.599-.301-.876-.388.332.229.364.231.183.094-.034-.04-.294-.146-.258-.117-.551-.177-.45-.276.024-.038.729.059.753-.083.076-.359-.173-.987-.44-1.195-.24-.209-.344-.16-.381-.068-.036.098-.012.264.038.467.026.098-.158.593-.175.656-.206.998.208-.301.232-.348.214-.324.227.833.54-.762a.6.6 0 0 0 .584.22c.096-.016.112-.026.172.069.063.089.203.284.632.474.017.006.515.454.55.461.437.06-.399-.578-1.453-1.291-.278-.158 1.088.551 1.201.579.384.162 1.248.661 1.326.686.244.062-.047-.127-.498-.374-.714-.394-1.83-.932-1.815-.966.006-.001.559.249.618.266.186.047-.027-.07.178-.021.471.121 2.01.582 1.169.143-.111-.052-1.904-.579-1.798-.632.046-.024.051-.195.179-.228.128-.031.716.105.742.107.816-.053 1.132.061 2.319.094 1.184.003-1.607-.281-1.914-.352-.306-.068.361-.151.592-.18.231-.025.609.051.741.021.859-.218-1.384-.177-1.826-.264-1.048-.168 1.031-.259 1.23-.455.054-.047-.418.004-.464-.033q-.025-.022-.03-.044c-.028-.12.436-.255-.111-.346-.1-.03-1.35.049-.452-.143.129-.032.645-.087.75-.162.158-.111.229-.3.038-.32-.138-.007-.928.319-.691.196.104-.06.588-.195.736-.312.148-.124.053-.255.012-.278-.044-.028-.54.39-.579.41-.21.14-.391.406-.378.416.082.117.283.08.304-.06.054-.288-.49-.69-.807-.358-.039.038.149.695.145.708-.062.31-.39-1.48-.678-2.034.38 1.334.245 1.11.177 1.29-.031.087.16.59.172.643.185.797-.188-.188-.278-.384-.318-.729-.054.172-.276-.31-.23-.474-.412-1.24-.542-1.178.154.473.712 1.646.719 1.87.066.822-.746.13-.943.17l-.02.001c-.132.014-.069.063-.235.007-.327-.071.579.292 1.038.261.461-.098-1.907-.267-2.411-.322-.51-.009.009.069-.271.1-.281.049-.625-.09-.731.059-.111.194.849.436 1.369.293 1.102-.235 2.244-.551 1.831-.48-.023.009-.612.211-.667.242-.278.176-.297.398-.305.637-.003.123-.003.258-.006.433 0 .074-.448.604-.446.658.075.588.644-.455 1.245-1.6-.758 1.544-1.145 2.565-.687 2.707.26.066.364-.69.502-1.208.025-.156.124.362.132.006-.054-1.152-.104-2.475-.343-1.897-.002.026.192.631.181.674-.021.184-.264-.243-.645-.434-.185-.095-.388-.13-.501-.064-.137.082-.062.287.103.379.162.101.385.112.451.081 1.908.368 1.509.001.172-.112.059-.076-.017-.159.16-.258.06-.036.621-.07.681-.078.938-.188-.363-.094-.415-.094-.189-.056-.191-.119-.166-.197.05-.123.151-.355-.447-.157-.037.005-1.202.682-.371.155.053-.043.615-.3.604-.408.004-.09.408-.753-.187-.473-.147.063-.981.774-.442.106.072-.092.349-.361.484-.53.423-.544-.525.435.198-.472.722-.907 1.113-1.718.41-1.26-.022.013-.743.819-.788.762l-.014-.022c-.058-.11-.061-.356-.159-.42-.05-.031-.413.534-.428.538-.512.099-.354-.522-.628-.927-.024-.036-.171.138-.272.245-.106.104-.157.14-.147-.225-.064-.784.767-4.11-.586-3.301-.371.232-.368 2.062-.193 2.763.064.414.097.451-.495-.09-.131.442-.386.563-.654.777-.256.203-.47.472-.211.88.021.041 1.096.497 1.068.532-.047.06-.58-.06-.631-.012-.229.2.177.523.07.729-.04.08-.592-.035-.639.075-.014.032.041.07.115.109.175.094.459.18.201.262-.279.077-1.803.176-1.97.448 1.495-.052 1.467.08 1.886.21.081.022.59-.094.654-.09.271 0-.142.129.153.108.071-.007.566-.132.65-.149.729-.18-.348.214-.514.338-.664.379-.038.148-.272.343-.221.217-.613.284-.714.473-.195.418.103.667.264.864.069.08.506-.448.528-.448.238-.001-.082.681.862-.3-2.131 2.792.295-.195.04.491-.021.054-.967 1.42-1.191 1.558-.228.134-.026-.365-.372-.158-.073.056-1.255 1.093-1.351 1.132-.714.349.973-1.477 1.064-1.578.946-1.128-.398-.113-.555-.117-.632.08-.548-.398-1.043-.505-.322-.079-1.797.606-1.864.339-.218-.981 1.977-1.603-.061-1.981-.428-.093-2.202.174-.837-.507.085-.063 1.36-.413.565-.627-.101-.03-.618-.058-.659-.095-.247-.236.103-.347.016-.546a.3.3 0 0 0-.028-.048c-.171-.232-.421-.542-.202-.752.131-.131 1.113-.105 1.356-.11.7-.008-.332-.469.493-.358.822.134 1.986.635 2.557.588a260 260 0 0 1-3.884-1.243c.273-.698.933-1.204 1.417-2.055.063-.111-.613-.402-.551-.542.296-.61 1.061-.775 1.781-1.56.25-.264.509-.633.884-1.016.488-.515 1.14-1.006 1.8-1.193.885 1.416 2.015 1.023 2.647 1.367.21.112.068.5.159.673.301.637.568-.71.79-.853.975-.573-.342 2.22.056 2.357.012.003 1.127-1.24 1.226-1.295.593-.41-.271.504-.206.692.111.342.013.754.523.536.112-.05.584-.455.651-.342.021.037 0 .128-.092.303-.049.093-.396.51-.404.545-.114.588.974-.723 1.502-1.032.533-.305.005.806-.186 1.093-.478.754-.349.186-.414.244-.763.691-.492.698-.434.875-1.143 1.219-.941 1.279.064.18.108-.123-.094-.103-.064-.18 1.235-1.088 1.663-.955.73.308-.445.586-1.171 1.013-.681 1.137.224.068 1.104-.679 1.484-.684.897.028.325 1.215.653 1.646.128.175.652-.232.762-.109a.55.55 0 0 1 .127.363c.008.276-.103.542.106.766.028.032.662-.174.692-.049.231.97-.167 1.755-.354 2.811-.081.49-.035 1.702-.658 2.54-.305.417-.799.873-1.478 1.257-1.558.894-3.163.657-4.001.756-.833.074-.753.723-1.229 1.089-.467.342-.931.01-1.153-.426-.234-.437-.256-.966-.251-1.101 0-.003.557.1.45-.331.184-.697-.437.334-.45.331-.025-.17-.767-.848-.976-.888-.125-.015-.487.497-.548.476a4 4 0 0 1-.834-.412c-1-.637-1.787-1.781-1.905-3.357.005-.035.698-.139.703-.214.115-1.021-.745-1.694-1.017-2.913-.255-1.203.401-2.073 1.683-1.85.189-.556.942-.862 1.442-.902q.127-.011.233-.013c.47.011-.36-1.057-.347-1.105.285-1.314 1.155-.901 1.857-1.115.342-.104.875-.534 1.179-.79.24-.207.498.048.703-.22.028-.035-.166-.61-.161-.636.132-.784.349.69.474.932.451.88.648 1.357.922.847.049-.114.001-2.266.217-2.416.256-.188.229.582.499.374.024-.016-.018-.487.18-.478.633.034 1.378.169 2.431.468.481.14 1 .32 1.538.546.235.104.24-.721.609-.564 1.826.731 3.429 2.717 3.635 4.09.064.342-.503.37-.614.497-.698.727.724.675.781.769.945 1.341.305 2.24.332 2.935.003.188.051.381.176.595.036.039 1.495.53.229.688-.085.016-1.377.128-.512.354.054.017.724-.065.64.153-.084.21.316.644-.452.863-.243.078-1.538.068-.591.55.074.005 2.213 1.044.612.852-.264-.033-1.88-.504-1.15.087.139.119.541.092.706.357.249.421-.315.666.205 1.36.083.101.771.713.351.811a.8.8 0 0 1-.274-.005c-.141-.022-.608-.346-.728-.25-.565.443-.668 1.32-1.503 1.713-.291.131-.888-.571-1.247-.536-.361.038-.886.217-.846.718.024.514 1.22 1.425.858 1.848-1.27 1.436-3.3 1.695-4.685 1.595-.444-.025-.835-.069-1.203-.088-.224-.013-.027.505-.365.517-1.203.071-3.298.208-4.105-1.287-.56-1.165.753-1.372.274-1.951-.189-.261-1.305 1.064-1.45 1.045-.865-.033-1.399-.711-2.102-1.604-.27-.349-.555-.724-.9-1.163-.254-.336-.633.375-.853.053-.784-1.153-.813-2.752-.862-3.795-.026-.478-.549-.409-.479-.841.179-.994.591-1.616 1.24-2.007.057-.029.564.492.721.118.259-.602.951-.892.747-1.534-.062-.19-1.076-.825-.222-.636.178.041 1.346.874.469-.05-.153-.146-1.231-1.529-.227-1.072.06.027.16.079.277.14.397.205.991.525.93.37-.013-.031-.563-.367-.553-.484.046-.406.326-.643.404-1.043.02-.109-.578-.43-.528-.581.137-.418.613-.685 1.044-.826.16-.051.478.41.529.443.806.57-.05-.43-.059-.529-.056-.585.577-.33.733-.682.047-.098-.416-.526-.438-.581-.191-.555.419.403.6.413.507.03.801-.266 1.1-.578.111-.115-.455-.605-.345-.705a4.2 4.2 0 0 1 .957-.667 5.2 5.2 0 0 1 2.15-.55c.273-.011.289.573.38.678.577.746.801-.558.957-.704.595-.647.984-.194 1.705-.295 2.126-.45 5.646 1.246 6.762 3.046.889 1.219 1.117 2.08 1.309 2.739.481 1.98.046 2.954.373 4.094.018.071.744-.106.769-.045.074.202.115.404.14.604.067.604.039 1.319.153 2.499.009.135.724-.028.761.202.081.473-.041 1.205-.424 1.834-.186.301-.666-.275-.84.018-.408.667-.78 1.527-1.26 2.475-.214.409.787.218.435.746-.845 1.256-2.109 2.305-3.234 2.864-2.102 1.008-3.354.892-4.457.382-.118-.057-.28-1.516-.465-1.228-.002.407.013.885.018 1.32-1.792.205-3.114-.211-5.083-1.086a16 16 0 0 1-1.477-.796c-.118-.072-.297.724-.539.578-1.371-.784-3.269-2.385-3.377-4.574-.008-.208 1.27-.672.909-1.034-.072-.066-.456-.674-.778-.777-.05-.015-.638.27-.711.042a6 6 0 0 1-.095-.345c-.135-.439-.071-.945.206-1.467.051-.092.735-.11.777-.176.293-.461-.282-.851.284-1.377.383-.354 1.563-.348 2.703-.592.16-.032.174-.225.846-.269 1.689-.086 3.54-.134 5.339-.241.194-.01.187-.013.249.026.062.045.192.098.66-.018.062-.042.371-.089.689-.096.22-.013.902-.063 1.183-.082s-.29.038.042.037c.337-.001 1.109-.094 1.208-.04m-7.762-4.281c.503.458-.673-1.626-.602-1 .004.034.576.978.602 1m-3.918.155c1.043.274-.205-.658-1.024-.87-.838-.166.698.808 1.024.87m.045 2.422c.856-.08-2.471-.753-1.849-.312.035.026 1.799.32 1.849.312m1.81 2.99c.032-.005.05-.117.018-.117-.762.027-.796.261-.018.117m-.826-.789c.4-.23-.168-.272-.683-.006-.407.245.196.329.683.006m9.246-.688c-.036.003-.066.076.135.07.649-.019.463-.123-.135-.07m-6.915 3.012c-.35-.361 1.068-2.792 1.186-2.338.03.086-.604.676-.663.937-.085.491.907-.967.584-.066-.051.17-1.086 1.496-1.109 1.47zm2.135-4.697c.018.025.117.003.103-.026-.322-.691-.551-.628-.103.026m2.458 4.67c-.05-.043-.182-.011-.146.039.691 1.045 1.129.834.146-.039m-2.387-2.665c-.747-.168-.842-.137.12-.12-.054.046-.067.091-.12.12"/><path fill="#403d3a" d="M112.051 99.646c-.122-.241.085-.66.334-1.013.078-.108.392-.033.46-.111.132-.157-.018-.313.134-.471.052-.053.554.03.597-.026.232-.318.108-.627.216-.967.529-1.672.621-3.435.699-5.247.025-.605.412-1.363.148-1.968-.032-.069-.467.02-.505.01-.577-.153.318-.177.421-.33.406-.613.374-1.239.139-1.757-.101-.222-.945.117-.484-.177.028-.018.406-.019.518-.068a.06.06 0 0 0 .028-.023c.091-.178-.026-.488-.001-.62.052-.249.044-.288.032-.522-.011-.31.203-.694.085-1.015-.027-.07-.504.041-.59-.07-.086-.115-.053-.41.059-.514.111-.103.491-.066.577-.086.729-.157-.287-.475-.312-.522-.43-.796.164-1.466.19-2.187.019-.549-.141-1.146-.083-1.664.072-.619.369-1.12.371-1.716.001-.063-.569-.034-.57-.112-.001-.822.133-1.624.59-2.391.046-.077.531.074.607 0 .453-.453 1.506-1.124-.617-1.633.118-.323.246-.717.71-.967.299-.162.819.08.613-.178-.046-.058-.524-.039-.557-.122-.138-.35.053-.699-.156-1.052-.043-.072-.468-.098-.542-.125-.599-.224.447-.382.527-.432.598-.38.414-.722.47-1.13.013-.094-.566-.041-.574-.134a2.16 2.16 0 0 1 .362-1.395c.068-.097.542.045.599 0 .245-.192-.664-.33-.447-.516.045-.04.457.024.503.02.726-.057-.276-.26-.295-.293-.268-.433.812-.592.696-.998-.015-.048-.549.011-.559-.12a4 4 0 0 1 .011-.795 4.9 4.9 0 0 1 .573-1.791c.07-.134.461-.021.51-.028.767-.114-.25-.237-.287-.282-.264-.352.601-.652-.608-.922.461-1.455-.208-2.937.886-4.398.012-.019.515.016.538-.021.284-.453-.498-.371-1.453-.664-.24-.074.914-.301.998-.322.312-.074 1.06.002 1.12-.022.474-.205-1.999-.177-2-.447.004-.008.459.026.504.004.142-.071-.039-.141.118-.211.362-.16 1.564-.22.864-.467-.091-.03-1.494.018-1.428-.227.027-.095.001-.525.091-.65.091-.122.543-.04.563-.049.596-.335.844-.21 1.728-.378.881-.167-1.222-.11-1.457-.175-.234-.065.258-.307.429-.368.171-.06.459.011.555-.042.632-.357-1.045-.148-1.379-.261-.793-.262.765-.48.916-.73.041-.069-.314-.01-.348-.07-.128-.238.357-.385-.092-.646-.073-.043-1.013-.25-.326-.398.099-.02.488.033.574-.07.13-.152.212-.428.08-.584-.097-.117-.736.026-.539-.126.088-.067.464.052.598-.074.135-.126.115-.446.1-.569s-.499-.05-.532-.06c-.189-.06-.425-.283-.425-.304-.072-1.032.734-2.01.448-3.004-.022-.08-.533-.019-.542-.03-.219-.27 1.146-.075 1.599-.273-1.039.044-.852-.074-.969-.263-.057-.09-.459-.034-.5-.042-.614-.125.175-.232.336-.258.592-.1-.111-.186.285-.254.393-.067.98.065.97-.118-.373-.046-1.344.105-1.503-.031-.605-.526.142-1.499.214-1.934.072-.418.001-.552.132-.8.235-.449-.483-.273-.819-.545-.335-.271 1.443-.167 1.824-.214.38-.045-.013-.08.196-.132.209-.051.47.048.547-.066.076-.114-.608-.412-1.008-.445-.846-.07-1.731.086-1.425-.221.019-.018.486.03.532-.037.35-.544.362-1.072.67-1.61.043-.075.564-.02.595-.062.323-.45-.549-.274-1.526-.494 1.295.03 2.085-.116 2.086-.448.001-.2-.563-.154-.964-.276-.121-.037.264-.186-.002-.207-.871-.068-1.841.085-1.46-.268.018-.016.495.023.522-.03.183-.34-.727-.358-.844-.718-.092-.28.452-.806.536-1.128 1.455-.022 1.116-.319.11-.423.037-.21-.024-.436.111-.643.045-.071.468-.034.513-.043.711-.15-.267-.224-.306-.269-.382-.484.35-.893-.382-1.351-.027-.016-1.038-.023-.303-.164.051-.01.514.137.545-.086.031-.229.565-.644.09-.943-.114-.071-.939-.242-.301-.406.087-.022.377-.006.538-.039.512-.104-.511-.135.355-.264.495-.073.919-.185 1.076-.324l-.001.072c.126-.093.107-.211-.139-.359-.017-.01-.82-.14-.8-.239.033-.155.218-.359.226-.522.003-.078-.502-.069-.51-.083-.238-.547.241-.883.49-1.42.046-.096-.605-.463-.044-.604.614-.153 3.042.34 2.513-.207-.212-.216-3.29-.854-1.634-1.01-.307-.75.609-1.265.155-2.046-.021-.034-.867-.276-.843-.348.037-.106.45-.1.49-.173.176-.307-.118-.664-.013-.968.039-.117.449-.007.495-.147s-.489-.32-.194-.473a.6.6 0 0 1 .164-.045c.388-.096 1.225-.173 1.349-.342-1.119-.082-1.087-.217-1.369-.473-.055-.05-.448-.021-.494-.046-.196-.097.131-.162-.083-.257-.052-.023-.434-.043-.498-.063-.556-.167.315-.361.467-.393.576-.128.082-.223.312-.331s.501.081.644-.049c.295-.272.252-.64.286-.93.011-.116-.504-.064-.514-.082-.117-.247.44-.455-.568-.65 2.638-.007-.247-.16.301-.473.044-.023 1.289.02 1.465.136.176.115-.222.247.054.406.064.038 1.218.3 1.287.329.539.237-1.32.159-1.423.165-1.108.063.135.368.218.435.382.305.109.533.381.785.176.166 1.393.24 1.35.36-.143.407-1.847.46-.398.95.309.107 1.645.094.578.367-.068.02-1.041.196-.451.398a1 1 0 0 0 .092.019c-.008.034-.01.138-.02.171.14.03.373.068.395.09.186.187-.136.243-.015.43.12.188.307.416.147.575-.096.095-.832.112-1.015.133-.527.058.273.346-.351.331-.627-.014-1.529-.341-1.963-.177.994.174 2.012.363 3.011.543-.117.488-.515.91-.541 1.401-.002.06.544.078.555.144.047.28-.368.463-.252.762.092.234.633.537.751.78-1.163 0-.812.388-.943.62-.045.083-.351.046-.457.098-.394.195.632.188.785.268.655.34-1.645.138-1.619.475.001.018 1.208.34 1.282.375.482.224-.43-.007-.53.1-.184.198-.489.32-.149.6.101.081.853.31.25.41-.078.013-.483-.027-.508-.014-.395.228.734.33 1.21.497l.009-.37q.039.01.072.022c.436.154-.441.423-.694.48-.655.146-.283-.097-.348-.103-.77-.07-.634.111-.696.251-1.252.046-1.173.239-.059.146.122-.01.003-.116.059-.146 1.232.097 1.394.307.25.565-.536.12-1.166.03-.93.357.107.148.969.072 1.206.2.543.3-.253.716-.12 1.028.048.114.518-.007.568.07.132.204-.219.392-.033.596.017.019.511-.038.518.027.068.497-.24.933-.239 1.44.001.245.282.693.233.95-.084.446-.792 1.005-.61 1.386.116.247.61.183.949.283.657.193-.506.575-.687.626-.006.002-.126-.207-.378-.09-.528.076.376.088.378.09-.116.033-.22.469-.124.551.052.045.52.01.539.034.43.565.559 1.13.351 1.718-.01.01-.534.004-.549.029-.227.34.418.535.803.809.385.273.262.495-.635.674.117.208-.276.509-.514.685-.239.179.782.186.802.201.654.468.074.744-.009 1.236-.041.238.114.7.23.948.093.196-.145.32.011.504.021.025.475-.007.492 0 .547.2-.565.117-.763.162-.719.166-1.101.267-.758.523.078.06 1.68.212 1.775.32.12.141-.453.096-.312.246.011.013.365.006.35.1-.061.44-.261.897-.22 1.356.005.062.564-.024.58.065.072.416.056.868-.202 1.281-.065.101-.458.043-.575.066-.704.14.323.316.343.347.501.742-.422 1.313.026 2.072.026.043 1.128.342.186.498-.062.01-1.026.159-.366.28.042.007.538-.084.488.07-.049.153.283.394-.261.605-.171.07-1.132.234-.365.429.054.012 1.789.312.593.423-.197.02-1.463 0-.813.24.126.045.408-.04.585.081.272.185-.066.428.498.65.1.037.959.204.307.342-.102.021-.525-.02-.572.052-.227.342.055.685-.238 1.035-.103.121-.786.057-.97.182-.183.126-.36.373-.049.512.312.136 1.402-.005 1.488.196.373.868-.275 1.726-.384 2.602-.017.128.375.03.379.218.016.71.345 1.962-.512 2.57-.686.48-1.161-.188-1.448.191-.138.181 1.116.44 1.153.492.332.421-.074.695-.084 1.036a.4.4 0 0 0 .023.142c.029.083.547.044.566.115.07.242-.179.473-.156.697.012.101.404.116.366.206-.087.218-.268.393-.653.572-.036.017-.509-.158-.542.001-.052.261-.442.54-.099.876.104.098.995.188.361.316-.132.027-1.198-.13-.295.182.15.052 1.361.544.539.644-.217.026-1.104.058-.978.177.021.017.505.009.543.1.125.319.041.636.159.961.032.088.54.015.572.144.09.356-.081.765-.271 1.08-.07.116-.472-.011-.517-.007-.741.066.23.253.282.307.311.33-.172.504-.079.787.025.078.498.074.538.093.391.196-.436-.006-.539.082-.29.245-.284.552-.252.832.012.103.566.045.571.136.039.543-.068 1.088-.416 1.575-.067.092-.478-.009-.576.002-.68.077.211.367.293.422.376.25-.001.299.051.492.26.948-.074 2.042-.279 2.876-.264 1.083-.701 1.909-.613 2.92.005.064.564.007.576.061.126.696-.083 1.367.114 1.986.015.05.539-.052.581.025.09.156.076.358-.079.525-.074.081-.535.022-.6.105-.107.14-.147.28-.124.4q.02.122.072.235c.051.108.567-.127.591.018.173.982.374 1.954-.225 3.031-.041.075-1.13.242-.906.368.305-.018.662-.052.987-.078.311 1.435.04 2.931.045 4.427 0 .065.577-.072.581.054.02.713.201 1.42-.375 2.177-.057.075-1.081.042-.926.255.028.033.163.368.385.454.033.012.512-.043.525.063.065.626-.067 1.307-.403 1.95-.055.101-.556-.045-.599.026-.307.508.021 1.145-.53 1.672-.373.347-1.216.046-2.104.078-.123-.002-.192.225-.685.115-1.239-.273-2.577-.65-3.9-.927-.287-.052.006.069-.67-.129-.046-.009-.263-.107-.493-.174-.159-.042-.665-.132-.869-.189-.204-.055.223.002-.014-.086-.239-.09-.819-.156-.873-.26m8.868-54.245c-.487.167 1.307.161.875-.004a15 15 0 0 0-.875.004m.063-18.92c-.813.082.318.391.943.343.625-.049-.697-.365-.943-.342m-.225-2.207c-.655.142 1.849.598 1.385.248a22 22 0 0 0-1.385-.248m-1.316 76.165c-.024-.002-.065.138-.043.145.555.156.639-.135.043-.145m.893-78.474c-.347.06.039.298.471.224.348-.06-.038-.297-.471-.224m-1.222 31.778c-.027.003-.05.096.101.093.487-.01.349-.139-.101-.093m1.403-35.4c-.133.528-2.251.715-1.975.142.05-.104.653.277.851.153.362-.223-.943-.478-.219-.684.132-.035 1.356.361 1.346.39zm-1.75 27.185c-.023.004-.044.131-.02.134.57.06.612-.197.02-.134m-.747 13.6c-.05.004-.099.303-.052.313.93.161 1.032-.443.052-.313m-.723-22.185c-.576-.127-.647-.291.071-.416-.036.139-.039.277-.071.416"/><path fill="#403d3a" d="M123.18 95.995c.255-.173.605-.03.894.18.091.065.071.385.133.444.121.115.216-.048.343.09.042.047.032.553.076.591.228.206.433.062.658.151 1.137.44 2.237.532 3.376.655.375.04.867.452 1.23.215.042-.028-.028-.465-.023-.502.077-.569.121.324.219.433.39.432.778.434 1.091.23.134-.088-.098-.947.094-.471.014.032.026.503.07.549.099.102.257.002.329.032.138.06.159.053.284.045.17-.007.396.204.567.079.036-.029-.067-.502-.014-.59s.22-.065.287.042c.068.107.085.485.104.57.161.72.24-.31.261-.337.395-.473.839.058 1.255.008.315-.04.628-.268.932-.279.359-.01.694.212 1.034.123.036-.008-.078-.564-.034-.576.459-.125.938-.126 1.452.188.053.032.06.533.117.594.343.365.948 1.269.795-.896.128.034.27.066.413.183.095.07.192.172.286.325.16.26.128.812.236.562.024-.056-.088-.518-.046-.566.178-.203.422-.083.592-.355.034-.056-.038-.475-.037-.553.012-.627.32.363.366.432.345.512.518.268.771.248.059-.004-.085-.56-.031-.585.284-.12.6-.11.917.106.072.05.071.539.108.587.162.207.083-.708.237-.526.032.037.065.452.075.497.161.703.11-.314.128-.339.217-.333.502.703.726.527.027-.022-.095-.538-.015-.568.536-.204 1.135-.117 1.715.256.09.058.063.457.073.505.151.751.119-.27.144-.31.193-.295.463.542.517-.681.951.35 1.836-.387 2.797.66.012.011.015.515.039.537.288.27.2-.509.344-1.471.037-.242.225.905.241.989.057.31.04 1.059.057 1.118.143.469.026-2.002.197-2.009.006.004 0 .46.016.504.05.14.087-.041.136.114.112.358.188 1.558.314.854.016-.091-.061-1.492.093-1.431.062.025.329-.007.406.082.077.088.039.542.045.561.218.592.149.842.273 1.724.123.879.038-1.223.073-1.459.035-.235.195.254.235.425s.002.459.037.555c.226.63.067-1.046.129-1.381.146-.794.311.762.465.912.041.04.001-.314.036-.348.141-.13.237.355.392-.095.025-.073.141-1.013.239-.326.014.099-.014.488.049.574.094.129.259.21.356.08.071-.098-.023-.737.072-.54.042.088-.027.464.051.599s.271.114.344.1c.074-.014.026-.499.031-.532.034-.188.172-.424.184-.424.628-.068 1.22.743 1.827.464.048-.022.009-.533.016-.542.162-.217.051 1.147.171 1.601-.03-1.04.039-.852.153-.967.055-.057.019-.459.024-.5.073-.613.142.176.159.337.064.594.113-.11.157.288.043.393-.035.979.076.97.026-.373-.07-1.344.011-1.503.307-.6.91.153 1.167.228.258.075.335.005.487.136.273.238.161-.481.321-.815.158-.333.114 1.443.145 1.824s.049-.012.083.197c.033.21-.025.47.046.547.07.077.245-.605.26-1.005.034-.846-.071-1.731.118-1.424.011.019-.012.486.029.532.32.353.66.367.98.676.045.043.02.563.046.594.274.325.156-.547.274-1.524.003 1.032.069 1.743.2 1.99.024.063.061.097.102.097.122.003.091-.562.161-.961.021-.12.114.266.124 0 .035-.87-.066-1.842.15-1.458.009.018-.01.494.022.522.208.185.21-.724.428-.84.169-.09.487.458.683.544.03 1.455.209 1.117.259.112.128.038.261-.022.389.113.044.047.027.468.033.514.101.712.13-.266.156-.305.287-.38.55.353.811-.378.01-.026-.006-1.037.092-.302.007.05-.073.513.062.545.135.031.403.565.573.09.041-.114.125-.937.238-.3.015.087.012.377.035.537.075.512.07-.51.167.355.095.865.262 1.51.426.904.005-.017.018-.828.078-.817.096.017.234.18.332.171.048-.005-.003-.506.005-.515.304-.295.544.144.893.323.061.034.211-.66.354-.124.16.587.147 3.059.424 2.456.116-.241.102-3.377.411-1.768.403-.425.849.38 1.242-.223.018-.027.017-.903.061-.895.069.015.136.42.185.443.21.108.364-.255.56-.218.075.014.085.437.175.453.093.014.095-.544.24-.289.083.154.234.882.36 1.242l-.042.004a.6.6 0 0 0 .082.197c-.074-1.12.008-1.102.134-1.407.025-.059-.03-.446-.019-.494.041-.205.111.115.148-.106.009-.054-.014-.436-.008-.501.05-.568.24.282.276.43.131.562.138.062.225.28.089.218.005.506.1.635.201.266.43.18.614.174.074-.005-.043-.505-.034-.518.123-.147.36.366.27-.651.539 2.579.043-.266.328.217.023.039.284 1.257.251 1.45-.036.192-.207-.172-.253.124-.009.07.041 1.244.029 1.317-.075.57-.359-1.27-.379-1.37-.232-1.08-.216.184-.254.276-.15.418-.345.174-.48.47-.09.191-.01 1.408-.1 1.377-.292-.104-.483-1.797-.615-.311-.026.317.102 1.643-.119.608a8 8 0 0 0-.054-.257l.11-.01c-.082-.254-.2-.549-.217-.136-.003.077.036.464.026.498-.075.219-.171-.083-.258.074-.092.158-.193.388-.321.267-.075-.073-.224-.787-.27-.961-.129-.501-.166.34-.267-.272-.102-.615-.065-1.563-.238-1.952.069 1.006.132 2.04.197 3.052-.333-.011-.674-.316-.994-.252-.04.009.034.548-.008.571-.179.097-.361-.279-.538-.115-.141.129-.266.71-.415.863-.149-1.148-.357-.746-.523-.844-.059-.033-.069-.341-.115-.44-.171-.364-.051.651-.086.813-.147.693-.27-1.613-.474-1.547-.011.003-.095 1.238-.112 1.316-.099.504-.038-.427-.116-.515-.141-.161-.252-.45-.395-.084-.042.109-.125.88-.239.29-.015-.077-.024-.484-.034-.507-.186-.391-.144.887-.228 1.323-.087.436-.269-.44-.309-.693-.105-.655.052-.283.054-.348.025-.77-.081-.634-.169-.695-.056-1.253-.172-1.173-.091-.06.009.122.072.003.091.06-.033 1.231-.158 1.393-.341.249-.085-.536-.043-1.165-.239-.929-.089.106-.026.968-.101 1.205-.173.543-.438-.254-.63-.122-.068.048.014.518-.033.567-.123.132-.246-.219-.369-.034-.011.017.03.511-.009.518-.3.066-.572-.244-.887-.246-.151 0-.419.279-.577.227-.278-.086-.626-.798-.855-.619-.149.115-.107.608-.166.946-.034.196-.08.23-.129.175l.049-.001c-.117-.127-.252-.736-.276-.863-.001-.006.128-.126.05-.378-.056-.527-.049.376-.05.378-.024-.116-.289-.221-.338-.125-.026.052.002.52-.012.538-.341.429-.69.556-1.053.345-.006-.009-.008-.533-.023-.549-.212-.228-.329.415-.49.799-.164.384-.302.259-.418-.639-.126.116-.314-.278-.425-.518-.11-.239-.107.781-.116.801-.279.651-.454.069-.756-.017-.142-.043-.421.109-.574.223-.12.091-.196-.147-.305.008-.015.02.006.474.002.492-.116.545-.072-.566-.1-.764-.104-.72-.167-1.103-.322-.762-.035.078-.121 1.679-.186 1.773-.085.12-.059-.454-.149-.314-.007.012-.001.365-.058.35-.262-.064-.545-.266-.815-.226-.037.004.018.564-.035.579-.246.07-.519.053-.763-.206-.06-.065-.03-.458-.044-.575-.09-.704-.186.323-.204.343-.431.5-.783-.421-1.218.03-.024.027-.183 1.129-.287.189-.007-.062-.113-1.024-.169-.363-.003.041.06.536-.03.488s-.223.287-.36-.255c-.043-.171-.162-1.13-.254-.36-.007.054-.129 1.792-.229.599-.017-.197-.047-1.462-.163-.809-.022.126.035.407-.028.586-.095.275-.246-.059-.354.509-.019.101-.08.963-.181.314-.016-.102-.01-.525-.052-.57-.201-.22-.389.071-.596-.212-.073-.099-.069-.784-.15-.963-.081-.18-.236-.348-.296-.033-.06.316.077 1.399-.031 1.492-.462.402-.975-.207-1.464-.267-.073-.009.013.375-.091.39-.387.056-1.013.472-1.424-.322-.328-.636-.033-1.169-.265-1.419-.113-.119-.104 1.151-.124 1.193-.198.425-.413-.117-.607.076-.04.04.055.546.02.574-.116.101-.274-.112-.389-.058-.051.026.001.414-.052.39-.125-.055-.248-.207-.406-.559-.015-.032.003-.524-.089-.532-.146-.012-.366-.351-.488.041-.036.117.07 1.007-.111.405-.037-.125-.141-1.196-.149-.259-.003.156-.049 1.425-.252.636-.053-.207-.234-1.071-.276-.926-.005.023.089.496.046.549-.153.178-.336.15-.494.324-.041.047.096.531.032.585-.178.152-.428.059-.64-.068-.078-.048-.089-.463-.1-.506-.187-.711-.095.271-.113.332-.119.365-.311-.074-.449.07-.038.039.063.499.061.542-.026.418-.088-.426-.158-.51-.094-.113-.182-.157-.266-.163a.6.6 0 0 0-.282.08c-.063.032.093.56.035.583a1.08 1.08 0 0 1-1.084-.105c-.071-.048-.089-.469-.115-.562-.184-.651-.187.272-.207.362-.084.413-.188.053-.303.138-.548.422-1.311.27-1.884.187-.747-.106-1.351-.438-2.024-.258-.043.011.064.561.027.577-.47.188-.971.024-1.44.236-.038.016.075.536.015.58-.123.094-.293.083-.443-.071-.073-.074-.034-.535-.106-.6-.17-.153-.336-.174-.483-.074-.062.044.093.572.008.587-.582.114-1.151.264-1.811-.376-.045-.044-.186-1.135-.253-.916.023.304.058.661.086.986-.837.257-1.72-.044-2.583-.029-.036.001.076.576.007.581-.41.026-.793.221-1.258-.323-.046-.053-.108-1.076-.217-.912-.02.03-.189.181-.22.406-.004.034.068.508.008.527-.344.1-.711.018-1.086-.249-.06-.043-.036-.556-.078-.592-.297-.25-.588.158-.893-.287-.198-.3-.188-1.183-.335-2.043-.021-.121-.133-.134-.165-.638-.084-1.265-.11-2.654-.205-4.003-.022-.29-.134.03-.096-.677.003-.047.085-.285.096-.525.007-.166-.051-.676-.03-.89.022-.212.084.215.128-.036.04-.254-.02-.835.086-.91m33.686 5.31c-.104-.488-.09 1.306.008.875a28 28 0 0 0-.008-.875m11.755-.656c-.177-.782-.195.385-.065.989.132.604.12-.753.065-.989m1.298-.677c-.204-.608-.017 1.93.11 1.402a36 36 0 0 0-.11-1.402m-46.124 3.429c-.003-.024-.085-.042-.086-.018-.007.571.158.607.086.018m47.349-4.157c-.071-.34-.179.065-.093.489.069.34.182-.066.093-.489m-19.339.223c-.002-.026-.059-.05-.054.102.014.487.088.348.054-.102m21.624-.6c-.369-.01-.973-2.032-.614-1.87.068.03.024.683.141.85.223.304 0-1 .311-.35.061.118.188 1.374.162 1.373zm-16.652.284c-.002-.024-.081-.045-.083-.022-.033.57.125.614.083.022m-8.281-.684c-.006-.05-.19-.088-.194-.041-.047.935.321 1.015.194.041m13.464-.74c.069-.576.17-.645.254.072-.084-.036-.17-.04-.254-.073"/><path fill="#403d3a" d="M110.504 11.163c-3.354.516-7.856 1.166-11.306 1.735-1.086.178-.611-.259-1.368-.144-1.471.227-2.773.724-4.232.971-.484.08-.031-.566-.537-.47-2.481.483-4.74 1.255-7.159 1.992-.17.049-.391.122-.599.195-9.929 4.57-19.91 13.891-30.123 21.542-1.091.826-2.076 1.837-3.007 3.025-1.946 2.459-4.096 6.03-6.161 9.487-.72 1.212-1.423 2.39-2.087 3.538-.3.518.264.453.234.57-.508 1.824-.933.833-1.679 1.743-2.284 2.802-4.813 5.842-6.724 8.628a21 21 0 0 0-1.34 2.352c-.751 1.566.835.428-.398 1.754-.085.094-.307-.513-.566-.105-.596.928-1.379 2.88-1.741 3.663-.705 1.505-.8 1.765-1.358 3.236-.757 2.008-1.779 4.382-2.242 6.617-.095.473.526-.027.42.737-.115.764-.544 2.692-.726 3.303a1 1 0 0 1-.08.187c-.196.364-.468.13-.556.223-.87.892.062 3.295.105 3.573.35 4.346.766 8.304 1.268 12.63q.163 1.477.48 3.001c.824 3.903 2.244 8.173 3.081 12.108.617 2.843 1.013 5.476 1.366 8.123.215 1.629.494 3.265.88 4.972.104.46.54-.199.668.359.966 4.188 2.149 8.33 3.218 12.619.378 1.549.952 3.194 1.574 4.833.213.559-.56.066-.371.639 1.142 3.531 3.37 9.261 6.403 9.998.938 1.63 2.072 3.492 2.987 5.214.27.531.557 1.055.816 1.547.674 1.218-.626.578.714 1.691.307.243.297-.446.73-.063 1.82 1.597 3.874 3.395 6.07 4.589.446.241.568-.19.728-.175 1.32.147 2.477 2.051 2.83 2.34 2.617 2.178 4.948 3.122 7.794 4.488.666.316.12-.57.768-.286 3.345 1.47 6.828 2.953 10.118 4.471l.035.017c.537.272-.17.517.118.673 1.377.675 1.96-.159 3.42.316.315.096.064.474.115.53.824.867 1.81-.028 2.053-.019 3.14.097 5.085 1.302 8.222 1.507.377.025-.411-.598.651-.494q.87.086 1.754.201c6.48 1.084 12.914 2.094 19.167 3.159 1.072.182.259.491.321.547.99.874 1.84-.063 2.17-.066 2.58.011 4.906.977 6.833.258q.194-.074.381-.174c11.399 1.482 22.791-.097 34.179-1.381.144-.018-.007.528.281.491 2.421-.317 2.772-.733 3.421-1.423.283-.309.618-.677 1.19-1.145.454-.363 2.42.2 2.604.214.633.101.342 1.003.54.995 1.67-.128.521-2.313 2.369-3.152.061-.024.007.504.184.471.552-.101.956-.501 1.5-.604 1.24-.24 2.242.596 3.527-.987.155-.206-.871-1.2.736-2.144.65-.363 3.369-2.272 4.174-2.766.81-.481.559.263.624.24 2.398-1.033 1.774-.266 3.328-.333l.005-.001c1.571-.087-.001-1.534.276-2.04.287-.512 2.063-1.246 2.544-1.399.472-.144.189.434.573.262 2.546-1.151.311-1.554.821-2.366 1.179-1.906 3.432-1.683 5.034-2.782.429-.296-.127-.301.213-.621 1.327-1.261 2.503-1.603 3.688-3.348.206-.292.662-2.075 1.833-2.417.172-.052.197.532.749-.003.601-.581 1.437-1.615 2.013-2.602.222-.376.423-.731.578-1.041.422-.842-.694-.283.107-1.167.355-.392.151.624.792-.129.646-.744 1.92-2.87 2.356-3.704.446-.83-.231-.612-.222-.695.063-.49.674-2.174.742-2.319a193 193 0 0 0 4.185-9.07c1.736-3.963 2.621-8.185 2.817-12.696.034-.619-.513-.253-.513-.348-.022-2.143 1.18-.35 1.776-1.782-1.052.111-.799-.745-.7-2.276.054-.739-.403-.403-.434-.476a1.7 1.7 0 0 1-.11-.641c.02-.782.65-1.196.807-1.323.721-.586.198-1.489.692-1.879.491-.385.816.823 1.127-.575-.272-.476-1.461.347-1.367-.757.398-4.158 2.875-11.387 3.61-14.611.147-.62.262-1.124.37-1.611.44-2.009.566-2.971.882-4.476.631-3.353-.23-2.205-.434-4.284-.27-2.068 1.469-1.053 1.86-1.35.383-.302-.01-.64.193-1.021.201-.385.48.44.537-.468.074-.924-.824-3.333-1.274-3.58-.928-.545-1.639.627-1.676-1.666-.003-.133.528.214.491-.294-.148-1.952-.529-3.943-.726-6.014-.193-2.096-.686-4.212-1.126-6.29-.119-.555.523-.22.459-.543-.689-3.382-1.171-1.945-2.663-3.436 1.362.008 1.796-1.229 1.013-3.702-.468-1.489-.926-1.062-1.608-1.909-.206-.254-.162-1.428-.474-1.54-.994-.371-1.619.837-2.023-1.572l-.033-.215c-.015-.115.546.097.459-.29-.612-2.495-1.561-2.482-2.803-4.832-.952-1.837-2.638-5.285-4.077-7.418.733-.483.42-1.31-.242-1.951-.431-.416-1.022-.743-1.568-.82-.914-1.346-2.019-2.706-2.897-4.01-.304-.45.247-.44.239-.522-.113-1.27-1.328-1.187-1.583-1.425-2.755-2.622-4.43-5.357-7.638-7.209-.117-.066-.924.565-1.18-.616-.017-.08 1.197.336-.088-.784-.358-.309-.787-.72-1.273-1.172-1.268-1.18-2.876-2.646-4.468-3.396-.541-.259-2.186-.44-2.769-1.627-.081-.162.228-.3.131-.564-.311-.84-1.212-.22-1.438-1.415-.225-1.188-1.41-2.763-3.843-3.457-.074-.021-.972.399-1.631.033-1.059-.597-2.532-1.492-3.682-2.034-.548-.26-.417.361-.516.324a21 21 0 0 1-2.046-.945c-2.603-1.38-4.907-2.517-8.281-3.612-.758-.252-3.181-.177-4.518-1.172l-.035-.026c-1.382-1.054.962-2.958-3.083-3.413-1.673-.168-4.241 2.467-6.737.381-5.503-.544-10.489-1.93-16.062-1.797-.25.006-1.1.819-1.677.766-.803-.074-1.247-.459-1.8-.564a1 1 0 0 0-.124-.018c-2.588-.261-4.942.268-7.423.452-.946.076-.659-.38-1.789-.28-1.129.102-1.814.744-3.368.656-1.175-.07-2.454-1.065-3.976-1.047.052 1.119-.994 1.214-2.845 1.636-.356.08.055.445-.113.503-.687.245-1.349-.047-2.007.193-.16.057-.157.44-.289.508a2 2 0 0 1-.868.204h-.042c-.989-.01-2.127-.53-2.371-.64-1.215-.544-1.762-.017-2.694-.19-.934-.169.429-.533-.66-.602-2.267-.139-5.15.232-7.415.53-.905.121-.216.541-.344.57-1.84.389-3.81.169-4.656 1.355-1.633-2.204-1.153.097-3.295.41a3.4 3.4 0 0 1-.504.03c-.217-.003-.702-1.18.058-1.505q.074-.032.154-.058l-.016.003c.779-.266 1.972-.167 2.97-.617.25-.115 1.577-1.528 1.78-1.63 1.56-.815 2.074.998 2.174 1.085 1.136.94 2.818-.551 3.31-.696 2.217-.671 4.18-.588 6.077-.99 1.241-.255 1.319-1.476 2.333-1.472 1.311.01 2.305.302 3.196.57l-.085-.001c1.263.372 2.403.61 4.117-.425.606-.368-.146-1.626 2.198-.801.144.054 1.936.826 2.855.107.114-.09.066-.475.225-.526 1.07-.337 1.84-.119 3.036-.404 1.197-.286 2.659-.666 4.111-.652.877.006 2.049.663 2.473.825 1.193.455 2.488-.378 3.235.271.646.584-.463 1.342.631 1.853q.187.092.475.176c.133-1.002.358-2.025.536-3.03 4.085.306 8.065.997 12.158 1.468.508.058.058-.547.605-.497 2.316.215 4.265.895 6.679 1.167 1.866.21 4.021.06 6.017.395.66 1.005 2.349 1.473 4.025 1.997.578.18 1.172.341 1.711.525.658.222.534.507.993.737 1.76.867 1.163-.354 1.721-.367 2.452-.011 2.029 2.222 4.697 3.135.13.034 2.357-.374 2.648-.309 1.767.289.076.502.985 1.056.251.157.483.313.709.469.991.724 1.891 1.316 3.621 1.812.587.163 2.292.153 3.089 1.272.1.144-.172.458-.072.54 1.816 1.478 2.501.427 3.87.762 1.369.341 2.571 2.219 2.756 2.658.503 1.146-.831-.23-.922-.209-.989.261.293.958 1.165 1.652-.589 1.115.703 1.943.9.714.027-.132-.756-.545-.9-.714 1.511-.444 3.01.437 3.819 2.482.359.947-.651.957 1.579 2.38.896.577 1.124-.14 1.882.056q.13.034.281.108c2.311 1.13 4.225 3.9 6.117 5.611.693.626.384-.35.87.069 1.289 1.12 2.051 2.46 3.308 3.617.115.106.238-.506.593-.108 2.282 2.56 3.96 5.12 5.822 7.923q.466.704.99 1.444c1.099 1.533 3.47 4.414 4.485 6.457 1.206 2.293 2.021 5.21 2.578 7.739.257 1.172.549 2.269.898 3.196.681 1.802 1.028 1.25 1.598 1.934 1.103 1.312.865 4.389.808 4.816-.003.01-.624-1.554-.594-.624-.345.66.585.606.594.624-.031.27.867 3.553 1.136 4.209.152.348.546.019.617.203.619 1.657 1.177 3.394 1.52 5.368.435 2.303 1.197 5.279 1.404 8.407 0 .087-.535.018-.528.22.071 2.858.72 4.673.997 7.072.261 2.394-.121 4.274-1.213 5.479-.091 1.076-.46 2.404-.871 3.564a46 46 0 0 1-.682 1.769c-.519 1.278.44 1.667.433 1.794-.161 3.782-1.219 5.782-2.209 9.506-.476 1.783-1.174 5.257-1.377 7.059-.031.25-.066.479-.105.7-.168.968-.401 1.713-.389 2.845.002.185.472.045.484.103.395 1.575-.64.745-.867 1.045-.829 1.12-1.255 1.819-1.154 3.988.026.489 1.421 2.17 1.345 3.151-.102 1.255-.574.684-.704 1.995-.015.113.342.163.14.961a40 40 0 0 1-1.779 5.284c-.742 1.792-1.514 3.589-2.265 5.367-.197.46.576.093.294.77-1.303 3.151-3.123 6.633-5.139 9.349-.489.661-.551.017-.743.105-1.175.547-1.096 2.316-1.195 2.515q-.213.414-.414.795c-3.164 5.73-7.729 8.115-11.803 11.932-.246.23-1.551 2.636-3.01 2.565-.095-.006-1.549-.105-1.924 1.01-.02.067.815.054-.152.729-.726.508-1.596 1.379-2.671 2.049a6.3 6.3 0 0 1-1.286.627c-.532.183-2.097.156-2.957 1.708-.037.1-1.131 2.973-2.569 2.47-.236-.087-.775-1.221-2.092.362-.256.304.48.188-.284.856-1.183 1.029-3.139 1.726-4.671 3.061-.256.233-1.27 1.637-2.633 1.463-.21-.028-.036-.547-.633-.37-1.672.491-3.373 1.063-5.131 1.475-1.106.259-2.222.486-3.348.603-.975.101-.62-.671-1.646-.647-1.019.023-3.036.224-4.016.706-.987.484.339 1.368-1.222 1.712-6.794 1.479-13.78 1.41-20.712 1.244-1.033-.029-.177.378-1.706.352-2.17-.042-4.947-.122-7.823-.378-4.382-.383-8.975-.927-11.771-1.762-3.667-1.096 1.097-1.046-1.728-1.65-1.36-.292-2.995.776-3.346.771-3.319-.024-5.518-.91-8.505-1.25-.612-.07-.11.538-.625.473-1.03-.128-2.028-.369-2.873-.54a19 19 0 0 0-2.003-.305c-.715-.062-.626.343-1.287.241-1.59-.237-3.037-.54-4.644-1.085-.145-.05.917-.424-.328-.579-2.035-.264-4.503-.906-7.21-1.195-.759-.1-1.038.672-2.436-.231a4 4 0 0 1-.233-.211c-.249-.234.518-1.087-1.433-.848-.316.048-3.52.123-4.535-1.192-.274-.346-.814-1.533-1.63-1.743-.113-.025.11.599-.545.361-2.311-.852-4.625-2.005-6.956-3.046-.625-.28.05.635-.88.2-2.55-1.195-5.573-3.107-7.833-4.847-.834-.643 0-.57-.038-.651-.579-1.287-1.737-.926-2.105-1.129-2.268-1.289-3.507-2.958-5.335-4.701-.505-.494-.509.191-.636.116-1.307-.841.064-.569-.478-1.338a67 67 0 0 1-1.553-2.333c-.818-1.322-1.718-2.64-2.556-3.883-.462-.685-.424.393-.835-.231-2.436-3.689-4.725-7.734-6.372-11.938-.308-.798.3-.487.313-.688.099-1.366-1.428-2.683-1.663-3.073-.707-1.121-.894-1.923-1.098-2.85a10 10 0 0 0-.33-1.286c-1.743-5.13-3.458-11.591-4.29-17.662a128 128 0 0 0-.934-5.781c-1.098-6.133-2.616-11.288-3.495-17.637-.288-2.248-.69-4.689-1.026-7.365-.072-.587-.56.069-.629-.44-.431-3.396-.564-6.994-.064-10.721.507-3.55 1.402-6.587 2.323-9.676.16-.52-.59.058-.347-.785.497-1.73 1.324-3.846 2.179-5.456.416-.784.376.485.787-.306.963-1.835 1.92-3.818 2.91-5.812.431-.857-.747.148-.14-.948a32 32 0 0 1 1.544-2.507c3.711-5.158 6.74-9.13 9.91-13.856.447-.656.9-1.32 1.367-1.99.296-.427 1.473-.277 1.84-1.353-.224-.224-.538-.397-.803-.59 1.993-3.579 4.351-7.871 8.626-11.204 5.267-4.067 10.543-8.295 15.974-12.571.368-.29-.628-.243.083-.805 4.169-3.236 8.004-6.576 13.675-9.037.598-.235.71.802 2.375-.109.12-.062.63-.313 1.296-.58.75-.319 1.66-.716 1.977-.955.07-.057-.49-.383.24-.627 4.252-1.407 8.857-2.535 13.322-3.19.726-.106.07.554.586.485 3.624-.49 7.525-1.527 11.119-1.413 2.404.095 1.599 1.055 2.894 1.837.172.107 1.634.066 1.716.574.211 1.263-.41 2.67-.102 4.013.076.28 1.773-.044.775.666-.069.043-1.312.31-1.608.568-.208.176.201.668-.218.902s-.929-.165-1.638.143c-.703.315-.331.858-1.77 1.082m108.603 100.392c-.758 1.116.95 1.695.835.276-.007-.072-.797-.332-.835-.276M134.908 5.94c1.55.957 2.801-.065 1.712-.805-1.096-.738-2.188.515-1.712.805m-17.182.179c1.971.432 2.063-2.13.023-1.416-.118.04-.139 1.391-.023 1.416m-10.031-2.096c.025.02 1.037-.088 1.063-.113.476-.636-1.577-.42-1.063.113m-6.548 4.027c.601.328 2.338-.038 1.595-.479-.609-.362-2.357.06-1.595.479m91.991 161.816c-.031-.009-.613.429-.505.536.338.354 1.046-.395.505-.536M72.84 11.863c4.16-.52 7.042 1.118 2.449 1.614-.83.086 1.671-.94.594-.962-1.964-.043-3.046 1.449-5.104 1.029-.371-.077 1.824-1.655 2.068-1.685zm144.005 99.914c-.028.019-.275.983-.259 1.018.432.659.933-1.302.259-1.018m-60.539 76.91c-.063-.035-2.338.326-2.408.381-1.036 1.132 3.603.401 2.408-.381M204.64 48.172a3.7 3.7 0 0 1-1.345-1.135c-.329-.467-.513-1.008-.471-1.576.288.431.582.867.869 1.3.316.473.635.941.947 1.411"/><path fill="#403d3a" d="M112.999.461c3.491-.256 8.125-.178 11.624.027.484.027.65.106.747.19.145.107.16.218.671.26 1.735.157 3.22.137 4.744.449.505.107-.185.536.343.637 2.851.555 5.504.845 8.292 1.424 5.824 1.221 11.512 2.528 17.175 3.721 8.1 1.606 14.574 6.653 20.265 10.188q1.013.6 1.997 1.25c4.188 2.72 8.254 7.092 11.649 10.62.402.413.503-.137.603-.08 1.56.924.509 1.084 1.143 2.005.925 1.355 1.893 2.73 2.881 4.103 1.646 2.29 3.452 4.524 5.14 6.554 1.137 1.37.757-.584 1.448 1.148.048.12-.599.04-.345.46.577.952 1.887 2.608 2.353 3.338.897 1.406 1.056 1.63 1.928 2.947 1.186 1.807 2.34 4.115 3.571 6.08.263.419.361-.39.821.262q.073.105.162.247c.474.756 1.261 2.237 1.475 2.817.24.65-.233.584-.248.733-.143 1.228 1.912 2.767 2.085 3.019 3.125 4.601 5.043 9.094 7.141 14.075 1.324 3.156 2.583 6.669 3.12 10.154.105.67.193 1.307.269 1.946.529 4.587.443 8.553.223 13.051-.026.472.575-.051.542.539-.315 6.247-2.001 12.28-3.543 17.782-.15.557-.493-.269-.672.284-.371 1.162-.822 2.55-1.111 3.986-.562 2.9-1.01 5.849.083 7.575-.578 2.487-1.465 5.491-2.605 7.52-.737 1.303-.78-.219-1.161 1.546-.091.398.537.066.364.653-.363 1.216-.859 2.445-1.392 3.658-.632 1.422-1.396 2.634-2.065 3.801-.266.461.16.592.133.761-.258 1.42-2.357 2.385-2.688 2.668-2.544 2.227-3.957 4.143-5.694 6.489-.395.543.528.234.173.763a31 31 0 0 0-1.213 1.949c-1.563 2.765-3.77 4.956-5.948 6.668-.641.499-.411-.36-.733-.143-1.405.938-1.104 1.872-2.459 2.729-.285.179-.402-.262-.478-.259-1.187.041-1.186 1.342-1.36 1.512-1.404 1.38-2.781 2.025-4.141 2.861-.793.495-1.574 1.015-2.382 1.737-.268.241.695.143-.081.792-5.137 4.374-11.831 8.117-18.521 9.436-1.031.218-.412-.364-.49-.393-1.221-.455-1.636.69-1.96.808-1.503.524-3.038.593-4.351.866-.918.19-1.748.468-2.43 1.066-11.331 1.032-22.411 1.314-33.358.471-.138-.008.094-.518-.182-.533-2.211-.115-2.673.22-3.278.765-.326.283-.706.625-1.388 1.032-.505.298-2.316-.613-2.481-.671-.584-.228-.136-1.051-.326-1.084-1.578-.238-.943 2.164-2.947 2.5-.064.007.125-.487-.052-.503-.549-.051-1.04.217-1.581.152-1.244-.154-1.866-1.261-3.559-.268-.217.127.373 1.458-1.476 1.685-.73.099-4.012.569-4.964.547-.942-.005-.34-.514-.409-.527-2.54-.403-1.614-.729-2.866-1.56-1.222-.855-.864 1.236-1.383 1.471-.523.244-2.362-.347-2.786-.578-.429-.218.156-.444-.226-.583-2.48-.981-1.3.869-2.248 1.046-1.077.168-1.966-.231-2.722-.783-.772-.59-1.466-1.314-2.361-1.687-.462-.192-.184.27-.616.167-1.7-.408-2.571-1.185-4.607-1.329-.334-.025-2.14.419-2.954-.535-.114-.137.397-.392-.294-.685-1.042-.441-2.948-1.089-4.146-1.331-.885-.18-.096.745-1.117.206-.45-.241.551-.305-.302-.731-.829-.402-3.004-1.21-3.879-1.65l-.057-.028c-.814-.378-.582.274-.662.272-.471-.02-2.14-.553-2.283-.625-5.025-2.231-9.15-6.033-12.254-10.176-1.402-1.818-2.725-3.69-4.077-5.581-.345-.485-.555.127-.612.056-1.297-1.6.72-.989.344-2.424-.768.729-1.062-.077-1.906-1.235-.408-.559-.555-.028-.623-.061-1.056-.557-.744-1.572-.7-1.813.163-.881-.817-1.151-.71-1.745.101-.596 1.145.005.436-1.159-.517-.135-.826 1.233-1.495.431-1.079-1.281-2.245-3.206-3.5-5.005-1.867-2.624-3.26-5.588-4.05-7.245-1.365-2.893-1.779-3.841-2.333-5.615-.92-3.221-1.175-1.832-2.14-3.723-.93-1.913 1.074-1.443 1.352-1.836.285-.383-.18-.577-.076-.982.105-.401.563.272.414-.555-.155-.825-1.375-2.881-1.83-3.085-.967-.42-1.597.807-1.803-1.468-.01-.132.538.177.474-.32-.446-3.379-1.041-6.816-1.445-10.204a50 50 0 0 1-.169-1.633c-.046-.541.546-.15.526-.464-.183-3.262-.86-1.975-2.076-3.626 1.34.224 1.975-.858 1.7-3.299-.162-1.47-.694-1.156-1.192-2.07-.15-.276.129-1.361-.155-1.523-.928-.538-1.797.542-1.666-2.03.007-.113.516.192.506-.194-.07-2.497-.991-2.703-1.444-5.312a19 19 0 0 1-.178-1.316c-.265-2.297.038-5.237.175-7.236 1.444.08 1.206-2.178.307-3.215.181-1.59.362-3.317.79-4.815.147-.514.494-.09.552-.147.894-.852.103-1.724.15-2.075.22-1.535.683-2.905 1.222-4.2.768-1.834 1.635-3.516 2.125-5.562.03-.123-.799-.738.266-1.266.072-.033-.002 1.205.728-.264.725-1.459 2.532-4.054 2.789-6.326.041-.348-.095-1.094-.005-1.786.068-.459.248-.914.606-1.247.133-.122.352.133.578-.025.72-.49-.08-1.245 1.058-1.661 1.137-.409 2.416-1.53 3.123-3.762.023-.07-.372-.962.04-1.564.654-.956 1.727-2.208 2.417-3.195.33-.474-.294-.462-.243-.549.856-1.422 1.703-2.591 2.583-3.733 1.192-1.546 2.503-2.988 4.063-4.803.496-.58 1.335-2.727 2.704-3.517 1.5-.859 2.304 1.981 4.255-1.177.785-1.252-.26-4.798 2.791-5.636 2.304-2.761 4.987-5.013 7.833-6.84a22.4 22.4 0 0 0 3.813-2.956c.172-.165.225-1.314.662-1.647.654-.494 1.263-.46 1.737-.809 1.994-1.453 3.523-3.156 5.438-4.573.728-.537.734-.01 1.604-.643.796-.573 1.07-1.354 2.14-1.968q.154-.088.328-.168c1.035-.467 2.543-.078 3.803-.556-.447-1.019.419-1.484 2.009-2.329.31-.161-.163-.418-.02-.514.586-.4 1.278-.25 1.85-.602.142-.086.068-.461.183-.552.993-.801 2.93-.16 3.23-.031 1.21.457 1.708-.066 2.607.11.892.182-.406.524.621.612 2.134.19 4.875.06 7.051-.066.86-.052.239-.524.361-.543.507-.07 1.002-.09 1.5-.111 1.238-.138 2.362-.221 2.973-1.04 1.568 2.455 1.033-.409 3.651-.155.206.022.576 1.236-.164 1.495-.737.259-1.934.005-2.952.426-.243.097-1.503 1.45-1.683 1.55-.716.382-1.193.126-1.51-.24l-.145.018c-.302-.385-.416-.87-.462-.917-1.018-1.022-2.715.334-3.189.441-2.144.502-3.98.28-5.72.649-1.138.241-1.17 1.466-2.022 1.496-2.73.14-4.162-1.33-6.076.916-.385.506.625 1.462-1.47 1.316-.12-.024-1.868-.154-2.25.846-.047.124.174.443.08.546a3.4 3.4 0 0 1-.44.4c-.557.423-1.137.647-1.758 1.255-.804.785-1.727 1.775-2.816 2.47-.654.416-1.887.478-2.29.576-1.144.267-1.508 1.64-2.412 1.576-.911-.062-.487-1.615-2.102-.829.581.827 1.113 1.729 1.665 2.586-1.952 1.53-4.01 2.985-6.34 4.345-.912.512-1.944 1.298-2.907 2.16-.331.3.368.407.03.734-1.431 1.399-2.985 2.396-4.373 4.068-1.067 1.292-1.884 3.04-2.93 4.452-1.578.042-2.99 2.295-4.266 3.706-.448.495-.658.265-1.035.575-1.407 1.17-.084 1.148-.26 1.63-.736 2.066-2.686.802-4.11 2.854-.05.07-.04 1.02-.026 1.681-.006.336-.015.605-.038.68-.429 1.482-.488-.048-1.087.645-1.088 1.255-1.997 2.017-2.783 3.78-.23.518-.334 2.024-1.39 2.565-.138.072-.44-.212-.52-.132-1.406 1.476-.319 2.189-.453 3.314-.132 1.114-1.525 2.112-1.867 2.33-.904.54-.038-.693-.067-.758-.484-.809-.858.337-1.184 1.16-.813-.182-1.23.336-1.052.65.083.185.319.308.736.213a.1.1 0 0 0 .027-.017c.109-.094.183-.704.289-.846.294.354.48.712.562 1.064.098 1.078-.472 2.272-1.663 3.18-.824.61-1.079-.352-1.876 2.087-.373 1.097.596 1.045.385 2.072-.489 2.347-2.507 4.633-3.245 6.742-.265.76.469.218.308.74q-.126.404-.275.774c-.392.981-.893 1.896-1.046 3.035-.016.127.54-.046.437.376-.747 3.199-1.447 6.116-1.568 9.669-.067 1.657.292 4.588.526 6.165l.026.199c.437 3.474.069 7.631.54 10.395.302 1.805.753 1.349 1.174 2.084.81 1.407-.002 4.146-.124 4.529-.006.014-.334-1.505-.473-.652-.457.55.468.636.473.652-.092.25.28 3.317.491 3.901.11.318.538.052.586.22l.066.227c1.141 4.002 2.02 7.999 2.774 12.003.008.074-.527.09-.501.263.355 2.404 1.39 3.715 2.334 5.444.948 1.727 1.347 3.149.937 4.54.637 1.303 1.14 3.334 1.486 4.506.344 1.175 1.328.818 1.393.897 1.512 1.744 2.245 3.108 3.262 4.736.546.835 1.07 1.715 1.673 2.688.986 1.574 2.888 4.496 3.935 6.013.834 1.206 1.082 2.07 1.917 3.105.113.139.4-.256.444-.22 1.243.936-.067.946-.07 1.308-.006 1.308.051 2.11 1.41 3.437.317.313 2.333.356 2.865.881.587.587.198.724.513 1.18.059.085.142.179.26.286.065.059.317-.184.706.293 1.789 2.19 3.816 4.296 6.246 5.717.331.196.199-.537.68-.268 1.567.877 3.467 1.734 5.55 2.842.612.342 1.31.687 2.028 1.035.587.283.074.515.169.673.603.966 2.203.395 2.41.438 5.208 1.072 9.182 3.104 14.732 4.505.064.015.229.016.459.019.654-.051 1.9-.289 2.411.542.03.071.734 1.162 1.567.568.048-.038-.43-.572.477-.452.92.119 2.437-.2 3.843.256.438.146 1.585 1.032 2.865.109.093-.058 1.939-2.047 2.879-.989.155.174.212 1.454 1.791.539.301-.178-.33-.359.49-.674 1.253-.485 3.056-.46 4.624-1.298.27-.147 1.373-1.205 2.493-.718.174.076-.062.54.48.504 1.545-.098 3.134-.362 4.77-.522a19.6 19.6 0 0 1 3.376-.056c.916.074.487.769 1.433.929.96.16 2.855.312 3.824-.008.976-.321-.109-1.401 1.363-1.499 6.329-.423 12.518.191 18.642-.069.902-.041.137-.381 1.459-.476a89 89 0 0 0 8.534-1.084c3.237-.573 6.189-1.214 8.212-1.458 3.206-.428-.401 1.4 2.005.813 1.181-.306 1.835-1.993 2.06-2.143 2.28-1.522 4.19-2.025 6.211-3.605.413-.328-.303-.456.05-.731 1.194-.942 2.619-1.74 3.76-2.714.513-.44.167-.664.662-1.033a34 34 0 0 1 1.363-.978 19 19 0 0 1 2.49-1.461c.131-.064-.307.922.627.185 1.505-1.19 3.56-2.343 4.867-3.949.383-.478-.178-1.163 1.154-1.534.269-.078.792.929 1.169-.729.109-.302.683-2.724 1.846-3.016.322-.077 1.448-.158 1.627-.751.016-.063-.353-.056-.394-.279a.8.8 0 0 1 .101-.312c1.267-2.446 2.914-4.409 4.313-6.358.374-.519-.614-.103-.045-.864 1.568-2.087 3.651-4.329 4.976-5.947.485-.594.523.072.592.053 1.122-.341.537-1.298.608-1.536.115-.361.228-.663.327-.908.54-1.28 1.231-2.321 1.624-3.688.141-.491-.423-.308-.429-.417-.043-1.119.5-.107.802-.709.847-1.691 1.375-3.743 1.734-5.63.131-.694-.571-.039-.451-.657.464-2.441.863-4.988 1.252-7.536.223-1.524.538-2.982.903-4.35.209-.772.525-.198.651-.342.875-.981.331-2.741.327-3.12-.022-1.715.484-2.241.721-3.635 1.276-6.726 2.041-14.39 1.463-20.666a88 88 0 0 0-.342-3.524c-.699-5.812-2.92-11.022-6.287-16.98-.253-.447-.491.276-.716-.105a503 503 0 0 1-6.163-10.821 59 59 0 0 0-2.49-4.105c-.252-.38-.351.456-.772-.141-.863-1.22-1.895-2.812-2.637-4.158-.365-.658.586-.099.209-.757-.878-1.534-1.984-3.086-3.172-4.498-.507-.6-.216.668-.841-.136-1.562-1.998-3.176-3.988-4.775-6.049-2.644-3.404-5.272-6.67-8.005-9.832-.292-.337.155-1.426-.714-1.904-.255.183-.487.457-.724.683-2.064-1.72-4.19-3.245-6.445-4.557-6.738-4.155-11.644-8-17.58-9.1l-.455-.088c-.434-.084.211.63-.632.47-4.845-.923-9.524-1.683-14.288-3.112-.47-.14-.05-1.109-1.5-1.2-.255-.017-2.421-.237-3.004-.1-.079.021.233.554-.452.462-3.151-.422-6.536-.948-9.216-1.126a172 172 0 0 1-2.492-.13c-.662-.041.038-.559-.436-.592-3.346-.232-6.964.238-10.183-.131-2.161-.251-1.386-1.153-2.562-1.989-.163-.117-1.507-.107-1.59-.611-.195-1.265.423-2.665.135-4.012-.074-.285-1.735.037-.759-.67.063-.046 1.301-.3 1.613-.549.215-.17-.191-.673.249-.895.44-.223.945.194 1.685-.075.747-.273.388-.847 1.898-.958M43.227 151.797c.249 1.213 1.798.292.763-.436-.052-.034-.776.375-.763.436M67.306 25.823c-1.627.135-1.686 1.726-.525 1.581 1.125-.097.98-1.584.524-1.581m12.502-10.31c-1.804.61-.447 2.78.738 1.207.069-.09-.633-1.243-.738-1.208m35.257-7.673c-.013-.024-.973-.022-.997.002-.494.583 1.42.58.997-.002m-21.756.707c-.599-.293-2.111.354-1.367.668.577.245 2.09-.316 1.367-.668m-5.587 181.236c.008.031.653.265.688.118.104-.479-.846-.641-.688-.118M120.19 6.673q-.459-.047-.89-.11h.015c-3.352-.361-5.298-1.981-1.158-1.907.803.03-1.72.704-.695.872.69.11 1.287.01 1.874-.122h.014c.988-.198 2.055-.466 3.163.193.303.17-2.133 1.06-2.33 1.076zM41.841 153.577c-.007.035.533.817.567.82.757.072-.319-1.484-.567-.82m85.419 36.091c.042.049 2.25.072 2.326.026 1.146-.944-3.325-.994-2.326-.026M26.116 91.878c-.546-1.08-.529-2.394.266-3.173-.132 1.049-.2 2.111-.266 3.172"/></svg>