<svg xmlns="http://www.w3.org/2000/svg" width="241" height="201" fill="none" viewBox="0 0 241 201"><path fill="#403d3a" d="M159.681 185.068c-.227.183-.652.261-1.009.281-.111.006-.143-.184-.225-.186-.16-.004-.24.136-.408.123-.055-.005-.133-.294-.189-.293a1 1 0 0 0-.416.117c-.061.027-.109.057-.177.065-.637.031-1.138.664-1.269 1.89-.047.383-.265.933-.075 1.371.022.05.272-.023.294-.016.347.097-.175.134-.224.25-.195.459-.103.946.107 1.324.091.16.534-.153.307.099-.015.017-.291.05-.305.106-.032.126.078.318.084.407.005.098.012.149.024.2.002.018.008.036.017.064.024.078-.032.253.097.309.026.009.221-.195.277-.203.055-.009.099.067.085.142-.015.074-.167.234-.194.278-.216.378.287.009.302-.001.434-.014.667.442 1.144.583.358.103.783.081 1.151.159.438.094.809.294 1.266.312.049.002.024-.332.082-.33.618.019 1.237.089 1.868.333.063.025-.029.312.034.354.384.251 1.018.833 1.265-.427.268.052.595.104.839.358.157.163.005.479.197.344.044-.03-.013-.306.052-.331.275-.101.575-.013.848-.158.055-.03.038-.278.053-.323.129-.362.356.234.404.277.37.321.639.192.983.199.075.001-.006-.298.051-.338l-.002-.004c-.1-.057-.213.085.027.068.049-.002.23.219.267.225.173.005-.227-.353-.076-.363.032-.005.223.146.247.158.388.176-.064-.217-.068-.236-.028-.293.604-.169.652-.483.004-.036-.307-.092-.279-.185.184-.62.498-1.297.955-1.912l.017-.016c.076-.047.25.069.277.072.456.032-.096-.205-.11-.238-.092-.266.442-.419-.238-.68.373-.973-.202-1.858-.052-3.134.001-.017.283-.103.283-.137q.004-.13-.05-.18c-.12-.109-.462.039-.909.119-.139.035.373-.423.403-.468.127-.14.527-.322.548-.356.141-.294-1.051.518-1.144.389-.002-.006.226-.144.238-.172.039-.088-.075-.062-.032-.156.1-.213.598-.713.164-.585-.055.02-.635.595-.716.456-.032-.058-.252-.244-.283-.337s.183-.26.186-.272c.035-.423.195-.478.404-.97.196-.496-.507.511-.628.592-.119.081-.102-.258-.087-.368.017-.109.159-.216.155-.286-.04-.468-.434.444-.611.562-.407.289-.077-.571-.217-.747-.036-.047-.095.156-.145.152-.196-.019-.173-.325-.477-.18-.051.023-.423.455-.362.045.009-.059.139-.25.085-.328-.08-.118-.266-.245-.414-.22-.11.019-.138.407-.208.258-.032-.067.136-.239.068-.347-.067-.11-.316-.185-.412-.207-.096-.023-.131.264-.145.28a.74.74 0 0 1-.307.162c-.455-.115-.857-.371-1.288-.559-.294-.133-.614-.221-.95-.183-.063.007-.046.308-.056.312-.217.109.009-.671-.128-.947-.018.607-.1.491-.255.55-.075.029-.045.266-.053.289-.12.352-.176-.11-.194-.205-.063-.348-.152.06-.197-.173-.047-.23.075-.57-.078-.567-.044.217.061.785-.051.876-.408.341-1.198-.069-1.551-.089-.345-.022-.453.028-.66-.034a.4.4 0 0 0-.128-.017c-.173.019-.075.344-.169.53-.09.218-.286-.798-.367-1.008-.092-.206-.065.025-.141-.08-.079-.103-.029-.278-.148-.288-.13-.009-.248.474-.161.694.164.471.477.888.244.81-.015-.004-.121-.258-.173-.259-.413 0-.736.275-1.137.48-.056.029-.26-.201-.297-.185-.382.18.106.386.472.852-.6-.458-1.049-.629-1.209-.373-.093.15.208.291.358.498.046.06-.209.055-.082.147.417.297.966.469.65.592-.015.006-.247-.15-.28-.122-.214.19.254.441.206.715-.037.213-.479.461-.614.69-.799-.288-.7.02-.174.297-.076.153-.099.337-.224.471-.043.046-.268-.061-.295-.062-.431-.014.093.222.104.263.096.444-.407.647-.098 1.129.011.018.575.19.133.18-.031-.001-.258-.193-.324-.023-.028.071-.112.158-.186.255-.097.105-.161.263-.007.389.064.063.541.14.177.252-.049.017-.219.02-.31.049-.29.108.303.049-.18.218-.485.165-.789.546-.339.696.014.007.469-.132.496-.066q.016.04.028.09l-.031-.029c.082.082.175.193.27.234.06.026.145-.258.158-.258.437.018.615.358 1.032.596.079.045.404-.283.489.06.099.377-.401 1.745.118 1.501.218-.097.733-1.86.88-.88.614-.145 1.106.394 1.725.11.028-.013.152-.514.213-.503.089.019.122.26.186.281.27.092.534-.095.796-.047.099.017.049.261.169.282.119.021.218-.299.371-.133.116.126.202.795.362.881.041-.653.152-.633.36-.795.041-.031.012-.261.031-.288.08-.113.138.079.215-.045.018-.029.031-.252.047-.289a.4.4 0 0 1 .035-.065l.024.002c.139-.17.267.273.29.356.095.344.185.061.269.202s-.081.287.024.379c.216.19.519.193.754.237.094.016.073-.288.087-.293.209-.046.357.299.562-.27-.111 1.538.143-.128.376.224.018.028-.079.748-.18.839-.102.091-.191-.155-.334-.009-.034.033-.296.681-.322.719-.212.293-.073-.783-.074-.844-.007-.652-.306.047-.361.09-.261.199-.435.024-.645.167-.137.092-.224.798-.316.767-.146-.05-.227-.3-.316-.461l.049.004c-.11-.174-.218-.239-.412.203-.078.179-.051.959-.266.335-.014-.039-.167-.607-.294-.26-.016.044-.028.27-.047.288-.125.116-.195-.069-.33.01s-.3.198-.446.112c-.088-.052-.177-.481-.213-.587-.101-.305-.267.173-.317-.193s.138-.904-.041-1.152c-.051.586-.114 1.187-.171 1.776-.446-.055-.871-.284-1.334-.312-.057-.003-.035.318-.099.323-.268.019-.468-.236-.757-.189-.223.037-.521.326-.773.363-.016-.688-.397-.535-.639-.659-.083-.043-.034-.216-.081-.289-.176-.272-.224.331-.316.403-.405.299-.041-.996-.36-1.07-.012-.002-.472.595-.523.622-.303.195.058-.245-.042-.342-.183-.179-.254-.397-.599-.334-.059.011-.212.115-.331.126-.211-.143-.697-.543-.805-.774-.099-.069-.153-.178-.066-.333.027-.048.248-.137.25-.164.045-.461-.641-.197-.968-.39-.328-.204.104-.726.247-.808.356-.242.182.126.224.132.462.038.34-.191.363-.379.724-.092.672-.293.025-.192-.072.014.005.154-.025.192-.73-.087-.835-.515-.129-.776.334-.112.663.075.614-.343a.15.15 0 0 0-.045-.088c-.134-.1-.494-.175-.581-.294-.238-.328.303-.537.303-.817.001-.103-.291-.083-.299-.156-.024-.194.219-.293.168-.498-.005-.019-.293-.061-.28-.117.092-.433.384-.75.546-1.197.077-.216.077-.666.204-.888.216-.387.825-.696.924-1.08.067-.255-.208-.351-.319-.551-.209-.399.602-.382.716-.357.003.001-.074.234.119.214.293.118-.12-.21-.119-.214.073.01.416-.334.444-.444.012-.061-.215-.215-.204-.245.266-.687.889-1.334 1.762-1.608.016-.002.127.283.163.277.49-.077.663-.52 1.06-.829.189-.145.376-.208.551-.178.106.041.207.184.304.452.176-.081.457.13.618.261.16.13.144-.465.157-.477.404-.401.676-.073 1.131-.029.217.022.655-.063.905-.118.197-.046.308.099.496.022.026-.011.018-.277.026-.286.232-.302.085.337.118.456.121.431.184.66.461.492.061-.039.36-.941.492-.977.167-.045.056.276.231.223.015-.004.046-.208.147-.181a4 4 0 0 1 .187.055c.358.121.722.296 1.094.376.059.013.068-.323.155-.309.41.07.85.217 1.187.497.083.07-.053.265-.055.337-.016.43.363-.066.399-.065.818.007 1.131.74 1.956.911.041.005.684-.359.527.195-.008.038-.189.59.138.347.021-.014.101-.311.228-.188.126.122.479.139.475.544.002.131-.226.666.24.482.024-.023 1.004-.495.615.105-.065.099-.606.597-.14.539.091-.01.142-.198.319-.157.276.068.321.427.763.475.076.003.629-.085.416.288-.034.057-.271.144-.242.24.108.374.375.68.479 1.07.01.057.016.121.01.187-.01.132-.401.229-.454.381-.053.153-.06.419.156.483.217.066.764-.292.884-.104.522.836.39 1.964.359 3.007-.005.157.221.021.226.259.031.723-.007 1.981-.494 2.676a1 1 0 0 1-.266.217c-.497.274-.614-.313-.862-.063-.119.119.527.515.536.56.101.433-.298.579-.336.953-.008.078.298.118.287.184-.035.23-.253.407-.327.63-.034.101.182.179.123.262-.139.204-.328.364-.641.484-.028.01-.201-.262-.303-.103-.171.265-.554.48-.675.962-.038.144.351.504-.148.498-.112 0-.454-.526-.393.144.003.055-.013.343-.167.611-.146.266-.453.506-.767.381-.172-.059-.617-.438-.83-.307-.033.02.178.261-.037.337a3 3 0 0 1-.83.149c-.161.024-.331.032-.496.09-.067.025.035.315-.066.342-.278.075-.631.004-.91-.085-.103-.034-.034-.275-.042-.301-.122-.425-.19.15-.23.184-.248.202-.441-.067-.672.005-.064.019-.019.293-.031.317-.133.239-.034-.253-.118-.307-.237-.153-.499-.132-.74-.099-.088.013.009.331-.071.339a2.96 2.96 0 0 1-1.436-.177c-.088-.037-.024-.279-.041-.336-.113-.395-.318.131-.364.18-.206.224-.275.004-.451.036-.864.159-1.955-.078-2.815-.307-1.132-.308-1.979-.714-3.254-1.232-.081-.035-.14.298-.216.269-.961-.389-1.99-1.212-2.831-2.5-.067-.107-.247.207-.367.031a2.7 2.7 0 0 1-.393-.929 1 1 0 0 1 .004-.207c.014-.112.308-.061.317-.172a1.3 1.3 0 0 0-.139-.718c-.049-.095-.31.143-.35.011-.278-.887-.538-1.838-.238-2.906.02-.075.653-.194.518-.326-.178.003-.387.02-.577.031-.21-1.48.071-3.224 1.042-4.974.042-.074-.329-.105-.246-.253.476-.853 1.13-1.73 2.13-2.039.098-.029.405.482.567.263.03-.042.314-.311.343-.472.004-.024-.198-.232-.085-.303l.109-.065a3.5 3.5 0 0 1 1.416-.473c.088-.009.13.298.193.295.442-.028.78-.417 1.283-.315.336.07.411.59.713 1.021.038.062.221.017.314.297.214.708.387 1.502.629 2.252.02.083.058.07-.001.112a1 1 0 0 1-.097.046c-.058.022-.198.048-.247.068-.056.022.072.052.196.073.122.02.175.05.217.093.08.009.076.15.094.291.018.096.131.374.146.498.017.124-.095-.103-.101.053-.005.158.139.467.043.546m.11-5.312c.15.28.132-.767-.013-.51-.007.014.005.497.013.51m-1.418 11.886c-.13-.477-.326.184-.236.553.093.368.277-.408.236-.553m1.851-.195c-.18-.375-.307 1.104-.068.818.014-.016.078-.796.068-.818m-2.294-10.348c.006.013.118-.017.115-.03-.064-.333-.289-.273-.115.03m4.077 10.09c-.043-.207-.243.008-.189.264.042.205.241-.008.189-.264m4.572-8.879c-.006.014.056.064.097-.014.131-.252-.006-.235-.097.014m-1.613 9.306c-.426-.135-.479-1.39-.02-1.166.082.04-.259.35-.168.479.166.235.441-.497.571-.053.024.081-.359.751-.384.742zm-5.045-10.607c.003.014.11.023.112.01.046-.335-.172-.353-.112-.01m9.083 4.814c-.025.016.031.245.058.242.557-.062.437-.551-.058-.242m-13.439-.503c.279.216.276.348-.151.301.056-.098.095-.203.151-.301m-16.157-15.126c-.25.203-.658.268-.993.264-.104-.002-.131-.191-.206-.2-.149-.016-.224.115-.374.085-.05-.011-.116-.302-.167-.307-.276-.024-.458.135-.707.173-1.235.192-2.365.562-3.481.955-.364.129-.903.105-1.171.39-.03.033.119.245.122.268.052.345-.17-.128-.276-.147-.418-.073-.745.118-.82.318l-.001.006c.175-.084.387.4.342.018-.007-.024-.257-.147-.249-.207.022-.137.107-.257.088-.284-.034-.055-.037-.046-.038-.029-.008.027-.126.176-.03.294.021.023.283-.083.34-.055.056.026.068.148.021.213-.048.064-.263.118-.308.142-.38.211.24.175.261.187q.056.043.099.093c.103-.061 0 .278.226.47.185.158.491.235.716.389.269.185.463.459.79.586.034.013.137-.303.178-.288.439.165.86.375 1.245.755.039.038-.122.288-.088.343.199.328.507 1.035 1.065-.112.183.11.409.233.515.53.071.191-.132.461.051.374.041-.02.076-.298.131-.307.231-.038.432.111.673.027.049-.017.101-.26.125-.3.19-.323.199.297.226.348.193.384.428.311.682.379.059.016.065-.325.125-.321.179.014.351.051.52.121a.9.9 0 0 1 .224.167c.038.038-.032.315-.014.348.092.141.147-.392.216-.275.016.024.004.266.007.293.059.419.099-.176.104-.189.119-.186.315.409.471.27.013-.016-.118-.296-.079-.322.238-.168.507-.278 1.098-.543l.062-.022c.084-.028.203.177.227.194.373.257-.007-.206-.008-.238.016-.243.522-.073.015-.582.198-.12.282-.284.348-.523.117-.432.126-.881.469-1.467.006-.012.3-.024.311-.049.128-.297-.319-.19-.895-.255-.144-.013.491-.268.536-.294.168-.081.605-.125.636-.147.242-.192-1.162.142-1.198-.004.002-.006.264-.049.287-.069.07-.061-.043-.076.035-.139.18-.145.843-.378.407-.414-.057-.003-.831.261-.837.115-.001-.06-.096-.294-.073-.381.025-.085.289-.131.298-.14.255-.312.417-.293.858-.583.436-.295-.691.193-.833.206-.141.015.065-.235.141-.311.077-.074.25-.097.288-.151.245-.361-.597.156-.803.171-.487.044.281-.46.288-.646.002-.05-.168.075-.202.049-.133-.099.075-.313-.235-.34-.014-.002-.062.007-.121.017-.156.032-.372.091-.151-.11.043-.04.252-.135.263-.211.018-.114-.04-.279-.161-.307-.088-.02-.328.277-.292.138.015-.063.23-.146.242-.255s-.13-.252-.189-.3c-.059-.049-.231.181-.249.19a.7.7 0 0 1-.301.049c-.444-.369-.665-1.108-1.299-1.288-.05-.014-.168.262-.177.263-.202.03.297-.601.316-.894-.273.542-.283.411-.419.415-.065.004-.144.227-.16.246-.097.115-.125.111-.125.058.009-.072.069-.245.085-.299.098-.336-.111.021-.055-.206.046-.228.256-.514.136-.553-.1.195-.222.753-.315.818-.169.127-.298.071-.462-.014-.159-.086-.353-.194-.471-.201-.236-.013-.303.049-.459.009-.291-.063-.078.314-.153.543-.071.231-.373-.761-.473-.961-.105-.198-.05.026-.125-.076-.076-.101-.064-.269-.156-.281-.096-.012-.137.44-.058.661.159.47.455.901.22.813-.014-.005-.104-.264-.152-.271-.383-.045-.695.12-1.082.146-.054.004-.181-.274-.214-.275-.353-.003.013.369.201.925-.391-.646-.723-.981-.913-.855-.113.075.096.332.161.571.02.072-.188-.058-.111.078.251.444.653.853.343.799-.014-.003-.153-.245-.19-.239-.241.041.055.482-.093.674-.117.151-.575.095-.779.185-.513-.677-.556-.398-.266.116-.128.068-.23.186-.388.204-.054.006-.176-.21-.197-.228-.321-.28-.032.214-.044.251l-.025.053c-.036.199-.448.147-.182.52.01.017.549.253.133.134-.03-.004-.251-.177-.31-.082-.057.084-.429.256-.186.485.057.057.519.212.139.257-.051.007-.218-.023-.314-.014-.304.034.288.109-.222.144-.509.035-.898.2-.549.419.01.007.483.056.476.119-.011.101-.105.25-.097.358.004.051.296.004.301.013.135.244.037.448-.056.696a1 1 0 0 0-.069.259c-.006.082.417.118.168.337-.254.269-1.663.714-1.084 1.035.118.06.592-.119.934-.261.348-.135.551-.236.317.195a1 1 0 0 1 .163.074c.007.007.03.02.037.025.401.125.618.611 1.126.501.026-.005.283-.45.324-.426.062.037.011.273.054.307.178.148.437.028.624.128.071.038-.038.261.048.306.087.045.253-.241.325-.051.053.144-.062.805.042.921.208-.621.289-.58.493-.696.04-.022.078-.249.1-.271.091-.095.085.102.177-.004.022-.025.089-.238.111-.271.186-.286.183.239.184.33 0 .348.131.084.168.231s-.122.271-.057.374a.5.5 0 0 0 .07.086c.148.136.354.165.519.21.079.02.087-.284.1-.287.166-.042.283.298.452-.278-.098 1.536.113-.133.29.193.014.026-.023.752-.108.851-.087.099-.175-.139-.301.012-.027.036-.281.686-.314.722-.231.287-.051-.785-.045-.845.039-.647-.275.033-.338.07-.193.131-.316.056-.446.057-.003-.001-.014-.003-.017-.005a.3.3 0 0 0-.143.038c-.132.072-.348.749-.424.704-.252-.152-.045-1.127-.56-.389-.111.157-.296.915-.307.268-.001-.041.029-.619-.168-.313-.025.039-.097.253-.118.267-.135.084-.14-.109-.273-.064s-.304.121-.399.005c-.057-.07-.003-.501 0-.61.01-.314-.269.101-.197-.258.074-.36.387-.828.326-1.104-.224.544-.462 1.099-.693 1.644-.35-.163-.625-.49-.996-.644-.046-.019-.14.287-.195.274-.155-.04-.242-.187-.359-.292-.07-.051-.291-.176-.35-.239a1.1 1.1 0 0 0-.269-.234c-.256-.151-.747-.21-1.023-.484.443-.545.026-.85-.027-1.227-.018-.125.157-.169.191-.264.135-.349-.408-.076-.52-.147-.319-.221.191-.416.536-.596.168-.058.298-.124.281-.2-.002-.011-.73-.115-.777-.136-.3-.123.248-.041.295-.134.086-.17.251-.29.034-.482-.065-.054-.516-.193-.171-.318.046-.016.283-.008.297-.021.231-.222-.513-.237-.761-.391-.248-.157.282-.364.434-.393.393-.086.156.103.194.112.442.103.375-.054.425-.168.728.055.702-.095.049-.119-.071-.002-.014.099-.049.119-.705-.17-.767-.426-.065-.525.33-.043.663.127.601-.187-.023-.147-.523-.23-.612-.408-.195-.43.439-.706.622-1.066.072-.14-.241-.184-.193-.291.141-.297.489-.352.68-.625.017-.023-.161-.169-.146-.251q-.005-.012.001-.017c.209-.194.536-.212.807-.414.131-.097.272-.406.434-.488.278-.144.839-.038 1.002-.278.108-.157-.09-.37-.137-.577-.091-.402.525.006.611.076.003.003-.092.148.061.224.212.229-.062-.222-.061-.224.058.043.363-.076.39-.157.014-.044-.148-.266-.137-.285.25-.443.646-.747 1.17-.848.011.001.126.285.149.284.318.005.348-.41.532-.711s.452-.299.739.17c.189-.117.546.053.737.172.187.119.161-.474.178-.488.528-.415.912-.066 1.493.103.283.077.87.182 1.191.275l.034.01c.16.041.19.196.361.191.024-.001.132-.244.142-.25.309-.192-.079.334-.104.452-.094.43-.146.657.133.594.062-.016.676-.733.789-.726.141.009-.079.265.072.267.013 0 .125-.173.187-.12.291.242.55.582.874.828.045.035.2-.262.269-.215.323.224.65.551.818.973.041.104-.175.206-.211.267-.225.367.355.133.388.157.338.212.511.548.642.914.072.28.117.564.382.797.026.019.72-.012.267.322-.03.023-.499.352-.107.29.024-.004.262-.185.284-.057.022.126.28.245.047.524-.073.09-.555.4-.08.402.031-.007 1.076-.08.442.23-.104.05-.811.26-.392.333.081.015.218-.101.346-.033.198.108.064.359.431.475.065.017.59.056.245.262-.054.032-.302.049-.316.117-.065.322.153.616.022.96-.047.119-.449.107-.543.23s-.181.351.006.463c.187.115.817-.05.874.15.194.706-.081 1.478-.404 2.208l-.257.581c-.07.153.196.106.097.348-.317.855-1.122 2.005-1.694 2.098q-.08 0-.184-.008c-.531-.029-.397-.562-.711-.482-.149.038.205.711.182.76-.184.468-.677.426-1.042.744-.08.068.152.282.079.338-.257.195-.627.208-.91.326-.128.054-.039.265-.171.285a1.35 1.35 0 0 1-.919-.17c-.026-.017.102-.319-.101-.305-.332.021-.702-.183-1.048.009-.101.057-.166.578-.341.194-.036-.081.103-.693-.208-.192-.035.056-.288.372-.493.406-.063.024-.111-.014-.118-.172-.005-.128.026-.647-.062-.585-.013.01-.037.293-.102.306-.23.041-.44-.039-.677-.007-.063.009-.047.312-.139.317-.254.013-.534-.136-.743-.286-.077-.056.045-.272.046-.299.011-.438-.197.101-.239.124-.26.137-.344-.167-.554-.154-.058.003-.098.277-.115.297-.177.197.043-.251-.01-.324-.147-.203-.37-.248-.573-.275-.076-.01-.091.318-.158.305a2.1 2.1 0 0 1-1.112-.538c-.06-.057.069-.271.073-.328.035-.404-.295.041-.35.075-.241.156-.222-.069-.376-.087-.754-.083-1.562-.61-2.195-1.085-.835-.659-1.411-1.213-2.384-2.492-.06-.088-.275.18-.334.1a4 4 0 0 1-.397-.72c-.211-.502-.371-1.054-.585-1.946-.02-.095-.307.091-.349-.072-.088-.331-.102-.881.092-1.436.097-.267.289.144.383-.114.21-.581.616-1.43 1.259-2.041l.004-.004c.088-.106-.277-.208-.14-.33.903-.778 1.511-1.131 2.358-1.128.058.002.395.55.427.395-.074-.162-.171-.348-.254-.519.877-.564 1.836-.753 2.723-1.107.037-.015-.164-.298-.092-.329.415-.177.777-.436 1.328-.304.055.013.268.572.356.436.014-.024.165-.175.163-.315-.001-.021-.144-.263-.088-.296a2.1 2.1 0 0 1 1.12-.264c.066.002.122.301.17.305.339.029.553-.305.924-.168.247.094.379.596.668 1.023.041.061.155.025.274.294.299.677.557 1.447.882 2.166.07.155.148-.076.218.34.004.028-.05.198-.023.337.019.097.167.359.177.488.011.129-.127-.085-.132.074-.005.161.154.463.046.552m-1.628-5.455c.131.293.237-.749.031-.51a5 5 0 0 0-.031.51m-5.519 10.605c.059-.48-.324.088-.378.457-.049.371.362-.31.378-.457m1.528.252c-.031-.399-.567.986-.29.767.016-.012.292-.744.29-.767m3.796-9.338c.006.013.09-.008.087-.021-.086-.325-.254-.283-.087.021m-2.306 9.441c.011-.207-.197-.028-.211.229-.01.207.199.029.211-.229m6.802-6.546c-.013.008.001.07.08.029.253-.129.142-.172-.08-.029m-4.323 6.947c-.38-.064-.503-1.302-.154-1.148.066.028-.157.386-.076.5.156.207.273-.561.43-.148.032.076-.177.803-.201.798zm.034-10.101c.001.013.084.033.087.02.082-.327-.106-.369-.087-.02m4.692 6.653c-.028.007-.045.187-.019.191.549.081.584-.321.019-.191m-9.249-3.572c.13.321.064.422-.249.132.086-.037.163-.092.249-.132m-20.332-22.577c.088.383-.011.867-.142 1.233-.04.116-.226.059-.262.14-.071.154.022.299-.061.451-.028.051-.323-.006-.346.048-.124.297-.041.567-.092.863-.247 1.453-.224 2.871-.061 4.256.053.454-.061 1.063.198 1.463.03.047.264-.066.287-.064.358.04-.151.161-.181.282-.12.476.047.918.312 1.201.113.118.487-.266.31.008-.011.019-.27.119-.274.171-.004.057.026.119.061.174.035.056.075.104.085.14.038.132.051.146.124.247.095.135.129.376.304.454.037.015.194-.222.266-.221.071.002.164.11.163.192s-.15.246-.173.292c-.186.396.317.02.336.013.471-.001.667.436 1.117.547.333.079.719.017 1.058.049.405.039.774.18 1.198.116.044-.007-.038-.33.015-.339.559-.093 1.126-.159 1.761-.085.064.008.058.308.127.332.415.146 1.196.509 1.017-.763.255-.03.56-.084.865.073.198.1.174.447.299.255.028-.043-.122-.282-.074-.326.206-.189.505-.216.677-.448.036-.048-.077-.269-.082-.316-.034-.38.386.084.452.101.438.151.619-.083.882-.22.061-.032-.171-.283-.121-.323.055-.044.13-.097.179-.13.038-.035.066.006.211-.012.042-.007.277.155.312.155.162-.027-.322-.26-.188-.289.028-.009.255.078.281.083.42.064-.131-.17-.141-.183-.127-.23.509-.313.443-.618-.009-.034-.32.021-.327-.072a5.8 5.8 0 0 1 .127-1.761l.112-.339c.03-.094.266-.049.294-.057.433-.144-.168-.151-.194-.174-.188-.206.244-.557-.485-.539-.038-1.066-.914-1.795-1.134-3.05-.003-.016.239-.183.23-.214-.107-.382-.413-.036-.974.175-.139.055.234-.531.256-.579.091-.168.448-.426.459-.465a.1.1 0 0 0 .003-.043c-.047-.153-.918.774-1.017.69-.002-.005.185-.195.191-.224.018-.093-.082-.038-.063-.139.048-.229.404-.838.016-.605-.048.032-.468.733-.584.616-.048-.05-.317-.184-.375-.272-.055-.087.119-.295.118-.308-.066-.423.078-.512.179-1.036.091-.526-.39.604-.494.707s-.159-.236-.166-.347c-.004-.111.116-.242.099-.311-.124-.452-.349.515-.506.66-.363.351-.187-.556-.352-.711-.042-.041-.072.169-.123.171-.204.005-.22-.301-.512-.125-.048.029-.382.494-.367.078.002-.06.115-.262.053-.335-.094-.11-.293-.224-.442-.189-.11.025-.11.415-.194.269-.037-.065.121-.246.046-.351s-.332-.169-.43-.188c-.098-.02-.122.268-.135.284a.7.7 0 0 1-.311.169c-.821-.188-1.473-.838-2.323-.871-.066-.003-.09.298-.101.301-.245.072.103-.663.008-.957-.111.596-.179.468-.346.499-.081.015-.092.253-.104.275-.187.324-.164-.143-.164-.239.002-.355-.165.028-.165-.209-.001-.236.187-.544.037-.572-.088.203-.099.781-.231.847-.16.079-.336.072-.519.021-.326-.1-.668-.338-.859-.353-.274-.023-.336.044-.502.018-.314-.022-.043.324-.057.554-.004.233-.551-.645-.7-.813-.158-.16-.052.046-.159-.026-.109-.069-.126-.249-.238-.219-.121.035-.062.515.077.705.285.408.723.706.425.739-.018.002-.173-.227-.231-.21l-.061.021c-.413.14-.706.432-1.093.644-.056.03-.264-.197-.3-.18-.378.181.11.384.47.857-.596-.464-1.043-.637-1.206-.388-.095.149.203.295.35.504.045.061-.21.053-.084.147.412.303.957.484.642.599-.014.005-.245-.154-.278-.126-.214.183.253.437.216.693-.029.198-.45.433-.559.656-.82-.221-.695.088-.136.288-.054.148-.046.317-.142.457-.033.048-.274-.011-.301-.007-.192.029-.183.073-.114.113.085.05.259.095.27.116.187.407-.259.716.159 1.098.015.014.605.038.174.134-.03.007-.298-.117-.319.059-.02.173-.327.524-.038.754.069.057.557.163.195.312-.049.02-.219.018-.311.05-.291.105.306.084-.188.227-.493.143-.845.401-.457.612.011.007.487-.009.494.07.009.128-.052.326-.019.457.015.063.293-.042.3-.032.224.328.116.634.121 1.032q.001.078.011.159c.014.097.461.117.264.4-.193.333-1.547.939-.894 1.232.304.146 1.704-1.027 1.319-.126q.15.049.271.121c.426.254.813.721 1.386.58.032-.007.237-.48.291-.461.083.032.079.275.14.304.255.128.538-.031.793.04l.008.003c.084.037.022.263.136.292.119.03.239-.281.381-.105.107.133.152.807.311.902.079-.649.189-.623.406-.775.041-.029.024-.26.044-.285.085-.11.133.085.216-.036.02-.028.042-.251.059-.287.148-.316.293.202.318.292.098.343.183.059.27.198.086.138-.074.289.033.378.224.184.534.173.774.202.096.01.054-.292.068-.298.205-.06.383.272.537-.312.024 1.542.131-.14.392.188.021.026-.003.753-.097.853s-.208-.136-.34.02c-.031.037-.245.704-.271.743-.199.308-.141-.776-.145-.836-.055-.65-.31.066-.367.112-.259.212-.451.043-.667.191-.141.095-.216.802-.32.771-.346-.104-.365-1.102-.785-.281-.09.175-.102.956-.295.319-.013-.04-.139-.617-.293-.279-.019.042-.046.267-.067.284-.14.106-.203-.084-.352-.017-.091.04-.195.093-.296.107a.28.28 0 0 1-.199-.04c-.092-.061-.149-.499-.177-.609-.077-.316-.313.135-.326-.236-.005-.371.257-.878.108-1.149-.134.573-.284 1.158-.428 1.732-.514-.139-1.013-.475-1.618-.754-.077-.035-.145.286-.234.253-.21-.081-.364-.242-.511-.394a1.2 1.2 0 0 0-.372-.298c-.277-.132-.788-.149-1.11-.403.363-.607-.114-.889-.229-1.264-.04-.127.127-.197.144-.3.069-.38-.417-.012-.541-.064-.149-.067-.152-.16-.083-.26.186-.213.807-.5.717-.714-.006-.013-.756-.025-.808-.047-.333-.116.232-.097.253-.228.039-.238.172-.418-.085-.624-.075-.057-.55-.157-.234-.361.042-.027.277-.056.289-.073.185-.303-.552-.198-.824-.328-.273-.132.211-.442.355-.502.369-.165.172.081.211.084.454.032.359-.13.385-.263.726-.084.669-.249.025-.136-.07.013.006.108-.025.136-.724-.046-.834-.265-.176-.521.31-.117.678-.039.534-.333-.064-.134-.566-.069-.706-.192-.318-.286.157-.655.095-.941-.023-.106-.302-.015-.327-.089-.066-.197.15-.353.058-.551-.009-.018-.3.004-.299-.056q0-.081.009-.159c.052-.49.267-.897.393-1.376.067-.262.064-.776.199-1.029.226-.446.856-.774.962-1.157.072-.254-.202-.355-.309-.556-.204-.399.59-.349.702-.321.003.001-.067.22.121.209.291.122-.122-.206-.121-.209.074.009.387-.3.4-.401.006-.055-.223-.206-.216-.232.146-.486.415-.903.784-1.209q.12-.097.3-.207c.012-.003.207.233.232.223.356-.14.334-.617.622-1.059.29-.443.788-.559 1.202-.134.329-.175.852-.015 1.089.117.238.129.264-.462.288-.474.62-.327.952-.035 1.38.146q.058.03.123.054c.188.066.589.065.813.048.178-.014.245.144.42.092.023-.007.06-.271.069-.279.242-.27.016.343.025.463.034.44.062.676.324.534.06-.033.42-.907.527-.937.136-.039.013.275.158.227.012-.004.058-.206.134-.178.354.126.722.342 1.106.421.053.012.069-.322.146-.31.362.055.754.175 1.059.424.076.062-.042.266-.043.337-.003.428.327-.098.359-.1.729-.078 1.052.596 1.813.608.038-.002.567-.484.493.08-.003.039-.096.609.167.303.017-.019.049-.32.18-.231.128.087.445.018.508.403.023.123-.091.692.305.397.017-.028.83-.734.594-.061-.04.112-.443.727-.012.551.085-.032.089-.226.269-.231.278-.007.42.334.884.295.079-.011.622-.205.529.24-.017.068-.237.195-.175.298l.02.032c.147.32.499.48.594.852.033.133-.313.34-.316.505s.069.421.293.417c.225-.003.645-.504.811-.365.728.621.901 1.642 1.223 2.558.048.137.213-.062.298.142.33.714.88 2.224.386 3.059-.368.603-.659-.091-.82.268l-.016.023c-.076.126.663.266.687.298.239.315-.082.574.017.931.021.076.32.003.334.069.05.225-.09.475-.082.725.005.113.234.109.208.217a1.46 1.46 0 0 1-.451.75c-.024.021-.272-.199-.322.008-.084.344-.396.72-.41 1.269-.005.161.461.417-.04.562-.11.032-.569-.394-.359.255.069.085.056 1.236-.593 1.13-.166-.025-.658-.297-.776-.13-.014.021.146.143.134.25q.005.032-.014.053c-.271.272-.551.387-.796.612-.061.058.179.261.082.341-.283.225-.682.33-1.021.379-.12.016-.143-.237-.161-.257-.293-.337-.14.222-.17.271-.186.297-.492.129-.706.288-.06.044.086.281.081.309-.056.277-.126-.223-.234-.24-.304-.049-.57.069-.812.187-.089.044.117.31.035.346-.487.22-1.035.349-1.589.306-.104-.008-.102-.261-.136-.31-.227-.346-.304.219-.341.279-.164.274-.295.08-.479.157-.899.387-2.17.381-3.17.257-1.312-.164-2.338-.571-3.65-1.094-.084-.035-.138.299-.214.271-.995-.382-1.814-1.149-2.586-1.893-.064-.062-.212.239-.324.143a1.77 1.77 0 0 1-.534-.816c-.04-.145.285-.135.243-.275a3 3 0 0 0-.112-.314 2 2 0 0 0-.291-.507c-.076-.097-.268.214-.346.075-.534-.952-.934-1.903-.804-2.945.009-.072.612-.297.459-.395-.175.036-.377.09-.562.134-.453-1.314-.427-2.639-.517-3.905-.003-.054-.333.072-.342-.033-.052-.603-.185-1.184.124-1.803.031-.061.629-.057.531-.227-.018-.03-.107-.288-.239-.351-.02-.008-.297.049-.308-.036a3.34 3.34 0 0 1 .166-1.489c.027-.079.325.003.347-.052.156-.389-.067-.811.206-1.172.183-.243.696-.148 1.203-.27.072-.016.084-.168.378-.172.74-.014 1.55.065 2.338.042.17-.006-.011-.204.398-.085.028.008.163.155.302.194.096.026.395-.018.518.036.123.05-.128.103.016.188s.486.053.525.216m.155-2.725c.122.305.311-.726.077-.505a5 5 0 0 0-.077.505m-2.904 14.804c-.024-.503-.434.054-.423.448.032.4.44-.293.423-.448m2.022.131q-.018-.047-.039-.061c-.143-.099-.338.991-.134.895a.1.1 0 0 0 .035-.025c.016-.015.147-.786.138-.809m-3.609-12.033c.014-.001.028-.109.015-.112-.332-.061-.361.156-.015.112m5.454 11.874c-.046-.206-.249.008-.194.264.045.206.25-.008.194-.264m5.607-11.929c-.003.016.065.056.094-.028.093-.268-.037-.23-.094.028m-2.58 12.147c-.443-.088-.625-1.33-.15-1.157.086.031-.217.376-.113.494.191.216.381-.543.561-.116.032.078-.273.787-.299.78zm-4.073-13.737c.001.014.103.043.108.031.115-.319-.106-.38-.108-.031m9.855 4.506c-.019.023.101.225.127.215.513-.224.254-.655-.127-.215m-13.864.264c.298.183.314.29-.113.29.041-.096.067-.195.113-.29"/><path fill="#403d3a" d="M34.022 114.298a23 23 0 0 0-2.207 3.463c-.807 1.523-1.05 3.378-.898 5.142.09.924-.163.49-.079 1.147.193 1.304.675 2.501 1.109 3.827.146.441-.345.013-.181.478.918 2.554 2.279 4.859 3.705 7.378.544.96 1.106 1.919 1.675 2.884 3.864 6.122 12.89 8.973 20.883 10.246 2.95.454 7.027-3.354 10.576-6.26a384 384 0 0 1 6.846-5.626 41 41 0 0 0 4.899-4.64c.38-.427-.042-.353.016-.447.903-1.471.908-.706 1.696-1.498 2.914-2.953 5.653-6.69 7.946-10.143q.23-.345.445-.691c.906-1.523-.487-.241.718-1.681.089-.108.062.464.37.013.238-.276.272-.648 1.226-1.319.797-.52 2.103-.621 2.911-.337.834.256 1.355.624 1.678.85 1.586 1.255 1.698 1.489 2.88 2.71 1.553 1.68 3.153 3.754 4.861 5.333.364.334.092-.319.688.188.299.252.822.729 1.342 1.184.447.396.948.743 1.201.93.512.37.18.43.254.53.63.873 3.117 1.125 3.412 1.185 1.403.38 2.803.726 4.178 1.105 3.503.934 7.249.674 11.04-.3a40 40 0 0 0 3.671-1.17c2.644-.976 5.177-2.313 7.44-3.678 3.919-2.38 7.093-4.741 10.445-7.789.353-.324-.283-.192.145-.586l.493-.459c.12-.102.329-.416.751-.909.369-.48 1.419-1.223 2.404-1.201 1.852.069 2.608.788 3.488 1.312 3.738 2.705 6.585 5.739 9.615 8.739.441.444-.347.103.084.561.824.874 1.788 1.923 2.813 2.934 2.153 2.195 5.224 3.615 6.907 3.298 2.266.932 5.239 1.627 7.458 2.223 1.434.38-.034.491 1.79.605.412.022-.082-.319.531-.266 1.267.108 2.595.241 3.928.354 1.345.114 2.684.141 3.932.015.497-.053.344-.296.479-.348 1.136-.407 3.111-.152 3.544-.23 3.221-.464 5.331-1.783 7.533-3.823.508-.488-.315-.15.151-.625 1.264-1.292 2.325-2.793 3.592-4.418 1.07-1.337 1.961-2.742 2.551-4.201.265-.681.322.046.46-.281.559-1.493.068-1.919.24-3.379.025-.314.267-.138.294-.196.415-.94-.28-1.725-.32-1.952-.444-2.306-.61-4.131-.872-6.289a13 13 0 0 0-.373-1.912c-.099-.347-.196.51-.46-.46-.954-3.67-2.964-6.884-4.958-10.576-.406-.81-.979-1.588-1.615-2.391-.595-.888-1.469-1.354-1.858-3.257-.027-.403.021-.957.368-1.452.349-.496.845-.72 1.215-.826.76-.2 1.328-.147 1.881-.112 1.144.112.308.288.381.32 1.097.538 1.839.03 2.168.023.606.013 1.306-.042 1.406-.12 1.61-.926 2.976-2.112 3.403-3.489 2.107-2.468 3.534-5.56 5.156-8.644 1.912-3.599 1.413-8.034.77-12.403-.486-3.448-2.202-6.829-4.083-10.003-.076-.125.314-.074.161-.322-1.905-2.964-1.912-2.142-3.795-3.545-.402-.295-.945-1.585-1.17-2.062l-.077-.167c-.267-.527.455-.421.345-.58-.98-1.313-1.729-.09-3.354-1.313-.052-.04.325-.096.199-.22-.394-.386-.903-.599-1.308-.96-.929-.812-.994-1.677-2.906-2.148-.244-.048-.248.817-1.96.04-.469-.216-2.099-.852-3.378-1.301-.549-.196-1.04-.347-1.307-.438-.873-.287-.199-.38-.259-.409-2.364-.919-1.415-.83-2.593-1.574-1.207-.713-1.031.563-1.562.626-.529.06-2.359-.417-2.816-.547-.452-.137.136-.258-.27-.347-2.708-.558-1.236.527-2.142.667-2.125.352-3.745-.596-5.693-.74-.528-.038-.103.181-.573.188-1.251.014-2.168-.126-3.278-.177-.286-.015-.583-.029-.931-.08a2.5 2.5 0 0 1-.588-.156 1.2 1.2 0 0 1-.379-.248 1.02 1.02 0 0 1-.286-.562c-.07-.312.074-.807.174-1.12.161-.58.237-1.41.576-2.04.072-.14.26.31.381-.436.194-1.12.019-3.234-.327-4.442-.248-.891-.382.219-.529-.931-.073-.512.372.365.21-.599-.11-.656-.485-1.974-.856-3.014-.155-.436-.412-.796-.585-1.026-.575-.71-.481-.13-.54-.179a82 82 0 0 0-1.855-1.445c-4.98-3.94-10.279-7.176-15.336-10.878-1.105-.737-2.744-1.004-4.272-1.203-.609-.072-.244.28-.337.272-2.091-.122-.355-.726-1.81-1.139.157.625-.698.426-2.195.405-.722-.008-.343.249-.41.27-1.082.299-1.797-.185-1.99-.286-.694-.371-1.484.019-1.956-.222-.479-.24.641-.56-.801-.581-.408.21.653.794-.442.87a56 56 0 0 1-3.183.11c-2.771-.036-5.779.6-7.837 2.245a10.5 10.5 0 0 0-2.139 2.016c-1.93 2.551-2.233 3.624-3.094 5.312-1.427 3.145-.549 2.13-1.077 4.206-.49 2.1-1.145.791-1.455 1.019-.306.226-.188.614-.418.941s-.129-.506-.44.338c-.171.465-.349 1.424-.458 2.244-.086.73.033 1.258.027 1.458.037.153-.079.362-.211.446-.121.09-.175.153-.24.214-.062.124-.127.233-.42.196-.281-.036-.795-.244-1.439-.807-.109-.097.426-.029.007-.387-3.132-3.014-5.461-6.558-8.112-9.743-.357-.441.206-.264 0-.523-2.194-2.676-1.745-1.424-3.461-2.329.814-.237.451-1.363-1.627-3.04-.379-.3-.65-.461-.862-.556-.605-.243-.746-.037-1.472-.056-.3-.01-1.372-.385-1.59-.244-.71.452.29 1.061-2.344.685-.114-.016.265-.276-.132-.31-2.619-.206-2.95.334-5.793.377-2.23.04-6.217-.279-8.77-.349.033-.486-.74-.634-1.6-.566-.639.05-1.304.247-1.697.515-1.62.046-3.34.308-4.862.604-.529.105-.248-.22-.32-.229-1.132-.136-1.637.655-1.947.793-3.277 1.446-5.92 3.01-8.009 5.763q-.135.18-.263.371c-.07.113.248.611-.642 1.098-.06.04.403-1.082-.578.276-.987 1.34-2.608 4.202-2.975 6.59-.104.576-.008 2.086-.612 3.148-.082.142-.212-.061-.351.142-.443.657.065 1.163-.584 1.92-.65.76-1.322 2.505-1.266 4.974q0 .014.016.05c.072.184.373.749.305 1.417-.13 1.208-.315 2.937-.304 4.215.005.608.296.216.302.322.079 2.17.355 3.922.296 5.93-.045.249-.037.514-.367.77-.395.208-.667-.005-.868-.118-.395-.265-.703-.594-1.018-.93-.623-.682-1.217-1.424-1.886-2.218-.532-.614-2.306-2.108-3.354-3.215-.674-.644-.383-1.044-.853-1.542-.295-.358-1.443-.708-3.239.171-1.615.779-2.434 3.39-5.416 3.878a31 31 0 0 1-2.836 1.449c-3.93 2.264-6.238 6.002-8.572 9.781-.128.22-.135 1.155-.462 1.645-.485.722-.944.994-1.295 1.509l-.046.067c-1.46 2.133-2.325 4.346-3.297 6.625-.373.877-.476.476-.913 1.528-.382.924-.41 1.675-.911 2.773a12 12 0 0 1-.23.474c-.528 1.032-1.534 1.958-1.984 3.492.627.214.332 1.248.227 3.144-.018.363.262.01.266.184.02.7-.238 1.317-.168 1.984.017.162.24.188.267.32.23 1.118-.304 2.912-.385 3.234-.327 1.212-.012 1.773-.092 2.704-.072.938-.325-.444-.332.65-.013 2.272.44 5.165.932 7.415a3 3 0 0 0 .082.295c.279.48.287-.065.342.039.87 1.672 1.554 3.495 2.601 4.087-.63 1.913.693.912 1.926 3.308.098.188-.347.828-.898.204-.552-.626-1.04-1.797-1.774-2.691-.175-.204-1.552-1.218-1.69-1.392-1.103-1.33-.23-2.055-.219-2.155.045-.446-.133-.914-.382-1.357l-.028-.084c-.246-.805-.697-1.587-.785-1.893-.64-2.222-.712-4.195-1.001-6.107-.18-1.253-.891-1.358-.89-2.37.075-3.391 1.139-4.426.784-7.683-.045-.7-.992-.197.175-2.494.07-.154 1.087-1.76 1.132-2.87.004-.14-.21-.215-.165-.39.084-.32.184-.604.295-.871.266-.642.57-1.19.837-2.029.368-1.154.794-2.587 1.457-3.882.396-.782 1.275-1.61 1.56-1.929.799-.905 1.022-2.236 1.719-2.664.575-.347.473.61 1.108.121.131-.1.294-.26.5-.505-.456-.377-.877-.838-1.313-1.253 2.266-3.4 4.53-6.7 7.527-9.943.387-.399-.246-.212.181-.653.847-.842 1.772-1.609 3.109-2.182a24 24 0 0 0 3.123-1.486c1.568-.888 3.075-2.192 5.107-3.153.852.103 2.057-.52 4.255-.254 2.338.638 2.85 1.604 3.674 2.325.546.578.371.663.7 1.099 1.191 1.629.995.536 1.43.879.915.733 1.123 1.328 1.343 1.975.105.317.221.658.397.973.084.154.198.308.259.383.015.038.051.028-.2-.01a1.15 1.15 0 0 0-.703.157 1.07 1.07 0 0 0-.426.46c-.028.049-.1.152-.167.063-.178-.242-.66-1.229-.706-1.385-.422-1.508.225-.27.2-1.248-.033-1.805.09-3.071-.05-5.201-.043-.617-.401-2.148.075-3.314.062-.154.288-.043.316-.165q.064-.307.106-.57c.265-1.681-.34-1.918-.398-3.121-.066-1.33.807-3.242 1.04-3.612.589-.978-.002.839.03.905.32.749.498-.703.778-1.79.743-.003 1.06-1.518.297-1.125-.086.047-.218.914-.297 1.126-.492-1.105-.17-2.89 1.091-4.524.614-.751.589.156 1.53-2.415.477-1.157-.192-.941.227-2.016.485-1.191 1.356-2.438 2.443-3.519 1.07-1.065 2.269-2.048 3.33-2.92.758-.614-.168-.259.355-.683 1.413-1.122 2.912-1.733 4.529-2.52.148-.072-.335-.188.189-.403 3.454-1.377 6.754-1.657 10.276-1.6.549.012 1.095.02 1.665.024 1.943.016 5.43-.143 7.459-.106 3.545.091 7.76.411 11.128.863 1.19.19 1.856.38 2.435.652.246.056.414.036.813.225 1.679.767 3.394 3.395 3.574 3.75.011.007-1.289-1.174-.724-.413.169.6.708.4.724.413.16.224 2.451 2.816 2.916 3.303.264.26.336-.074.469.065 1.521 1.59 2.942 3.243 4.328 4.82.69.782 1.384 1.56 2.053 2.225.629.657 1.48 1.253 1.527 1.247-.398-.153-1.441-.055-1.942.378-.503.395-.589.661-.667.8-.121.277-.094.277-.094.268.011-.026.297.103.327-.006.065-.241.125-.66.285-1.166.638-1.983.781-3.57 1.231-5.493.512-2.198 1.289-3.898 2.346-4.918.656-1.619 2.171-3.748 3.266-4.831 1.076-1.079.874-1.625.96-1.742q.53-.6 1.115-1.087c2.494-2.243 5.702-2.962 9.316-2.936h.424c1.935.003 5.27-.034 7.167-.01 1.607.015 2.567.21 4.073.252.206.007.023-.276.087-.28 1.723-.15.843.418 1.179.57 1.226.594 1.897.81 4.235 1.264.367.102 1.254-.119 2.496.37.378.078.737.18.986.332.944.57.411.61 1.416 1.196.086.05.183-.131.773.276 2.745 1.893 5.8 3.941 8.799 5.965.408.28.07-.352.666.05 2.269 1.782 4.844 2.64 7.022 7.166.19.6.366 1.209.518 1.804.204.82-.167.377-.181.571-.076 1.174.849 2.6.907 2.88.606 2.825 1.033 5.742-.665 9.065-.067.117-.093.164-.076.123.013-.048.097-.175.148-.607.074-.404-.114-1.307-.519-1.763-.39-.47-.666-.57-.805-.641-.277-.11-.226-.06-.16-.052.076.017.21.035.361.046 1.935.136 3.986.191 6.286.164.32-.008 2.88-.557 3.997.068.078.04 1.162.669 2.197.375.065-.018-.623-.372.618-.23 1.233.145 3.297.202 4.987.88.543.22 1.681 1.018 3.458 1.15l.057.001c.384-.022 2.8-.039 3.347.903.093.17-.33.758 1.609 1.215.374.093-.18-.352.769-.016 1.461.524 3.171 1.689 4.961 2.58.307.142 1.827.656 2.467 1.775.098.173-.328.108.112.562q.317.33.629.672c1.716 1.888 3.444 3.832 4.774 6.008.518.859-.096.659.383 1.581.484.921 1.447 2.77 2.093 3.68.651.92.7-.476 1.461 1.06.805 1.697 1.465 3.538 1.763 5.607.634 4.284 1.32 9.85-1.421 14.953a79 79 0 0 0-.726 1.362c-.458.878.125.24-.549 1.564-1.511 2.92-4.049 8.028-8.793 10.808-1.18.66-1.868.63-2.427.685-.553.026-.979-.002-1.371-.032-.773-.067-1.39-.164-1.916-.234-.516-.072-.958-.11-1.104-.127-.066-.015-.045-.008.188-.13.217-.099.731-.523.913-1.025.197-.529.115-.747.094-.834-.11-.468-.188-.373-.212-.362-.029.033-.047.08-.078.103-.06.05-.159.021-.222.036-.066.009-.098.09-.153.09-.039.007-.178-.087.054.33.549.873 2.28 1.741 2.509 2.055.472.563.9 1.171 1.256 1.829a253 253 0 0 1 3.19 5.943c.302.586.295-.13.549.379.869 1.743 1.424 3.754 1.891 5.536.207.803.396.608.537 1.356.056.304.103.588.146.882.171 1.23.351 2.441.454 3.858.011.154-.47-.805-.231.453.384 2.038.581 4.905.246 7.671-.11.799.438 1.023-.494 2.584-.222.317-.553-.331-.927 1.696-.034.27-.707 2.438-1.798 3.707a3.6 3.6 0 0 1-.685.648c-.317.215-1.301.684-1.782 1.416-.065.101.457-.099.018.49a21.8 21.8 0 0 1-6.217 5.579c-.663.389.497.099-.524.667-2.818 1.578-6.764 2.306-9.675 2.294-1.089.002-.342-.263-.423-.286-1.241-.394-1.967.143-2.388.161a15 15 0 0 1-1.703-.042c-1.657-.132-3.096-.427-4.797-.597-.613-.063-.217.267-.342.274-1.303.057-.287-.294-1.082-.467-2.22-.492-4.751-.98-7.056-1.68-.848-.262.002.352-.76.106-3.165-1.019-6.407-2.755-8.96-5.14a87 87 0 0 1-2.804-2.737c-.556-.567-.025-.404-.107-.558-.562-1.063-2.132-1.808-2.443-2.029-1.416-1.006-1.755-1.618-2.893-2.594-1.369-1.163-2.878-2.463-4.223-3.366a6 6 0 0 0-.747-.434c-.173-.096-.295-.047.147-.034.214.002.588-.088.828-.231.244-.14.324-.25.298-.219-.068.049-.376.562-1.094 1.245-3.326 3.06-6.924 5.894-10.267 8.029-3.369 2.162-6.697 3.801-10.127 4.967-4.775 1.542-9.672 2.86-15.678 1.977-.647-.116-.053.328-.619.224q-.57-.111-1.137-.263c-3.351-.982-7.21-1.575-10.943-4.614-1.929-1.655-3.612-3.454-5.22-5.181-.352-.379-.085.378-.651-.218-1.153-1.208-2.556-2.798-3.372-3.535-.366-.326.317-.162-.055-.475-.2-.169-.357-.231-.248-.216.096.029.548-.053.639-.143.588-.403.482-.459.436-.35-.07.104-.193.309-.318.52-.253.433-.538.919-.825 1.384-.5.799.552-.216-.128.81l-.182.266c-4.2 6.14-8.8 12.394-15.118 17.262-.137.105-.307.16-.501.21-.417.101-.931.17-1.46.728.052.19.19.346.286.515-2.69 2.314-5.332 4.674-8.18 7.006-2.899 2.075-5.814 5.511-11.699 5.104a55.8 55.8 0 0 1-11.593-2.949c-.463-.177.22.447-.68.102-4.644-1.871-9.566-4.307-12.641-9.531q-.345-.627-.689-1.277c-.25-.474.402-.545-.487-1.85-.16-.224-1.434-2.251-1.845-2.745-.058-.066-.089.459-.473-.225-2.173-3.967-4.348-8.656-4.231-13.965.038-.845.32.058.356-.538.128-1.904.58-3.944 1.495-5.763.988-1.993 2.272-3.831 3.729-5.251 1.822-1.701 1.573-.657 2.833-1.165.174-.075 1.293-1.013 1.537-.822.607.46.603 1.509 1.314 1.946.125.109 1.509-1.221.87-.19-.056.075-.965.988-1.093 1.298-.096.214.385.186.149.561-.233.377-.747.509-1.133 1.116-.367.609.066.603-.769 1.663M132.111 7.774c1.397-.228 1.32-1.297-.108-.508-.068.042.036.524.108.508M33.655 52.66c1.364-1.05 1.602-2.358.56-1.657-1.038.722-.978 1.988-.56 1.657m-8.503 14.93c1.074-1.639-.16-2.52-.696-.466-.03.12.634.562.696.466m4.282 45.624c.019-.013.636-.858.647-.885.064-.661-1.2 1.059-.647.885m-7.826-29.065c.196-.6.049-2.34-.236-1.604-.24.602-.02 2.357.236 1.604m158.628-47.111c.018.016.746.05.733-.039-.042-.285-1.054-.233-.733.039M32.64 109.949a16 16 0 0 1-.649-.625c-2.314-2.953-2.564-5.105-.03-1.732.51.652-1.436-1.121-.852-.239.42.637.906 1.092 1.4 1.506l-.027-.026c.85.587 1.582 1.018 2.48 1.759.137.108-.394.085-.993-.082-.6-.16-1.244-.48-1.336-.565zM133.275 8.677c.026-.006.993-.267 1.018-.277.465-.474-1.555.063-1.018.277m82.543 46.297c.019.055 1.088 2.088 1.127 2.152 1.065.834-1.118-3.357-1.127-2.152M84.761 12.23a6 6 0 0 1-1.568.245c-.622.013-1.21-.065-1.685-.274a38 38 0 0 1 1.687-.005c.527.011 1.04.02 1.566.034"/><path fill="#403d3a" d="M26.551 107.741c-1.944-3.144-4.12-7.419-5.565-10.85-.454-1.081-.034-.612-.335-1.37-.476-1.222-1.01-2.359-1.426-3.661a11 11 0 0 1-.247-.912c-.123-.58.345.052.217-.545-.619-3.218-.772-6.015-.723-9.02q.01-.395.023-.793c.304-6.46 3.487-11.506 6.18-16.177 3.043-5.168 6.261-10.226 9.747-15.182 1.904-2.68 4.741-4.018 7.367-4.866 1.048-.336 2.154-.596 3.248-.817 3.978-.656 7.667-.317 11.422.421.762.188 1.198.596 1.444.801.123.107.212.184.212.178-.001.014-.125-.177-.683-.22h-.008a1.6 1.6 0 0 0-.715.15c-.132.062-.201.107-.246.126-.09.042-.122.03-.148.007-.052-.046-.02-.174-.101-.11-.248.216-.19.141-.199.099a.8.8 0 0 1 .052-.183.7.7 0 0 1 .184-.269c.14-.13.319-.2.47-.684.616-2.055 1.035-4.485 1.42-6.845.356-2.225.69-4.392 1.012-6.447.288-1.804-.551-.097.073-1.856.044-.123.224.387.349-.103.275-1.105.672-3.23.896-4.091.43-1.651.494-1.93.919-3.498.443-1.61 1.11-3.444 1.797-5.16.323-.829.85-1.462 1.365-1.96.456-.415-.36-.107.383-.765.754-.695 2.856-1.688 3.569-1.886.718-.223.504.104.646.101.837-.004 2.19-.724 2.993-1.147.305-.161.526-.28.61-.311 5.468-2.008 10.65-2.167 15.941-2.147l.29.001c4.354.082 8.729 1.124 12.493 2.41 3.79 1.4 6.93 2.632 10.239 5.252q.788.719 1.531 1.517c.34.37.188-.292.604.167 2.956 3.318 5.058 7.232 6.398 11.352.199.616.424 1.225.674 1.762.124.266.259.517.376.693.056.086.111.153.119.166.002.02-.034-.066-.371-.128.326.066.512.049.675-.015.204-.102.085.33.351.188 2.103-1.644 2.546-8.469 1.789-10.756.101-.553.222-1.137.416-1.765.713-2.443 2.541-4.538 4.096-5.648 1.276-.896.336.302 1.697-.973.312-.28-.289-.167.196-.569a36 36 0 0 1 1.608-1.232c1.995-1.406 4.232-1.726 6.167-2.088.533-.092.359-.32.508-.38 1.261-.504 3.39.004 3.835.035 2.562.154 4.568.133 6.722.046a31 31 0 0 1 2.407.003c.758.035-.123-.338.606-.314 3.79.176 7.627.74 11.229 2.01.798.303-.037.32.34.482.977.432 1.574.529 2.288.831.421.175.863.402 1.388.865.273.242-.039.307-.003.369.535.954 1.555 1.108 1.761 1.286 2.505 2.205 3.274 4.267 5.065 6.79.212.306.012-.57.592.308q.23.351.455.71c1.946 3.15 2.088 6.677 2.563 9.848.066.429.212.624.806.893.569.238 1.351.356 2.139.412 1.597.108 3.282.016 4.962-.024 1.063-.025.319.25.387.274 1.106.38 1.796-.228 2.159-.25.903-.046 1.818-.005 2.762.295 1.83.648 3.1 1.613 4.458 1.942 3.217 2.365 6.06 5.034 8.546 8.139 3.081 3.58 6.591 7.511 9.031 11.841a28.9 28.9 0 0 1 3.128 7.533c.037.143-.321-.02-.247.263.796 3.428 1.019 2.657 1.983 4.91.242.582-.242 2.457-.289 2.614-.138.587-.618.026-.638.22-.184 1.579 1.27 1.261 1.262 3.46-.004.067-.265-.223-.294-.04-.092.564-.008 1.122-.131 1.673a4.5 4.5 0 0 1-.343.947c-.329.709-.629 1.249-.856 2.63-.074.238.957.249-.12 2.065-.389.775-2.661 3.448-3.367 4.054-.69.646-.433-.005-.488.036-2 1.579-1.438.78-2.682 1.346-.521.24-.621.486-.579.72.055.325.381.632.219.915-.254.513-1.958 1.55-2.432 1.67-.454.157-.041-.286-.423-.125-2.562.84-.847 1.069-1.649 1.596a5.5 5.5 0 0 1-.901.405c-.227.076-.425.106-.508.122-.038.004-.046.015.054-.044.097-.038.338-.326.346-.521.012-.35-.051-.208-.027-.144.014.087.047.203.085.324.316.9.556 1.82 1.043 2.687.253.45.206-.015.464.358 1.028 1.488 1.397 2.544 2.733 4.148.217.258 1.588 1.405 1.783 2.57.026.164-.386-.108-.048.599.513 1.053 1.38 2.969 1.895 4.118.386.851.359-.287.658.862.124.507-.399-.327-.154.619.085.334.234.843.393 1.413.303 1.043.482 2.294.529 2.906.072.946.318.416.343.49.161.464.228 2.341.193 2.505-.296 3.579-1.582 6.798-2.724 9.821-3.262 4.12-7.374 5.038-11.183 7.397-.535.294-.036.37-.117.418-1.792 1.077-.698-.39-2.114.048.467.44-.345.739-1.616 1.476-.613.356-.162.385-.208.437a2.5 2.5 0 0 1-.594.46c-.599.325-1.138.263-1.297.257-.788-.028-1.38.614-1.924.531-.525-.092.43-.699-.921-.34-.345.302.844.613-.228.948-2.136.666-5.293.562-8.156.316-2.715-.217-5.256-.587-6.825-.811-3.221-.471-4.265-.657-6.112-1.137-3.311-.956-2.179-.243-4.316-.703-2.122-.539-.761-1.169-.973-1.479-.192-.311-.587-.221-.878-.476-.293-.257.495-.085-.274-.465-.777-.354-3.021-1.132-3.402-1.13-.78.049-.258 1.016-1.804-.188a7 7 0 0 1-.269-.227c-.105-.097.423-.028.015-.385-3.36-2.886-3.79-7.586-3.951-11.431a3 3 0 0 1-.011-.191c.017-.59.32-.068.348-.386q.02-.161.047-.309l.026-.148q.007-.036.012-.077l.005-.048q.001-.012-.001-.039c-.002-.012-.002-.02-.01-.046-.009-.018-.027-.103-.155-.121-.295-.013-.428.192-.516.304a2.4 2.4 0 0 0-.197.349 4 4 0 0 0-.205.533 1.8 1.8 0 0 0-.092.662c.012.353.186.646-.106 1.578-.277-.561-.79-.341-1.655.308-.391.286-.864.659-1.475 1.073-1.235.772-.881.908-1.695 1.53-.251.191-1.353.33-1.497.528-.474.661.648.965-1.965 1.413-.113.019.168-.342-.218-.258-.672.147-1.158.313-1.538.504-1.114.548-1.669 1.077-3.522 1.883-1.993.862-5.67 2.105-7.975 3.06-.29-.799-2.363.319-3.016 1.231-1.498.611-3.117 1.315-4.644 1.756-.53.152-.266-.198-.34-.201-1.116-.063-1.643.655-2 .759-.69.195-1.393.329-2.124.31-3.002-.095-5.581-.961-8.41-2.104-.118-.05-.617.368-1.252-.527-.034-.059 1.136.362-.321-.584-1.469-.945-3.742-3.257-5.754-4.473-.27-.163-.826-.383-1.39-.697-.465-.261-.932-.598-1.25-1.04-.095-.132.142-.168.018-.376-.4-.669-1.073-.426-1.444-1.34-.372-.915-1.535-2.272-3.615-3.461-.055-.032-.576-.021-1.084-.289a1.4 1.4 0 0 0-.294-.118c-.521-.136-1.084.521-1.515 1.059a19 19 0 0 0-1.174 1.72c-.312.512.139.338.09.429-1.723 3.103-3.35 5.296-5.974 7.705q-.514.464-1.068.946c-.586.522-2.047 2.318-3.46 3.001-1.55.733-1.016-1.399-3.893 1.056-1.024.882-1.713 2.939-3.748 4.05a4 4 0 0 1-.847.398c-4.203 3.383-9.059 4.951-14.007 7.065-.223.093-.789.821-1.349.988-.822.244-1.338.142-1.93.285-1.023.242-2.017.49-3.002.647-1.434.233-2.914-.182-4.139-.967-.787-.53-.383-.536-1.229-1.234-.819-.725-1.586-1.028-2.447-2.286-.64-.957-.781-2.25-1.543-3.518-.571.319-1.148-.538-2.25-2.023-.212-.286-.21.158-.32.028-.455-.526-.61-1.166-1.046-1.666-.106-.122-.303-.017-.4-.11-.835-.794-1.27-2.617-1.345-2.933-.286-1.202-.802-1.536-1.14-2.396-.34-.857.484.249.019-.718a20 20 0 0 0-.405-.786c-1.185-1.633-1.962-3.875-2.311-5.776-.163-.866-.343-.222-.373-.344-.174-.769-.245-1.548-.32-2.272-.029-.977-.084-1.843-.435-2.425 1.521-1.297-.17-1.113.142-3.754.025-.206.752-.468.857.329.104.792-.122 2.003.059 3.099.04.262.75 1.733.801 1.929a2.5 2.5 0 0 1 .076.76l-.01-.114c.002.879-.678 1.136-.718 1.211-.514 1.045.59 2.681.778 3.084.617 1.533 1.18 2.766 2.049 3.824a40 40 0 0 0 .754 1.131c.697 1.007 1.375.771 1.817 1.611 1.464 2.783 1.122 4.25 3.386 6.286.492.425.794-.495 1.501 1.663.038.132.526 1.802 1.391 2.301.108.062.281-.083.39.021.735.696 1.044 1.316 1.863 1.967.82.644 1.839 1.228 2.66 1.606.479.244 1.078.724 1.37.806a1 1 0 0 0 .314.055c.848-.006 1.693-.539 2.305-.37.741.18-.406 1.059 1.379.817-.097-.584-.118-1.206-.183-1.804 3.63-1.052 7.266-2.306 10.673-4.058.42-.221-.154-.28.289-.524 1.85-1.032 3.585-1.787 5.159-3.142q.176-.155.338-.315a95 95 0 0 1 4.124-3.379c1.298-.059 3.349-1.817 4.864-3.013.532-.417.616-.254 1.02-.524 1.519-1.047.472-.924.78-1.327.362-.481.695-.765 1.037-.967.823-.482 1.761-.421 2.874-1.849.094-.104.472-1.824.55-2.033.553-1.329.34-.048.879-.761.992-1.329 1.653-2.202 2.656-4.117.15-.265.313-.733.762-1.339.252-.307.524-.689 1.307-1.054.376-.17.989-.302 1.578-.189a2.64 2.64 0 0 1 1.312.647q.084.098.158.206c.088.127-.123.262-.039.347 1.55 1.512 2.055.955 3.178 1.502s2.32 2.089 2.542 2.437c.58.907-.717-.328-.782-.332-.782-.027.368.743 1.197 1.397-.311.681.914 1.515.862.673-.008-.092-.711-.52-.862-.673.457-.012.942.114 1.427.363.804.422 1.587 1.185 2.199 2.198.468.773-.381.575 1.696 2.051.943.653.899-.011 1.772.462 1.963 1.081 4.157 2.788 6.351 3.213.781.154.091-.286.618-.199 1.011.154 1.943.35 2.951.405.235.015.549-.015.894-.101.111-.029-.212-.265.173-.338 3.097-.728 6.285-2.053 9.862-3.579 1.741-.761 4.818-2.277 6.677-3.011 1.527-.608 3.266-1.193 4.971-1.739 2.241-.671 3.928-.829 5.168-1.399 1.481-.695.982-.841 1.429-1.321.312-.374.764-.707 1.214-1.061.615-.438 1.259-1.105 1.407-1.263.017.021-.574 1.159-.096.646.475-.207.091-.637.096-.646.041-.043.154-.235.322-.572.087-.172.178-.37.341-.673.088-.154.175-.329.405-.616a2.5 2.5 0 0 1 .591-.531 2.26 2.26 0 0 1 1.35-.349c.644.006 1.308.56 1.441.803.174.247.239.436.282.576.06.208.067.313.075.396.011.132.007.2.006.246-.004.096-.008.132-.012.169l-.017.133-.02.139a3 3 0 0 0-.022.183c-.008.1-.004.165-.002.18.065.472.102.814.133.984.065.358.318.131.346.314.487 3.696 1.355 6.613 3.615 8.255.447.334.894.65 1.355.951.058.042-.193.247-.053.343 1.949 1.301 3.556 1.517 5.486 1.925 1.945.391 3.461.803 4.541 1.561 1.506.248 3.676.813 4.941 1.105 1.256.294 1.514-.286 1.621-.285 1.895-.008 3.353.097 4.874.236 1.328.116 2.687.282 4.302.279 1.709.066 4.544-.575 6.002-1.465l.449-.24c1.066-.565 1.871-.876 2.918-1.508.162-.098-.13-.245-.083-.281 1.246-1.006.876-.083 1.218-.131 1.234-.171 1.986-.306 3.655-1.424.384-.256 1.113-1.713 1.796-2.163.888-.586.713-.096 1.619-.727.076-.054-.044-.218.525-.559a24 24 0 0 0 1.73-1.131c.257-.188.488-.376.64-.518.153-.118.203-.309.033.122.671-1.843 1.306-3.475 1.732-5.114.108-.415-.346.031-.201-.565.679-2.771.878-5.663.319-7.963l-.015-.062c-.168-.686.179-.33.2-.497.116-1.032-.924-2.086-1.015-2.269-2.155-4.615-4.495-8.195-7.741-13.238-.036-.055-.14-.174-.284-.343a5 5 0 0 1-.354-.523c-.127-.288-.366-.442-.48-1.61-.012-.32.007-.743.194-1.266a3.4 3.4 0 0 1 .94-1.371c.775-.634 1.198-.676 1.433-.769.461-.129.463-.14.352-.121.687-.241 1.049-.313 1.402-.229.048.025 1.008.243 1.377-.484.017-.045-.523-.01.158-.464.371-.26.815-.72 1.301-1.254.536-.588 1.127-1.154 1.743-1.585.422-.3 1.685-.778 2.308-2.126.08-.114.621-2.296 1.485-2.414.128-.019.801.453 1.074-.957.029-.258-.284.08-.147-.541.091-.473.226-.97.259-1.53.051-.78.059-1.61-.092-2.393-.051-.285-.547-1.42-.219-2.36.051-.149.314.116.313-.377-.011-2.358-.582-4.751-1.093-7.058-.187-.817.323-.531.143-1.404-.175-.878-.771-2.592-1.356-3.343-.579-.747-.683.428-1.362-.748a41 41 0 0 0-.846-1.361c-2.583-4.128-5.18-7.306-8.669-11.529a26 26 0 0 0-1.714-2.05c-.613-.654-.255.033-1.189-.9-1.946-1.928-5.551-4.886-8.032-5.748-.352-.145-1.809-.195-2.935-.176-1.187.012-2.346.031-3.339-.02-3.922-.262 1.003-.684-1.997-.783-1.409-.04-3.352.396-3.92.2-.777-.206-1.672-.578-2.473-1.352-.809-.762-1.305-1.908-1.415-2.828-.247-1.812-.315-3.44-.738-5.086-.135-.498-.313.058-.426-.356-.294-1.042-.571-1.957-1.019-2.731a19 19 0 0 0-.635-1.018c-.388-.57-.508-.337-.847-.865-.823-1.256-1.548-2.356-2.337-3.575-.073-.111.732.366.008-.462-1.042-1.177-2.33-2.628-3.818-3.431a4 4 0 0 0-.415-.16c-.48-.142-.633.327-1.679-.392-.231-.143.287-.674-1.325-.534-.271.005-2.932.188-4.14-.441-.317-.173-1.12-.8-1.887-.8-.103.002.275.324-.351.286-1.619-.094-3.307-.188-4.883-.109q-.964.046-1.912.1c-.642.04.321.308-.635.356-2.626.131-5.838.096-8.112.285-.833.073-.293-.24-.356-.258-1.046-.288-1.474.403-1.742.502-.944.343-1.615.605-2.058.874-.721.474-1.412.927-2.056 1.478-.392.338.066.322.001.405-.642.842-.37-.028-.897.355-1.458 1.07-2.469 2.464-2.82 3.88l-.012.043c-.125.538.334.007.226.5-.317 1.584-.433 3.757-.714 5.964-.449 2.252-.158 4.578-2.966 7.758-.623.558-.85.565-.87.504-.03-.067.071-.228-.088-.153-1.165.604-2.805.857-3.848.756-1.641-.324-1.955-.907-2.332-1.167a6 6 0 0 1-.601-.606c-1.268-1.67-1.302-2.364-1.692-3.468a9 9 0 0 0-.245-.69c-1.474-3.695-3.843-7.745-6.839-10.51-1.565-1.335-4.63-2.741-6.96-3.669-4.639-1.804-9-3.014-13.007-3.124-3.156-.039-6.243.078-9.484.695-.5.097.064.322-.363.41-1.787.372-3.54.845-5.285 1.419-1.475.486-2.923.993-4.153 1.572-1.229.518-2.206 1.453-2.038 1.373-.295.783-.55 1.503-.787 2.265-.137.444.361-.094.156.617-.419 1.462-.937 3.372-1.393 4.913-.22.744-.244-.335-.462.427a47 47 0 0 0-1.205 5.611c-.123.808.405-.353.22.699-.327 1.9-.626 3.823-.911 5.744a142 142 0 0 1-.792 4.885 38 38 0 0 1-.558 2.59c-.123.465-.252.934-.48 1.529-.12.298-.248.629-.546 1.113-.164.253-.347.543-.788.947-.4.371-1.333.988-2.543.944-1.414-.091-1.962-.658-2.254-.853-.293-.237-.398-.352-.454-.404-.102-.116.088.138.72.294-1.17-.326-2.648-.553-4.08-.71-.459-.048-.859-.712-1.86-.58-.073.178-.066.388-.095.578-1.126.03-2.28.127-3.136.323-3.31.713-6.295 1.888-7.546 3.707a196 196 0 0 0-9.211 14.386c-.222.383.445-.107.033.62l-.008.016c-2.485 4.347-4.658 8.447-5.384 12.63-.052.342-.468.226-.577.896a3.3 3.3 0 0 0-.015.623c.006.26.119 2.448.289 2.99.024.074.28-.328.326.358.133 1.874.364 3.817.837 5.312.63 1.916 1.528 3.997 2.396 5.984.272.617-.311.105-.12.544 1.369 3.122 3.36 6.298 4.786 9.228.97 1.963.11 1.53.301 2.788.029.186.758 1.315.558 1.533-.505.573-1.555.47-2.05 1.144-.138.129 1.215 1.667.17.937-.082-.051-.998-1.152-1.293-1.365-.21-.149-.227.379-.598.03-.366-.345-.44-.933-.978-1.539-.54-.611-.656-.132-1.497-1.483m155.798 26.288c.271.081.496.09.664.057.43-.085.479-.443.03-.55a1.6 1.6 0 0 0-.584-.012c-.064.01-.172.487-.11.505m-118.636 9.367c1.635-.206 2.315-1.294 1.166-1.148-1.141.133-1.66 1.206-1.166 1.148m-14.843 2.63c.626.649 1.223.591 1.375.348.157-.253-.019-.617-.797-.947-.09-.039-.647.526-.578.599m-19.528-42.131c-.005.022.47.883.495.896.547.289-.401-1.429-.495-.896m9.736 29.434c.104.605 1.131 1.961.993 1.204-.11-.603-1.127-1.961-.993-1.204m165.71-39.204c.001-.027-.359-.633-.428-.577-.215.193.376.989.428.577m-170.76 12.607c-.12 4.129-1.372 6.622-1.176 2.121.036-.815.366 1.762.491.726.227-1.895-.522-3.167-.078-5.097.081-.349.772 2.014.764 2.258zm148.956 28.593c.026.016 1.002.078 1.028.065.458-.258-.859-.385-1.058-.204-.029.026-.034.059-.006.1a.3.3 0 0 0 .036.039m32.014-75.721c.025-.068-.905-2.193-.982-2.24-.977-.836.879 3.37.982 2.24m-83.326 70.228c-.847.735-2.013 1.285-2.966 1.234.992-.398 1.977-.824 2.966-1.234"/><path fill="#403d3a" d="M78.472 87.678c.407-.692.328-1.45.27-1.635-.062-.225-.072-.175-.014-.076-.058-.09-.294-.205-.323-.152-.024.016.023.055.086.086.112.05.045.233.147.27a.5.5 0 0 0 .283-.002c.076-.019.07-.03.033.04-.02.045.165.278.156.312-.018.06-.054.141-.03.126.074-.066.195-.518.269-1.062.208-1.476-.017-3.378-.377-5.185 0-.455-.79-1.348-2.103-2.236-.26-.198-.5-.328-.514-.335-.006.003.174-.04-.057.005-.657.156-1.58.775-2.377 1.532-.818.762-1.77 1.755-2.527 2.857-.297.425-.502.874-.585 1.309-.03.16.246.132.258.167.22.497-.256.247-.366.552-.432 1.208.137 2.901 1.046 4.123.387.524.459-.302.58.398.011.05-.31.066-.23.232.177.38.706.99.902 1.263.375.53.449.609.859 1.102.13.157.265.333.4.518.16.27.502.544 1.051.604.147.014.012-.295.243-.304.219-.003.907.058 1.17.117.254.065.15.286.196.336.391.426 1.32-.22 1.443-.244q.527-.09 1.06-.141c1.003-.116 2.438-.842 3.564-2.028 1.03-1.08 1.9-2.498 2.68-3.75l.26-.42c.62-.977.828-2.1.503-3.471-.039-.158-.318.1-.366-.087a12 12 0 0 0-.322-1.02c-.619-1.713-1.48-3.272-2.624-4.632-.139-.163.263-.182.13-.362-.434-.588-1.097-1.372-1.88-1.745-.568-.269-1.318-.204-1.746.315-.61-.135-1.375-.225-2.048-.33a7 7 0 0 1-.574-.122c-.3-.077-.188-.474-.437-.189-.04.066.186.241.14.308-.048.079-.135.206-.24.4-.316.58-.603 1.21-.693 1.851-.025.182.228.204.257.265.229.483-.485 1.037-.551 1.202-.501 1.16-.383 2.123-.304 3.293.021.274.325-.076.358.183.17 1.338.431 2.726.682 4.065.055.297-.297.116-.283.263.07.657.624.62.726 1.226.023.129-.23.148-.246.18-.257.5.42.578.467.655.08.129.151.266.207.39.291.622.291 1.323 1.092 1.55.101.02-.014-.336.249-.27 1.898.394 4.721-.784 7.342-1.525a.5.5 0 0 1 .168-.024c.097.025.086.143.078.208q-.011.035-.001.042l.02.009c.225.138.345.027.37-.105.03-.134-.026-.287-.008-.317.163-.267.398-.563.424-1.178-.01-.079-.15-.342-.458-.462-.727-2.704-2.795-5.474-4.438-8.15-.61-.987-1.446-1.868-2.405-2.707-.043-.036.2-.23.113-.3-1.07-.842-1.094-.306-2.107-.192-.249.033-.59-.853-.633-.922-.134-.254.248-.566.193-.628-.48-.496-.92.878-1.683.592-.023-.01.17-.222.114-.271-.174-.153-.412-.126-.582-.282-.39-.36-.338-1.083-1.183-.928-.108.022-.219.843-.923.58-.09-.033-.286-.097-.52-.172-.14-.051-.226-.026-.114-.056.12-.044.166-.137.135-.125-.081.038-.295-.12-.303-.13-.276.176-.427.37-.584.41-.157.059-.328.055-.618.277-.344.275-.031.382.295.462.22.054.446.101.494.187.117.215-.218.913-.325 1.094-.108.175-.265-.058-.329.1-.41 1.06.592.482.777.836.449.805-.445 1.43-.476 2.2-.008.204.185.023.22.198.142.691-.084 1.164.34 1.885.071.13.746.566.502 1.051-.035.073-.307-.002-.25.29.073.395.348 1.048.677 1.356a1 1 0 0 0 .08.062c.238.133.242-.339.415-.073.105.122-.273.158-.03.384.246.247 1.182.467 1.543.499.36.043.2-.266.232-.28.186-.081.871-.16.932-.159a86 86 0 0 0 2.438.086c.092.005.08.01.094.019.015.008.08-.06.126-.192.097-.267.127-.675.123-1.08-.015-1.038-.212-2.135-.694-3.043a2.6 2.6 0 0 0-.349-.486c-.143-.156-.282.146-.306.124-.557-.416.41-.562.179-1.148-.347.507-.5.201-.994-.065-.239-.126-.25.152-.284.158-.51.086-.5-.436-.52-.557-.061-.436-.516-.213-.573-.5-.065-.29.48-.401-.032-.648-.233.13-.114.815-.525.721-.924-.21-2.22-.784-3.418-1.259-.263-.114-.426-.133-.617-.068-.19.067-.388.248-.525.42-.123.154-.228.313-.33.467-.358.583-.435.987-.644 1.532-.415 1.256.104.868.174 1.69.094.829-.886.326-1.122.42-.234.097-.019.25-.154.39-.136.138-.258-.2-.334.15-.08.355.262 1.345.493 1.475.484.279 1.011-.126.806.772-.012.052-.28-.123-.312.077l-.009.059c-.067.416-.033.726.213.938.258.226.744.342 1.217.408.59.083 1.192.114 1.793.125.22.004.056.325.187.33 1.382.01.83-.44 1.407-1.132 0 .767.509 1.156 1.526.86.605-.182.4-.467.701-.814.087-.103.576-.04.595-.214.06-.568-.517-.943.517-1.117.046-.007.019.304.17.26.59-.174.784-.442 1.086-.737.113-.042.174-.11.516-.085a.96.96 0 0 1 .78.67c.091.352.048.429.05.536a3 3 0 0 1-.05.395 2.8 2.8 0 0 1-.209.656c-.396.769-.996 1.63-2.18 2.543-.187.118-.517.246-.872.167a1.16 1.16 0 0 1-.642-.394c.517-.606.059-1.252-.608-1.539-.153-.665-.319-1.347-.395-1.937-.027-.199.245-.14.264-.172.275-.48-.304-.584-.39-.56l-.016-.006c-.003-.002-.009-.006 0 .007a.3.3 0 0 0 .035.04c.03.004.024.107.366.131.19.008.407-.181.441-.279.056-.11.056-.178.06-.223-.006-.168-.014-.12-.015-.145l-.003-.016q0-.003.007.005c.014.02.035.054.056.088a30 30 0 0 1 .388.632c.169.283.328.559.5.823.336.513.779 1.047 1.316 1.17a.43.43 0 0 0-.265-.101c-.075-.012-.327-.123-.557-.031-.218.08-.266.193-.038.157.016-.001.078.06.145.09.063.025.148.076.19-.178.035-.232.096-.654-.01-.995-.112-.402-.584-.816-.923-.744-.05.005-.173.124-.034.173.119.024.25-.08.248-.083.008-.01-.042.04-.15.124-.05.041-.221-.003-.311.071-.273.295.329.28-.043.726a1 1 0 0 0-.095.16c-.265.486-.004 1.45 1 1.725.037.012.44-.227.69-.162q.022.007.043.016c.411.201 1.086.392 1.588.3.236-.043.027-.304.066-.317q.145-.046.275-.102c.625-.241.814-.784.976-1.49.116-.552.187-1.167.216-1.876.014-.262-.28-.849-.219-1.46a1 1 0 0 1 .032-.139c.017-.031-.005-.047.093-.161a.24.24 0 0 1 .33-.005c.03.03.043.052.054.073.046.118.03.177.023.248-.147.763-1.724.409-1.025 1.832.304.57 1.918.838 1.877 2.006.018.03.05.098.174.098.122-.015.154-.071.186-.093.058-.056.09-.088.128-.123.054-.896.032-1.582-.137-2.405-.078-.266-.222-.594-.58-.75-.363-.147-.727-.016-.978.15-.564.439-.725.715-1.202.572q-.401-.11-.819-.232c-.09-.025-.596.296-.804.176-.304-.176-.348-.478-.55-.615-.846-.576-1.724-.958-2.592-1.34-.335-.128-.13-.34-.59-.442a.8.8 0 0 0-.367.028c-.301.1-.505.267-.9.418-.148.064-.344.102-.554.243a1.06 1.06 0 0 0-.452.763c-.047.218-.04.461.047.687.608-.257.782.192 1.47.548.13.066.16-.206.228-.185.267.067.357.356.638.376.068.004.183-.187.242-.197.489-.09.892.626.986.754.314.48.626.275.927.508.308.232-.262.229.126.43.59.301 1.356.502 2.067.654.28.06.56.092.826.097.394-.004.111-.297.168-.305.513-.063 1.141-.15 1.322-.575a.42.42 0 0 0-.09-.454c.518.052.713-.1.712-.236 0-.073-.042-.147-.129-.232-.046-.038-.096-.106-.225-.117-.131.016-.122.107-.125.153.023.22.07.46-.18.757-.057.066-.764-.132-.731-.468a.8.8 0 0 1 .106-.298c.069-.116.097-.195.305-.436.063-.059.112-.14.348-.23a.72.72 0 0 1 .824.281c.172.299.132.381.152.496.012.203.001.355-.003.52 0 .1.148.593-.008 1.096-.07.272-.178.487-.217.537-.453.53-.878.432-1.099.258-.23-.181-.327-.457-.356-.48-.561-.504-1.319.143-1.603.134l-.102.001c-.894.017-1.595-.299-2.364-.366-.52-.051-.801.603-1.203.433-1.38-.661-1.254-1.568-3.028-2.068-.2-.08-.38.075-.58.054-.184-.023-.48-.232-.567-1.176-.002-.05-.005-.343.012-.698-.088-.78.338-1.717.577-2.249.05-.126-.12-.279-.004-.42.769-.832 1.444-.875 2.375-.995l.163-.014c1.023-.073 1.928.196 2.493.57.355.234.532.833.619 1.005.245.496.89.323.928.765.044.448-.695.651-.198 1.214.316-.497.667-.992.991-1.488.487.285.93.54 1.356.73-.038-.004-.148-.032-.338-.016a1.14 1.14 0 0 0-.51.173c-.165.15-.02.003.545-.426.39-.258.906-.535 1.7-.52.808-.005 1.657.584 1.968 1.072.319.498.3-.174.593.369.066.138.114.263.155.385.266.917.193 1.287.19 1.817a25 25 0 0 1-.093 1.271c-.014.102-.027.214-.073.407-.028.104-.05.217-.167.472-.08.146-.125.304-.479.66-.144.14-.489.42-.99.54a2.22 2.22 0 0 1-1.43-.136c-.47-.23-.605-.406-.761-.572-.328-.387-.392-.55-.495-.715-.09-.156-.159-.281-.226-.401-.13-.234-.246-.436-.357-.635-.221-.393-.42-.763-.553-1.13.233-.268.276-.618.242-.972a3 3 0 0 0-.093-.5c-.016-.061-.047-.15-.023-.079.008.02.021.064.09.194.033.048.1.229.42.532-.01.014.925.832 2.066.46a2.13 2.13 0 0 0 1.219-.961c.26-.502.192-.47.231-.582a2 2 0 0 0 .028-.155l.008-.08v-.002l-.005.14c-.011.266-.19.263-.241.466-.188.788.392.405.493.62.4.94-.825 1.026-.963 2.157l-.014.114c-.005.036.147.288.264.61.123.316.178.736.158.837-.117.644-.28.705-.348.632-.089-.066-.156-.198-.445.14-.507.573-1.166.835-1.612.948a12 12 0 0 1-1.787.3c-.306.042-1.131.261-1.746-.156a1.1 1.1 0 0 1-.25-.233c-.066-.086.093-.27.034-.318-.973-.878-1.412-.384-2.186-.89-.322-.235-.561-.685-.665-1.146-.134-.583-.04-1.133.017-1.31.137-.413.197-.258.23-.027.034.233.076.543.1.555.565.24.155-.483.228-1.316.368-.054.55-.303.645-.568.08-.249.16-.64-.32-.498-.056.018-.195.293-.245.53-.057.243-.06.452-.08.536-.169-.196-.3-.47-.248-.913.035-.407.408-1.216 1.307-1.57 1.667-.483 2.224.28 2.588.86.15.305.035.44.065.62.018.192.206.35.633 1.017l.009.015c.329.66.717.259.968.913.111.35.153.718.09 1.18-.04.24-.075.482-.295.916-.13.212-.264.539-.879.901a1.98 1.98 0 0 1-2.023-.077c-.833-.626-1.15-1.251-1.571-1.71-.272-.315-.25.174-.442-.04-.513-.586-.653-1.186-1.126-1.879-.052-.086-.201.277-.36-.056l-.058-.135c-.014-.035-.02-.046-.047-.125a3 3 0 0 1-.063-.218c-.009-.042-.014-.046-.04-.204-.015-.144-.058-.322.014-.76.044-.217.122-.527.383-.9.194-.333.903-.878 1.514-.934 1.246-.096 1.503.33 1.717.431.225.178.178.151.23.197.128.128.178.194.223.25.05.066.083.112.113.156.348.536.4.785.493 1.044.08.25.13.457.174.655.088.395.144.742.2 1.073.054.33.107.643.167.906.029.129.062.247.083.312.001.053.09.102-.184-.21-.12-.112-.384-.383-.97-.49a1.83 1.83 0 0 0-1.273.257c-.172.116-.153.112-.15.095.01-.02.042-.067.077-.12a12 12 0 0 0 .248-.411c.177-.304.349-.621.492-.847.105-.165.218-.333.315-.475.047-.067.093-.137.11-.14.008.007.006.007-.02.173.005.13-.107.182.07.914a2.07 2.07 0 0 0 1.686 1.435c.417.047.535.004.704-.024.153-.033.265-.074.353-.111-.883.236-1.984.53-2.737.861-.76.332-.504.544-.794.842-.574.586-2.003.208-2.18.124-.003 0 .706-.219.29-.282-.284-.256-.28.278-.29.282-.119-.03-1.612.112-1.919.164-.163.04-.056.307-.144.322-.5.083-1.017.13-1.546.13-.656-.034-1.442.031-2.67-.714-.601-.376-1.18-1.114-1.406-1.778a4.3 4.3 0 0 1-.251-1.658q.024-.535.083-1.075c.007-.033.31.03.323-.047.188-1.085-.125-1.81-.218-2.792-.092-.974.161-1.792.843-2.252.106-.504.395-1.142.907-1.774.178-.179.415-.433.631-.629.608-.543.468-1.115.531-1.192.952-.99 2.735-1.086 3.554-.752.74.245 1.386.609 2.327 1.01.719.3 2.206.879 3.051 1.333.67.352.975.731 1.62 1.177.089.063.185-.207.216-.193.903.417.117.575.167.785.125.622.194 1.012.556 1.658.087.16.194.333.324.53.133.187 1.252.548 1.418.982.21.545-.164.408.031.968.015.048.22-.001.27.365.043.328.072.663.085 1.014.009.568.055 1.182-.203 2.208-.144.504-.395 1.225-1.122 1.917-.727.705-1.791.98-2.445.978l-.785.014c-.205.004.061.33-.237.34-1.42.021-2.973.029-4.836-.706-.473-.206-.088-.315-.168-.416-.243-.312-.646-.443-1.092-.622-.439-.167-.902-.42-1.004-.532l-.114-.123c-2.415-3.035-1.78-5.13-2.24-7.703-.024-.131-.678-1.236-.109-1.704.037-.034.613-.477.252-.909-.022-.026-.328.247-.27-.256.031-.263.011-.602.04-.972.032-.382.113-.841.386-1.342.093-.165.312-.418.61-.86.306-.408.703-1.246 1.848-1.989.04-.03.536-.388 1.172-.554.64-.177 1.281-.185 1.71-.07.155.032.275.133.309.35.019.127-.26.811.561.675.159-.026-.039-.263.352-.245.602.028 1.275.461 2.086.41.139-.011.847-.282 1.132.246.043.082-.175.259.036.375.998.555 2.193.942 3.172 1.754.343.288-.061.5.255.84.32.34.976.977 1.459 1.18.49.208.518-.65 1.123-.125.512.46.983.993 1.39 1.581 1.233 1.78 2.202 3.721 3.26 5.724.197.378.228-.047.529.511.262.494.576 1.08.894 1.803a11 11 0 0 1 .468 1.255c.128.525.355.997.24 2.293-.057.417-.17 1.586-.89 2.67-.716 1.114-1.86 1.749-2.647 1.978-.363.085-.728.16-1.058.198-1.522.181.114-.775-1.005-.507-.539.13-.87 1.038-1 1.108-1.247.684-2.322.686-3.79.981-.316.057.032.32-.245.363-.952.143-2.12-.008-3.289-.367-.521-.171-.516.077-1.002-.173-1.166-.63-1.981-1.633-2.353-2.676-.03-.09.541.316.147-.374a5 5 0 0 1-.233-.505c-.285-.75-.494-1.631-.939-2.374-.154-.257-.661-.113-.5-.829.034-.153.68-.156-.038-.722-.122-.082-1.14-1.154-.786-1.869.09-.187.524-.681.393-1.02-.02-.046-.27.19-.34-.103-.238-1.04-.293-2.17-.358-3.308-.016-.306-.32.145-.332-.317-.038-1.274.281-2.918.774-4.156.182-.455.307-.057.343-.084.576-.39.164-.892.209-1.089.142-.605.41-1.088.71-1.534.343-.508.875-1.252 1.854-1.9.547-.334.023-.351.124-.436.572-.419.677-.349.73-.27.05.09.074.217.424.144.714-.135 1.273-.126 1.754-.115.691.026 1.367.045 2.032.095.386.03-.013-.336.34-.302.974.118 1.965.238 3.334.917a10.7 10.7 0 0 1 2.853 2.202c.267.294-.083.302-.062.399.128.651 1.045.875 1.208.994.728.508.752.913 1.197 1.504.796 1.072 1.458 2.352 1.933 3.69.875 2.243 1.159 5.73-.31 8.201-.067.12-.134.234-.205.35-2.177 3.146-3.74 5.723-8.227 7.828-.322.116.115.311-.174.414a6.8 6.8 0 0 1-1.792.357c-.971.061-2.045.154-3.341.124-1.253-.072-3.027-.09-4.904-1.564-.335-.291-.064.386-.614-.112a6 6 0 0 1-.406-.434c-.324-.358-.81-.958-1.142-1.505-.186-.305.319-.101.127-.406-.446-.715-.985-1.473-1.524-2.242-.23-.331-.178.356-.458-.094-1.875-2.606-2.821-7.954-.094-11.13q.206-.257.422-.507c.155-.177.792.024.975-.436-.122-.135-.292-.257-.436-.383 1.535-2.03 3.079-4.11 6.572-5.306.662-.22 1.994-.346 2.961-.003.957.314 1.478.701 1.934 1.016.95.7 2.376 1.61 3.465 3.372.158.272.174-.386.484.168.256.479.472 1.016.61 1.59.437 1.822.827 3.683.556 5.89-.038.26-.619.11-.57.868.024.125-.044 1.33-.037 1.734.005.055.347-.135.23.322a6.3 6.3 0 0 1-.597 1.463c-.708 1.396-2.518 2.44-3.727 2.589-1.202.208-2.314.142-3.513-.272-.43-.163.033-.277-.132-.395a.3.3 0 0 0-.063-.034c-1.009-.42-2.055-1.208-2.668-2.2-.251-.4-.512-.855-.69-1.522-.174-.631-.233-1.713.334-2.636q.13-.183.272-.352c.688-.79.93-.19 1.636-.339.096-.02.469-.503.721-.34.62.41 1.103 1.104 1.786 1.511.073.045.164-.076.24-.122.072-.04.128-.018.215.194.015.018-.124.413-.07.583.037.113.352.187.372.37.024.182-.274.173-.281.458-.002.286.339.364.145.797zm-6.405-13.72c.394.427.796-.543.187-.476-.03.004-.208.455-.187.476m7.397 7.163c.191-.003.371-.128.552-.274.231-.19.434-.384.486-.55.056-.16-.127-.32-.573-.245a1.2 1.2 0 0 0-.38.135c-.396.235-.398.455-.346.619.059.163.172.313.26.315m-4.942-2.126c.652.637 1.48-.611.344-.75-.074-.008-.39.712-.344.75m-.053 7.942c-.007 0-.02-.649-.004-.679-.13-.223-.284.046-.28.334.003.286.141.505.284.345m.253-3.367c-.145-.269-.872-.368-.71-.01.143.3.902.36.71.01m-3.975-5.01c.014-.009.007-.298-.08-.285-.283.034-.171.439.08.285m8.512 5.285a3.3 3.3 0 0 1 .104-.711l.031-.11.018-.057.012-.041.01-.037c.003-.005-.002-.005.023-.052.014-.021.034-.065.118-.1.088-.038.208.019.227.045.066.07.056.087.065.104.01.043.005.036.006.05-.132.546-.36.897-.561.991-.203.11-.43-.273-.42-.862l.005.026c.008.026-.015-.012.047.158.022.046.042.11.148.228a.79.79 0 0 0 .669.233c.385-.072.49-.284.546-.358.1-.186.072-.17.084-.193l.01-.04q.011-.06.01-.065c.003-.028.001-.023 0-.021-.005.03-.022.053-.046.037q-.018-.012-.041-.034c-.008-.006-.016-.014-.025-.011-.006.011-.002-.023-.025.073-.006.02-.002.011-.025.076-.035.049-.006.157-.311.345a.67.67 0 0 1-.59-.01c-.168-.105-.144-.112-.184-.15-.166-.24-.114-.246-.13-.27a.1.1 0 0 1 0-.043c.13.091.326.453.375.17.016-.08.02-.173.018-.222v.004c.007.01-.019-.017.037.084.02.02-.004.017.084.073.09.058.25-.006.272-.05.065-.083.047-.086.052-.09l.005-.02v-.008.017a1 1 0 0 0 .013.165q.02.111.054.22c.044.145.103.286.15.43.095.285.147.578-.037.926-.076.14-.804-.804-.8-.903zm-7.303-8.602c.005.016.375.153.388.143.312-.246-.44-.525-.388-.143m8.54.865c.005.03.65.61.683.616.735-.089-.641-1.334-.683-.616m-5.088 10.473c-.774-.464-.898-1.041-.604-1.498.122.457.147.855.604 1.498m45.779 1.149c.441-.73.338-1.59.262-1.788-.077-.246-.088-.197-.025-.104-.077-.102-.254-.138-.177-.057.026.033.126.081.237.118.178.053.079.234.224.272a1 1 0 0 0 .425-.014c.108-.023.158-.044.17-.004.009.028.137.293.156.31.035.03-.011.101.012.093.062-.05.19-.452.266-.976.215-1.428-.039-3.334-.441-5.128.028-.397-.939-1.377-2.343-2.232a4 4 0 0 0-.653-.373c-.07-.02 0-.052-.279.004-.805.18-1.829.814-2.737 1.599-.886.757-1.91 1.737-2.74 2.839-.339.44-.571.91-.66 1.36-.031.162.245.134.258.168.221.495-.256.245-.362.555-.418 1.22.306 2.973 1.343 4.194.443.528.437-.332.628.389.015.05-.31.08-.214.249.215.384.81.995 1.034 1.271.429.537.512.615.972 1.123q.101.112.196.226c.206.303.751.664 1.493.702.17.008-.014-.297.254-.314.261-.012 1.026.033 1.309.09.275.062.164.284.214.334.42.421 1.4-.225 1.53-.247q.521-.085 1.042-.132c1.215-.14 2.735-.834 4.003-2.028 1.138-1.073 2.125-2.507 2.996-3.778l.307-.449c.68-.977.885-2.107.496-3.514-.046-.162-.313.112-.37-.08q-.134-.435-.313-.879a14.4 14.4 0 0 0-3.115-4.805c-.16-.161.252-.198.098-.376-.467-.533-1.143-1.222-1.913-1.594-.688-.332-1.585-.288-2.07.286-.656-.124-1.46-.209-2.171-.312a13 13 0 0 1-.67-.122c-.364-.07-.177-.481-.505-.183-.055.07.171.252.108.325a3.5 3.5 0 0 0-.293.422c-.351.577-.662 1.208-.774 1.855-.032.187.221.214.248.277.213.499-.512 1.063-.58 1.234-.516 1.2-.386 2.203-.278 3.417.029.284.323-.085.363.182.209 1.386.535 2.82.867 4.2.073.305-.291.13-.269.282.112.678.666.618.81 1.24.032.13-.22.161-.234.194-.196.466.317.564.474.625q.03.008.039.02c.299.376.418.67.634.983.211.303.544.602 1.066.655.12.01-.086-.335.237-.296 2.268.191 5.158-.938 7.944-1.635l.064-.014c.242-.031.135.23.159.25.242.149.377.036.411-.1.039-.14-.014-.299.006-.332.174-.272.375-.527.438-1.132.009-.074-.148-.419-.509-.547-.89-2.711-3.062-5.398-4.861-8.007-.753-1.082-1.8-2.015-2.965-2.897-.047-.035.187-.24.091-.309-1.179-.807-1.159-.266-2.212-.121-.26.04-.673-.845-.721-.913-.154-.252.225-.576.164-.636-.525-.488-.909.904-1.723.631-.025-.01.167-.227.106-.275-.19-.15-.437-.119-.622-.273-.423-.354-.4-1.081-1.275-.912-.111.023-.193.85-.938.596a18 18 0 0 0-.529-.16c-.163-.053-.304-.046-.26-.055.052-.014.123-.096.092-.094-.075.02-.285-.14-.292-.153-.282.153-.44.36-.598.397-.159.06-.33.053-.624.284-.287.233-.127.355.119.434.254.085.602.133.661.248.115.221-.225.951-.332 1.14-.109.182-.265-.06-.33.104-.411 1.106.592.508.777.871.451.829-.435 1.498-.447 2.295-.002.215.186.022.226.204.162.71-.045 1.215.423 1.942.078.13.78.538.582 1.049-.027.077-.308.018-.222.313.088.299.305.747.586 1.046a1 1 0 0 0 .369.24c.312.099.15-.393.451-.131.15.114-.257.194.057.394.315.213 1.31.384 1.692.408.382.033.201-.272.234-.287.194-.087.919-.177.983-.177q1.23.042 2.448.067c.116.007.153-.004.172-.003.02.002.077-.041.128-.164.104-.246.137-.663.129-1.075-.023-1.038-.246-2.134-.755-3.03a2.8 2.8 0 0 0-.568-.678c-.169-.149-.268.172-.296.152-.64-.396.338-.61.031-1.19-.296.54-.494.238-1.031-.008-.262-.117-.246.166-.28.173-.526.108-.563-.423-.594-.544-.097-.437-.555-.197-.634-.486-.088-.289.469-.42-.077-.65-.235.136-.063.824-.499.74-.966-.184-2.324-.722-3.578-1.177-.591-.259-1.026-.025-1.364.36-.135.155-.251.315-.365.472-.398.592-.486 1.011-.713 1.578-.445 1.305.085.905.143 1.76.085.862-.89.34-1.127.439-.235.1-.021.262-.157.406-.137.146-.257-.209-.335.158-.083.372.259 1.407.49 1.54.46.276.957-.094.834.668l-.022.092c-.009.04-.287-.083-.307.076-.029.37.032.597.351.8.318.197.796.293 1.266.355.705.09 1.421.118 2.134.127.232.002.057.325.195.329 1.44.008.868-.44 1.493-1.133-.019.77.5 1.16 1.566.879.634-.174.433-.463.761-.806.097-.103.6-.03.629-.205.089-.57-.492-.958.594-1.113.049-.007.002.307.164.265.703-.185.886-.498 1.288-.832a1 1 0 0 1 .354-.084c.225-.026.659.118.854.423.198.316.175.435.194.562.006.127.002.166-.003.233-.02.215-.047.313-.073.424-.053.21-.12.392-.216.589-.454.828-1.172 1.755-2.432 2.645a1.3 1.3 0 0 1-.635.171 1.16 1.16 0 0 1-.655-.209c.275-.733-.173-1.338-.866-1.64-.185-.699-.368-1.408-.465-2.02-.035-.205.24-.149.257-.182.244-.472-.272-.596-.394-.557q-.033-.007-.031.002a.3.3 0 0 0 .044.047c.045.014.06.124.405.104a.54.54 0 0 0 .384-.294c.048-.11.046-.174.048-.218-.002-.086-.014-.111-.014-.116l-.008-.035c-.003-.015.008.004.016.013l.065.095.145.21q.145.213.285.425c.187.283.366.56.558.822.374.514.848 1.033 1.414 1.16-.033-.037-.194-.116-.378-.074-.067.01-.258-.065-.423-.018-.159.037-.21.124.021.078.016-.002.078.063.144.096.063.027.152.067.191-.197.028-.223.07-.609-.036-.919-.133-.434-.713-.885-1.089-.774-.046.012-.132.1-.06.156.081.054.237-.034.242-.037.016-.006-.03.055-.143.16-.046.046-.22.01-.306.094-.248.316.332.276.032.731l-.014.024c-.342.49-.053 1.623 1.127 1.86.031.007.326-.182.57-.21a.4.4 0 0 1 .173.02c.447.178 1.155.348 1.678.256.247-.043.034-.305.075-.318q.15-.045.285-.098c.685-.24.908-.763 1.076-1.49.127-.587.196-1.242.22-1.999.012-.245-.229-.749-.229-1.338a1 1 0 0 1 .013-.102c.031-.062-.054-.048.146-.25.077-.064.254-.044.303.002.04.029.053.046.069.066.031.04.036.056.045.076.018.041.025.07.033.1a.9.9 0 0 1 .009.322c-.136.785-1.729.43-.972 1.925.283.51 1.63.852 1.967 1.636.024.067.14.013.157-.028a2 2 0 0 0 .093-.127 3 3 0 0 1 .216-.27c-.027-.701-.037-1.328-.225-2.018-.09-.281-.284-.615-.649-.74-.361-.121-.717-.01-.989.15-.612.433-.849.71-1.372.544-.391-.107-.786-.227-1.197-.344-.096-.027-.609.295-.827.176-.319-.175-.38-.48-.596-.616-.904-.57-1.838-.93-2.771-1.263-.36-.107-.167-.332-.652-.403a.8.8 0 0 0-.239.014c-.377.091-.602.316-1.067.506-.137.065-.311.111-.496.245a1 1 0 0 0-.398.7c-.063.277-.045.599.098.879.579-.314.809.125 1.548.444.14.059.144-.218.215-.201.284.056.405.346.698.355.07.002.175-.196.236-.207.509-.104.98.61 1.081.736.354.475.668.265.992.494.331.228-.263.233.148.429.65.306 1.494.502 2.265.651q.387.074.753.093c.404.01.127-.293.185-.299.618-.04 1.427-.103 1.535-.642a.42.42 0 0 0-.062-.279c.58.165.779-.022.746-.18a.55.55 0 0 0-.168-.27.4.4 0 0 0-.163-.108c-.077-.005-.033.058-.044.102a.85.85 0 0 1-.24.539c-.059.064-.767-.145-.707-.506a.8.8 0 0 1 .095-.245c.058-.095.09-.168.272-.356.085-.061.147-.194.533-.244a.76.76 0 0 1 .548.203.8.8 0 0 1 .184.275c.093.269.064.379.061.507-.02.242-.065.44-.113.657-.018.076.008.363-.103.709-.112.41-.36.804-.427.863-1.021.808-1.326-.396-1.367-.418-.524-.546-1.322.08-1.61.078h-.004c-.972.05-1.733-.278-2.556-.334-.539-.042-.802.62-1.219.46-1.433-.616-1.362-1.55-3.183-1.91-.204-.06-.374.107-.574.107-.185-.008-.493-.173-.691-1.134a10 10 0 0 1-.079-.967c-.127-.757.219-1.647.429-2.145.052-.136-.122-.284-.003-.438.848-.945 1.517-.927 2.483-1.112l.113-.015c.963-.116 1.89.087 2.492.431.392.222.629.825.732.998.294.495.958.312 1.028.762.073.453-.683.668-.137 1.232.304-.505.644-1.008.958-1.512.634.35 1.208.668 1.775.894-.012.006-.082-.009-.219.003a1 1 0 0 0-.4.127c-.146.124.004-.022.601-.439.5-.302 1.224-.637 2.247-.399.391.112.414.063.451-.015.03-.068.093-.167.512.088.783.527 1.062 1.168 1.217 1.612.365 1.505.183 1.859.157 3.146-.014.12-.021.25-.088.508a2.28 2.28 0 0 1-.802 1.214 2.3 2.3 0 0 1-1.224.463 2.3 2.3 0 0 1-1.267-.295 2.3 2.3 0 0 1-.521-.407c-.319-.328-.422-.515-.525-.66-.104-.157-.177-.275-.246-.384-.138-.223-.25-.41-.356-.591a7.6 7.6 0 0 1-.516-1.025c.24-.314.253-.722.189-1.13a5 5 0 0 0-.137-.58c-.022-.074-.057-.17-.041-.125.008.02.009.032.066.141.037.061.036.09.21.314.091.106.186.23.463.42a2.13 2.13 0 0 0 1.063.354c.471.048 1.079-.18 1.31-.356.477-.33.631-.644.731-.834.104-.227.098-.242.122-.315a1.7 1.7 0 0 0 .065-.35c.004-.126-.003-.05-.005-.026-.014.233-.193.247-.243.453-.182.817.396.418.498.642.411.995-.841 1.074-.965 2.313l-.009.072c-.005.037.145.303.252.647.114.336.146.785.12.892-.16.681-.332.733-.395.657-.086-.07-.145-.205-.462.132-.566.57-1.215.775-1.66.88-.544.122-1.05.201-1.733.293-.323.056-1.259.34-1.88-.182a1 1 0 0 1-.101-.097c-.071-.081.074-.277.011-.32-1.053-.806-1.454-.273-2.282-.722-.412-.248-.734-.816-.861-1.37a2.8 2.8 0 0 1-.038-1.128c.106-.438.177-.28.227-.04s.122.564.148.575c.591.22.103-.522.129-1.384.364-.076.532-.345.608-.612.064-.252.096-.628-.361-.463-.051.02-.165.291-.2.53-.041.243-.032.46-.047.545-.195-.204-.351-.505-.297-1.005.025-.46.508-1.377 1.449-1.682 1.429-.376 1.987.218 2.385.736.185.29.083.437.134.614.04.192.247.328.758.973q.07.094.13.163c.342.45.687.142.951.785.139.394.192.805.123 1.317-.046.264-.085.534-.337.997-.143.224-.324.573-.942.896-.65.356-1.581.15-1.897-.08-.833-.57-1.213-1.178-1.66-1.622-.3-.314-.24.188-.452-.026-.566-.587-.752-1.208-1.27-1.902-.053-.078-.19.28-.358-.03-.046-.1-.05-.058-.188-.442l-.032-.108c-.013-.055-.018-.043-.055-.255-.009-.194-.122-.443.131-1.186a2.28 2.28 0 0 1 2.712-1.372c.64.195.789.4.871.45q.073.06.118.104c.063.06.104.103.138.14.113.128.124.148.169.206.387.543.452.811.557 1.08.09.26.148.476.199.681.101.41.166.767.232 1.106.064.335.128.655.194.904.032.123.069.23.079.26.003.013.003.008-.043-.054-.05-.057-.128-.194-.451-.39-.2-.121-.59-.256-.969-.233a1.7 1.7 0 0 0-.793.231c-.16.099-.141.093-.132.072.016-.024.055-.074.097-.132.086-.12.192-.279.295-.44.209-.324.411-.666.572-.903.101-.149.21-.303.296-.422.043-.057.081-.114.087-.092.001.026-.009.021-.049.278-.009.084-.02.132-.016.341.03.221-.038.407.33 1.053.354.624 1.277 1 1.754.955.369-.007.558-.079.703-.132-.982.24-2.2.517-3.03.85-.798.317-.541.534-.848.827-.608.576-2.055.179-2.237.095-.004 0 .727-.212.303-.28-.287-.258-.294.277-.303.28-.122-.033-1.648.106-1.958.164-.166.04-.055.308-.144.323-.604.106-1.228.164-1.866.163-.673-.03-1.417.02-2.621-.6-.591-.311-1.278-.992-1.583-1.73a4.1 4.1 0 0 1-.328-1.846q.023-.408.065-.82c.007-.034.311.03.323-.05.188-1.14-.12-1.902-.201-2.93-.078-1.026.198-1.887.9-2.366.126-.529.447-1.201 1.011-1.845.191-.18.448-.436.681-.63.657-.538.542-1.108.608-1.183 1.05-.958 2.698-.998 3.536-.702.747.233 1.416.575 2.375.943.752.281 2.301.811 3.179 1.214.698.313 1.03.67 1.705 1.053.094.055.165-.222.198-.21.926.32.163.553.233.759.215.724.342 1.073 1.012 1.95l.163.216c.157.189 1.322.528 1.523.989.249.575-.135.441.095 1.03.017.052.221-.007.289.381.071.418.119.848.141 1.301.01.598.078 1.255-.25 2.383-.174.55-.549 1.347-1.332 1.952-.781.61-1.686.777-2.285.786q-.34.006-.68.015c-.21.004.065.329-.242.34-1.448.038-3.054.016-4.791-.534-.436-.149-.099-.301-.177-.391-.239-.276-.605-.343-.991-.401-.38-.052-.785-.114-.888-.174a4.2 4.2 0 0 1-.996-.769c-2.426-2.86-1.982-5.057-2.448-7.604-.028-.147-.692-1.308-.122-1.807.037-.034.613-.507.254-.957-.022-.028-.33.263-.268-.272.034-.283.016-.658.054-1.06.038-.392.128-.869.415-1.392.102-.178.332-.453.675-.927.334-.444.909-1.295 2.001-1.909a4 4 0 0 1 1.108-.5c.589-.166 1.201-.193 1.614-.086.153.035.272.135.313.343.025.127-.238.818.609.668.163-.03-.05-.263.355-.252.623.017 1.335.439 2.166.368.142-.015.854-.305 1.169.214.049.081-.166.265.056.376 1.048.526 2.282.866 3.327 1.624.366.27-.026.505.319.828.349.323 1.069.922 1.575 1.091.515.175.463-.69 1.121-.207a9.5 9.5 0 0 1 1.88 1.896c1.272 1.714 2.332 3.575 3.467 5.49.222.38.227-.055.566.506.309.52.675 1.13 1.052 1.89.188.385.378.796.561 1.327.155.571.446 1.042.308 2.531-.058.424-.233 1.764-1.073 2.839-.835 1.099-1.939 1.588-2.691 1.789-.35.07-.699.13-1.014.16-1.576.151.151-.777-1.014-.53-.563.122-.932 1.027-1.068 1.095-1.291.669-2.382.651-3.813.975-.304.064.041.32-.224.369-.913.168-1.989.08-3.082-.09-.495-.086-.456.159-.934.005-1.142-.379-2.206-1.145-2.851-2.193-.052-.09.624.244.058-.414a5.6 5.6 0 0 1-.754-1.282c-.26-.63-.509-1.297-.891-1.88-.172-.264-.673-.095-.558-.85.026-.162.673-.186-.081-.755-.128-.082-1.209-1.178-.886-1.938.082-.198.494-.728.35-1.081-.022-.049-.262.205-.344-.102-.279-1.087-.366-2.281-.441-3.484-.019-.324-.319.157-.335-.333-.048-1.35.301-3.103.855-4.404.204-.48.311-.058.349-.086.597-.405.212-.936.268-1.141.173-.608.461-1.091.782-1.532.389-.544 1.055-1.33 2.08-1.907.544-.288.038-.346.139-.422 1.105-.682.407.096 1.096-.05.692-.105 1.241-.095 1.729-.083.691.025 1.371.04 2.033.078.39.024-.018-.336.337-.308 1.077.108 2.15.215 3.638.89a11.4 11.4 0 0 1 2.782 1.912c.297.282-.057.311-.027.407.191.653 1.143.83 1.32.943.787.48.849.893 1.355 1.48.955 1.125 1.77 2.524 2.343 4.003.98 2.242 1.294 5.976-.356 8.435a7 7 0 0 1-.205.319c-2.395 3.212-4.288 5.81-8.883 7.742-.321.105.106.314-.181.408a7.6 7.6 0 0 1-1.851.34c-2.088-.034-4.211.837-8.09-.92-.365-.22.002.389-.61.007a5.7 5.7 0 0 1-1.09-.942 12 12 0 0 1-.991-1.22c-.208-.3.315-.116.1-.416-.5-.703-1.105-1.449-1.712-2.205-.258-.326-.15.372-.469-.073-1.007-1.436-1.994-3.19-2.254-5.438-.297-2.244.556-4.734 1.896-6.266q.203-.234.417-.462c.168-.179.801.042 1.017-.426-.115-.141-.279-.271-.417-.404 1.707-2.087 3.54-4.173 7.088-5.25.687-.2 1.946-.31 2.915-.007.962.282 1.537.659 2.034.973.964.645 2.321 1.43 3.512 2.965.187.256.13-.404.502.118a6.7 6.7 0 0 1 .949 2.042c.478 1.82.897 3.696.644 5.942-.039.276-.616.118-.575.925.026.131-.076 1.428-.1 1.863.001.06.359-.141.209.354a6 6 0 0 1-.632 1.37c-.856 1.48-2.702 2.354-3.89 2.496-1.207.187-2.319.125-3.517-.243-.459-.154.114-.302-.203-.418l-.029-.01c-1.028-.383-2.176-1.103-2.896-2.156-.272-.396-.559-.846-.765-1.539-.208-.646-.268-1.858.368-2.786q.132-.171.275-.33c.746-.8.954-.176 1.679-.312.099-.02.51-.505.756-.331.602.435 1.045 1.16 1.711 1.596.071.047.173-.075.255-.121.077-.042.134-.019.205.204.013.02-.158.424-.115.6.03.117.345.2.353.39.011.188-.29.171-.316.465-.019.289.309.38.109.802zm-6.856-13.803c.425.421.801-.559.174-.48-.03.004-.196.46-.174.48m8.247 7.27c.359.313.879-.967-.023-.718-.377.087-.318.173-.213.309.111.133.198.35.236.409m-5.653-2.265c.732.6 1.487-.696.292-.772-.077-.003-.342.738-.292.772m.3 8.113c-.009.002-.056-.684-.037-.719-.133-.234-.285.062-.266.368.016.304.171.525.303.35m.272-3.442c-.165-.268-.923-.345-.732.01.163.296.946.335.732-.01m-4.437-4.806c.013-.013 0-.307-.087-.296-.282.045-.161.46.087.296m9.364 5.006a3.6 3.6 0 0 1 .116-.784l.016-.057.012-.047c.003-.01.004-.021.014-.047.01-.012-.002-.051.103-.13a.26.26 0 0 1 .242-.012c.076.044.061.044.08.062.044.056.042.074.049.09.01.04.006.037.008.051-.12.615-.343 1.009-.542 1.14-.202.136-.472-.265-.46-1.004.001-.003.002-.003.004.008l.017.071c.007.025.015.057.043.12a.8.8 0 0 0 .162.23c.022.02.035.033.074.063.054.04.127.084.22.114a.78.78 0 0 0 .59-.05.74.74 0 0 0 .263-.229c.08-.114.098-.193.099-.193.01-.028.014-.046.018-.062.021-.108.01-.076.01-.092-.003-.012-.01-.008-.016-.01-.007 0-.015-.003-.025.013-.003.006-.005.004-.01.026l-.013.044-.024.07c-.015.038-.03.089-.104.188a.7.7 0 0 1-.646.264.7.7 0 0 1-.431-.234c-.086-.103-.102-.158-.119-.198-.029-.079-.027-.094-.028-.104a.2.2 0 0 1-.001-.042c.123.04.389.6.44.25a1.1 1.1 0 0 0 .008-.315c.008.017-.029-.054.031.08a.2.2 0 0 0 .039.045c.005.013.129.087.224.049.173-.083.135-.14.149-.144l.008-.025.002-.011a1.4 1.4 0 0 0 .023.176q.023.109.057.217c.046.144.101.286.145.429.087.287.127.583-.05.931-.075.147-.804-.84-.799-.944zm-8.156-8.584c.006.015.398.146.411.136.312-.253-.482-.52-.411-.136m9.241.707c.008.031.733.586.768.59.741-.135-.796-1.318-.768-.59m-5.082 10.852c-1.02-.47-1.099-1.12-.844-1.596.06.233.13.469.233.722.119.252.191.529.611.874m46.046.901c.407-.692.328-1.45.269-1.635-.061-.225-.071-.175-.013-.076-.058-.09-.294-.205-.323-.152-.024.016.023.055.086.086.112.05.045.233.147.27a.5.5 0 0 0 .283-.002c.076-.019.07-.03.034.04-.02.045.164.278.155.312-.018.06-.054.141-.029.126.073-.066.194-.518.268-1.062.208-1.476-.017-3.378-.377-5.185 0-.455-.791-1.348-2.103-2.236a4 4 0 0 0-.514-.335c-.006.003.174-.04-.057.005-.657.156-1.58.775-2.377 1.532-.818.762-1.771 1.755-2.527 2.857-.297.425-.501.874-.585 1.309-.03.16.246.132.258.167.221.497-.256.247-.366.552-.433 1.208.137 2.901 1.046 4.123.387.524.459-.302.581.398.01.05-.311.066-.232.232.178.38.707.99.903 1.263.375.53.449.609.859 1.102.129.157.265.333.4.518.159.27.502.544 1.051.604.147.014.012-.295.243-.304.219-.003.907.058 1.17.117.254.065.15.286.196.336.391.426 1.32-.22 1.443-.244q.527-.09 1.06-.141c1.004-.116 2.438-.842 3.564-2.028 1.03-1.08 1.9-2.498 2.68-3.75l.261-.42c.618-.977.827-2.1.502-3.471-.039-.158-.318.1-.366-.087a12 12 0 0 0-.322-1.02c-.619-1.713-1.48-3.272-2.624-4.632-.139-.163.263-.182.131-.362-.435-.588-1.098-1.372-1.88-1.745-.569-.269-1.319-.204-1.747.315-.609-.135-1.375-.225-2.048-.33a7 7 0 0 1-.574-.122c-.299-.077-.188-.474-.437-.189-.041.066.186.241.141.308-.049.079-.136.206-.24.4-.317.58-.604 1.21-.694 1.851-.024.182.228.204.257.265.229.483-.485 1.037-.551 1.202-.501 1.16-.382 2.123-.304 3.293.021.274.325-.076.358.183.17 1.338.431 2.726.682 4.065.055.297-.297.116-.283.263.07.657.624.62.726 1.226.023.129-.229.148-.246.18-.257.5.42.578.467.655.08.129.151.266.207.39.291.622.291 1.323 1.092 1.55.101.02-.014-.336.249-.27 1.898.394 4.721-.784 7.342-1.525a.5.5 0 0 1 .168-.024c.097.025.086.143.078.208q-.01.035-.001.042l.019.009c.226.138.346.027.371-.105.03-.134-.026-.287-.008-.317.163-.267.398-.563.424-1.178-.01-.079-.149-.342-.458-.462-.727-2.704-2.795-5.474-4.438-8.15-.61-.987-1.446-1.868-2.405-2.707-.043-.036.2-.23.113-.3-1.069-.842-1.094-.306-2.107-.192-.249.033-.59-.853-.633-.922-.134-.254.248-.566.193-.628-.48-.496-.92.878-1.683.592-.023-.01.17-.222.114-.271-.174-.153-.412-.126-.582-.282-.389-.36-.338-1.083-1.183-.928-.108.022-.219.843-.923.58a15 15 0 0 0-.521-.172c-.138-.051-.225-.026-.113-.056.119-.044.166-.137.135-.125-.081.038-.295-.12-.303-.13-.276.176-.427.37-.584.41-.157.059-.328.055-.618.277-.344.275-.031.382.295.462.219.054.446.101.494.187.117.215-.218.913-.325 1.094-.108.175-.265-.058-.329.1-.41 1.06.592.482.777.836.449.805-.445 1.43-.476 2.2-.008.204.185.023.22.198.142.691-.084 1.164.341 1.885.07.13.745.566.5 1.051-.034.073-.306-.002-.249.29.073.395.348 1.048.677 1.356a1 1 0 0 0 .08.062c.238.133.241-.339.415-.073.105.122-.273.158-.03.384.246.247 1.182.467 1.543.499.36.043.2-.266.232-.28.186-.081.871-.16.932-.159a85 85 0 0 0 2.438.086c.092.005.08.01.094.019.015.008.08-.06.126-.192.097-.267.127-.675.123-1.08-.015-1.038-.212-2.135-.694-3.043a2.6 2.6 0 0 0-.349-.486c-.143-.156-.282.146-.306.124-.557-.416.41-.562.179-1.148-.347.507-.5.201-.994-.065-.239-.126-.25.152-.284.158-.51.086-.5-.436-.52-.557-.061-.436-.516-.213-.573-.5-.065-.29.48-.401-.032-.648-.233.13-.114.815-.525.721-.924-.21-2.22-.784-3.418-1.259-.263-.114-.426-.133-.617-.068-.191.067-.388.248-.525.42a6 6 0 0 0-.33.467c-.358.583-.435.987-.644 1.532-.415 1.256.104.868.174 1.69.094.829-.886.326-1.122.42-.234.097-.019.25-.155.39-.135.138-.257-.2-.333.15-.081.355.262 1.345.493 1.475.484.279 1.011-.126.806.772-.012.052-.281-.123-.312.077l-.009.059c-.067.416-.033.726.213.938.258.226.744.342 1.217.408.591.083 1.192.114 1.793.125.221.004.056.325.187.33 1.382.01.83-.44 1.407-1.132.001.767.509 1.156 1.526.86.605-.182.4-.467.701-.814.087-.103.576-.04.595-.214.061-.568-.517-.943.517-1.117.046-.007.019.304.17.26.59-.174.784-.442 1.086-.737.113-.042.174-.11.516-.085a.96.96 0 0 1 .781.67c.09.352.047.429.049.536a3 3 0 0 1-.05.395 2.8 2.8 0 0 1-.209.656c-.396.769-.997 1.63-2.179 2.543-.188.118-.518.246-.873.167a1.16 1.16 0 0 1-.642-.394c.517-.606.059-1.252-.608-1.539-.153-.665-.319-1.347-.395-1.937-.027-.199.245-.14.264-.172.275-.48-.304-.584-.39-.56l-.016-.006c-.003-.002-.009-.006 0 .007a.3.3 0 0 0 .035.04c.03.004.024.107.366.131.189.008.407-.181.441-.279.056-.11.056-.178.06-.223-.006-.168-.014-.12-.015-.145l-.003-.016q.001-.003.007.005c.014.02.035.054.056.088l.131.207q.132.213.257.425c.169.283.328.559.5.823.336.513.779 1.047 1.316 1.17a.43.43 0 0 0-.265-.101c-.075-.012-.327-.123-.557-.031-.218.08-.266.193-.038.157.016-.001.078.06.145.09.063.025.148.076.191-.178.034-.232.095-.654-.01-.995-.113-.402-.585-.816-.924-.744-.05.005-.173.124-.034.173.119.024.25-.08.248-.083.008-.01-.042.04-.15.124-.05.041-.221-.003-.312.071-.272.295.33.28-.042.726a1 1 0 0 0-.095.16c-.265.486-.004 1.45 1 1.725.037.012.439-.227.689-.162q.023.007.045.016c.41.201 1.085.392 1.587.3.236-.043.027-.304.066-.317q.145-.046.275-.102c.625-.241.813-.784.976-1.49a11.4 11.4 0 0 0 .216-1.876c.015-.262-.279-.849-.219-1.46a1 1 0 0 1 .032-.139c.017-.031-.005-.047.093-.161a.24.24 0 0 1 .384.068c.046.118.031.177.023.248-.147.763-1.724.409-1.025 1.832.304.57 1.918.838 1.877 2.006.018.03.049.098.174.098.122-.015.154-.071.185-.093l.129-.123c.054-.896.032-1.582-.137-2.405-.078-.266-.222-.594-.581-.75-.362-.147-.726-.016-.977.15-.564.439-.725.715-1.202.572q-.4-.11-.819-.232c-.09-.025-.596.296-.804.176-.304-.176-.348-.478-.551-.615-.845-.576-1.723-.958-2.591-1.34-.335-.128-.131-.34-.59-.442a.8.8 0 0 0-.366.028c-.302.1-.506.267-.902.418-.147.064-.343.102-.553.243a1.06 1.06 0 0 0-.452.763c-.047.218-.04.461.047.687.608-.257.782.192 1.47.548.131.066.16-.206.228-.185.267.067.357.356.638.376.068.004.183-.187.242-.197.489-.09.893.626.986.754.315.48.626.275.927.508.308.232-.262.229.125.43.59.301 1.357.502 2.068.654.28.06.56.092.826.097.394-.004.112-.297.168-.305.513-.063 1.141-.15 1.322-.575a.42.42 0 0 0-.089-.454c.517.052.712-.1.711-.236 0-.073-.042-.147-.129-.232-.046-.038-.096-.106-.225-.117-.131.016-.122.107-.125.153.023.22.069.46-.181.757-.056.066-.763-.132-.73-.468a.8.8 0 0 1 .106-.298c.069-.116.097-.195.305-.436.063-.059.112-.14.348-.23a.74.74 0 0 1 .505.02.73.73 0 0 1 .319.262c.172.298.132.38.152.495.012.203.001.355-.003.52-.001.1.148.593-.008 1.096a1.9 1.9 0 0 1-.217.537c-.453.53-.878.432-1.099.258-.231-.181-.327-.457-.356-.48-.561-.504-1.319.143-1.603.134l-.102.001c-.893.017-1.595-.299-2.364-.366-.52-.051-.801.603-1.203.433-1.381-.661-1.254-1.568-3.028-2.068-.199-.08-.38.075-.581.054-.183-.023-.48-.232-.566-1.176-.002-.05-.005-.343.012-.698-.088-.78.338-1.717.577-2.249.051-.126-.119-.279-.004-.42.769-.832 1.444-.875 2.375-.995l.163-.014c1.023-.073 1.928.196 2.493.57.355.234.533.833.619 1.005.245.496.89.323.928.765.044.448-.695.651-.198 1.214.316-.497.667-.992.991-1.488.487.285.929.54 1.356.73-.038-.004-.148-.032-.338-.016a1.14 1.14 0 0 0-.51.173c-.165.15-.021.003.545-.426.39-.258.906-.535 1.699-.52.809-.005 1.658.584 1.969 1.072.319.498.3-.174.593.369.065.138.114.263.155.385.266.917.193 1.287.189 1.817-.01.252-.026.498-.047.78-.011.144-.021.29-.045.491-.014.102-.027.214-.073.407-.028.104-.05.217-.167.472-.08.146-.125.304-.479.66a2.2 2.2 0 0 1-.99.54 2.22 2.22 0 0 1-1.429-.136c-.47-.23-.606-.406-.762-.572-.328-.387-.392-.55-.495-.715-.09-.156-.159-.281-.226-.401l-.357-.635c-.221-.393-.42-.763-.553-1.13.233-.268.276-.618.242-.972a3 3 0 0 0-.093-.5c-.016-.061-.047-.15-.023-.079.008.02.021.064.09.194.033.048.1.229.421.532-.011.014.924.832 2.065.46.246-.068.524-.233.612-.3a2.15 2.15 0 0 0 .607-.661c.26-.502.192-.47.231-.582a1.5 1.5 0 0 0 .036-.234c.005-.112 0-.032 0-.003-.001.04-.002.09-.005.14-.011.266-.191.263-.241.466-.189.788.392.405.493.62.401.94-.825 1.026-.963 2.157q-.008.055-.014.114c-.005.036.147.288.264.61.123.316.178.736.158.837-.117.644-.279.705-.348.632-.089-.066-.156-.198-.445.14-.507.573-1.166.835-1.612.948a12 12 0 0 1-1.787.3c-.306.042-1.131.261-1.746-.156a1.1 1.1 0 0 1-.251-.233c-.065-.086.094-.27.035-.318-.973-.878-1.412-.384-2.186-.89-.322-.235-.561-.685-.665-1.146-.134-.583-.039-1.133.018-1.31.136-.413.196-.258.229-.027.034.233.076.543.1.555.565.24.155-.483.228-1.316.368-.054.55-.303.645-.568.08-.249.159-.64-.321-.498-.055.018-.194.293-.244.53-.057.243-.06.452-.08.536-.169-.196-.299-.47-.248-.913.035-.407.408-1.216 1.307-1.57 1.667-.483 2.224.28 2.588.86.151.305.035.44.065.62.018.192.206.35.633 1.017l.009.015c.329.66.717.259.968.913.111.35.153.718.09 1.18-.041.24-.075.482-.295.916-.13.212-.265.539-.879.901a1.98 1.98 0 0 1-2.023-.077c-.833-.626-1.15-1.251-1.571-1.71-.272-.315-.249.174-.442-.04-.513-.586-.653-1.186-1.126-1.879-.052-.086-.201.277-.361-.056l-.057-.135c-.014-.035-.019-.046-.046-.125a2 2 0 0 1-.064-.218c-.009-.042-.014-.046-.04-.204-.015-.144-.058-.322.015-.76.043-.217.121-.527.382-.9.195-.333.903-.878 1.514-.934 1.246-.096 1.503.33 1.717.431.224.178.178.151.23.197.128.128.178.194.223.25.051.066.083.112.113.156.348.536.4.785.493 1.044.08.25.13.457.175.655.087.395.143.742.198 1.073s.108.643.168.906c.029.129.062.247.083.312.001.053.091.102-.184-.21-.12-.112-.384-.383-.969-.49a1.83 1.83 0 0 0-1.274.257c-.172.116-.153.112-.15.095.01-.02.042-.067.077-.12a12 12 0 0 0 .248-.411c.177-.304.349-.621.492-.847.105-.165.218-.333.315-.475.047-.067.093-.137.11-.14.008.007.006.007-.02.173.005.13-.107.182.07.914a2.08 2.08 0 0 0 1.686 1.435c.417.047.535.004.704-.024.153-.033.265-.074.352-.111-.882.236-1.983.53-2.736.861-.761.332-.504.544-.794.842-.574.586-2.003.208-2.18.124-.003 0 .706-.219.29-.282-.284-.256-.281.278-.29.282-.119-.03-1.612.112-1.919.164-.163.04-.056.307-.143.322a9.5 9.5 0 0 1-1.547.13c-.656-.034-1.442.031-2.67-.714-.601-.376-1.18-1.114-1.406-1.778a4.3 4.3 0 0 1-.251-1.658q.024-.535.083-1.075c.007-.033.31.03.323-.047.188-1.085-.125-1.81-.218-2.792-.092-.974.161-1.792.843-2.252.106-.504.395-1.142.907-1.774.178-.179.415-.433.631-.629.608-.543.468-1.115.532-1.192.951-.99 2.734-1.086 3.553-.752.74.245 1.385.609 2.327 1.01.719.3 2.206.879 3.051 1.333.671.352.975.731 1.621 1.177.088.063.184-.207.215-.193.903.417.117.575.167.785.125.622.194 1.012.556 1.658.087.16.194.333.324.53.133.187 1.252.548 1.418.982.209.545-.164.408.031.968.015.048.22-.001.27.365.043.328.072.663.085 1.014.009.568.055 1.182-.203 2.208-.144.504-.394 1.225-1.122 1.917-.727.705-1.791.98-2.445.978q-.392.005-.785.014c-.205.004.061.33-.237.34-1.42.021-2.974.029-4.836-.706-.473-.206-.088-.315-.168-.416-.243-.312-.646-.443-1.092-.622-.439-.167-.902-.42-1.004-.532l-.114-.123c-2.415-3.035-1.781-5.13-2.24-7.703-.024-.131-.678-1.236-.109-1.704.037-.034.613-.477.252-.909-.022-.026-.328.247-.27-.256.031-.263.011-.602.041-.972a3.3 3.3 0 0 1 .385-1.342c.093-.165.312-.418.61-.86.306-.408.703-1.246 1.848-1.989.04-.03.536-.388 1.172-.554.641-.177 1.281-.185 1.709-.07.156.032.276.133.31.35.019.127-.261.811.561.675.159-.026-.039-.263.352-.245.602.028 1.275.461 2.086.41.139-.011.847-.282 1.131.246.044.082-.174.259.037.375.998.555 2.193.942 3.172 1.754.343.288-.061.5.255.84.32.34.976.977 1.459 1.18.489.208.518-.65 1.123-.125.512.46.983.993 1.39 1.581 1.233 1.78 2.202 3.721 3.261 5.724.196.378.227-.047.528.511.262.494.576 1.08.894 1.803.158.364.319.76.468 1.255.128.525.355.997.239 2.293-.056.417-.169 1.586-.889 2.67-.716 1.114-1.86 1.749-2.647 1.978-.363.085-.728.16-1.058.198-1.522.181.113-.775-1.005-.507-.538.13-.87 1.038-.999 1.108-1.248.684-2.323.686-3.791.981-.316.057.032.32-.245.363-.952.143-2.12-.008-3.289-.367-.521-.171-.517.077-1.002-.173-1.166-.63-1.981-1.633-2.353-2.676-.03-.09.541.316.147-.374a5 5 0 0 1-.233-.505c-.285-.75-.494-1.631-.939-2.374-.154-.257-.661-.113-.501-.829.035-.153.681-.156-.037-.722-.122-.082-1.141-1.154-.786-1.869.09-.187.524-.681.393-1.02-.02-.046-.269.19-.339-.103-.239-1.04-.294-2.17-.359-3.308-.016-.306-.32.145-.332-.317-.038-1.274.281-2.918.774-4.156.182-.455.307-.057.343-.084.576-.39.164-.892.209-1.089.142-.605.41-1.088.711-1.534.342-.508.874-1.252 1.853-1.9.547-.334.023-.351.124-.436.572-.419.677-.349.729-.27.052.09.075.217.425.144.714-.135 1.273-.126 1.754-.115.691.026 1.367.045 2.032.095.386.03-.013-.336.34-.302.974.118 1.965.238 3.334.917a10.7 10.7 0 0 1 2.853 2.202c.267.294-.083.302-.062.399.128.651 1.045.875 1.208.994.728.508.752.913 1.197 1.504.796 1.072 1.458 2.352 1.933 3.69.875 2.243 1.159 5.73-.311 8.201-.066.12-.133.234-.204.35-2.177 3.146-3.741 5.723-8.227 7.828-.322.116.115.311-.174.414a6.8 6.8 0 0 1-1.792.357c-.971.061-2.045.154-3.341.124-1.253-.072-3.027-.09-4.904-1.564-.335-.291-.064.386-.614-.112a6 6 0 0 1-.406-.434c-.324-.358-.81-.958-1.142-1.505-.186-.305.319-.101.127-.406-.446-.715-.985-1.473-1.524-2.242-.23-.331-.178.356-.458-.094-1.875-2.606-2.821-7.954-.094-11.13q.206-.257.422-.507c.155-.177.792.024.975-.436-.122-.135-.292-.257-.436-.383 1.534-2.03 3.079-4.11 6.572-5.306.662-.22 1.994-.346 2.961-.003.957.314 1.478.701 1.934 1.016.95.7 2.376 1.61 3.465 3.372.158.272.174-.386.484.168.256.479.472 1.016.61 1.59.437 1.822.827 3.683.556 5.89-.038.26-.619.11-.569.868.023.125-.045 1.33-.038 1.734.005.055.347-.135.23.322a6.2 6.2 0 0 1-.597 1.463c-.708 1.396-2.518 2.44-3.727 2.589-1.202.208-2.314.142-3.513-.272-.431-.163.033-.277-.132-.395a.3.3 0 0 0-.063-.034c-1.009-.42-2.055-1.208-2.669-2.2-.25-.4-.511-.855-.688-1.522-.175-.631-.234-1.713.333-2.636a5 5 0 0 1 .272-.352c.687-.79.93-.19 1.636-.339.096-.02.469-.503.721-.34.619.41 1.103 1.104 1.786 1.511.073.045.164-.076.24-.122.072-.04.128-.018.214.194.016.018-.123.413-.069.583.037.113.352.187.372.37.024.182-.274.173-.281.458-.002.286.339.364.145.797zm-6.405-13.72c.394.427.796-.543.187-.476-.03.004-.208.455-.187.476m7.396 7.163c.192-.003.372-.128.553-.274.231-.19.434-.384.486-.55.056-.16-.127-.32-.573-.245a1.2 1.2 0 0 0-.379.135c-.397.235-.399.455-.347.619.059.163.172.313.26.315m-4.941-2.126c.652.637 1.481-.611.344-.75-.074-.008-.39.712-.344.75m-.053 7.942c-.007 0-.02-.649-.004-.679-.13-.223-.284.046-.279.334.002.286.14.505.283.345m.253-3.367c-.145-.269-.872-.368-.71-.01.143.3.902.36.71.01m-3.975-5.01c.014-.009.007-.298-.08-.285-.283.034-.171.439.08.285m8.512 5.285a3.4 3.4 0 0 1 .104-.711l.031-.11.018-.057.012-.041.01-.037c.003-.005-.002-.005.023-.052.014-.021.034-.065.118-.1.088-.038.208.019.227.045.066.07.056.087.065.104.01.043.005.036.006.05-.132.546-.359.897-.561.991-.202.11-.43-.273-.42-.862l.005.026c.008.026-.015-.012.047.158.022.046.042.11.148.228a.8.8 0 0 0 .669.233c.385-.072.491-.284.546-.358.1-.186.072-.17.084-.193l.01-.04q.012-.06.011-.065c.002-.028 0-.023 0-.021-.006.03-.023.053-.048.037q-.018-.012-.04-.034c-.008-.006-.016-.014-.025-.011-.006.011-.002-.023-.025.073-.006.02-.002.011-.025.076-.035.049-.006.157-.311.345a.67.67 0 0 1-.591-.01c-.168-.105-.143-.112-.183-.15-.166-.24-.114-.246-.13-.27a.1.1 0 0 1 0-.043c.13.091.326.453.375.17a1 1 0 0 0 .018-.222v.004c.007.01-.019-.017.037.084.02.02-.004.017.084.073.09.058.249-.006.272-.05.065-.083.046-.086.052-.09l.005-.02.001-.008-.001.017a1 1 0 0 0 .013.165q.019.111.054.22c.044.145.103.286.15.43.095.285.147.578-.037.926-.076.14-.804-.804-.799-.903zm-7.303-8.602c.005.016.375.153.388.143.311-.246-.441-.525-.388-.143m8.54.865c.006.03.651.61.683.616.735-.089-.641-1.334-.683-.616m-5.088 10.473c-.774-.464-.898-1.041-.604-1.498.122.457.147.855.604 1.498"/></svg>