<svg xmlns="http://www.w3.org/2000/svg" width="954" height="298" fill="none" viewBox="0 0 954 298"><path fill="#ca9c65" d="M24.556 60h77.371v178H24.556s-13.993-64.459-12.435-95.562C13.68 111.334 24.556 60 24.556 60m905.31 0h-77.371v178h77.371s13.993-64.459 12.435-95.562C940.742 111.334 929.866 60 929.866 60"/><path fill="#fdd9ad" d="M43.28 40h79.305v217H43.28s-14.343-78.582-12.746-116.5C32.132 102.582 43.28 40 43.28 40m863.03 0h-79.306v217h79.306s14.342-78.582 12.745-116.5S906.31 40 906.31 40"/><path fill="#fce6cb" d="M69.354 18s245.272 20.407 403.254 20.5C631.417 38.593 877.986 18 877.986 18s12.054 85.592 11.329 141c-.623 47.657-11.329 121-11.329 121s-246.821-11.566-405.378-11.5C314.879 268.565 69.354 280 69.354 280s-11.04-73.318-11.683-121c-.747-55.43 11.683-141 11.683-141"/><path fill="#403d3a" d="M187.43 205.105v-4.68q0-2.145-.39-4.095.975-1.755.195-10.53-.39-4.68-.78-7.605-.195-2.925-.195-4.095v-3.12l.39-1.95q.195-4.485.585-6.045.195-.585.975-1.56.78-1.17.78-2.34 0-8.775.78-18.72.975-10.14 1.17-18.915.195-6.825.195-10.92t.195-5.07q.195-2.535 0-5.46v-5.85q0-.585-.195-.78l5.07-4.095h16.965q2.73-.39 3.9-.195t1.56.585l4.29 3.12q1.755 2.145 2.925 2.535 1.365.195 2.145-.585.975-.975 1.755-2.34.78-1.56 1.56-2.925l10.335.585 15.405 6.435q.78.78 1.365 1.56.585.585 1.17.975l1.755 1.755q.975.78 1.365.78t3.705.975q3.51.975 6.24 5.46 2.145 0 4.29 1.365 2.34 1.365 3.9 3.12 1.56 1.56 2.34 3.12.975 1.365.585 1.56-3.315 3.12-2.145 5.46 1.365 2.34 3.9 3.315.78 3.315 3.12 4.68l3.51 1.755q0 .585.39 6.045.39 5.265 1.17 15.405.39 5.07.78 8.97.39 3.705.78 6.24.39 1.56.585 2.925.195 1.17.39 2.145t-6.63 11.115q-7.02 9.75-7.02 13.065h-10.335q-.78 0-1.95.78-1.17.585-2.34 1.365l-3.12 1.95q-.585.195-1.17.195t-1.365.195q-1.17.195-3.12.39-1.755.195-4.095.585-4.875.975-8.19 1.17t-5.46-.195q-.195-2.535-13.26 1.56-3.315.975-6.825 1.755-3.51.585-6.435.975-1.755.39-3.51.585l-3.12.39-4.29-.975q-1.17.195-2.34.585-1.17.195-1.56.195-.585 0-1.755-.39-.975-.39-1.755-.39-.39 0-1.755.195-1.17 0-1.56.39zm37.83-7.41q1.95-.78 4.095-2.145 2.34-1.56 3.9-.975h5.46q.39 0 1.755-.975 1.365-1.17 1.95-1.17.78 0 .78.78 0 .585 2.145.585.78 0 3.705-.78 2.925-.975 6.24-2.535 3.51-1.56 5.46-2.34 2.145-.78 2.535-.975.195-.39.195-.975.195-.585.585-1.365.39-1.17.78-2.73.585-1.56 1.56-3.705a549 549 0 0 1 2.145-7.215q.78-2.535.78-3.51l-6.24-23.01q0-1.365.195-2.145v-2.34q.195-1.56.39-3.705.78-8.385.975-8.385-.195-.195-1.365-2.145-.975-1.95-2.925-5.265a51.5 51.5 0 0 1-3.315-7.215q-1.17-3.9-1.95-3.9L239.69 99.61h-14.625q0 2.34-.975 2.73-.975.195-.975.585v7.215q0 2.145-.195 4.875v12.87q-3.315 1.755-3.705 4.095 0 1.755-1.755 5.46-.39.39-.39 1.365v3.9q.195.975-.39 3.51-.39.39.78 6.825 1.17 6.825 1.365 7.02-.195.975-.585 2.73-.195 1.755-.78 4.095t-.78 3.51-.195 1.56q0 2.34.585 8.385.195 3.12.195 5.46.195 2.145.195 3.12.39 1.56.585 3.12.39 1.56.78 3.315zM361.595 89.08v15.21q-2.34 9.165-3.9 16.185-1.365 6.825-2.145 12.675t-.975 11.115q0 5.265.39 11.115.39 7.02-.39 12.675a375 375 0 0 1-1.56 10.335q-.585 4.68-.78 8.97-.195 4.095 1.17 8.385l.975 4.875-3.315 5.655-25.935 5.07-7.02-4.485q.195-.78 2.145-2.145 2.145-1.56 2.145-3.12v-3.315q0-.975-.39-3.12-.39-.975.975-6.24 1.56-5.46 1.365-14.82v-6.825q.195-2.34.195-2.925.195-.78 0-.585 0 .195-.39.195.195-1.56.585-3.51l.78-4.29q.39-1.17.585-2.34t.39-2.535q.585-.585-.195-2.34-.585-1.755-1.365-2.73-.585-.975-.585-.78h.39q.39 0 1.17-.78.78-.975 1.56-3.705l-1.365-8.58q.39 0 .585.195.39.195.39-.195 0-.585-.195-2.145t-.78-4.875q-.78-6.435-.195-7.605.585-1.365 1.755-1.17.975-.78 1.56-1.56.78-.78.975-1.95t-.195-3.12q-.195-2.145-1.17-5.46-.975-2.925.195-5.85t1.365-5.85l4.095-4.095h7.215q4.485-.195 7.8-.39 7.02-.585 10.14-.585zm129.109 117.39-6.825 1.17q-2.34.39-4.875 0t-5.265-.39h-4.485q-1.365 0-2.73.195h-2.34l-4.29-2.925q.585-3.9-.39-5.655-.78-1.755-1.17-3.315-.39-1.17-1.56-3.705t-2.145-5.85q0-.585-1.95-3.51t-3.12-5.265l-2.34.975q-.975 0-2.145.585t-5.85.585q-.585-1.17-1.95-1.56-1.365-.585-3.12-.195-1.56.195-3.315 1.17-1.56.975-2.73 2.34l-7.995 1.17q-.78-1.755-1.755-2.73a14 14 0 0 0-1.755-2.145q-.78-.975-1.365-2.145t-.585-3.12q3.9-.975 4.485-2.535.78-1.56 1.17-1.365 1.17.585 2.145.585-1.365 0-.78-.39t5.265-1.95l14.235-1.755 2.925 2.145q3.12.78 4.68.39t2.145-1.365q.585-1.17.585-2.535.195-1.365.39-2.34.39-2.145-.975-3.51-1.17-1.56-3.315-2.73-.39-2.145-1.56-4.875-.975-2.925-2.535-6.825-1.365-3.705-2.535-7.8-.975-4.29-1.755-7.8t-1.17-5.85-.585-2.73q-2.73-1.755-4.485-.195-1.755 1.365-2.925 4.095-.975 2.73-1.365 5.85-.195 2.925 0 4.095-.195.39-.975 1.365l-1.755 1.755q-.975.975-1.755 1.95-.78.78-.975 1.17-.78 1.365-.39 2.925t-.585 2.73q-3.9 7.02-9.165 11.115-1.365 1.17-2.145 3.315a17.3 17.3 0 0 0-.975 4.485q-.195 2.34.39 4.68.585 2.145 2.145 3.51-1.95 1.17-3.12 2.535-.975 1.17-1.755 2.73-.585 1.365-1.17 3.12-.585 1.56-1.365 3.51-3.315 8.775-3.315 9.165l-2.73 5.655-2.535 10.335q.195 2.925-2.145 3.51-2.145.585-7.02.585-4.68 1.17-8.19 1.17-3.51-.195-2.34-3.705 5.07-12.09 7.41-17.94 2.535-6.045 2.535-9.165 0-.975.78-1.56.975-.78 1.56-1.17.195-.39 1.365-4.095 1.365-3.705 2.925-8.19l2.925-8.775q1.56-4.29 2.34-5.85 1.755-3.705 4.095-8.385 2.535-4.68 5.85-8.97 1.755-2.34 2.925-6.435 1.365-4.095 2.535-8.97t2.535-9.945 3.51-9.36q1.17-.39 6.825-8.58.39-.39.585-.78.39-.585.78-.975l24.96-1.56q.78.975 1.755 2.34t2.145 2.925q3.705 4.68 4.485 7.41t.975 3.705q-.39.585 4.095 13.26 1.17 3.12 1.95 7.02t1.17 7.41q.39 3.315.39 5.85 0 2.34-.195 2.535-.39.195 6.24 4.875 1.56 1.17 1.755 2.145.39.975 0 1.755-.195.78-.78 1.365t-.585.78l5.265 7.02 4.485 16.965q2.535 8.19 3.705 14.04 1.17 5.655 1.17 8.775 0 .39.195.585 0-.195.39.975zm49.828 1.755-2.34.78q-2.73.975-6.435 1.365-3.51.195-4.485.195-.585 0-2.73-.195-1.95-.39-2.925-.39-.585 0-1.56.975l-8.775-3.12v-1.755q.195-.78.39-1.755.39-2.73.585-5.07.39-2.535 0-4.68 1.56-1.56.39-9.555-1.17-8.19-1.17-10.335 0-.585.39-3.12t.78-4.485q.195-.585.78-1.56.78-.975.78-2.145-.39-5.655.39-9.165.975-3.705.585-7.41a3.37 3.37 0 0 1 .195-1.95q.39-.975.39-2.535v-12.48q0-3.51.195-7.995.195-8.775.195-11.7.195-2.925.585-4.095.195-1.95.975-3.12.975-1.17.975-3.9 0-.195-.78-1.17-.585-.975-1.56-2.535-.585-.78-.78-1.95t-.195-2.145q.195-1.17.195-1.95.195-.78.195-4.485a37.6 37.6 0 0 1 10.725-1.56q5.46 0 8.775-.39 1.17-.195 1.755-.39.78-.195 1.365-.195.585-.195 1.365-.195.975-.195 2.73-.195.78 1.95 2.145 4.29t2.145 4.29q2.535 3.51 4.875 3.315t4.29-1.755q2.145-1.56 3.51-3.315 1.365-1.95 1.755-1.95l22.035.195 16.77 11.505q.975.975 2.535 2.34 1.56 1.17 3.315 3.315 3.9 4.095 5.85 3.9l4.68 6.825q-.39.585-1.755 3.51-1.17 2.73-3.51 7.8-4.485 10.53-4.485 16.38l-3.9 2.34q-3.9 1.56-3.9 7.995-3.315-.39-10.92 2.535-2.145.975-4.68 1.365-2.535.195-4.68.39-1.365.195-2.73.195h-2.535l-2.145 4.875a12.9 12.9 0 0 0-5.265-2.34q-2.925-.585-5.85-.39-2.73.195-5.265.78t-4.29 1.365q-6.435 2.34-6.63 2.34h-1.17q.195.195.195.585-.39 1.95-1.365 4.68-.78 2.535-.78 3.51 0 1.17.195 3.315.195 1.95.39 5.265.195 3.12.195 5.265.195 2.145.195 3.315l.78 5.265q.39 1.56.585 3.12.195 1.365.585 2.925zm7.215-104.52v3.705q.195 2.145.39 4.875.975 12.09.585 14.43-3.9 2.34-4.68 7.02-.585 2.535-1.17 4.875-.585 2.145-1.365 3.705l-.39.39v3.12q.195.975.195 2.34l3.705 2.535 3.705-.975q0 4.29 10.53-.195 10.335-4.29 11.7-4.29h8.19q1.56-2.145 3.705-4.485 2.145-2.535 2.145-3.12l2.535-14.235-1.17-4.875L560.422 100h-8.58zm56.55 104.91q-.39-1.755-2.34-2.34-.78-.78-.585-2.145t-.39-1.755q-.195-.39-.39-.39t-.585-.195q-.195-.39-1.17-1.365-.585-.78-1.365-1.56-.78-.975-1.755-2.535-2.145-2.73-3.315-4.29-1.17-1.755-1.755-2.145-.78-.39-2.34-1.56t-2.145-1.365a5.2 5.2 0 0 1-.975-1.365q-.39-.78-.78-1.17t-.975-2.73-1.17-4.095q-2.145-1.95-6.435-7.02-1.365-1.365-1.56-1.755l2.535-3.705 9.36 4.68q.195.195 1.95 0 1.95-.195 4.095-.195 2.145-.195 4.095 0 2.145.195 2.73 1.17.78.975 1.95 1.365l2.34.78q1.365.195 2.145.39.975.195 1.17.78l3.9 7.215q.78.975 2.73 3.315 2.145 2.145 5.655 6.045 7.02 8.19 7.215 8.385l-.585 6.825-15.6 4.485zM732.943 86.35l8.385 3.315q0 2.925-.195 5.265-.195 2.145-.78 4.095-.39 1.56-2.145 5.265-1.56 3.51-2.535 9.165-.195 1.365-1.365 2.925t-2.73 3.12q-1.365 1.56-2.925 3.315-1.56 1.56-2.535 3.12-3.705 7.8-6.435 12.675t-3.9 7.995l-1.17 2.925-.975 5.46v8.385q0 1.17.195 2.535 0 2.73-.585 6.24-.39 3.315-1.17 6.825-.585 3.315-1.17 6.24-.39 2.73-.39 4.485l2.34 11.505-1.95 5.46-21.255 4.875h-1.365q-.78 0-1.95.195h-4.68l-6.241-5.655q1.171-1.17 1.171-5.655 0-1.95.195-2.73.39-.78-.39-2.73-.195-1.17.195-4.68t1.365-9.555q.39-3.12.39-6.24.195-3.315.195-5.85 0-2.73-.39-4.29-.195-1.755-.78-1.755a6.4 6.4 0 0 1-.78-.975q-.195-.585-.585-1.17-.585-.975-1.56-2.535a73 73 0 0 1-2.145-3.705q-2.145-3.705-3.51-5.07-1.17-1.365-2.34-1.95-.975-.78-2.34-1.365-1.365-.78-3.705-3.12-2.145-8.385-7.41-15.795a145 145 0 0 0-11.115-14.235q-4.095-4.485-6.045-7.8-1.755-3.315-4.485-5.46l-.78-8.775q1.755-1.17 3.9-1.56.975-.195 2.925-.78l4.29-1.56q2.34-.975 4.095-1.95t2.145-1.95l6.63.195a70 70 0 0 1 2.925 2.73q1.365 1.17 2.34 2.535 3.315 4.095 7.995 5.85 0 3.12 1.17 5.655 1.365 2.34 2.34 4.095 1.365 1.755 2.925 2.535 1.755.585 2.925 4.095 0 .39-.39 1.56t-1.17 2.535q-.585 1.17-1.365 2.34-.585.975-1.17.975t0 .39q.78.39 2.145.975 1.56.585 3.315 1.56 1.95.78 3.705 1.95 0 .39-.39.975-.195.39 0 1.17.39.78 1.365 1.95 1.17 1.17 4.095 3.12 2.73 2.145 2.925 3.51.195 1.17-.39 2.34-.585.975-.78 2.145t1.56 2.925q1.17 1.17 3.315 1.365 2.145 0 4.095-.39 2.145-.585 3.705-1.56 1.755-.975 1.95-2.145.78-2.535 1.365-4.68.78-2.34 1.56-3.9 2.535-2.145 3.315-3.705.975-1.56 1.95-4.29 1.17-2.535 1.755-4.68.78-2.145 1.17-2.34 1.365-3.9 3.51-8.19a48.4 48.4 0 0 0 3.705-9.36q.975-3.315 1.755-6.045.975-2.73 1.365-4.485z"/></svg>