<svg xmlns="http://www.w3.org/2000/svg" width="343" height="277" fill="none" viewBox="0 0 343 277"><ellipse cx="170.5" cy="138.5" fill="#fdd9ad" rx="161.5" ry="123.5"/><path fill="#ca9c65" d="M188.64 69.019c-1.74.182-3.66-1.217-5.034-2.73-.428-.47.258-1.786-.029-2.176-.541-.755-1.423-.27-1.944-1.129-.17-.29.776-2.419.581-2.673-1.082-1.383-2.553-1.196-3.824-2.068a60 60 0 0 0-5.766-3.488c-3.246-2.087-7.761-3.481-12.575-4.841-2.271-.642-4.959-3.061-7.599-2.435-.308.075-.358 2.11-.433 2.269-1.17 2.442-.418-1.591-.938-2.196-1.968-2.28-4.396-2.818-6.669-2.426q-.162.03-.323.065c-.973.226-.511 4.334-1.18 1.98-.047-.159.438-2.269.211-2.527-.51-.58-1.661-.325-2.086-.545-.816-.435-.968-.43-1.782-.546-1.097-.175-2.315-1.384-3.565-1.026-.267.083-.162 2.313-.607 2.643-.443.33-1.492.033-1.803-.521-.308-.555.021-2.264-.003-2.666-.182-3.391-1.906 1.107-2.068 1.207-3.081 1.667-5.321-1.19-8.03-1.39-2.053-.147-4.271.583-6.153.371-2.238-.26-4.101-1.514-6.086-1.29-.208.022.063 2.613-.177 2.645-.781.106-1.509.175-2.017.174-.246-.003-.439-.02-.453-.086.023-.088.074-.117 1.15-.636-1.036.09-2.057.026-3.181-.186-.303-.057-.955-2.264-1.325-2.439-2.161-1.093-7.067-3.51-2.851 5.538-1.166.242-2.581.662-4.598-.41-1.3-.687-2.078-3.145-2.245-1.767-.037.307 1.377 1.977 1.233 2.299-.608 1.356-2.16 1.557-2.575 3.21-.077.337 1.088 1.898 1.229 2.228 1.114 2.682-2.4-.589-2.793-.729-2.873-1.09-3.332.467-4.693 1.367-.313.206 1.572 2.071 1.325 2.346-.94 1.004-2.05 1.762-3.43 2.197-.436.086-.91.122-1.433.105-.406-.016-1.565-1.94-1.836-2.032-1.215-.348 1.36 2.985.301 2.697-.223-.053-1.42-1.539-1.577-1.68-2.494-2.187.335 1.538.344 1.67.056 1.86-3.984-.973-4.43.532-.042.176 1.98 1.538 1.764 1.923-1.405 2.563-3.658 4.557-6.9 6.247-.502.266-1.89-.948-2.098-1.037-3.281-1.307.601 1.332.683 1.546.501 1.687-3.55.98 1.053 4.24-4.12 3.938-2.916 10.007-9.503 14.205-.08.055-2.224-.797-2.372-.686-1.835 1.396 1.743 2.038 5.255 5.137.367.368-.459.488-1.538.453-1.326-.246-3.095-.679-3.315-.725-1.426-.302-4.448-1.948-4.74-1.968-2.322-.108 8.136 4.269 7.71 5.267-.03.024-1.891-.931-2.118-.93-.71.006-.062.595-.832.57-1.782-.06-6.937-2.015-4.38.158.333.279 6.32 2.632 5.646 3.434-.272.315-.88 2.001-1.465 2.296-.583.296-2.343-.852-2.44-.854-3.049.13-3.883-.796-7.861-1.829-3.959-1.043 4.922 2.708 5.792 3.399.868.688-1.6.663-2.415.558-.816-.105-1.891-.921-2.384-.912-3.227.07 4.096 2.549 5.291 3.615 2.82 2.541-4.037.327-5.096.927-.287.164 1.279.661 1.312.946.105 1.133-2.15.675-.795 2.562.224.301 3.683 3.011.596 2.134-.444-.129-1.937-1.127-2.477-.936-.807.278-1.652 1.093-1.417 1.944.172.634 3.043 1.465 1.948 1.603-.415.053-1.417-.836-2.192-.991a.9.9 0 0 0-.38-.008c-.786.172-1.302 1.345-1.473 1.808-.171.465 1.932 1.243 2.048 1.347.654.607 1.178 1.935 1.138 2.006-1.682 3.859-6.79 5.536-7.585 9.724-.065.326 2.113 1.23 2.124 1.291.365 1.421-4.76-2.247-6.966-2.54 4.27 2.118 3.293 2.122 3.399 3.043.055.445 1.78 1.127 1.932 1.244 2.228 1.785-1.16.45-1.86.19-2.58-.945.084.903-1.641.271-1.714-.625-3.817-2.379-4.132-1.707 1.411.98 5.612 2.569 5.987 3.406 1.43 3.147-3.498 4.995-4.607 6.324-1.109 1.331-1.084 1.965-2.078 2.537-1.815 1.072 1.426 2.008 2.264 3.68.852 1.649-6.144-2.534-7.77-3.198-1.628-.658-.107.32-1.05.054s-1.81-1.184-2.34-.941c-.533.247 1.671 2.776 3.229 3.751 3.307 2.047 7.183 3.388 5.386 3.786-.106.023-1.921-1.132-2.232-.992-2.384 1.113-3.442 2.99-5.427 4.227-.273.176-2.462-.787-2.653-.667a1.3 1.3 0 0 0-.463.498c-.55 1.086 3.056 1.485 6.81 2.909-5.794-1.26-9.49-1.392-9.724.141-.13.897 2.468 1.025 4.24 1.695.534.19-1.28.63-.069.809 3.963.54 8.426.318 6.62 1.303-.086.048-2.263-.16-2.398.013-.876 1.17 3.295 1.245 3.862 2.273.441.785-1.881 2.681-2.062 3.892-6.567 1.194-4.807 2.188-.228 1.548-.015.766.44 1.47.036 2.349-.137.304-2.035.692-2.227.782-2.986 1.443 1.402.481 1.616.573 2.159 1.153-.466 3.787 3.283 4.165.137.016 4.437-1.709 1.505.037-.2.124-2.371.415-2.189 1.248.173.816-1.399 3.35 1.063 3.505.594.042 4.282-.975 1.91.853-.323.248-1.552.762-2.163 1.194-.857.609-.504.58-.13.54.462-.078.917-.249-.912 1.036-3.326 2.225-4.896 5.313-1.79 4.679.101-.005 3.077-2.24 3.275-1.949.328.489.45 1.661.968 2.066.25.193 1.574-1.705 1.642-1.702 2.25.176 2.159 2.587 3.661 4.502.29.364 2.768-1.855 2.301.696-.458 2.815-6.425 12.5-3.122 11.106 1.397-.532 8.155-13.222 6.539-5.83 3.214-.569 4.436 3.561 7.743 2.476.122.064.504.075.64.092q.173-.13.338-.287c.155-.125.26-4.148.496-4.118.383.05.848 1.877 1.183 1.952 1.418.354 2.207-1.497 3.413-1.627.47-.06.933 1.829 1.538 1.73.617-.112.03-2.617 1.209-1.777.885.644 3.636 5.123 4.745 5.26-2.214-4.64-1.654-4.79-1.425-6.443.04-.319-.97-1.809-.996-2.041-.133-.973.85.181.655-.858-.047-.249-.894-1.787-.983-2.076-.807-2.507 1.907.486 2.403.992 1.843 1.948.94-.171 1.867.475.935.639.978 2.109 1.777 2.36 1.176.37 2.083-.033 2.852-.444l-.511.218a6 6 0 0 1 .82-.172c.391-.052-.29-2.308-.246-2.369.872-.76 2.14 1.615 2.122-3.086 2.088 11.904.454-1.224 2.062.994.124.18 1.1 5.806.76 6.7-.348.894-1.253-.791-1.678.574-.114.322-.235 5.722-.259 6.053-.302 2.589-1.51-5.847-1.651-6.301-1.248-4.931-.97.902-.778 1.277q.007.145.017.266l1.368-.582c-.09 1.714-1.38 1.309-1.557 2.849-.127 1.054 2.654 5.9 2.09 6.033-1.96.483-6.204-6.062-4.738.793.286 1.469 3.416 6.743-.187 3.16-.248-.214-3.134-3.708-2.648-.894.058.357.767 1.989.713 2.175-.395 1.22-1.453.122-2.093 1.088-.644.967-1.498 2.329-2.824 2.084-.811-.138-2.517-3.127-2.995-3.849-1.354-2.078-1.573 1.864-2.628-.833-.944-2.733-.785-7.125-2.128-8.787.58 4.587 1.083 9.307 1.558 13.933-1.023.085-2.072.03-3.125-.11-1.22-.153-4.63-.248-5.717-.821-1.436-.989-2.782-2.264-4.461-2.741-.29-.078-.888 2.354-1.222 2.33-1.433-.125-1.893-2.218-3.5-2.133-1.246.074-3.49 1.956-4.943 2.002 1.566-5.108-.831-4.284-1.854-5.389-.351-.379.355-1.604.28-2.172-.284-2.113-2.067 2.245-2.757 2.699-3.047 1.854 2.296-7.273.713-7.997-.054-.018-4.287 3.918-4.678 4.066-2.332 1.141.985-1.708.638-2.479-.637-1.434-.455-2.998-2.836-2.925-.668.059-4.157 1.589-2.977-1.151.16-.352 1.59-1.55 1.595-1.707.036-2.708-4.517.935-7.102.761-2.193-.178-1.165-3.564-.154-5.081.231-.197.437-.362.587-.476 1.542-1.173 1.676-.936 1.632-.634.06.347.066.712.174.683 2.106-.594 2.431-1.271 2.344-1.941.037-.249-.1-.472-.1-.736 5.107-2.632 4.445-3.197-.017-.68-.486.278.199.455.018.68-5.277 2.045-6.375 1.45-2.073-1.769 2.022-1.503 4.819-2.304 3.253-3.184-.708-.407-4.202 1.465-5.442 1.335-2.844-.329-.189-3.542-1.26-4.737-.395-.448-2.228.828-2.57.539-.922-.79.302-2.205-.822-2.964-.105-.07-2.183.867-2.318.546-1.065-2.459-.284-5.133-.79-7.972-.253-1.356-1.86-3.761-1.733-5.35.167-2.784 3.471-5.995 2.866-8.23-.384-1.506-2.659-1.423-4.117-2.283-2.82-1.764 2.906-3.304 3.774-3.344.025-.001.31 1.369 1.58.91 2.453.08-1.573-.886-1.58-.91.261-.04.618-.578.915-1.198.69-2.062 1.067-2.721.976-3.183-.1-.401-2.168-1.006-2.181-1.201-.341-4.272.269-6.582 2.31-8.434.058-.021 2.172 1.123 2.284 1.062 1.592-.78-.604-2.935-1.629-4.752-1.014-1.835-.072-2.377 3.888-1.051-.06-1.008 2.119-1.235 3.422-1.338 1.302-.098-2.79-2.365-2.843-2.462-1.73-3.067 1.162-2.811 2.443-4.348.622-.737.882-2.685.9-3.819.01-.903 1.197-.804.922-1.788-.036-.132-1.926-1.011-1.983-1.075-1.825-1.883 2.498.834 3.381 1.107 3.208 1.001 4.95 1.471 4.056-.173-.204-.378-6.37-4.4-6.545-4.991-.218-.757 2.009.653 1.72-.169-.022-.07-1.463-.81-1.23-1.104 1.068-1.373 2.759-2.581 3.43-4.232.096-.221-2.328-1.129-2.227-1.467.482-1.595 1.386-3.144 3.178-4.005.45-.21 1.94.828 2.454.996 1.178.38 1.363.215 1.135-.144-.382-.578-1.889-1.675-1.907-1.763-.788-3.442 3.94-3.427 3.284-6.798-.042-.19-4.135-3.335 0-1.993.276.089 4.511 1.454 1.947-.21-.161-.102-2.364-.753-1.926-1.16.44-.411-.589-1.834 2.01-1.534.819.094 5.095 1.32 2.171-.769-.204-.146-7.043-4.349-1.842-2.567.856.294 6.158 2.65 3.788.629-.46-.39-1.776-.604-2.335-1.351-.863-1.15.945-1.427-1.062-3.303-.357-.328-3.696-2.531-.723-1.874.465.103 2.174 1.03 2.494.84a2.3 2.3 0 0 0 .816-.828c-.111.442-.132.293-.039.09.102-.218.345-.526.961-.78.573-.232 3.48.954 4.423.77.94-.174 2.02-.89.834-1.864-1.184-.983-6.121-1.945-6.236-2.874-.462-4.147 3.727-7.19 5.81-10.949.313-.563-1.542-.778-1.186-1.674 1.234-3.266 2.836-9.951 7.872-10.773 3.952-.577 4.197 3.37 6.259 2.427.96-.407-3.3-4.468-3.305-4.783-.22-2.962 2.842-2.772 3.526-4.89.15-.445-1.954-1.583-1.8-1.954.528-1.297 2.233-1.671 2.949-2.746.316-.484-1.078-1.621-.607-1.925 1.114-.74 2.472-1.044 4.533-.7.184.037 1.211 2.151 1.922 1.58 1.16-.94 3.578-.882 3.786-3.272.056-.711-2.481-3.947.163-2.42.56.317 3.316 4.405 1.747.25a13.6 13.6 0 0 1-.579-2.563c-.397-1.469-.48-2.78 1.149-1.258.73.674 3.503 3.646 3.475 2.885-.012-.116-1.49-1.769-1.33-2.15.6-1.32 1.814-1.901 2.48-3.222.178-.36-1.574-1.913-1.264-2.389.845-1.308 2.671-1.882 4.29-2.132.591-.083 1.36 1.682 1.508 1.83 2.424 2.393.166-1.534.192-1.87.212-2.055 2.24-.863 2.987-2.028.209-.316-1.18-1.979-1.228-2.178-.402-1.979 1.253 1.56 1.875 1.662 1.746.301 2.895-.634 3.963-1.605.392-.36-1.406-2.19-1.033-2.49 2.19-1.83 5.295-3.272 8.755-3.36.648-.01 1.116 1.892 1.41 2.24 2.01 2.453 1.377-1.84 1.494-2.322.451-2.169 1.552-.777 2.397-1.448l.119-.093c5.853-2.435 7.342-2.37 9.495-2.768a26.5 26.5 0 0 1 4.937-.224c2.872.139 5.282.672 7.319 1.103 5.318 1.14 8.996 3.28 13.74 3.228.303 0 .232-2.575.498-2.607 3.401-.306 6.528 1.02 9.891.644.278-.026.149-2.479.606-2.601.915-.27 2.049-.011 2.84.858.392.42-.425 2.42-.027 2.801.936.892 1.99 1.189 3.086.927.468-.116.083-2.659.67-2.618h.017c3.644.186 7.407.164 11.053 3.814.25.251-.093 5.285.603 4.394.208-1.384.399-3.018.594-4.5 5.953-.091 11.891 2.397 18.882 4.29.301.082.382-2.643.978-2.494.975.244 1.988.448 3.005.707 1.891.468 3.724 1.144 5.148 3.523.201.327-1.213 4.808-.236 4.348.163-.089 1.539-.347 2.122-1.24.085-.135.47-2.306.879-2.254 2.339.328 4.549 1.502 6.432 3.478.294.32-.774 2.435-.564 2.685 1.471 1.746 4.008.682 5.191 3.306.786 1.766-.953 5.441-1.596 9.419-.102.556.639.91-.094 3.104-1.892 5.496-4.326 11.385-6.288 17.264-.222.628-.012.677-.154.85-.031.044-.132.078-.28.122-.155.044-.735-.072-1.082-.057-.371.005.247.554.493.947.159.215.13.364.144.55q.008.27-.073.563c.076.257-.708 1.112-1.199 2.1-.333.686-.951 2.96-1.437 3.816-.472.86-.045-1.076-.721-.103-.696.982-1.381 3.572-2.127 3.66M23.953 126.848c2.283.484-4.949-3.436-3.53-1.908.078.079 3.417 1.885 3.53 1.908m23.96 75.043c.383-3.715-2.022 1.081-2.376 3.936-.323 2.861 2.272-2.806 2.376-3.936m13.22-2.85c-1.937-2.377 1.131 8.881 1.932 6.15.049-.156-1.812-6.015-1.933-6.15m137.109-162.71c-.027.105.45.371.497.273 1.081-2.396.114-2.93-.497-.274M68.56 192.365c-1.056-1.21-.947.821.363 2.334 1.07 1.208.969-.838-.363-2.334M47 101.263c.116.043.375-.247-.255-.535-2.028-.931-1.679-.197.256.535m34.588 87.241c-2.54.163-5.23-9.185-3.122-8.494.414.112-.145 3.174.506 3.923 1.319 1.334.392-4.669 2.109-1.787.364.516.698 6.363.507 6.372zM32.863 131.13c.102.04.433-.367.344-.429-2.18-1.464-2.849-.644-.344.429M60.2 83.019c.235.028.801-1.009.614-1.123-3.864-1.922-5.043.235-.614 1.123M29.572 162.44c2.67-.021 3.07.363-.053 1.494.06-.513-.015-.992.053-1.494"/><path fill="#ca9c65" d="M208.685 26.845c4.981.451 11.153 2.742 15.76 4.997 1.441.702.302 1.917 1.294 2.47 1.912 1.075 4.022.886 5.918 2.091.615.404-.823 2.41-.164 2.782 3.677 2.053 7.487 2.487 11.789 4.399a182 182 0 0 1 3.645 1.677c1.414.702 2.644 1.187 5.621 3.007 11.993 8.791 14.225 16.036 18.485 22.147 5.901 9.659 10.577 18.455 15.492 27.82.815 1.567 1.569 3.293 2.309 5.082 2.069 4.975 3.974 10.431 6.903 14.617.467.663 2.045-.695 2.264-.636 3.385.982-.621 2.142-.394 3.784.91 6.507 3.657 12.793 6.802 17.453.241.354.519.515.808.563 1.475.537 2.888-2.098 2.38 1.241-.048.27-2.347.394-2.199 1.295.37 2.035 1.965 5.522 2.177 7.103.415 3.006.523 3.488.912 6.297.481 3.883-.551 8.416-.553 12.422.003.881 2.344-.015 2.527 1.458.208 1.491-.743 5.216-1.599 6.295-.829 1.085-2.361.092-2.801.199-3.63.703-.633 5.971-.826 6.643-.682 3.049-1.709 5.631-4.045 8.797-.987.924-4.062 5.357-6.136 10.346-.639 1.522-1.267 3.122-1.917 4.743-2.028 5.038-5.127 9.929-8.376 13.24-5.416 5.471-10.586 7.922-15.36 11.984-.51.424 1.699 1.989 1.085 2.506a124 124 0 0 1-7.956 6.171c-7.277 5.141-13.929 6.033-19.75 6.254-.968.014-.226-2.458-1.201-2.584-6.014-.693-14.422-4.39-16.566 5.779-1.977-.026-4.161-.047-6.258-.356-1.829-.231-3.604-.683-5.13-1.491-2.207-1.186-.239-3.748-2.795-2.598-.584.253.25 2.404-.642 2.617-3.784.889-7.927.082-11.812.896-.789.171-.748 2.126-1.002 2.457-2.185 2.674-4.855-2.388-5.433-2.825-3.847-2.634-7.008-3.018-10.625-3.83-.459-.089-1.009-.186-1.622-.316-.751-.156-.344 2.578-1.061 2.529-3.79-.273-8.699-.814-13.304-2.195-1.032-.312.031-2.493-.461-2.756-2.185-1.129-2.843 3.058-4.95 2.075-.447-.202-.128-2.099-.204-2.311-1.19-3.33-2.476 1.292-2.81 1.385a4.9 4.9 0 0 1-1.964.182c-4.856-.432-7.663-4.679-11.541-5.757-.594-.171-.301 2.612-1.936 1.975-5.689-2.308-10.134-5.365-14.265-8.655-4.464-3.559-7.415-7.349-9.995-11.198-.84-1.273 1.202-1.785 1.293-2.01 1.439-3.515-2.578-.948-3.045-1.18-3.545-1.869-2.998-7.09-8.78-5.141-1.47-2.059-3.022-4.015-4.535-5.704-5.54-6.246-12.798-11.542-18.515-19.461-3.876-5.264-4.673-10.274-4.863-14.856-.01-.215 2.291-.595 2.262-1.016-.247-4.99-3.354-3.046-8.465-4.825-1.278-.446 3.118-4.208 3.427-4.52 1.148-1.139 4.658-1.376 4.849-1.7 1.456-2.671-9.277.962-10.104-1.606-.009-.088 2.087-.388 2.214-.671.262-.588-.09-.963-.227-1.411-.091-.29-.122-.6.022-.957 1-2.49 6.203-4.216 2.572-6.278-.454-.293-6.773 1.386-6.857-1.876-.09-1.289-.339-6.818.227-8.273.499-1.466 2.51-.313 2.605-.421 3.015-3.576 4.053-2.016 8.27-3.252 4.223-1.088-5.375-1.993-6.326-2.908-.952-.929 1.756-3.162 2.656-3.601.898-.463 2.03.57 2.578.116 3.603-2.941-4.334-2.598-5.558-4.147-1.92-2.463.799-3.498 3.172-4.569 1.212-.679 2.357-1.278 2.856-2.081.412-.659-1.33-.574-1.255-1.278.374-2.825 3.032-3.365 2.502-6.933-.104-.558-2.73-4.825.816-4.661.504.035 1.745 1.45 2.637.7 1.332-1.125 3.175-3.359 3.628-5.127.332-1.307-2.931-1.694-1.27-2.55.737-.368 1.43 1.682 2.69.922 1.249-.758 3.118-3.556 3.825-4.625.697-1.067-1.512-1.811-1.574-1.982-.326-1.02.283-3.651.421-3.828.885-1.25 1.83-2.43 2.815-3.562 6.678-7.704 15.531-11.872 23.686-17.149.762-.484-.81-2.324-.704-2.42 2.447-2.254 2.884 4.435 5.567 5.517-2.182-4.24-.712-3.976 1.092-5.216.88-.6-.279-2.137-.257-2.347.571-3.192 2.817-.1 3.279.53.344.44.621.673.854.772.979.419 1.248-1.55 2.173-.278 1.11 1.572.389 4.537 2.209 4.017.109-1.789-2.457-5.732-1.136-6.815 5.187-4.371 17.267-1.822 21.761-.83 4.686.775 6.218.81 8.761 1.931 4.489 2.14 3.505-1.458 6.884-2.135 3.378-.62-.341 6.79-.414 8.586-.106 1.79.827.19 1.031 1.256.197 1.064-1.171 1.891-.167 2.574.624.424 2.399-.195 3.898-1.1.882-.56 1.699-1.193 2.09-1.785 2.232-3.279 2.12-7.776 5.122-4.938.158.165-1.346 1.829-.712 2.359 5.048 4.151 9.36 8.24 12.376 13.101.402.667-1.731 1.92-1.518 2.326 2.189 4.25 3.831.259 8.769-1.124-4.588 3.804-6.173 7.344-3.762 9.818 1.45 1.489 3.04-.587 5.28-.926.183-.028.301.12.398.34.259.587.34 1.68 1.113 1.198 3.468-2.142 5.683-6.291 6.976-2.364.05.175-1.887 1.3-1.601 1.795 1.814 3.21 5.184.713 8.192 3.402 2.368 2.117 3.895 8.057 5.61 11.225-5.444 3.841-2.444 5.469 2.198 4.254 1.105 2.142 2.674 4.321 3.045 7.238.113 1.02-1.937.98-2.094 1.168a9 9 0 0 0-.262.273c-2.107 2.055 2.102 1.974 2.382 2.491 2.75 5.563-.699 10.017 2.314 15.312.106.183 4.714.84 1.222 1.991-.24.058-2.192-1.804-2.567.589-.379 2.44-3.431 6.454-1.974 10.08.361.863 3.604 3.736.344 4.689-.44.121-1.674-.426-2.467-.297-2.523.388 1.866 2.125-2.285 2.211-4.166.103-7.564 1.255-6.073 5.01.025.077 1.356.944 2.174 1.813.452.487.74.981.571 1.311-.755 1.493-2.532 3.158-3.43 4.572-.429.682 1.776 1.52 1.734 1.661-2.234 5.58-6.824 7.281-11.956 10.118-.903.499-1.772 4.951-4.918 3.948-3.373-1.161-7.171-11.977-9.872-7.412-1.033 1.782 2.829 15.883-3.815 10.79a23 23 0 0 1-2.18 1.558c-2.351 1.541-5.106 1.952-7.794 2.022-2.241-.047-4.617-1.476-7.926-2.538-.287-.077-3.712 2.276-4.317 1.631-.856-.926.029-2.713-.443-3.398-1.164-1.75-2.715-2.998-4.161-4.412-.993-.979-1.882-2.071-2.419-3.388-.486-1.237 1.454-1.621 1.016-3.002-.39-1.345-3.173-1.651-2.412-3.985.599-1.794 5.592-3.821 6.124-5.451-5.128.191-5.136-1.139-6.367-3.681-.236-.496-2.051-.076-2.255-.321-.863-1.039.693-1.805-.202-2.824-.214-.25-1.956-.467-2.227-.693-2.376-2.002 2.012-4.039 2.77-4.268 2.892-1.106.841-2.321 2.157-3.322 1.309-.939 2.083 1.166 3.052-.054 1.95-2.437 2.875-5.876 3.973-8.701l-.011.04c-.062.123-.447-.342-.892-.724-.439-.396-.998-.659-.968-.736.319-.651 1.091-.959 1.753-.991 1.784-.036 2.453 1.081 5.632-.579-3.425 5.067-3.275 4.842-1.718 4.332 1.493-.57 4.19-1.557 4.341.607.022.346-4.267 4.127-5.583 3.801-1.286-.288-.918-2.696-2.531-2.446-.174.035-1.454.797-2.216 2.006-.838 1.172-.707 2.882-.494 3.129.631.959 1.992 1.193 2.881.783.923-.396 1.407-1.303 1.544-2.252.402-2.037-.549-4.246-.571-4.48-.285-1.178-.638-1.675-.726-1.853-.101-.181.127-.085.596-.267.46 1.158 1.773 2.504 1.86 2.886.757 3.318-1.069 5.138-.39 7.669.448 1.635 5.865 3.034 5.485 3.957-1.173 2.87-9.118 3.634-2.482 6.935 1.443.636 7.505.025 2.779 1.903-.312.043-4.55 2.007-1.656 2.347.361.031 2.111-.291 2.277-.217 1.075.462-.193 1.215.662 1.634.859.402 1.99.432 1.734 1.172-.078.244-.836.973-1.551 1.771-.534.826-1.082 1.638-1.274 2.013-1.159 2.353 2.547.804.848 3.145-1.599 2.465-5.918 4.176-5.712 7.08 3.383-3.153 6.89-6.353 10.246-9.573.829.946 1.482 1.823 1.574 2.235.101.508-.638-.029-3.672.397a4.4 4.4 0 0 0 1.091-.194c.253-.092-.58-2.446-.389-2.594.471-.394 1.136.07 1.966-.021 1.385-.54 2.412-.962 3.326-1.668 2.015-1.567 2.932-4.922 4.386-6.443 3.586 4.103 5.405 1.018 7.298.312.677-.253 1.436.937 2.127 1.017 2.586.242-.936-2.991-.984-3.869-.428-3.652 6.469 4.423 8.351 2.26.154-.155-2.859-5.176-3.065-5.493-.972-2.378 1.617 1.141 2.444.801 1.481-.618 3.276-.817 2.668-3.083-.154-.723-2.891-3.075-.092-2.74.207.018.826.263 1.358.469.424.163.793.301.857.272 2.502-1.383-2.994-3.519-4.518-5.231-1.528-1.706 2.88-2.532 4.123-2.708 3.204-.377 1.031 1.174 1.297 1.303 3.205 1.636 3.049-.079 3.629-1.248 5.632 1.167 5.717-.781.575-1.222-.56-.052-.259 1.037-.575 1.222-5.218-2.416-5.568-4.144-.011-5.331 2.597-.575 5.308.857 4.738-2.474-.276-1.502-4.27-1.465-5.197-2.784-2.126-2.928 1.764-6.113 1.128-8.789-.232-.927-2.375.02-2.61-.581-.636-1.532.859-3.018-.168-4.124-.094-.086-2.288.524-2.372.212-.148-.497-.223-.884-.216-1.106.207.422.248.163.202-.195-.049-.378-.18-.913-.378-1.507a15.9 15.9 0 0 0-2.032-4.014c-1.199-1.746-4.667-4.135-6.009-6.095-2.272-3.368-3.436-9.4-6.545-11.454l-.073-.05c-2.203-1.483-3.414.511-5.284.822-3.649.576-2.435-5.793-2.203-6.728.006-.034 1.908 1.105 1.916-.529 1.235-2.191-1.894.537-1.916.529.14-.627-2.481-3.9-3.327-4.08-.471-.115-1.763 1.617-1.976 1.532a135 135 0 0 1-5.948-2.585c-1.42-.662-2.109-1.143-3.215-2.076-.032-.057.837-2.298.738-2.41a1.5 1.5 0 0 0-.377-.32c-2.672-1.27-5.249.662-7.735 1.64-2.713 1.074-4.014.203-4.533-4.09-1.688.204-3.657-1.88-4.946-3.073-1.304-1.197-1.671 3.486-1.775 3.571-3.353 2.883-5.138.323-8.914.523-1.471.073-4.057 1.135-5.882 2.176a15 15 0 0 0-.828.532c-1.161.823-2.327.101-3.214 1.247-.115.153.875 1.992.861 2.086-.145 2.795-1.71-2.078-2.36-2.78-2.377-2.525-3.992-3.705-4.953-1.337-.275.574 2.602 7.423 2.349 8.126-.41.95-1.667-1.384-2.08-.284-.035.092.954 1.371.455 1.67-2.292 1.391-5.209 2.937-7.077 5.526-.255.344 2.086 1.53 1.771 2.033q-.146.234-.298.473c-2.14 3.168-4.619 6.255-7.467 8.405-.759.566-1.924-.915-2.476-1.056-3.368-.811-.39 3.208-.447 3.465-1.4 6.091-6.896 8.581-6.009 11.431q-.018.441-.014.888c-.001.516 4.171 4.697-.287 4.872-.296.006-4.89.304-2.121 1.892.176.09 2.534-.127 2.083.984-.453 1.141.793 2.964-1.81 3.979-.82.275-5.32 1.149-1.82 2.416.236.267 8.198 1.256 2.782 2.024-.888.131-6.69.695-3.57 1.52.603.115 1.824-.428 2.703-.078 1.068.379.479 1.208 1.557 1.523.411.465.925.88 1.607 1.243.576.288 4.937 1.002 2.521 3.328-.379.361-2.36.505-2.339 1.318.09 3.87 2.312 6.958 1.907 10.03-.14 1.074-3.269 1.597-3.731 2.832-.47 1.231-.53 3.26 1.039 3.192 1.52-.148 5.834-2.682 6.302-2.647.269-.068.242-.478-.245-1.149 3.737 3.78 7.289 9.782 12.99 15.877.973 1.051 1.383-1.06 2.92.423q.694.669 1.485 1.413c6.47 6.27 13.558 12.619 14.465 18.205.782 4.91-4.453 3.179-3.03 6.193.76 1.499 5.579-2.046 5.853-2.064.857.051 1.38.215 1.672.404 2.058 1.388 3.113 3.556 5.324 4.245.616.186 1.33-2.134 1.822-1.967 1.656.532 2.492 2.162 3.279 2.297.333.046.975-1.635 1.045-1.458.178.378-.766.905-1.111 2.586.011.155-.255 2.375-.182 2.464q.03.023.094.084c2.502.419 5.44 1.698 8.348.271.959-.477 1.171-4.58 3.106-1.652.414.614-.411 5.502 2.235 1.379.4-.693 5.014-6.167 6.956-2.262.504 1.023 1.557 5.173 2.925 4.697.195-.079-.282-2.356.862-2.436 2.688-.131 5.515.179 9.437 1.022.761.106 1.554.168 2.373.106.636-.054.251-2.471 1.153-2.491 2.465-.061 5.481.946 8.015 1.853.936.339.139 2.174.19 2.385.934 3.422 1.924-1.053 2.289-1.3 2.402-1.474 4.18.649 6.432.02.609-.17.097-2.307.212-2.503 1.166-1.923.396 1.978 1.22 2.368 1.288.606 2.667.757 4.03.673 1.364-.092 2.681-.315 3.934-.556 1.019-.2-.371-2.577.547-2.728 5.401-.94 10.66-1.271 14.719-.658.761.119.69 2.092.925 2.493 1.726 2.793 2.168-1.635 2.253-2.078.633-2.066 1.429-.562 1.799-1.05.259-.427.069-.645-.642-.271 6.465-5.632 14.347-10.602 18.172-13.624 2.717-2.161 3.816-2.858 4.982-4.159 3.031-4.435 3.405-7.645 9.981-19.41.85-1.306-2.172-1.42-1.402-2.626q.26-.396.538-.792c-.262.296-.334.368-.368.377-.032.006-.013-.061.021-.152.072-.19.213-.497.357-.826.296-.672.627-1.471.887-2.273.525-1.61.774-3.29.362-4.71-.065-.225-2.475.167-2.66-.136-.4-.608-.364-1.258.232-2.049.28-.403 2.41-.487 2.635-.935.464-.974.309-1.989-.35-2.753q-.224-.362-.461-.715c-.681-1.004-2.111 1.716-2.824.322-4.771-9.351-8.829-16.825-10.6-26.661-.12-.674 4.015-3.613 2.49-4.358-1.271.593-2.703 1.403-4.029 2.094a172 172 0 0 1-2.004-3.201c-5.902-9.591-11.147-20.614-16.595-29.116a133 133 0 0 0-1.889-2.786c-.316-.452-1.913 1.888-2.533 1.028-1.461-2.023-2.98-3.794-3.869-4.865-.438-.535-.687-.858-.617-.98.052-.135.481-.076.812-.273.637.294.965.365 1.164.374.194.005.266-.059.284-.15.031-.184-.144-.474-.372-.802-.307-.384 1.57-4.718-.188-4.558-.292.031-3.005-.159-4.012.614-.132.122-.287 2.361-1.138 2.178-5.069-1.135-10.651-3.094-15.793-5.763-.841-.438.673-2.466.087-2.795-4.176-2.32-9.535-1.79-13.368-4.88-2.595-2.084-.564-5.75-1.21-9.985-.099-.6-1.878-1.11-1.446-3.382 1.088-5.715 3.425-11.704 4.481-17.82.235-1.316-2.568-.497-.366-3.293.157-.185 2.173-.81 2.861-1.772.482-.664.465-3.083 1.317-3.877.854-.792 1.076 1.285 2.375.424 1.31-.872 1.465-3.585 3.612-3.399m-64.068 47.547c-1.585-2.137-1.018 6.072.174 4.009.057-.11-.096-3.903-.174-4.009m30.068 109.803c-.262 1.809.086 1.394-.137.165-.159-1.217-.632-3.24.001-4.668.67-1.408 1.173-.449.96.88-.164 1.337-.747 3.076-.824 3.623m-12.386-9.41c-1.603 3.212 8.546-2.601 5.904-2.59-.146.003-5.798 2.422-5.904 2.59m41.013-114.207c0-.113-1.273-.528-1.327-.43-1.299 2.376 1.244 3.203 1.327.43m-45.04 95.369c-1.708.469-.237 2.905 1.843 2.285 1.653-.446.254-2.793-1.843-2.285m-75.494-38.028c-.128-.013-.506.849.167 1.026 2.156.556 1.914-.772-.167-1.026m90.953 37.89c-.579-.543-1.189-1.386-1.456-2.281-.463-1.952.279-3.387.855-4.903-.012-.014-.046-.057-.059-.069.719-1.842 2.091-3.103 3.322-3.038.067.064.236.283.297.352.737.215 1.669 1.235 2.043 2.226.127.371-.7.518-1.757.445-1.051-.059-2.152-.01-2.084.871.047.812.439 1.272.945 1.418 1.335.236 4.039-1.226 4.145 1.858.041.772-5.911 3.493-6.268 3.124zm-30.7-91.207c-.04-.11-1.384-.09-1.401.024-.419 2.662 2.157 2.632 1.401-.024M82.169 173.593c-.222.144.941 3.375 1.224 3.387 4.479-.408 2.391-6.275-1.224-3.387m138.734-68.281c3.036-.271 4.432 1.261 2.31 4.097-.691-1.433-1.545-2.742-2.31-4.097"/><path stroke="#6f1a1a" stroke-linecap="round" stroke-width="13" d="M76.344 213.847c-2.392-.535-13.043-3.907-29.36-8.493-13.45-3.779-19.979-15.57-26.045-30.299-2.549-6.187-2.265-16.281-1.708-34.736.341-11.305 1.728-26.512 2.97-36.982 1.877-15.826 4.406-22.383 5.734-24.823 1.428-2.624 6.105-7.15 16.179-16.331 15.965-14.55 29.122-22.283 36.22-27.084 15.014-10.158 28.643-15.359 33.97-16.855 2.809-.789 5.952-1.177 18.802-1.043 12.851.133 35.346.916 49.813 2.037 20.325 1.574 30.201 5.79 38.263 9.685 8.219 3.971 18.495 10.329 30.208 16.127 13.102 6.486 21.356 12.114 38.653 24.725 18.524 13.507 21.799 21.454 31.2 34.006 6.345 8.472 10.184 23.759 12.398 38.892 1.683 11.499-1.312 26.636-4.246 40.63-2.037 9.709-7.717 19.37-14.304 30.164-4.895 8.021-13.476 13.578-22.001 18.764-4.778 2.907-11.301 7.347-21.137 12.83-7.765 4.329-17.858 6.741-34.062 9.7-10.057 1.837-24.203 1.945-36.834 1.673-23.456-.504-35.883-3.191-39.409-4.354-2.195-.725-5.073-2.12-13.435-6.969s-22.086-13.21-32.303-21.054c-10.217-7.845-16.512-14.918-21.873-21.726a97.7 97.7 0 0 1-18.114-37.072c-3.262-13.251-5.855-22.26-4.524-36.535.744-7.981 3.918-18.362 8.442-29.617 3.289-8.181 13.193-15.549 23.681-23.467 5.083-3.838 9.39-5.657 16.124-8.044 8.322-2.949 19.636-3.28 35.446-3.366 9.667-.052 22.658 1.222 31.49 2.509 13.285 1.935 20.056 6.362 28.732 13.57 16.386 13.613 28.18 26.73 32.408 33.004 3.549 5.268 4.178 14.112 3.824 26.367-.399 13.78-5.345 27.997-9.479 39.384-4.403 12.132-17.165 20.957-27.876 25.329-2.901 1.184-13.992 1.289-32.952-1.263-9.374-1.262-16.723-9.149-22.73-15.792-11.299-12.497-14.771-22.764-15.44-27.275-.703-4.746 1.554-8.988 3.634-11.742 3.163-4.187 11.907-2.901 20.119-.784 3.432 6.983 6.326 11.274 6.843 13.239.199 1.011.269 2.048.341 3.116"/></svg>