<svg width="974" height="174" viewBox="0 0 974 174" fill="none" xmlns="http://www.w3.org/2000/svg">
<g clip-path="url(#clip0_24_1571)">
<path d="M898.694 83.7031L963.858 161H-0.000976562L65.1631 83.7031L1.34277 8H962.515L898.694 83.7031Z" fill="#6F1A1A"/>
<path d="M927.792 34.6943C922.469 34.8761 915.527 34.3755 910.269 33.7785C908.598 33.5922 909.477 33.0383 908.341 32.8832C906.108 32.5798 904.039 32.7909 901.838 32.4371C901.117 32.3173 902.055 31.4288 901.296 31.324C897.197 30.7657 893.287 30.8232 889.135 30.4603C889.056 30.4535 888.977 30.4466 888.897 30.4395C875.357 29.4802 857.889 25.4809 849.28 23.412C841.333 23.8974 834.811 23.8393 827.538 23.9351C820.571 23.9927 812.074 23.3366 804.89 23.8268C804.052 23.885 804.566 24.6869 804.408 24.7565C801.898 25.8221 802.732 24.1711 801.082 23.9804C796.92 23.4982 792.465 23.3315 788.163 23.3705C785.759 23.3923 783.402 23.4986 781.165 23.6586C778.521 23.851 781.211 25.403 778.525 24.5583C778.339 24.5014 778.992 23.6257 778.263 23.5501C776.611 23.3809 773.475 23.6046 772.187 23.5604C769.705 23.4711 769.295 23.4871 766.942 23.5056C763.723 23.5221 759.881 23.0954 756.419 23.2304C755.677 23.2616 756.639 24.1618 755.459 24.29C754.269 24.4208 751.131 24.258 750.091 24.0088C749.035 23.7621 749.519 23.0853 749.337 22.9196C747.859 21.5261 744.172 23.206 743.709 23.223C742.728 23.2596 741.787 23.2705 740.832 23.2573C733.521 23.1578 727.126 21.7264 720.198 21.0373C714.241 20.4511 707.903 20.1192 702.413 19.729C697.644 19.402 693.412 19.032 689.573 19.5649C687.831 19.8284 686.083 20.0655 684.261 20.3005C683.539 20.3908 684.506 21.3262 683.619 21.4363C674.174 22.6036 664.673 22.0536 655.706 20.3588C654.801 20.1896 656.071 19.4107 655.179 19.1876C650.512 17.9971 642.149 15.3605 640.292 18.6541C639.952 19.0282 639.649 19.4401 639.418 19.8889C635.588 20.659 630.694 21.2637 627.109 20.6736C624.806 20.2878 626.958 19.1998 624.217 19.7213C623.597 19.8288 624.429 20.683 623.487 20.7744C619.483 21.1533 615.17 20.5259 611.233 20.357C610.427 20.3239 610.52 21.126 610.272 21.2276C608.158 22.0437 605.402 19.527 604.784 19.2307C603.759 18.7689 602.793 18.3668 601.849 18.0033C599.351 16.9931 596.108 17.0832 592.643 16.9485C591.6 16.9143 592.801 17.9918 591.805 17.9987C586.601 18.034 581.124 18.0596 575.9 17.7607C574.739 17.6929 575.772 16.7674 575.218 16.6895C572.75 16.3609 572.287 18.0636 569.922 17.7965C569.428 17.7427 569.672 16.9689 569.579 16.889C568.101 15.6349 566.968 17.5523 566.599 17.6104C565.045 17.8741 563.667 17.8406 562.335 17.7029C559.803 17.4368 557.493 16.7866 554.586 17.1661C554.058 17.2375 555.315 18.1179 553.836 18.26C543.958 19.1956 533.626 20.1557 523.688 20.7683C522.139 20.8547 523.14 19.99 523.03 19.9145C522.24 19.3879 521.65 19.4954 521.198 19.7857C520.625 20.145 520.264 20.7824 519.993 20.8559C516.115 21.8579 512.249 20.7399 509.821 23.2604C496.879 24.0096 483.862 26.3893 470.438 24.151C466.568 23.4882 462.909 22.6048 459.221 21.7289C459.02 21.6826 459.491 20.8088 459.087 20.7203C454.134 19.6715 454.948 21.2146 451.509 22.6937C450.683 23.0693 448.244 20.7915 448.045 20.6269C447.262 20.0079 448.192 18.6897 447.924 18.5629C445.662 17.5637 445.808 22.1084 442.735 21.9666C442.641 21.9548 443.072 21.1387 442.824 21.0445C442.062 20.7495 441.206 21.0458 440.455 20.7289C438.687 19.9965 438.104 17.7687 435.313 18.9686C434.969 19.1262 435.386 21.707 432.668 21.5158C431.528 21.4327 426.732 21.382 425.334 21.1979C423.993 21.0115 424.928 20.1964 424.833 20.1591C421.137 19.0123 422.581 18.5785 420.743 16.9347C420.079 16.3459 419.708 16.4696 419.476 16.8887C419.069 17.6339 419.089 19.3127 418.601 19.5832C417.839 20.0056 415.136 19.0669 414.482 18.7418C413.827 18.4175 414.657 17.9032 414.074 17.7165C410.164 16.4907 412.325 19.6021 411.018 20.1918C407.943 21.5853 405.616 18.674 402.844 18.3291C402.091 18.2357 402.691 18.9012 402.019 18.9463C399.353 19.1155 397.784 18.1831 394.738 18.9275C394.249 19.049 391.761 20.7089 390.211 19.4137C389.992 19.2271 390.641 18.5282 389.518 18.3446C387.829 18.0682 384.787 17.8576 382.974 18.0761C381.63 18.2377 383.15 19.4273 381.477 19.0465C380.734 18.8776 382.126 18.2016 380.716 17.9422C379.325 17.6794 375.739 17.7151 374.379 17.7629C373.026 17.8068 373.782 18.6868 373.673 18.7482C373.012 19.0982 370.441 19.5933 370.216 19.6036C364.285 19.8542 358.619 19.935 353.044 20.6293C347.6 21.3159 342.194 21.6462 336.686 22.2305C335.788 22.3225 336.443 23.2238 336.307 23.2475C333.239 23.8108 335.536 21.1885 333.361 20.4577C333.756 22.3459 332.477 22.0677 330.318 22.3427C329.278 22.4752 329.866 23.1962 329.773 23.2746C328.246 24.4377 327.129 23.0046 326.85 22.7128C325.813 21.6387 324.71 22.9333 324.009 22.2066C323.315 21.4845 324.902 20.413 322.846 20.4262C322.262 21.1067 323.804 22.8944 322.22 23.1779C316.228 24.3017 305.133 22.3188 300.397 21.6506C295.669 21.0284 294.102 20.9233 291.362 20.2534C286.451 18.9419 288.05 20.5932 284.665 20.3942C284.068 20.3423 283.584 20.1777 283.317 19.9856C282.169 19.1249 283.782 17.224 283.616 16.5625C283.415 15.7613 282.737 16.2989 282.332 15.7682C281.925 15.2376 283.201 15.1387 282.012 14.6157C280.815 14.0766 277.07 14.3218 276.458 14.9339C275.153 16.2068 276.251 18.1317 273.2 16.8204C273.022 16.7452 273.815 16.0476 273.123 15.8021C267.608 13.8742 261.565 13.1255 255.72 12.4185C254.972 12.3271 255.552 11.5193 255.269 11.3447C255.246 11.3305 255.216 11.3206 255.18 11.3155C250.261 10.6273 251.961 12.2624 249.295 14.0217C249.917 11.6557 248.424 10.1785 244.665 10.1792C242.427 10.184 242.789 11.2197 241.373 11.9677C240.936 12.1929 239.324 11.5096 239.058 12.0036C238.158 13.62 239.655 15.3565 235.834 14.7552C235.664 14.7268 236.175 13.838 235.589 13.8038C231.82 13.5929 231.464 15.2706 227.454 15.7184C224.337 16.0638 218.674 15.5658 215.089 15.8995C214.808 13.2387 211.47 14.3264 210.407 16.372C208.092 16.6676 205.61 17.2254 203.316 17.3821C202.522 17.4371 202.897 16.5846 202.784 16.5202C201.284 15.6357 200.556 16.9784 200.062 17.4497C199.987 17.5213 199.918 17.5727 199.853 17.593C194.411 19.1824 189.748 18.3181 184.568 20.0872C184.386 20.1494 184.22 22.0257 182.695 20.7845C182.597 20.6979 184.282 19.7268 181.786 19.8472C179.281 19.9698 174.54 19.2463 171.117 20.2315C170.291 20.4716 168.213 22.0501 166.474 20.919C166.243 20.7654 166.477 20.2275 166.142 19.9403C165.067 19.0248 164.526 20.911 163.257 19.3435C161.98 17.7753 159.422 16.6278 155.955 17.7312C155.844 17.7632 155.021 19.2496 153.929 19.2226C152.179 19.1795 149.698 18.8458 147.885 18.8234C147.005 18.8131 147.551 19.7448 147.398 19.7589C142.273 20.1096 138.423 19.4162 133.403 18.745C132.668 18.645 131.887 18.5299 131.084 18.407C129.953 18.2453 126.464 19.0793 124.398 17.7391C122.15 16.2676 125.349 12.2462 119.725 12.3367C117.474 12.3585 113.503 17.4368 110.123 13.6628C103.401 12.8458 97.4963 10.3725 91.0236 9.01037C89.8758 8.76619 88.7126 8.59888 87.5202 8.52118C87.1495 8.49334 85.7554 9.86468 84.9582 9.72236C83.7554 9.50306 83.176 8.68096 82.2986 8.53634C78.608 7.9247 75.1817 8.52582 71.6192 8.57448C70.2604 8.60204 70.6946 7.80078 69.0636 7.85967C67.4278 7.9293 66.4371 9.03321 64.2023 8.75773C62.5142 8.54798 60.6208 6.66107 58.402 6.66004C58.5421 8.70983 57.0345 8.8479 54.4043 9.64032C53.8958 9.79232 54.5164 10.4546 54.2785 10.5632C53.3124 11.0207 52.3309 10.5033 51.405 10.9631C51.1782 11.0737 51.2072 11.7753 51.0204 11.9046C50.7988 12.0618 50.5528 12.1682 50.2934 12.2334C50.276 12.2346 50.2239 12.2352 50.2065 12.2358C48.6303 12.5755 46.6158 11.3956 46.2275 11.1639C44.4714 10.1407 43.6733 11.066 42.3399 10.6759C41.0007 10.2868 42.9922 9.7393 41.4224 9.51616C38.1887 9.05439 34.0438 9.26561 30.7661 9.34624C29.4555 9.38295 30.3824 10.2888 30.1955 10.3158C27.5173 10.6462 24.7235 9.77825 23.3348 11.7246C21.2064 7.01353 21.7268 12.2624 17.8434 11.5866C17.542 11.5331 16.9477 9.2891 18.1143 8.86059C19.2637 8.43472 21.0962 9.02755 22.6941 8.41653C23.0792 8.27005 25.1857 6.02218 25.4817 5.88068C27.8164 4.76153 28.2919 8.16325 28.4196 8.3445C29.9165 10.3078 32.5128 7.91871 33.2259 7.73999C36.449 6.91663 39.2276 7.33959 41.9328 6.77324C43.6918 6.4081 43.8465 4.17155 45.2403 4.22141C47.3033 4.29532 48.7657 4.94998 50.1516 5.41629L49.9777 5.42102C51.6042 5.94409 53.1668 6.12458 55.3664 4.39158C56.2215 3.7229 55.0315 1.39939 58.5319 2.95001C58.7476 3.0488 61.4115 4.51996 62.7536 3.26569C62.9219 3.10751 62.8435 2.39996 63.0803 2.31578C64.6707 1.76752 65.8206 2.2277 67.6127 1.81869C69.4054 1.41088 71.6194 0.88278 73.7734 1.08994C75.0751 1.20869 76.7227 2.55633 77.3195 2.89999C79.0023 3.87556 80.957 2.47409 81.9402 3.70543C82.8859 4.94472 80.7067 6.44816 83.3068 7.47336C83.6257 5.64896 84.0956 3.79434 84.5089 1.97246C87.1876 2.34481 89.8288 2.97905 92.4096 3.79506C95.535 4.80457 98.679 5.78516 101.925 6.5186C102.62 6.67312 102.144 5.53662 102.895 5.67692C106.046 6.26621 108.623 7.58257 111.927 8.00503C114.484 8.3273 117.444 7.85574 120.085 8.07828C121.286 10.4603 125.31 10.4404 128.035 10.9992C128.988 11.1952 128.859 11.747 129.521 12.015C132.022 12.9897 131.02 10.9869 131.736 10.7672C132.704 10.459 133.328 10.6589 133.846 11.0848C135.114 12.0042 135.989 14.0036 138.572 14.0413C138.763 14.0472 141.303 11.8842 141.639 11.7524C143.808 10.9041 141.967 12.5495 143.303 12.756C145.742 13.1283 147.449 13.7041 150.338 13.0785C151.178 12.8932 153.199 11.504 154.823 12.5926C155.037 12.7352 154.918 13.4809 155.091 13.5247C158.225 14.2497 158.297 11.8996 160.064 11.0893C161.828 10.2786 164.598 11.8399 165.174 12.2907C166.668 13.461 164.062 12.833 163.984 12.9512C163.077 14.378 165.09 14.0973 166.631 14.1729C166.918 16.4651 169.079 16.2601 168.231 14.2399C168.135 14.0198 166.945 14.2699 166.631 14.1729C167.925 11.8825 170.241 11.5222 172.938 13.5096C174.202 14.4371 173.105 15.6545 176.802 15.034C178.479 14.7464 177.73 13.2063 179.182 12.6823C182.481 11.4869 186.954 12.5933 190.374 11.9695C191.604 11.7443 190.299 11.0223 191.133 10.8377C193.345 10.3406 195.406 10.7186 197.568 10.0375C197.763 9.97445 197.134 9.15794 197.814 9.03618C198.082 8.98691 198.346 8.93921 198.608 8.89288C203.5 8.01392 208.348 7.5741 213.98 6.84796C216.842 6.45632 221.959 5.43636 224.945 5.33327C230.141 5.1097 236.458 6.21389 240.81 5.83472C243.621 5.59173 243.03 4.69667 244.227 4.06917C246.594 2.85174 250.723 5.02506 251.275 5.36631C251.283 5.37609 248.872 5.57072 250.153 6.04617C250.892 7.02206 251.247 5.37031 251.275 5.36631C251.531 5.50753 253.61 5.66664 255.373 5.73142C256.358 5.76613 257.216 5.78342 257.572 5.73648C258.125 5.66407 257.855 4.79329 258.145 4.7726C265.037 4.29311 272.202 5.14272 278.874 7.33507C278.988 7.38319 278.565 8.26516 278.834 8.36644C281.855 9.53025 284.199 9.55213 286.73 9.70633C287.065 9.65103 287.53 9.62339 288.013 9.60459C290.552 9.52015 292.826 10.0965 294.277 11.9781C296.487 12.0947 299.621 13.1802 301.444 13.7938C303.282 14.411 303.696 12.5614 303.866 12.5401C309.058 11.7701 311.959 12.9979 317.304 13.3187C319.844 13.4786 324.892 13.2341 327.622 12.9648C329.78 12.757 331.098 13.1524 333.071 12.785C333.338 12.7354 333.028 11.9158 333.109 11.88C335.26 10.7783 334.306 12.8612 334.782 13.2014C336.51 14.4272 337.614 15.0749 340.398 14.2162C341.056 14.0185 342.65 10.9222 343.774 10.6197C345.235 10.2311 344.815 11.3421 346.344 10.888C346.476 10.8486 346.354 10.2142 347.322 10.107C348.553 9.96653 349.818 9.81976 351.063 9.65432C355.04 9.08905 359.124 8.8086 362.972 8.48C363.703 8.42099 362.689 7.46164 363.75 7.3616C368.716 6.89939 374.064 6.84686 378.714 7.33663C379.868 7.46086 379.141 8.17926 379.39 8.39365C380.899 9.6907 383.058 7.83529 383.422 7.80459C391.877 7.01679 398.183 8.92847 406.63 8.29813C407.083 8.26123 410.649 6.3189 412.185 8.0718C412.281 8.18851 413.831 9.98291 415.205 8.79328C415.292 8.71876 414.337 7.79558 416.024 7.91149C416.98 7.97584 418.21 7.8245 419.56 7.85331C420.665 7.87649 421.787 8.0164 422.799 8.47133C423.589 8.79625 425.251 10.5805 427.556 9.21484C427.689 9.11753 431.21 6.00635 432.405 8.23086C432.601 8.59759 432.327 10.9081 435.031 9.79116C435.55 9.57519 434.638 9.03095 435.991 8.74683C438.085 8.3099 440.764 9.02396 443.386 8.10697C443.846 7.94376 445.839 6.45943 447.302 7.73909C447.532 7.93956 447.017 8.68631 447.842 8.8199C451.65 9.45423 455.774 9.24464 459.703 10.2192C461.078 10.5637 460.237 11.7266 461.636 12.2324C463.053 12.7381 465.88 13.4545 467.398 13.0929C468.917 12.7276 467.641 10.5353 469.78 10.6699C470.567 10.7178 471.324 10.7719 472.086 10.8322C479.555 11.4516 487.595 11.9453 496.129 11.3728C497.507 11.2747 496.284 10.6705 498.326 10.4665C503.959 9.90467 512.814 8.47419 519.703 8.06627C521.83 7.94611 523.842 7.90847 525.493 8.0558C531.001 8.54357 524.397 10.3607 528.547 10.3063C530.545 10.2789 532.416 7.70718 532.888 7.57643C537.526 6.26394 540.928 6.94058 545.16 6.23744C546.039 6.09298 545.085 5.23376 545.839 5.12127C548.389 4.73207 551.121 4.94093 553.566 4.6961C554.678 4.58369 554.407 3.88189 555.431 3.87088C557.603 3.84293 559.56 3.98539 561.664 4.41299C561.913 4.46377 562.163 4.51853 562.415 4.57748C562.63 4.62822 561.24 5.5921 563.012 5.53739C565.875 5.44737 569.455 5.95086 572.738 5.1439C573.698 4.90286 573.697 3.25741 575.848 4.32245C576.306 4.54599 575.778 6.53073 578.207 4.75846C578.607 4.461 582.741 2.06578 584.824 3.5338C585.386 3.91788 586.775 5.52126 587.975 5.27082C588.14 5.23088 587.483 4.34681 588.489 4.264C592.047 4.00043 595.742 4.14754 599.844 4.27256C600.962 4.31751 599.376 3.22081 601.092 3.33475C602.34 3.43606 603.719 3.58825 605.596 4.07627C608.281 4.78913 611.109 5.57335 613.464 6.15005C614.636 6.436 613.705 7.05963 613.778 7.15422C615.006 8.68831 616.083 6.98517 616.539 6.9287C619.453 6.59447 621.56 7.51683 624.179 7.22611C624.895 7.1432 624.356 6.29908 624.495 6.21763C625.915 5.40563 624.9 7.00079 625.844 7.12047C628.505 7.4496 631.452 6.97059 634.136 6.29354C635.127 6.04146 633.801 5.30326 634.682 5.08691C635.383 4.91005 636.096 4.72442 636.821 4.53282C642.607 3.32872 645.279 4.02839 648.322 4.28418C651.243 4.64963 653.832 5.12981 656.315 5.64037C657.387 5.86392 656.622 6.55367 656.83 6.75301C658.264 8.14795 660.708 6.69674 661.215 6.57818C663.608 6.05159 664.454 6.79073 666.491 6.7731C673.061 6.70832 680.385 6.50692 687.118 5.47853C692.353 4.69962 696.554 4.9569 700.275 5.17289C714.307 6.291 723.97 8.52064 736.314 9.21834C737.094 9.26617 736.385 8.18696 737.058 8.21462C738.627 8.2866 740.184 8.36975 741.747 8.45617C748.784 8.84709 755.713 9.28697 762.805 9.03139C763.514 9.00754 762.489 8.04038 763.628 7.96856C765.963 7.81419 768.935 7.827 771.337 8.09038C772.51 8.21712 770.956 9.0794 772.138 9.18964C774.891 9.4475 777.862 9.44458 780.731 9.22844C781.95 9.13465 780.087 8.18138 781.675 8.13706C783.772 8.07525 785.874 8.01673 787.982 7.9785C796.576 7.82081 805.119 7.77648 813.848 8.62962C814.606 8.70184 815.278 10.704 816.859 10.2822C816.966 9.72021 816.945 9.06246 816.984 8.46351C827.196 7.9948 838.432 8.01952 847.368 7.61228C851.393 7.35025 852.379 7.90544 854.016 8.15186C855.479 8.45432 856.759 8.75966 858.026 9.0539C860.552 9.6448 862.943 10.1873 865.379 10.6647C866.003 10.7861 865.138 9.538 866.317 9.76084C873.226 11.0522 879.934 11.5651 887.054 13.0574C887.771 13.2017 887.282 15.0641 889.433 14.885C889.496 14.8794 889.635 14.872 889.83 14.8617C890.864 14.8111 893.291 14.685 894.035 14.3749C894.154 14.3183 893.588 13.4166 894.655 13.4361C900.881 13.5656 907.384 14.009 913.568 14.7393C914.554 14.8583 913.474 15.759 914.173 15.8517C919.218 16.5047 924.751 15.9383 929.56 16.8759C932.768 17.5042 931.56 19.0969 933.253 20.712C933.476 20.9402 935.499 21.0002 935.587 21.9247C935.833 24.2523 934.823 26.7879 935.207 29.2702C935.25 29.8072 938.109 29.25 936.393 30.5297C936.28 30.6165 934.276 31.0241 933.799 31.4545C933.447 31.7524 934.046 32.7008 933.358 33.0788C932.637 33.4558 931.922 32.6571 930.746 33.0922C929.61 33.5327 930.083 34.6127 927.792 34.6943ZM309.79 16.4039C311.518 17.397 311.932 14.1232 309.995 14.8082C309.901 14.845 309.702 16.3548 309.79 16.4039ZM95.6974 7.61645C97.5969 9.59706 99.6556 7.90259 98.3409 6.42282C97.0313 4.94286 95.1246 7.01582 95.6974 7.61645ZM70.7368 5.724C73.5601 6.74849 73.9245 2.07448 70.8556 3.13699C70.6771 3.19882 70.5695 5.66595 70.7368 5.724ZM925.251 21.0142C925.276 21.0587 926.715 21.1331 926.755 21.0904C927.546 20.0626 924.661 19.9147 925.251 21.0142ZM46.8233 8.75597C47.6897 9.37649 50.1399 8.62602 49.071 7.85087C48.2175 7.22639 45.7464 7.98306 46.8233 8.75597ZM402.806 16.7218C402.832 16.7715 403.88 16.84 403.86 16.5623C403.815 15.6685 402.353 15.8863 402.806 16.7218ZM5.83128 12.2312C6.66357 11.9847 7.45879 11.8021 8.20499 11.6652L8.16686 11.6822C10.7089 11.2219 12.2416 12.1606 12.6799 12.8112C13.1371 13.5378 12.0568 14.1584 9.86977 14.5571C9.52256 14.64 9.72442 14.2206 10.1789 13.7552C10.5949 13.2999 11.0841 12.8234 10.3276 12.806C9.75629 12.7953 9.21697 12.95 8.88169 13.1943C8.87517 13.1976 8.85505 13.2062 8.84839 13.2091C7.14429 14.2264 5.85346 15.9533 3.39722 15.5573C2.85654 15.4687 5.55766 12.335 5.8395 12.2229C5.83676 12.2257 5.83402 12.2284 5.83128 12.2312ZM310.605 20.4054C310.636 20.4515 312.065 20.5626 312.104 20.5202C312.924 19.5142 310.055 19.2914 310.605 20.4054ZM463.113 21.3106C463.177 21.4091 466.455 21.9561 466.58 21.888C468.542 20.4371 461.882 19.3259 463.113 21.3106ZM215.023 15.8366C213.631 17.0818 211.847 17.4763 210.414 16.3722C211.946 16.196 213.484 15.9776 215.023 15.8366Z" fill="#6F1A1A"/>
<path d="M29.69 132.712C35.0139 132.53 41.955 133.031 47.2137 133.628C48.8843 133.814 48.0051 134.368 49.1414 134.523C51.3741 134.826 53.4432 134.615 55.6446 134.969C56.3659 135.089 55.4274 135.977 56.1863 136.082C60.2858 136.641 64.1953 136.583 68.3472 136.946C68.4266 136.953 68.5059 136.96 68.5852 136.967C82.1256 137.926 99.5935 141.925 108.202 143.994C116.149 143.509 122.671 143.567 129.944 143.471C136.912 143.414 145.409 144.07 152.592 143.579C153.43 143.521 152.916 142.719 153.075 142.65C155.584 141.584 154.75 143.235 156.4 143.426C160.563 143.908 165.017 144.075 169.319 144.036C171.724 144.014 174.081 143.908 176.318 143.748C178.961 143.555 176.271 142.003 178.957 142.848C179.144 142.905 178.491 143.781 179.22 143.856C180.872 144.025 184.007 143.802 185.295 143.846C187.777 143.935 188.188 143.919 190.541 143.901C193.759 143.884 197.602 144.311 201.063 144.176C201.806 144.145 200.844 143.244 202.024 143.116C203.213 142.985 206.352 143.148 207.392 143.397C208.447 143.644 207.964 144.321 208.145 144.487C209.623 145.88 213.31 144.2 213.774 144.183C214.755 144.147 215.695 144.136 216.65 144.149C223.961 144.248 230.357 145.68 237.285 146.369C243.241 146.955 249.579 147.287 255.069 147.677C259.839 148.004 264.071 148.374 267.909 147.841C269.651 147.578 271.399 147.341 273.221 147.106C273.943 147.015 272.977 146.08 273.864 145.97C283.308 144.803 292.809 145.353 301.777 147.047C302.681 147.217 301.412 147.996 302.303 148.219C306.97 149.409 315.334 152.046 317.191 148.752C317.531 148.378 317.834 147.966 318.065 147.517C321.894 146.747 326.788 146.143 330.373 146.733C332.676 147.118 330.524 148.206 333.266 147.685C333.886 147.577 333.053 146.723 333.995 146.632C337.999 146.253 342.313 146.88 346.25 147.049C347.056 147.082 346.962 146.28 347.211 146.179C349.325 145.363 352.08 147.879 352.698 148.176C353.723 148.637 354.689 149.039 355.633 149.403C358.131 150.413 361.374 150.323 364.839 150.458C365.882 150.492 364.681 149.414 365.677 149.408C370.882 149.372 376.358 149.347 381.582 149.646C382.744 149.713 381.711 150.639 382.264 150.717C384.732 151.045 385.196 149.343 387.561 149.61C388.054 149.664 387.81 150.437 387.903 150.517C389.382 151.771 390.514 149.854 390.884 149.796C392.438 149.532 393.815 149.566 395.147 149.703C397.679 149.969 399.99 150.62 402.897 150.24C403.424 150.169 402.168 149.288 403.647 149.146C413.524 148.211 423.856 147.251 433.795 146.638C435.343 146.552 434.342 147.416 434.453 147.492C435.242 148.018 435.832 147.911 436.285 147.621C436.858 147.261 437.218 146.624 437.49 146.55C441.368 145.548 445.234 146.666 447.661 144.146C460.603 143.397 473.621 141.017 487.045 143.255C490.914 143.918 494.573 144.801 498.262 145.677C498.463 145.724 497.991 146.597 498.395 146.686C503.348 147.735 502.534 146.192 505.973 144.713C506.799 144.337 509.239 146.615 509.438 146.779C510.22 147.398 509.29 148.717 509.558 148.843C511.821 149.843 511.674 145.298 514.748 145.44C514.841 145.451 514.41 146.268 514.658 146.362C515.42 146.657 516.276 146.36 517.027 146.677C518.795 147.41 519.379 149.638 522.17 148.438C522.514 148.28 522.097 145.699 524.814 145.89C525.955 145.974 530.75 146.024 532.148 146.208C533.489 146.395 532.555 147.21 532.649 147.247C536.345 148.394 534.901 148.828 536.739 150.472C537.403 151.06 537.775 150.937 538.007 150.518C538.413 149.772 538.393 148.094 538.882 147.823C539.644 147.401 542.346 148.339 543.001 148.664C543.656 148.989 542.826 149.503 543.409 149.69C547.318 150.916 545.157 147.804 546.465 147.214C549.539 145.821 551.866 148.732 554.638 149.077C555.392 149.171 554.792 148.505 555.463 148.46C558.13 148.291 559.698 149.223 562.744 148.479C563.233 148.357 565.721 146.697 567.271 147.993C567.49 148.179 566.841 148.878 567.964 149.062C569.653 149.338 572.696 149.549 574.508 149.33C575.853 149.169 574.333 147.979 576.006 148.36C576.749 148.529 575.356 149.205 576.766 149.464C578.158 149.727 581.744 149.691 583.103 149.643C584.457 149.599 583.7 148.719 583.809 148.658C584.47 148.308 587.042 147.813 587.266 147.803C593.197 147.552 598.864 147.471 604.438 146.777C609.882 146.09 615.289 145.76 620.796 145.176C621.694 145.084 621.039 144.182 621.175 144.159C624.244 143.595 621.947 146.218 624.122 146.949C623.727 145.06 625.005 145.339 627.164 145.064C628.204 144.931 627.616 144.21 627.709 144.132C629.236 142.969 630.353 144.402 630.632 144.693C631.669 145.768 632.773 144.473 633.474 145.2C634.168 145.922 632.58 146.993 634.636 146.98C635.22 146.3 633.679 144.512 635.263 144.228C641.255 143.105 652.35 145.087 657.085 145.756C661.814 146.378 663.381 146.483 666.121 147.153C671.031 148.464 669.433 146.813 672.818 147.012C673.415 147.064 673.898 147.229 674.165 147.421C675.314 148.281 673.7 150.182 673.867 150.844C674.067 151.645 674.746 151.107 675.15 151.638C675.557 152.169 674.281 152.268 675.47 152.791C676.668 153.33 680.413 153.084 681.024 152.472C682.33 151.199 681.231 149.275 684.282 150.586C684.46 150.661 683.668 151.359 684.359 151.604C689.875 153.532 695.917 154.281 701.763 154.988C702.511 155.079 701.93 155.887 702.213 156.062C702.237 156.076 702.266 156.086 702.302 156.091C707.222 156.779 705.522 155.144 708.187 153.385C707.565 155.751 709.059 157.228 712.817 157.227C715.055 157.222 714.693 156.187 716.11 155.439C716.546 155.213 718.158 155.897 718.425 155.403C719.324 153.786 717.827 152.05 721.648 152.651C721.818 152.679 721.307 153.568 721.893 153.602C725.662 153.813 726.018 152.136 730.028 151.688C733.145 151.342 738.808 151.84 742.393 151.507C742.674 154.168 746.012 153.08 747.075 151.034C749.39 150.739 751.872 150.181 754.167 150.024C754.961 149.969 754.586 150.822 754.699 150.886C756.199 151.771 756.926 150.428 757.421 149.957C757.495 149.885 757.564 149.834 757.629 149.813C763.072 148.224 767.735 149.088 772.915 147.319C773.096 147.257 773.263 145.381 774.787 146.622C774.885 146.708 773.2 147.679 775.697 147.559C778.202 147.436 782.943 148.16 786.365 147.175C787.192 146.935 789.27 145.356 791.009 146.487C791.24 146.641 791.006 147.179 791.34 147.466C792.415 148.381 792.956 146.495 794.226 148.063C795.502 149.631 798.061 150.778 801.527 149.675C801.638 149.643 802.461 148.157 803.554 148.184C805.303 148.227 807.784 148.56 809.598 148.583C810.478 148.593 809.931 147.661 810.084 147.647C815.209 147.297 819.059 147.99 824.08 148.661C824.815 148.761 825.595 148.876 826.399 148.999C827.529 149.161 831.018 148.327 833.084 149.667C835.332 151.139 832.134 155.16 837.757 155.07C840.009 155.048 843.979 149.969 847.36 153.743C854.082 154.56 859.986 157.034 866.459 158.396C867.607 158.64 868.77 158.807 869.962 158.885C870.333 158.913 871.727 157.542 872.524 157.684C873.727 157.903 874.306 158.725 875.184 158.87C878.874 159.482 882.301 158.88 885.863 158.832C887.222 158.804 886.788 159.605 888.419 159.547C890.055 159.477 891.045 158.373 893.28 158.649C894.968 158.858 896.862 160.745 899.08 160.746C898.94 158.696 900.448 158.558 903.078 157.766C903.587 157.614 902.966 156.952 903.204 156.843C904.17 156.386 905.152 156.903 906.077 156.443C906.304 156.333 906.275 155.631 906.462 155.502C906.684 155.344 906.93 155.238 907.189 155.173C907.206 155.172 907.259 155.171 907.276 155.17C908.852 154.831 910.867 156.011 911.255 156.242C913.011 157.266 913.809 156.34 915.143 156.73C916.482 157.119 914.49 157.667 916.06 157.89C919.294 158.352 923.439 158.141 926.716 158.06C928.027 158.023 927.1 157.117 927.287 157.09C929.965 156.76 932.759 157.628 934.148 155.682C936.276 160.393 935.756 155.144 939.639 155.82C939.94 155.873 940.535 158.117 939.368 158.546C938.219 158.972 936.386 158.379 934.788 158.99C934.403 159.136 932.297 161.384 932.001 161.526C929.666 162.645 929.191 159.243 929.063 159.062C927.566 157.098 924.97 159.488 924.257 159.666C921.033 160.49 918.255 160.067 915.55 160.633C913.791 160.998 913.636 163.235 912.242 163.185C910.179 163.111 908.717 162.456 907.331 161.99L907.505 161.985C905.878 161.462 904.316 161.282 902.116 163.015C901.261 163.683 902.451 166.007 898.951 164.456C898.735 164.357 896.071 162.886 894.729 164.141C894.56 164.299 894.639 165.006 894.402 165.09C892.812 165.639 891.662 165.179 889.87 165.588C888.077 165.995 885.863 166.523 883.709 166.316C882.407 166.198 880.76 164.85 880.163 164.506C878.48 163.531 876.525 164.932 875.542 163.701C874.596 162.462 876.776 160.958 874.176 159.933C873.857 161.757 873.387 163.612 872.974 165.434C870.295 165.061 867.654 164.427 865.073 163.611C861.947 162.602 858.803 161.621 855.557 160.888C854.863 160.733 855.338 161.87 854.587 161.729C851.437 161.14 848.86 159.824 845.556 159.401C842.998 159.079 840.038 159.551 837.397 159.328C836.196 156.946 832.173 156.966 829.447 156.407C828.495 156.211 828.623 155.659 827.962 155.391C825.46 154.417 826.462 156.419 825.747 156.639C824.778 156.947 824.154 156.747 823.637 156.321C822.369 155.402 821.494 153.403 818.911 153.365C818.719 153.359 816.18 155.522 815.844 155.654C813.674 156.502 815.515 154.857 814.179 154.65C811.74 154.278 810.034 153.702 807.145 154.328C806.305 154.513 804.283 155.902 802.659 154.814C802.445 154.671 802.564 153.925 802.392 153.882C799.257 153.157 799.186 155.507 797.418 156.317C795.654 157.128 792.884 155.566 792.308 155.116C790.814 153.945 793.42 154.573 793.498 154.455C794.405 153.028 792.393 153.309 790.851 153.233C790.564 150.941 788.403 151.146 789.251 153.166C789.347 153.386 790.538 153.136 790.851 153.233C789.557 155.524 787.241 155.884 784.544 153.897C783.28 152.969 784.378 151.752 780.68 152.372C779.004 152.66 779.753 154.2 778.3 154.724C775.002 155.919 770.528 154.813 767.108 155.437C765.878 155.662 767.183 156.384 766.349 156.569C764.137 157.066 762.077 156.688 759.914 157.369C759.719 157.432 760.349 158.248 759.668 158.37C759.4 158.419 759.136 158.467 758.875 158.513C753.982 159.392 749.134 159.832 743.503 160.558C740.641 160.95 735.524 161.97 732.537 162.073C727.342 162.297 721.025 161.192 716.672 161.572C713.861 161.815 714.453 162.71 713.256 163.337C710.888 164.555 706.759 162.381 706.207 162.04C706.199 162.03 708.611 161.836 707.33 161.36C706.591 160.384 706.235 162.036 706.207 162.04C705.952 161.899 703.873 161.74 702.109 161.675C701.125 161.64 700.266 161.623 699.91 161.67C699.357 161.742 699.628 162.613 699.337 162.634C692.445 163.113 685.281 162.264 678.609 160.071C678.495 160.023 678.918 159.141 678.648 159.04C675.628 157.876 673.284 157.854 670.752 157.7C670.417 157.755 669.952 157.783 669.469 157.802C666.93 157.886 664.656 157.31 663.206 155.428C660.995 155.312 657.862 154.226 656.038 153.612C654.201 152.995 653.786 154.845 653.617 154.866C648.424 155.636 645.524 154.408 640.179 154.088C637.638 153.928 632.59 154.172 629.86 154.441C627.702 154.649 626.384 154.254 624.412 154.621C624.145 154.671 624.454 155.49 624.374 155.526C622.222 156.628 623.176 154.545 622.7 154.205C620.972 152.979 619.868 152.331 617.085 153.19C616.427 153.388 614.833 156.484 613.708 156.787C612.247 157.175 612.668 156.064 611.139 156.518C611.006 156.558 611.128 157.192 610.161 157.299C608.929 157.44 607.664 157.586 606.42 157.752C602.442 158.317 598.358 158.598 594.51 158.926C593.779 158.985 594.794 159.945 593.732 160.045C588.766 160.507 583.418 160.559 578.768 160.07C577.614 159.945 578.341 159.227 578.093 159.013C576.584 157.716 574.424 159.571 574.061 159.602C565.605 160.389 559.3 158.478 550.852 159.108C550.399 159.145 546.833 161.087 545.298 159.334C545.201 159.218 543.651 157.423 542.278 158.613C542.191 158.687 543.146 159.611 541.459 159.495C540.502 159.43 539.272 159.582 537.923 159.553C536.817 159.53 535.695 159.39 534.683 158.935C533.894 158.61 532.231 156.826 529.926 158.191C529.793 158.289 526.272 161.4 525.078 159.175C524.882 158.809 525.155 156.498 522.452 157.615C521.932 157.831 522.844 158.375 521.491 158.659C519.398 159.096 516.718 158.382 514.097 159.299C513.636 159.462 511.643 160.947 510.18 159.667C509.95 159.467 510.465 158.72 509.641 158.586C505.832 157.952 501.709 158.162 497.779 157.187C496.404 156.843 497.246 155.68 495.846 155.174C494.43 154.668 491.603 153.952 490.084 154.313C488.565 154.679 489.841 156.871 487.702 156.736C486.916 156.688 486.158 156.634 485.396 156.574C477.928 155.955 469.888 155.461 461.353 156.033C459.975 156.132 461.198 156.736 459.156 156.94C453.524 157.502 444.668 158.932 437.779 159.34C435.653 159.46 433.641 159.498 431.99 159.35C426.481 158.863 433.085 157.046 428.936 157.1C426.937 157.127 425.067 159.699 424.595 159.83C419.957 161.142 416.555 160.466 412.322 161.169C411.444 161.313 412.398 162.172 411.643 162.285C409.093 162.674 406.362 162.465 403.916 162.71C402.805 162.823 403.076 163.524 402.052 163.535C399.879 163.563 397.923 163.421 395.818 162.993C395.569 162.942 395.319 162.888 395.068 162.829C394.852 162.778 396.243 161.814 394.47 161.869C391.607 161.959 388.028 161.455 384.745 162.262C383.784 162.503 383.786 164.149 381.634 163.084C381.176 162.86 381.704 160.876 379.275 162.648C378.876 162.945 374.742 165.34 372.659 163.872C372.096 163.488 370.707 161.885 369.507 162.135C369.342 162.175 370 163.059 368.994 163.142C365.435 163.406 361.741 163.259 357.638 163.134C356.52 163.089 358.106 164.185 356.39 164.072C355.142 163.97 353.763 163.818 351.887 163.33C349.201 162.617 346.373 161.833 344.019 161.256C342.847 160.97 343.777 160.347 343.704 160.252C342.476 158.718 341.399 160.421 340.944 160.478C338.029 160.812 335.923 159.889 333.303 160.18C332.587 160.263 333.127 161.107 332.987 161.189C331.567 162.001 332.582 160.405 331.638 160.286C328.977 159.957 326.031 160.436 323.346 161.113C322.355 161.365 323.681 162.103 322.8 162.319C322.1 162.496 321.386 162.682 320.661 162.873C314.875 164.078 312.203 163.378 309.16 163.122C306.24 162.757 303.65 162.276 301.168 161.766C300.095 161.542 300.86 160.853 300.653 160.653C299.218 159.258 296.775 160.71 296.267 160.828C293.874 161.355 293.028 160.616 290.992 160.633C284.421 160.698 277.097 160.899 270.364 161.928C265.13 162.707 260.928 162.449 257.208 162.233C243.175 161.115 233.512 158.886 221.169 158.188C220.389 158.14 221.098 159.219 220.424 159.192C218.855 159.12 217.299 159.036 215.735 158.95C208.698 158.559 201.769 158.119 194.678 158.375C193.969 158.399 194.994 159.366 193.855 159.438C191.52 159.592 188.548 159.579 186.145 159.316C184.972 159.189 186.527 158.327 185.345 158.217C182.592 157.959 179.62 157.962 176.752 158.178C175.532 158.272 177.396 159.225 175.807 159.269C173.711 159.331 171.608 159.39 169.501 159.428C160.907 159.585 152.363 159.63 143.634 158.777C142.877 158.704 142.205 156.702 140.623 157.124C140.516 157.686 140.538 158.344 140.499 158.943C130.286 159.411 119.05 159.387 110.114 159.794C106.09 160.056 105.104 159.501 103.466 159.254C102.003 158.952 100.724 158.647 99.456 158.352C96.9307 157.761 94.5389 157.219 92.1032 156.742C91.4798 156.62 92.3448 157.868 91.165 157.645C84.2567 156.354 77.5484 155.841 70.4286 154.349C69.7115 154.205 70.2003 152.342 68.049 152.521C67.9865 152.527 67.847 152.534 67.6527 152.545C66.6186 152.595 64.1915 152.721 63.447 153.031C63.3285 153.088 63.8943 153.99 62.8273 153.97C56.6014 153.841 50.0983 153.397 43.9142 152.667C42.9281 152.548 44.0085 151.647 43.3091 151.555C38.2648 150.902 32.7315 151.468 27.9227 150.53C24.7141 149.902 25.9224 148.309 24.229 146.694C24.0062 146.466 21.9836 146.406 21.8952 145.482C21.6492 143.154 22.6596 140.618 22.2751 138.136C22.2323 137.599 19.3736 138.156 21.0895 136.877C21.2019 136.79 23.2065 136.382 23.6835 135.952C24.0355 135.654 23.4368 134.705 24.1249 134.327C24.8457 133.95 25.5607 134.749 26.736 134.314C27.8727 133.874 27.3996 132.794 29.69 132.712ZM647.693 151.002C645.965 150.009 645.55 153.283 647.487 152.598C647.581 152.561 647.781 151.051 647.693 151.002ZM861.785 159.79C859.885 157.809 857.827 159.504 859.141 160.983C860.451 162.463 862.358 160.39 861.785 159.79ZM886.746 161.682C883.922 160.658 883.558 165.332 886.627 164.269C886.805 164.207 886.913 161.74 886.746 161.682ZM32.231 146.392C32.2065 146.348 30.767 146.273 30.7275 146.316C29.9365 147.344 32.8211 147.492 32.231 146.392ZM910.659 158.65C909.793 158.03 907.343 158.78 908.411 159.555C909.265 160.18 911.736 159.423 910.659 158.65ZM554.676 150.684C554.651 150.635 553.603 150.566 553.622 150.844C553.667 151.738 555.13 151.52 554.676 150.684ZM951.651 155.175C950.819 155.422 950.024 155.604 949.277 155.741L949.316 155.724C946.774 156.184 945.241 155.246 944.803 154.595C944.345 153.868 945.426 153.248 947.613 152.849C947.96 152.766 947.758 153.186 947.303 153.651C946.887 154.106 946.398 154.583 947.155 154.6C947.726 154.611 948.265 154.456 948.601 154.212C948.607 154.209 948.627 154.2 948.634 154.197C950.338 153.18 951.629 151.453 954.085 151.849C954.626 151.938 951.925 155.071 951.643 155.183C951.646 155.181 951.648 155.178 951.651 155.175ZM646.878 147.001C646.846 146.955 645.417 146.844 645.378 146.886C644.558 147.892 647.427 148.115 646.878 147.001ZM494.37 146.096C494.305 145.997 491.027 145.45 490.902 145.518C488.94 146.969 495.6 148.08 494.37 146.096ZM742.46 151.57C743.851 150.324 745.635 149.93 747.068 151.034C745.537 151.21 743.999 151.429 742.46 151.57Z" fill="#6F1A1A"/>
</g>
<defs>
<clipPath id="clip0_24_1571">
<rect width="974" height="174" fill="white"/>
</clipPath>
</defs>
</svg>
