<svg xmlns="http://www.w3.org/2000/svg" width="974" height="174" fill="none" viewBox="0 0 974 174"><g fill="#6f1a1a" clip-path="url(#a)"><path d="M898.694 83.703 963.858 161H-.001l65.164-77.297L1.343 8h961.172z"/><path d="M927.792 34.694c-5.323.182-12.265-.319-17.523-.916-1.671-.186-.792-.74-1.928-.895-2.233-.303-4.302-.092-6.503-.446-.721-.12.217-1.008-.542-1.113-4.099-.558-8.009-.5-12.161-.864l-.238-.02c-13.54-.96-31.008-4.96-39.617-7.028-7.947.485-14.469.427-21.742.523-6.967.058-15.464-.598-22.648-.108-.838.058-.324.86-.482.93-2.51 1.065-1.676-.586-3.326-.777-4.162-.482-8.617-.649-12.919-.61a113 113 0 0 0-6.998.289c-2.644.192.046 1.744-2.64.9-.186-.058.467-.933-.262-1.009-1.652-.17-4.788.055-6.076.01-2.482-.089-2.892-.073-5.245-.054-3.219.016-7.061-.41-10.523-.276-.742.032.22.932-.96 1.06-1.19.13-4.328-.032-5.368-.281-1.056-.247-.572-.924-.754-1.09-1.478-1.393-5.165.287-5.628.304a56 56 0 0 1-2.877.034c-7.311-.1-13.706-1.53-20.634-2.22-5.957-.586-12.295-.918-17.785-1.308-4.769-.327-9.001-.697-12.84-.164-1.742.263-3.49.5-5.312.735-.722.09.245 1.026-.642 1.136-9.445 1.168-18.946.618-27.913-1.077-.905-.17.365-.948-.527-1.171-4.667-1.19-13.03-3.827-14.887-.534-.34.374-.643.786-.874 1.235-3.83.77-8.724 1.375-12.309.785-2.303-.386-.151-1.474-2.892-.953-.62.108.212.962-.73 1.053-4.004.38-8.317-.248-12.254-.417-.806-.033-.713.769-.961.87-2.114.817-4.87-1.7-5.488-1.996a57 57 0 0 0-2.935-1.228c-2.498-1.01-5.741-.92-9.206-1.055-1.043-.034.158 1.044-.838 1.05-5.204.036-10.681.062-15.905-.237-1.161-.068-.128-.994-.682-1.072-2.468-.328-2.931 1.375-5.296 1.108-.494-.054-.25-.828-.343-.908-1.478-1.254-2.611.663-2.98.721-1.554.264-2.932.23-4.264.093-2.532-.266-4.842-.916-7.749-.537-.528.072.729.952-.75 1.094-9.878.936-20.21 1.896-30.148 2.508-1.549.087-.548-.778-.658-.854-.79-.526-1.38-.419-1.832-.128-.573.359-.934.996-1.205 1.07-3.878 1.002-7.744-.116-10.172 2.404-12.942.75-25.959 3.13-39.383.891-3.87-.663-7.529-1.546-11.217-2.422-.201-.046.27-.92-.134-1.009-4.953-1.048-4.139.495-7.578 1.974-.826.375-3.265-1.902-3.464-2.067-.783-.62.147-1.937-.121-2.064-2.262-1-2.116 3.545-5.189 3.404-.094-.012.337-.828.089-.922-.762-.296-1.618 0-2.369-.316-1.768-.732-2.351-2.96-5.142-1.76-.344.157.073 2.738-2.645 2.547-1.14-.083-5.936-.134-7.334-.318-1.341-.186-.406-1.002-.501-1.039-3.696-1.147-2.252-1.58-4.09-3.224-.664-.59-1.035-.465-1.267-.046-.407.745-.387 2.424-.875 2.694-.762.423-3.465-.516-4.119-.841-.655-.325.175-.839-.408-1.026-3.91-1.225-1.749 1.886-3.056 2.476-3.075 1.393-5.402-1.518-8.174-1.863-.753-.093-.153.572-.825.617-2.666.17-4.235-.763-7.281-.019-.489.122-2.977 1.782-4.527.487-.219-.187.43-.886-.693-1.07-1.689-.276-4.731-.486-6.544-.268-1.344.162.176 1.351-1.497.97-.743-.168.649-.844-.761-1.104-1.391-.263-4.977-.227-6.337-.18-1.353.045-.597.925-.706.986-.661.35-3.232.845-3.457.856-5.931.25-11.597.331-17.172 1.025-5.444.687-10.85 1.017-16.358 1.601-.898.093-.243.994-.379 1.017-3.068.564-.771-2.058-2.946-2.79.395 1.889-.884 1.61-3.043 1.886-1.04.132-.452.853-.545.932-1.527 1.163-2.644-.27-2.923-.562-1.037-1.074-2.14.22-2.841-.506-.694-.723.893-1.794-1.163-1.78-.584.68.958 2.467-.626 2.75-5.992 1.125-17.087-.858-21.823-1.526-4.728-.623-6.295-.728-9.035-1.398-4.911-1.311-3.312.34-6.697.141-.597-.052-1.081-.216-1.348-.408-1.148-.861.465-2.762.299-3.424-.201-.8-.879-.263-1.284-.794-.407-.53.869-.63-.32-1.152-1.197-.54-4.942-.294-5.554.318-1.305 1.273-.207 3.198-3.258 1.886-.178-.075.615-.772-.077-1.018-5.515-1.928-11.558-2.676-17.403-3.383-.748-.092-.168-.9-.451-1.074a.2.2 0 0 0-.089-.03c-4.919-.688-3.219.947-5.885 2.707.622-2.366-.871-3.844-4.63-3.843-2.238.005-1.876 1.04-3.292 1.789-.437.225-2.049-.458-2.315.036-.9 1.616.597 3.353-3.224 2.751-.17-.028.341-.917-.245-.951-3.769-.211-4.125 1.467-8.135 1.914-3.117.346-8.78-.152-12.365.181-.281-2.66-3.619-1.573-4.682.473-2.315.296-4.797.853-7.091 1.01-.794.055-.419-.797-.532-.862-1.5-.884-2.228.458-2.722.93a.6.6 0 0 1-.209.143c-5.442 1.59-10.105.725-15.285 2.494-.182.062-.348 1.939-1.873.698-.098-.087 1.587-1.058-.909-.938-2.505.123-7.246-.6-10.669.384-.826.24-2.904 1.82-4.643.688-.231-.154.003-.692-.332-.979-1.075-.915-1.616.971-2.885-.597-1.277-1.568-3.835-2.715-7.302-1.612-.111.032-.934 1.519-2.026 1.492-1.75-.043-4.231-.377-6.044-.4-.88-.01-.334.922-.487.936-5.125.35-8.975-.343-13.995-1.014-.735-.1-1.516-.215-2.319-.338-1.131-.162-4.62.672-6.686-.668-2.248-1.471.951-5.493-4.673-5.402-2.251.021-6.222 5.1-9.602 1.326-6.722-.817-12.627-3.29-19.1-4.653a24.4 24.4 0 0 0-3.503-.489c-.37-.028-1.765 1.344-2.562 1.201-1.203-.219-1.782-1.041-2.66-1.186-3.69-.611-7.116-.01-10.679.038-1.359.028-.924-.773-2.555-.714-1.636.07-2.627 1.173-4.862.898-1.688-.21-3.581-2.097-5.8-2.098.14 2.05-1.367 2.188-3.998 2.98-.508.152.112.815-.126.923-.966.458-1.947-.06-2.873.4-.227.11-.198.812-.385.942a2.2 2.2 0 0 1-.727.328c-.017.002-.07.002-.087.003-1.576.34-3.59-.84-3.979-1.072-1.756-1.023-2.554-.098-3.887-.488-1.34-.39.652-.937-.918-1.16-3.233-.462-7.378-.25-10.656-.17-1.31.037-.384.943-.57.97-2.679.33-5.472-.538-6.861 1.409-2.129-4.711-1.608.537-5.492-.138-.301-.054-.895-2.298.271-2.726 1.15-.426 2.982.167 4.58-.444.385-.147 2.492-2.395 2.788-2.536 2.334-1.12 2.81 2.282 2.938 2.464 1.496 1.963 4.093-.426 4.806-.605 3.223-.823 6.002-.4 8.707-.967 1.759-.365 1.913-2.601 3.307-2.552 2.063.074 3.526.729 4.912 1.195l-.174.005c1.626.523 3.189.704 5.388-1.03.855-.668-.334-2.992 3.166-1.441.216.099 2.88 1.57 4.222.316.168-.158.09-.866.326-.95 1.59-.548 2.74-.088 4.533-.497 1.792-.408 4.006-.936 6.16-.73 1.302.12 2.95 1.467 3.547 1.811 1.682.976 3.637-.426 4.62.805.946 1.24-1.233 2.743 1.367 3.768.319-1.824.789-3.679 1.202-5.5 2.679.372 5.32 1.006 7.9 1.822 3.126 1.01 6.27 1.99 9.516 2.724.695.154.219-.982.97-.842 3.151.59 5.728 1.906 9.032 2.328 2.557.322 5.517-.15 8.158.073 1.201 2.382 5.225 2.362 7.95 2.921.953.196.824.748 1.486 1.016 2.501.975 1.499-1.028 2.215-1.248.968-.308 1.592-.108 2.11.318 1.268.92 2.143 2.919 4.726 2.956.191.006 2.731-2.157 3.067-2.289 2.169-.848.328.797 1.664 1.004 2.439.372 4.146.948 7.035.322.84-.185 2.861-1.574 4.485-.485.214.142.095.888.268.932 3.134.725 3.206-1.625 4.973-2.436 1.764-.81 4.534.75 5.11 1.202 1.494 1.17-1.112.542-1.19.66-.907 1.427 1.106 1.146 2.647 1.222.287 2.292 2.448 2.087 1.6.067-.096-.22-1.286.03-1.6-.067 1.294-2.29 3.61-2.65 6.307-.663 1.264.927.167 2.145 3.864 1.524 1.677-.288.928-1.828 2.38-2.352 3.299-1.195 7.772-.089 11.192-.713 1.23-.225-.075-.947.759-1.131 2.212-.497 4.273-.12 6.435-.8.195-.064-.434-.88.246-1.002q.402-.075.794-.143c4.892-.88 9.74-1.319 15.372-2.045 2.862-.392 7.979-1.412 10.965-1.515 5.196-.223 11.513.88 15.865.502 2.811-.243 2.22-1.138 3.417-1.766 2.367-1.217 6.496.956 7.048 1.297.008.01-2.403.205-1.122.68.739.976 1.094-.676 1.122-.68.256.142 2.335.3 4.098.365.985.035 1.843.052 2.199.005.553-.072.283-.943.573-.963 6.892-.48 14.057.37 20.729 2.562.114.048-.309.93-.04 1.031 3.021 1.164 5.365 1.186 7.896 1.34.335-.055.8-.083 1.283-.101 2.539-.085 4.813.492 6.264 2.373 2.21.117 5.344 1.202 7.167 1.816 1.838.617 2.252-1.233 2.422-1.254 5.192-.77 8.093.458 13.438.779 2.54.16 7.588-.085 10.318-.354 2.158-.208 3.476.187 5.449-.18.267-.05-.043-.87.038-.905 2.151-1.102 1.197.981 1.673 1.321 1.728 1.226 2.832 1.874 5.616 1.015.658-.197 2.252-3.294 3.376-3.596 1.461-.389 1.041.722 2.57.268.132-.04.01-.674.978-.781 1.231-.14 2.496-.287 3.741-.453 3.977-.565 8.061-.845 11.909-1.174.731-.059-.283-1.018.778-1.118 4.966-.463 10.314-.515 14.964-.025 1.154.124.427.842.676 1.057 1.509 1.297 3.668-.559 4.032-.59 8.455-.787 14.761 1.124 23.208.494.453-.037 4.019-1.98 5.555-.226.096.117 1.646 1.91 3.02.721.087-.074-.868-.997.819-.882.956.065 2.186-.087 3.536-.058 1.105.023 2.227.163 3.239.618.79.325 2.452 2.11 4.757.744.133-.097 3.654-3.209 4.849-.984.196.367-.078 2.677 2.626 1.56.519-.216-.393-.76.96-1.044 2.094-.437 4.773.277 7.395-.64.46-.163 2.453-1.648 3.916-.368.23.2-.285.947.54 1.08 3.808.635 7.932.426 11.861 1.4 1.375.345.534 1.508 1.933 2.013 1.417.506 4.244 1.223 5.762.86 1.519-.364.243-2.557 2.382-2.422.787.048 1.544.102 2.306.162 7.469.62 15.509 1.113 24.043.54 1.378-.097.155-.701 2.197-.905 5.633-.562 14.488-1.993 21.377-2.4 2.127-.12 4.139-.159 5.79-.011 5.508.488-1.096 2.305 3.054 2.25 1.998-.027 3.869-2.599 4.341-2.73 4.638-1.312 8.04-.635 12.272-1.339.879-.144-.075-1.003.679-1.116 2.55-.389 5.282-.18 7.727-.425 1.112-.112.841-.814 1.865-.825 2.172-.028 4.129.114 6.233.542q.373.076.751.164c.215.051-1.175 1.015.597.96 2.863-.09 6.443.414 9.726-.393.96-.241.959-1.887 3.11-.822.458.224-.07 2.209 2.359.436.4-.297 4.534-2.692 6.617-1.224.562.384 1.951 1.987 3.151 1.737.165-.04-.492-.924.514-1.007 3.558-.264 7.253-.116 11.355.009 1.118.045-.468-1.052 1.248-.938 1.248.101 2.627.253 4.504.741 2.685.713 5.513 1.497 7.868 2.074 1.172.286.241.91.314 1.004 1.228 1.534 2.305-.169 2.761-.225 2.914-.335 5.021.588 7.64.297.716-.083.177-.927.316-1.008 1.42-.812.405.783 1.349.902 2.661.33 5.608-.15 8.292-.826.991-.253-.335-.99.546-1.207q1.052-.266 2.139-.554c5.786-1.204 8.458-.505 11.501-.249 2.921.366 5.51.846 7.993 1.356 1.072.224.307.914.515 1.113 1.434 1.395 3.878-.056 4.385-.175 2.393-.526 3.239.213 5.276.195 6.57-.065 13.894-.266 20.627-1.294 5.235-.78 9.436-.522 13.157-.306 14.032 1.118 23.695 3.348 36.039 4.045.78.048.071-1.031.744-1.003 1.569.072 3.126.155 4.689.241 7.037.391 13.966.831 21.058.575.709-.023-.316-.99.823-1.062 2.335-.155 5.307-.142 7.709.121 1.173.127-.381.99.801 1.1 2.753.258 5.724.255 8.593.038 1.219-.093-.644-1.047.944-1.09 2.097-.063 4.199-.121 6.307-.16 8.594-.157 17.137-.202 25.866.652.758.072 1.43 2.074 3.011 1.652.107-.562.086-1.22.125-1.818 10.212-.47 21.448-.444 30.384-.852 4.025-.262 5.011.293 6.648.54 1.463.302 2.743.608 4.01.902 2.526.59 4.917 1.133 7.353 1.61.624.122-.241-1.126.938-.903 6.909 1.291 13.617 1.804 20.737 3.296.717.145.228 2.007 2.379 1.828.063-.006.202-.013.397-.023 1.034-.05 3.461-.177 4.205-.487.119-.057-.447-.958.62-.939 6.226.13 12.729.573 18.913 1.303.986.12-.094 1.02.605 1.113 5.045.653 10.578.086 15.387 1.024 3.208.628 2 2.22 3.693 3.836.223.228 2.246.288 2.334 1.213.246 2.327-.764 4.863-.38 7.345.043.537 2.902-.02 1.186 1.26-.113.086-2.117.494-2.594.924-.352.298.247 1.247-.441 1.625-.721.377-1.436-.422-2.612.013-1.136.44-.663 1.52-2.954 1.602M309.79 16.404c1.728.993 2.142-2.28.205-1.596-.094.037-.293 1.547-.205 1.596M95.697 7.616c1.9 1.981 3.959.287 2.644-1.193-1.31-1.48-3.216.593-2.644 1.193m-24.96-1.892c2.823 1.024 3.188-3.65.119-2.587-.179.062-.286 2.529-.12 2.587m854.514 15.29c.025.045 1.464.12 1.504.076.791-1.027-2.094-1.175-1.504-.076M46.823 8.756c.867.62 3.317-.13 2.248-.905-.853-.625-3.325.132-2.248.905m355.983 7.966c.026.05 1.074.118 1.054-.16-.045-.894-1.507-.676-1.054.16M5.831 12.232a23 23 0 0 1 2.374-.567l-.038.017c2.542-.46 4.075.479 4.513 1.13.457.726-.623 1.346-2.81 1.745-.347.083-.146-.336.309-.802.416-.455.905-.932.149-.949-.572-.01-1.111.144-1.446.388l-.034.015c-1.704 1.017-2.995 2.744-5.45 2.348-.541-.088 2.16-3.222 2.442-3.334zm304.774 8.173c.031.046 1.46.158 1.499.115.82-1.006-2.049-1.229-1.499-.115m152.508.906c.064.098 3.342.645 3.467.577 1.962-1.45-4.698-2.562-3.467-.577m-248.09-5.474c-1.392 1.245-3.176 1.64-4.609.535 1.532-.176 3.07-.394 4.609-.535M29.69 132.712c5.324-.182 12.265.319 17.524.916 1.67.186.791.74 1.927.895 2.233.303 4.302.092 6.504.446.72.12-.218 1.008.541 1.113 4.1.559 8.01.501 12.161.864l.238.021c13.54.959 31.009 4.958 39.617 7.027 7.947-.485 14.469-.427 21.742-.523 6.968-.057 15.465.599 22.648.108.838-.058.324-.86.483-.929 2.509-1.066 1.675.585 3.325.776 4.163.482 8.617.649 12.919.61 2.405-.022 4.762-.128 6.999-.288 2.643-.193-.047-1.745 2.639-.9.187.057-.466.933.263 1.008 1.652.169 4.787-.054 6.075-.01 2.482.089 2.893.073 5.246.055 3.218-.017 7.061.41 10.522.275.743-.031-.219-.932.961-1.06 1.189-.131 4.328.032 5.368.281 1.055.247.572.924.753 1.09 1.478 1.393 5.165-.287 5.629-.304a57 57 0 0 1 2.876-.034c7.311.099 13.707 1.531 20.635 2.22 5.956.586 12.294.918 17.784 1.308 4.77.327 9.002.697 12.84.164 1.742-.263 3.49-.5 5.312-.735.722-.091-.244-1.026.643-1.136 9.444-1.167 18.945-.617 27.913 1.077.904.17-.365.949.526 1.172 4.667 1.19 13.031 3.827 14.888.533.34-.374.643-.786.874-1.235 3.829-.77 8.723-1.374 12.308-.784 2.303.385.151 1.473 2.893.952.62-.108-.213-.962.729-1.053 4.004-.379 8.318.248 12.255.417.806.033.712-.769.961-.87 2.114-.816 4.869 1.7 5.487 1.997 1.025.461 1.991.863 2.935 1.227 2.498 1.01 5.741.92 9.206 1.055 1.043.034-.158-1.044.838-1.05 5.205-.036 10.681-.061 15.905.238 1.162.067.129.993.682 1.071 2.468.328 2.932-1.374 5.297-1.107.493.054.249.827.342.907 1.479 1.254 2.611-.663 2.981-.721 1.554-.264 2.931-.23 4.263-.093 2.532.266 4.843.917 7.75.537.527-.071-.729-.952.75-1.094 9.877-.935 20.209-1.895 30.148-2.508 1.548-.086.547.778.658.854.789.526 1.379.419 1.832.129.573-.36.933-.997 1.205-1.071 3.878-1.002 7.744.116 10.171-2.404 12.942-.749 25.96-3.129 39.384-.891 3.869.663 7.528 1.546 11.217 2.422.201.047-.271.92.133 1.009 4.953 1.049 4.139-.494 7.578-1.973.826-.376 3.266 1.902 3.465 2.066.782.619-.148 1.938.12 2.064 2.263 1 2.116-3.545 5.19-3.403.093.011-.338.828-.09.922.762.295 1.618-.002 2.369.315 1.768.733 2.352 2.961 5.143 1.761.344-.158-.073-2.739 2.644-2.548 1.141.084 5.936.134 7.334.318 1.341.187.407 1.002.501 1.039 3.696 1.147 2.252 1.581 4.09 3.225.664.588 1.036.465 1.268.046.406-.746.386-2.424.875-2.695.762-.422 3.464.516 4.119.841s-.175.839.408 1.026c3.909 1.226 1.748-1.886 3.056-2.476 3.074-1.393 5.401 1.518 8.173 1.863.754.094.154-.572.825-.617 2.667-.169 4.235.763 7.281.019.489-.122 2.977-1.782 4.527-.486.219.186-.43.885.693 1.069 1.689.276 4.732.487 6.544.268 1.345-.161-.175-1.351 1.498-.97.743.169-.65.845.76 1.104 1.392.263 4.978.227 6.337.179 1.354-.044.597-.924.706-.985.661-.35 3.233-.845 3.457-.855 5.931-.251 11.598-.332 17.172-1.026 5.444-.687 10.851-1.017 16.358-1.601.898-.092.243-.994.379-1.017 3.069-.564.772 2.059 2.947 2.79-.395-1.889.883-1.61 3.042-1.885 1.04-.133.452-.854.545-.932 1.527-1.163 2.644.27 2.923.561 1.037 1.075 2.141-.22 2.842.507.694.722-.894 1.793 1.162 1.78.584-.68-.957-2.468.627-2.752 5.992-1.123 17.087.859 21.822 1.528 4.729.622 6.296.727 9.036 1.397 4.91 1.311 3.312-.34 6.697-.141.597.052 1.08.217 1.347.409 1.149.86-.465 2.761-.298 3.423.2.801.879.263 1.283.794.407.531-.869.63.32 1.153 1.198.539 4.943.293 5.554-.319 1.306-1.273.207-3.197 3.258-1.886.178.075-.614.773.077 1.018 5.516 1.928 11.558 2.677 17.404 3.384.748.091.167.899.45 1.074a.2.2 0 0 0 .089.029c4.92.688 3.22-.947 5.885-2.706-.622 2.366.872 3.843 4.63 3.842 2.238-.005 1.876-1.04 3.293-1.788.436-.226 2.048.458 2.315-.036.899-1.617-.598-3.353 3.223-2.752.17.028-.341.917.245.951 3.769.211 4.125-1.466 8.135-1.914 3.117-.346 8.78.152 12.365-.181.281 2.661 3.619 1.573 4.682-.473 2.315-.295 4.797-.853 7.092-1.01.794-.055.419.798.532.862 1.5.885 2.227-.458 2.722-.929a.6.6 0 0 1 .208-.144c5.443-1.589 10.106-.725 15.286-2.494.181-.062.348-1.938 1.872-.697.098.086-1.587 1.057.91.937 2.505-.123 7.246.601 10.668-.384.827-.24 2.905-1.819 4.644-.688.231.154-.003.692.331.979 1.075.915 1.616-.971 2.886.597 1.276 1.568 3.835 2.715 7.301 1.612.111-.032.934-1.518 2.027-1.491 1.749.043 4.23.376 6.044.399.88.01.333-.922.486-.936 5.125-.35 8.975.343 13.996 1.014.735.1 1.515.215 2.319.338 1.13.162 4.619-.672 6.685.668 2.248 1.472-.95 5.493 4.673 5.403 2.252-.022 6.222-5.101 9.603-1.327 6.722.817 12.626 3.291 19.099 4.653a24.5 24.5 0 0 0 3.503.489c.371.028 1.765-1.343 2.562-1.201 1.203.219 1.782 1.041 2.66 1.186 3.69.612 7.117.01 10.679-.038 1.359-.028.925.773 2.556.715 1.636-.07 2.626-1.174 4.861-.898 1.688.209 3.582 2.096 5.8 2.097-.14-2.05 1.368-2.188 3.998-2.98.509-.152-.112-.814.126-.923.966-.457 1.948.06 2.873-.4.227-.11.198-.812.385-.941.222-.158.468-.264.727-.329l.087-.003c1.576-.339 3.591.841 3.979 1.072 1.756 1.024 2.554.098 3.888.488 1.339.389-.653.937.917 1.16 3.234.462 7.379.251 10.656.17 1.311-.037.384-.943.571-.97 2.678-.33 5.472.538 6.861-1.408 2.128 4.711 1.608-.538 5.491.138.301.053.896 2.297-.271 2.726-1.149.426-2.982-.167-4.58.444-.385.146-2.491 2.394-2.787 2.536-2.335 1.119-2.81-2.283-2.938-2.464-1.497-1.964-4.093.426-4.806.604-3.224.824-6.002.401-8.707.967-1.759.365-1.914 2.602-3.308 2.552-2.063-.074-3.525-.729-4.911-1.195l.174-.005c-1.627-.523-3.189-.703-5.389 1.03-.855.668.335 2.992-3.165 1.441-.216-.099-2.88-1.57-4.222-.315-.169.158-.09.865-.327.949-1.59.549-2.74.089-4.532.498-1.793.407-4.007.935-6.161.728-1.302-.118-2.949-1.466-3.546-1.81-1.683-.975-3.638.426-4.621-.805-.946-1.239 1.234-2.743-1.366-3.768-.319 1.824-.789 3.679-1.202 5.501-2.679-.373-5.32-1.007-7.901-1.823-3.126-1.009-6.27-1.99-9.516-2.723-.694-.155-.219.982-.97.841-3.15-.589-5.727-1.905-9.031-2.328-2.558-.322-5.518.15-8.159-.073-1.201-2.382-5.224-2.362-7.95-2.921-.952-.196-.824-.748-1.485-1.016-2.502-.974-1.5 1.028-2.215 1.248-.969.308-1.593.108-2.11-.318-1.268-.919-2.143-2.918-4.726-2.956-.192-.006-2.731 2.157-3.067 2.289-2.17.848-.329-.797-1.665-1.004-2.439-.372-4.145-.948-7.034-.322-.84.185-2.862 1.574-4.486.486-.214-.143-.095-.889-.267-.932-3.135-.725-3.206 1.625-4.974 2.435-1.764.811-4.534-.751-5.11-1.201-1.494-1.171 1.112-.543 1.19-.661.907-1.427-1.105-1.146-2.647-1.222-.287-2.292-2.448-2.087-1.6-.067.096.22 1.287-.03 1.6.067-1.294 2.291-3.61 2.651-6.307.664-1.264-.928-.166-2.145-3.864-1.525-1.676.288-.927 1.828-2.38 2.352-3.298 1.195-7.772.089-11.192.713-1.23.225.075.947-.759 1.132-2.212.497-4.272.119-6.435.8-.195.063.435.879-.246 1.001q-.402.074-.793.143c-4.893.879-9.741 1.319-15.372 2.045-2.862.392-7.979 1.412-10.966 1.515-5.195.224-11.512-.881-15.865-.501-2.811.243-2.219 1.138-3.416 1.765-2.368 1.218-6.497-.956-7.049-1.297-.008-.01 2.404-.204 1.123-.68-.739-.976-1.095.676-1.123.68-.255-.141-2.334-.3-4.098-.365-.984-.035-1.843-.052-2.199-.005-.553.072-.282.943-.573.964-6.892.479-14.056-.37-20.728-2.563-.114-.048.309-.93.039-1.031-3.02-1.164-5.364-1.186-7.896-1.34-.335.055-.8.083-1.283.102-2.539.084-4.813-.492-6.263-2.374-2.211-.116-5.344-1.202-7.168-1.816-1.837-.617-2.252 1.233-2.421 1.254-5.193.77-8.093-.458-13.438-.778-2.541-.16-7.589.084-10.319.353-2.158.208-3.476-.187-5.448.18-.267.05.042.869-.038.905-2.152 1.102-1.198-.981-1.674-1.321-1.728-1.226-2.832-1.874-5.615-1.015-.658.198-2.252 3.294-3.377 3.597-1.461.388-1.04-.723-2.569-.269-.133.04-.011.674-.978.781-1.232.141-2.497.287-3.741.453-3.978.565-8.062.846-11.91 1.174-.731.059.284 1.019-.778 1.119-4.966.462-10.314.514-14.964.025-1.154-.125-.427-.843-.675-1.057-1.509-1.297-3.669.558-4.032.589-8.456.787-14.761-1.124-23.209-.494-.453.037-4.019 1.979-5.554.226-.097-.116-1.647-1.911-3.02-.721-.087.074.868.998-.819.882-.957-.065-2.187.087-3.536.058-1.106-.023-2.228-.163-3.24-.618-.789-.325-2.452-2.109-4.757-.744-.133.098-3.654 3.209-4.848.984-.196-.366.077-2.677-2.626-1.56-.52.216.392.76-.961 1.044-2.093.437-4.773-.277-7.394.64-.461.163-2.454 1.648-3.917.368-.23-.2.285-.947-.539-1.081-3.809-.634-7.932-.424-11.862-1.399-1.375-.344-.533-1.507-1.933-2.013-1.416-.506-4.243-1.222-5.762-.861-1.519.366-.243 2.558-2.382 2.423a131 131 0 0 1-2.306-.162c-7.468-.619-15.508-1.113-24.043-.541-1.378.099-.155.703-2.197.907-5.632.562-14.488 1.992-21.377 2.4-2.126.12-4.138.158-5.789.01-5.509-.487 1.095-2.304-3.054-2.25-1.999.027-3.869 2.599-4.341 2.73-4.638 1.312-8.04.636-12.273 1.339-.878.144.076 1.003-.679 1.116-2.55.389-5.281.18-7.727.425-1.111.113-.84.814-1.864.825-2.173.028-4.129-.114-6.234-.542a27 27 0 0 1-.75-.164c-.216-.051 1.175-1.015-.598-.96-2.863.09-6.442-.414-9.725.393-.961.241-.959 1.887-3.111.822-.458-.224.07-2.208-2.359-.436-.399.297-4.533 2.692-6.616 1.224-.563-.384-1.952-1.987-3.152-1.737-.165.04.493.924-.513 1.007-3.559.264-7.253.117-11.356-.008-1.118-.045.468 1.051-1.248.938-1.248-.102-2.627-.254-4.503-.742-2.686-.713-5.514-1.497-7.868-2.074-1.172-.286-.242-.909-.315-1.004-1.228-1.534-2.305.169-2.76.226-2.915.334-5.021-.589-7.641-.298-.716.083-.176.927-.316 1.009-1.42.812-.405-.784-1.349-.903-2.661-.329-5.607.15-8.292.827-.991.252.335.99-.546 1.206q-1.05.266-2.139.554c-5.786 1.205-8.458.505-11.501.249-2.92-.365-5.51-.846-7.992-1.356-1.073-.224-.308-.913-.515-1.113-1.435-1.395-3.878.057-4.386.175-2.393.527-3.239-.212-5.275-.195-6.571.065-13.895.266-20.628 1.295-5.234.779-9.436.521-13.156.305-14.033-1.118-23.696-3.347-36.039-4.045-.78-.048-.071 1.031-.745 1.004a516 516 0 0 1-4.689-.242c-7.037-.391-13.966-.831-21.057-.575-.709.024.316.991-.823 1.063-2.335.154-5.307.141-7.71-.122-1.173-.127.382-.989-.8-1.099-2.753-.258-5.725-.255-8.593-.039-1.22.094.644 1.047-.945 1.091-2.096.062-4.199.121-6.306.159-8.594.157-17.138.202-25.867-.651-.757-.073-1.429-2.075-3.011-1.653-.107.562-.085 1.22-.124 1.819-10.213.468-21.449.444-30.385.851-4.024.262-5.01-.293-6.648-.54-1.463-.302-2.742-.607-4.01-.902-2.525-.591-4.917-1.133-7.353-1.61-.623-.122.242 1.126-.938.903-6.908-1.291-13.617-1.804-20.736-3.296-.718-.144-.229-2.007-2.38-1.828-.062.006-.202.013-.396.024-1.034.05-3.462.176-4.206.486-.119.057.447.959-.62.939a199 199 0 0 1-18.913-1.303c-.986-.119.094-1.02-.605-1.112-5.044-.653-10.577-.087-15.386-1.025-3.209-.628-2-2.221-3.694-3.836-.223-.228-2.245-.288-2.334-1.212-.246-2.328.765-4.864.38-7.346-.043-.537-2.901.02-1.185-1.259.112-.087 2.116-.495 2.593-.925.352-.298-.246-1.247.442-1.625.72-.377 1.436.422 2.611-.013 1.137-.44.664-1.52 2.954-1.602m618.003 18.29c-1.728-.993-2.143 2.281-.206 1.596.094-.037.294-1.547.206-1.596m214.092 8.788c-1.9-1.981-3.958-.286-2.644 1.193 1.31 1.48 3.217-.593 2.644-1.193m24.961 1.892c-2.824-1.024-3.188 3.65-.119 2.587.178-.062.286-2.529.119-2.587m-854.515-15.29c-.025-.044-1.464-.119-1.504-.076-.79 1.028 2.094 1.176 1.504.076m878.428 12.258c-.866-.62-3.316.13-2.248.905.854.625 3.325-.132 2.248-.905m-355.983-7.966c-.025-.049-1.073-.118-1.054.16.045.894 1.508.676 1.054-.16m396.975 4.491c-.832.247-1.627.429-2.374.566l.039-.017c-2.542.46-4.075-.478-4.513-1.129-.458-.727.623-1.347 2.81-1.746.347-.083.145.337-.31.802-.416.455-.905.932-.148.949.571.011 1.11-.144 1.446-.388l.033-.015c1.704-1.017 2.995-2.744 5.451-2.348.541.089-2.16 3.222-2.442 3.334zm-304.773-8.174c-.032-.046-1.461-.157-1.5-.115-.82 1.006 2.049 1.229 1.5.115m-152.508-.905c-.065-.099-3.343-.646-3.468-.578-1.962 1.451 4.698 2.562 3.468.578m248.09 5.474c1.391-1.246 3.175-1.64 4.608-.536-1.531.176-3.069.395-4.608.536"/></g><defs><clipPath id="a"><path fill="#fff" d="M0 0h974v174H0z"/></clipPath></defs></svg>