<svg xmlns="http://www.w3.org/2000/svg" width="300" height="403" fill="none" viewBox="0 0 300 403"><path fill="#d6af1d" d="M265 380.31 149 212.134l-116.568 169H32v-361h233z"/><path fill="#b59318" d="M273.056 21.075c.393 2.055.222 4.803-.107 6.913-.102.662-.699.354-.796.811-.189.895.129 1.71-.108 2.599-.082.295-1.018-.034-1.083.274-.235 1.137-.183 2.227-.174 3.343.004.54-.002 1.083-.055 1.64-.852 8.35-1.19 16.267-1.546 24.54-.12 2.717-.935 6.02-.549 8.849.046.322.856.124.923.184 1.03.962-.609.652-.822 1.296-.84 2.555-.894 5.342-.563 7.824.143 1.018 1.746-.02.85 1.02-.061.074-.924-.182-1.013.102-.202.637-.038 1.898-.103 2.394-.128.946-.119 1.105-.121 2.02-.005.487-.07 1.016-.136 1.565-.105.82-.212 1.687-.086 2.512.046.288.925-.1 1.079.359.154.466.089 1.68-.116 2.075-.205.404-.9.239-1.059.311-1.337.595.533 1.988.58 2.172.809 3.259-.227 6.075-.199 9.172.023 2.309.393 4.864.363 7.045-.039 2.661-.499 4.883-.396 7.477.01.274 1.045-.056 1.059.279.149 3.503.064 7.004-.608 10.536-.068.355-.983-.093-1.106.26-.731 2.131-2.502 5.589 1.474 6.815-.143 1.451-.289 3.241-1.078 4.544-.508.842-1.507.035-1.075 1.062.096.232.963-.077 1.041.271.33 1.462.06 3.092.521 4.531.096.295.874.208 1.015.291 1.141.694-.727 1.882-.862 2.139-1.002 1.963-.591 3.374-.601 5.19-.003.421 1.039-.085 1.074.32.166 2.106.093 4.276-.356 6.34-.102.459-.996.044-1.091.264-.405.968 1.279 1.17.923 2.097-.073.195-.837.091-.921.127-1.31.566.557 1.036.599 1.179.576 1.806-1.361 2.979-1.072 4.727.036.209.998-.27 1.041.318a46 46 0 0 1-.683 11.952c-.115.605-.843.179-.932.218-1.392.628.482 1.015.554 1.211.518 1.543-1.041 3.01 1.195 4.049-.727 6.578.568 13.11-1.388 19.635-.023.083-.945-.061-.986.106-.506 2.008.924 1.613 2.684 2.919.442.329-1.667 1.346-1.821 1.435-.57.326-1.943 0-2.053.109-.863.895 3.67.734 3.679 1.955-.007.038-.843-.118-.925-.014-.259.32.075.633-.211.946-.661.714-2.862.98-1.574 2.05.167.137 2.738-.092 2.623.994-.048.441.006 2.366-.157 2.9-.164.535-.995.173-1.031.211-1.088 1.443-1.545.9-3.164 1.625-1.612.738 2.242.517 2.674.812.431.297-.468 1.367-.781 1.628-.313.262-.842-.06-1.018.173-1.155 1.536 1.917.661 2.531 1.161 1.455 1.163-1.4 2.134-1.674 3.226-.075.296.575.052.637.315.238 1.045-.651 1.648.172 2.84.134.196 1.858 1.157.599 1.782-.182.089-.895-.157-1.053.287-.237.67-.388 1.824-.147 2.559.179.533 1.35-.083.988.589-.162.298-.851-.25-1.097.309s-.211 1.958-.186 2.483c.027.525.916.234.976.276.345.246.778 1.302.777 1.389.066 2.437-.329 4.826-.635 7.102-.266 2.093-.465 4.045-.232 6.143.038.345.977.115.992.167.395 1.176-2.103.253-2.938 1.067 1.905-.128 1.561.388 1.77 1.238.102.409.84.186.916.223 1.12.605-.328 1.017-.624 1.123-1.089.395.198.803-.531 1.093-.723.276-1.794-.361-1.781.463.683.23 2.466-.377 2.754.246 1.092 2.267-.318 6.662-.472 8.489-.153 1.869-.031 2.456-.284 3.544-.457 1.908.869 1.26 1.466 2.463.596 1.199-2.654.588-3.355.758s.018.37-.369.583c-.386.212-.857-.257-1.006.247-.149.499 1.082 1.867 1.812 2.063 1.545.389 3.179-.194 2.593 1.099-.035.074-.888-.18-.978.109-.685 2.308-.762 4.732-1.392 7.042-.088.318-1.034.013-1.096.196-.652 1.921.969 1.231 2.725 2.365-2.367-.298-3.831.248-3.888 1.699-.037.891 1.004.747 1.715 1.356.215.177-.518.772-.035.905 1.578.432 3.384-.099 2.615 1.395-.036.067-.899-.184-.961.048-.405 1.472 1.25 1.721 1.385 3.319.062.725-.283 1.749-.617 2.762-.242.747-.482 1.468-.566 2.065-2.667-.096-2.089 1.265-.261 1.849-.094.923-.007 1.919-.274 2.804-.091.303-.86.093-.944.13-1.318.577.468 1.006.536 1.203.66 2.162-.7 3.92.636 5.973.048.073 1.901.181.552.735-.093.037-.941-.632-.999.329-.058.978-1.028 2.809-.141 4.143.213.32 1.735 1.108.577 1.795-.158.092-.691.009-.984.145-.931.441.947.604-.629 1.136-1.576.536-2.736 1.591-1.585 2.919.033.044 1.53.305 1.524.73-.01.692-.273 1.672-.226 2.383.023.345.932.075.952.134.64 2.247-.08 3.927-.216 6.409-.026.459 1.349 1.603.479 2.567-.185.22-.509.373-.901.506-1.616.562-4.381.673-3.296 2.238.534.764 6.378 1.252 3.572 3.151 1.028 3.008-.348 5.959.865 9.007.054.14 1.678.49 1.675.821-.008.484-.74.799-.768 1.146-.133 1.476.608 2.754.68 4.138.033.53-.762.446-.711 1.092.059.652 1.129.879.828 1.812-.145.456-.962 1.089-1.504 1.78-.317.339-.573.646-.601.919 2.006-.433 2.114.12 2.775 1.093.127.192.814-.106.911-.017.412.381-.153.805.263 1.179.1.092.802.076.922.156 1.063.716-.585 1.855-.879 1.986-1.103.613-.243 1.033-.736 1.513-.495.452-.868-.402-1.218.145-.72 1.109-1.031 2.62-1.468 3.806-.169.472.828.451.824.526-.119 1.084-1.431 1.731.11 2.94-1.005-.213-1.578-.304-1.869-.303-.007.015-.02.063-.025.078-1.102.188 1.93 1.034.943 2.053-.104.11-2.36-.256-2.601-.734-.215-.433.425-.935.344-1.662.014-.043.05-.174.068-.215a1 1 0 0 0-.047-.228c-.06-.187-1.766-1.73-1.851-1.876-.649-1.165 2.596-.12 2.791-.107 2.092.161.233-1.56.147-1.833-.354-1.326.333-2.129-.024-3.117-.235-.64-2.449-.977-2.34-1.332.331-1.075 3.426-1.879.585-2.76-.616-.165-2.953.53-1.237-.604.054-.04.492-.315.734-.618.179-.47.206-.939-.4-1.142-.156-.053-.849.112-.934.01-.552-.688-.095-1.31-.496-2.066-.402-.761-.93-1.673-.782-2.577.087-.549 1.35-1.323 1.654-1.585.876-.747-.702-1.345.402-1.827 1.11-.477 2.884.192 3.554-.894-1.849.073-3.749.095-5.609.14-.072-2.354.432-4.564.202-6.753-.03-.27-1.003.074-1.061-.213-.242-1.203.381-2.312-.021-3.527-.314-.94-1.476-1.86-1.864-2.8 1.256-.534 1.381-1.275 1.296-2.019-.075-.611-.198-1.153-.181-1.659.018-.44.583-.477.734-.808.565-1.22-1.242-.496-1.565-.786-1.374-1.252 2.834-1.727 2.618-3.251-.009-.067-2.329-.936-2.477-1.058-.97-.827.774-.194.907-.76.244-1.007.743-1.747.027-2.87-.212-.341-1.654-1.088-.595-1.799.139-.092.886-.075.927-.146.677-1.303-1.664-1.228-2.483-1.942-.818-.694.767-1.876 1.227-2.11 1.19-.627.527.442.647.468 1.419.33 1.153-.459 1.256-1.091 2.294-.153 2.136-.998.099-.642-.223.043.003.51-.099.642-2.267-.48-2.579-1.449-.491-2.535.979-.515 2.136-.064 1.694-1.546-.199-.682-1.778-.391-2.216-.985-.999-1.369.469-3.15.239-4.559-.084-.511-.951-.014-1.037-.365-.233-.942.422-1.744.098-2.686-.031-.084-.939.113-.948-.176-.083-2.208.531-4.123.605-6.416.017-.553-.083-1.311-.17-2.095-.088-.809-.16-1.617-.086-2.197.251-1.999 1.674-4.3 1.407-5.96-.168-1.102-1.084-.865-1.686-1.353-1.17-.91 1.015-2.441 1.351-2.639.012-.019.202.936.68.442.977-.281-.676-.428-.68-.442.219-.128.466-1.975.299-2.366-.091-.196-.952-.104-.983-.207-.721-2.484-.906-4.99-.478-7.514.018-.045.978.033 1.008-.073.442-1.457-.725-2.449-1.414-3.625-.689-1.236-.45-2.164 1.204-2.882-.202-.964.533-2.196.979-2.986.446-.784-1.425-.859-1.461-.932-1.176-2.073-.103-3.242.067-5.434.085-.971-.185-3.088-.389-4.144-.165-.869.273-1.408-.007-2.234-.038-.106-.871.001-.903-.031-.996-.878 1.04-.458 1.403-.64 1.322-.665 2.026-1.075 1.403-2.249-.143-.28-3.075-1.044-3.248-1.518-.218-.623.833-.388.577-1.047-.02-.056-.669-.042-.641-.453q.045-.679.119-1.397c.153-1.447.357-3.049.303-4.543-.007-.265-1.034.078-1.062-.305-.127-1.796-.096-3.838.379-5.59.12-.438.841-.166 1.054-.262 1.292-.588-.591-1.419-.627-1.558-.916-3.221.773-5.729-.053-9.054-.048-.192-2.07-1.556-.345-2.181.115-.043 1.879-.662.668-1.199-.076-.034-.984.354-.895-.315.089-.665-.524-1.765.471-2.666.313-.29 2.073-.98.663-1.839-.099-.055-3.285-1.379-1.094-1.874.36-.076 2.681-.025 1.486-1.038-.232-.194-.748.164-1.074-.35-.503-.788.113-1.846-.927-2.824-.184-.17-1.763-.895-.571-1.488.187-.092.962.075 1.047-.231.407-1.454-.12-2.985.407-4.488.185-.531 1.439-.271 1.771-.818s.648-1.652.072-2.224c-.576-.571-2.568.07-2.734-.791-.717-3.749.429-7.462.575-11.2.022-.556-.689-.09-.709-.91-.073-3.008-.78-8.208.719-10.835 1.201-2.109 2.145.527 2.628-1.081.231-.773-2.096-1.591-2.17-1.777-.756-1.815.263-3.093-.065-4.729-.068-.338-1.006.001-1.053-.287-.171-.983.242-2.02.158-2.961-.04-.421-.758-.338-.705-.727.117-.93.413-1.755 1.08-2.666.06-.083.958.467.986-.22.043-1.114.697-2.499.001-3.774-.209-.378-1.851-.381-.723-1.207.235-.173 2.208.031.498-.908-.285-.158-2.595-1.737-1.12-2.531.389-.21 1.998-.749 1.741-1.205-.041-.062-.921.193-1.01-.185-.298-1.335-.215-2.734-.502-4.099-.078-.364-.987.187-1.074-.357-.243-1.499-.025-3.38.249-4.843.103-.54.862-.173.944-.213 1.333-.641-.476-1-.583-1.211-.641-1.307.199-2.309-.035-3.509-.062-.331-.921-.089-.998-.154-.756-.678.794-.181.961-.615.474-1.208.393-2.585.274-3.809-.046-.451-1.04.064-1.069-.341-.191-2.376-.116-4.911.416-7.232.102-.438.873-.17 1.048-.263 1.223-.649-.46-1.568-.622-1.781-.736-.968-.059-1.35-.193-2.203-.666-4.197-.257-9.356-.011-13.327.316-5.139 1.015-9.17.786-14.082-.014-.313-1.034.01-1.059-.259-.274-3.427.098-6.94-.224-10.363a.1.1 0 0 0-.025-.056c-.155-.169-.972.157-1.038-.274-.155-.965-.112-2.159.191-3.091.145-.455.982.147 1.112-.31a8.3 8.3 0 0 0 .2-3.38c-.072-.463-1.058.248-1.074-.36-.13-4.222-.331-8.335.923-12.62.086-.3 2.1-.576 1.71-1.192-.56-.043-1.218-.035-1.816-.052-.365-6.135.296-12.18.364-18.338.003-.262-1.062.195-1.062-.308-.005-2.895-.315-5.716.706-8.61.1-.283 1.981-.171 1.682-1.008-.048-.13-.273-1.144-.618-1.588a.7.7 0 0 0-.131-.134c-.062-.042-.933.211-.969-.195a29 29 0 0 1 .329-7.312c.07-.392 1.022-.02 1.08-.301.405-1.993-.412-4.11.337-6.049.504-1.3 2.141-.913 3.692-1.672.219-.107.213-.897 1.135-.987 2.316-.226 4.878.023 7.345-.263.531-.061-.098-1.087 1.223-.53.088.04.556.783 1.003.95.309.115 1.235-.171 1.636.077s-.371.584.106 1.006c.483.422 1.542.17 1.714 1.056M260.292 264.79c.9-.682-2.389-.791-1.604-.049.042.036 1.56.084 1.604.049m1.939 85.019c1.398-.99-.771-1.482-1.851-.778-1.081.692 1.427 1.078 1.851.778m1.754 9.611c.997-1.244-3.663-.938-2.569.236.063.07 2.512-.161 2.569-.236m-4.477-336.544c.043-.012.057-.58.013-.591-1.059-.248-1.086.887-.013.59m6.932 345.449c.66-.279-.054-1.207-.846-.833-.629.265.037 1.141.846.833M263.732 228.2c.049-.011.091-.419-.186-.41-.893.032-.638.599.186.41m-1.642 155.13c1.131-2.192 5.288-2.022 3.783.291-.264.392-.701-1.431-1.265-1.027-1.036.766.896 2.283-.443 2.566-.123.046-.745-.19-1.236-.684-.498-.476-.876-1.086-.843-1.152zm2.155-118.923c.044-.013.086-.569.043-.583-1.044-.304-1.13.817-.043.583m1.388-59.975c.092-.031.171-1.337.085-1.379-1.712-.67-1.876 1.969-.085 1.379m.282 97.952c1.035.645 1.142 1.36-.187 1.827.082-.612.107-1.212.187-1.827M43.056 21.075c.393 2.055.222 4.803-.107 6.913-.102.662-.7.354-.796.811-.19.895.13 1.71-.108 2.599-.082.295-1.018-.034-1.083.274-.235 1.137-.183 2.227-.174 3.343.004.54-.002 1.083-.055 1.64-.852 8.35-1.19 16.267-1.546 24.54-.12 2.717-.935 6.02-.548 8.849.045.322.855.124.922.184 1.03.962-.61.652-.822 1.296-.84 2.555-.894 5.342-.563 7.824.143 1.018 1.746-.02.85 1.02-.06.074-.924-.182-1.013.102-.202.637-.038 1.898-.103 2.394-.128.946-.119 1.105-.121 2.02-.005.487-.07 1.016-.136 1.565-.105.82-.212 1.687-.087 2.512.047.288.926-.1 1.08.359.154.466.089 1.68-.116 2.075-.205.404-.9.239-1.059.311-1.337.595.533 1.988.58 2.172.81 3.259-.227 6.075-.2 9.172.024 2.309.394 4.864.364 7.045-.039 2.661-.5 4.883-.396 7.477.01.274 1.045-.056 1.059.279.15 3.503.064 7.004-.608 10.536-.068.355-.983-.093-1.106.26-.731 2.131-2.502 5.589 1.474 6.815-.143 1.451-.289 3.241-1.078 4.544-.508.842-1.507.035-1.075 1.062.096.232.963-.077 1.041.271.33 1.462.06 3.092.52 4.531.096.295.875.208 1.016.291 1.14.694-.727 1.882-.862 2.139-1.002 1.963-.59 3.374-.601 5.19-.003.421 1.039-.085 1.074.32.166 2.106.093 4.276-.356 6.34-.102.459-.996.044-1.09.264-.406.968 1.278 1.17.922 2.097-.073.195-.837.091-.92.127-1.312.566.556 1.036.598 1.179.576 1.806-1.36 2.979-1.072 4.727.036.209.998-.27 1.041.318a46 46 0 0 1-.683 11.952c-.115.605-.843.179-.932.218-1.392.628.482 1.015.554 1.211.518 1.543-1.04 3.01 1.195 4.049-.727 6.578.568 13.11-1.388 19.635-.023.083-.945-.061-.986.106-.505 2.008.924 1.613 2.684 2.919.442.329-1.667 1.346-1.821 1.435-.57.326-1.943 0-2.053.109-.863.895 3.67.734 3.679 1.955-.007.038-.843-.118-.925-.014-.259.32.075.633-.211.946-.66.714-2.862.98-1.574 2.05.167.137 2.738-.092 2.623.994-.048.441.006 2.366-.157 2.9-.164.535-.995.173-1.03.211-1.089 1.443-1.546.9-3.165 1.625-1.613.738 2.242.517 2.674.812.43.297-.468 1.367-.781 1.628-.313.262-.842-.06-1.018.173-1.155 1.536 1.917.661 2.531 1.161 1.455 1.163-1.4 2.134-1.675 3.226-.074.296.576.052.638.315.238 1.045-.651 1.648.172 2.84.134.196 1.858 1.157.599 1.782-.182.089-.896-.157-1.053.287-.237.67-.388 1.824-.147 2.559.179.533 1.35-.083.988.589-.161.298-.85-.25-1.097.309-.246.558-.211 1.958-.185 2.483s.915.234.975.276c.345.246.778 1.302.777 1.389.067 2.437-.33 4.826-.635 7.102-.266 2.093-.465 4.045-.232 6.143.038.345.977.115.992.167.395 1.176-2.103.253-2.938 1.067 1.905-.128 1.56.388 1.77 1.238.102.409.84.186.916.223 1.12.605-.328 1.017-.624 1.123-1.09.395.198.803-.53 1.093-.724.276-1.795-.361-1.782.463.682.23 2.466-.377 2.754.246 1.092 2.267-.318 6.662-.472 8.489-.153 1.869-.03 2.456-.283 3.544-.459 1.908.868 1.26 1.465 2.463.596 1.199-2.654.588-3.355.758-.7.171.018.37-.369.583-.386.212-.857-.257-1.006.247-.148.499 1.082 1.867 1.812 2.063 1.545.389 3.179-.194 2.593 1.099-.035.074-.888-.18-.978.109-.685 2.308-.762 4.732-1.392 7.042-.089.318-1.034.013-1.096.196-.652 1.921.969 1.231 2.725 2.365-2.367-.298-3.831.248-3.888 1.699-.037.891 1.005.747 1.715 1.356.215.177-.518.772-.035.905 1.578.432 3.384-.099 2.615 1.395-.036.067-.899-.184-.961.048-.405 1.472 1.25 1.721 1.385 3.319.061.725-.283 1.749-.617 2.762-.242.747-.482 1.468-.566 2.065-2.667-.096-2.09 1.265-.26 1.849-.095.923-.008 1.919-.275 2.804-.09.303-.86.093-.944.13-1.318.577.468 1.006.536 1.203.66 2.162-.7 3.92.636 5.973.048.073 1.901.181.552.735-.093.037-.941-.632-1 .329-.057.978-1.027 2.809-.14 4.143.213.32 1.735 1.108.577 1.795-.158.092-.691.009-.984.145-.931.441.947.604-.629 1.136-1.576.536-2.736 1.591-1.585 2.919.033.044 1.53.305 1.524.73-.01.692-.273 1.672-.226 2.383.023.345.932.075.952.134.64 2.247-.08 3.927-.216 6.409-.026.459 1.349 1.603.479 2.567-.185.22-.51.373-.901.506-1.616.562-4.38.673-3.296 2.238.534.764 6.378 1.252 3.572 3.151 1.028 3.008-.348 5.959.865 9.007.054.14 1.678.49 1.675.821-.008.484-.74.799-.768 1.146-.133 1.476.608 2.754.68 4.138.033.53-.762.446-.71 1.092.059.652 1.128.879.827 1.812-.145.456-.962 1.089-1.504 1.78-.317.339-.573.646-.6.919 2.005-.433 2.113.12 2.774 1.093.127.192.814-.106.911-.017.412.381-.153.805.263 1.179.1.092.802.076.922.156 1.063.716-.585 1.855-.88 1.986-1.102.613-.242 1.033-.735 1.513-.495.452-.868-.402-1.218.145-.72 1.109-1.03 2.62-1.468 3.806-.169.472.828.451.824.526-.119 1.084-1.43 1.731.11 2.94-1.005-.213-1.578-.304-1.869-.303-.007.015-.02.063-.025.078-1.102.188 1.93 1.034.943 2.053-.104.11-2.36-.256-2.601-.734-.215-.433.425-.935.344-1.662.014-.043.05-.174.068-.215a1 1 0 0 0-.047-.228c-.06-.187-1.766-1.73-1.85-1.876-.65-1.165 2.595-.12 2.79-.107 2.092.161.233-1.56.147-1.833-.354-1.326.333-2.129-.024-3.117-.235-.64-2.45-.977-2.34-1.332.331-1.075 3.426-1.879.585-2.76-.616-.165-2.953.53-1.237-.604.054-.04.492-.315.734-.618.18-.47.206-.939-.4-1.142-.156-.053-.849.112-.934.01-.552-.688-.095-1.31-.497-2.066-.4-.761-.929-1.673-.78-2.577.086-.549 1.349-1.323 1.653-1.585.876-.747-.702-1.345.402-1.827 1.11-.477 2.884.192 3.554-.894-1.849.073-3.749.095-5.61.14-.07-2.354.433-4.564.203-6.753-.03-.27-1.003.074-1.061-.213-.242-1.203.38-2.312-.02-3.527-.315-.94-1.477-1.86-1.865-2.8 1.256-.534 1.38-1.275 1.296-2.019-.075-.611-.198-1.153-.181-1.659.018-.44.583-.477.734-.808.564-1.22-1.242-.496-1.565-.786-1.374-1.252 2.834-1.727 2.619-3.251-.01-.067-2.33-.936-2.478-1.058-.97-.827.774-.194.907-.76.244-1.007.744-1.747.027-2.87-.212-.341-1.654-1.088-.595-1.799.14-.092.886-.075.927-.146.677-1.303-1.664-1.228-2.483-1.942-.818-.694.767-1.876 1.227-2.11 1.19-.627.527.442.647.468 1.419.33 1.153-.459 1.256-1.091 2.294-.153 2.136-.998.099-.642-.223.043.003.51-.099.642-2.267-.48-2.579-1.449-.491-2.535.979-.515 2.136-.064 1.694-1.546-.2-.682-1.778-.391-2.216-.985-1-1.369.469-3.15.239-4.559-.084-.511-.95-.014-1.037-.365-.233-.942.422-1.744.098-2.686-.03-.084-.94.113-.948-.176-.083-2.208.53-4.123.605-6.416.017-.553-.083-1.311-.17-2.095-.088-.809-.16-1.617-.086-2.197.251-1.999 1.674-4.3 1.407-5.96-.168-1.102-1.084-.865-1.686-1.353-1.17-.91 1.015-2.441 1.352-2.639.011-.019.201.936.679.442.977-.281-.676-.428-.68-.442.219-.128.466-1.975.3-2.366-.092-.196-.953-.104-.984-.207-.721-2.484-.906-4.99-.478-7.514.018-.045.978.033 1.008-.073.442-1.457-.725-2.449-1.414-3.625-.689-1.236-.45-2.164 1.204-2.882-.202-.964.533-2.196.979-2.986.446-.784-1.425-.859-1.461-.932-1.176-2.073-.103-3.242.068-5.434.084-.971-.186-3.088-.39-4.144-.165-.869.273-1.408-.007-2.234-.038-.106-.87.001-.903-.031-.996-.878 1.04-.458 1.403-.64 1.322-.665 2.026-1.075 1.403-2.249-.143-.28-3.075-1.044-3.248-1.518-.218-.623.833-.388.578-1.047-.021-.056-.67-.042-.642-.453.029-.452.072-.919.119-1.397.153-1.447.357-3.049.303-4.543-.007-.265-1.034.078-1.061-.305-.128-1.796-.097-3.838.378-5.59.12-.438.841-.166 1.054-.262 1.292-.588-.591-1.419-.627-1.558-.916-3.221.773-5.729-.053-9.054-.048-.192-2.07-1.556-.345-2.181.115-.043 1.88-.662.668-1.199-.076-.034-.984.354-.895-.315.09-.665-.524-1.765.47-2.666.314-.29 2.074-.98.664-1.839-.099-.055-3.285-1.379-1.094-1.874.36-.076 2.681-.025 1.486-1.038-.232-.194-.748.164-1.074-.35-.503-.788.113-1.846-.927-2.824-.184-.17-1.763-.895-.571-1.488.186-.092.962.075 1.047-.231.407-1.454-.12-2.985.407-4.488.185-.531 1.439-.271 1.771-.818s.648-1.652.072-2.224c-.576-.571-2.568.07-2.734-.791-.717-3.749.43-7.462.575-11.2.022-.556-.69-.09-.709-.91-.073-3.008-.78-8.208.72-10.835 1.2-2.109 2.144.527 2.627-1.081.23-.773-2.096-1.591-2.17-1.777-.756-1.815.263-3.093-.065-4.729-.067-.338-1.006.001-1.053-.287-.17-.983.242-2.02.158-2.961-.04-.421-.758-.338-.705-.727.117-.93.413-1.755 1.08-2.666.06-.083.958.467.986-.22.043-1.114.697-2.499.001-3.774-.21-.378-1.851-.381-.723-1.207.235-.173 2.208.031.497-.908-.284-.158-2.594-1.737-1.119-2.531.389-.21 1.998-.749 1.74-1.205-.04-.062-.92.193-1.01-.185-.297-1.335-.214-2.734-.5-4.099-.08-.364-.988.187-1.075-.357-.243-1.499-.025-3.38.25-4.843.102-.54.86-.173.943-.213 1.333-.641-.476-1-.583-1.211-.641-1.307.2-2.309-.035-3.509-.062-.331-.921-.089-.998-.154-.756-.678.794-.181.962-.615.473-1.208.393-2.585.273-3.809-.046-.451-1.04.064-1.07-.341-.19-2.376-.115-4.911.417-7.232.102-.438.873-.17 1.048-.263 1.223-.649-.46-1.568-.621-1.781-.737-.968-.06-1.35-.194-2.203-.666-4.197-.257-9.356-.011-13.327.316-5.139 1.015-9.17.786-14.082-.014-.313-1.034.01-1.059-.259-.274-3.427.098-6.94-.224-10.363a.1.1 0 0 0-.025-.056c-.155-.169-.972.157-1.038-.274-.155-.965-.112-2.159.19-3.091.146-.455.983.147 1.113-.31a8.3 8.3 0 0 0 .2-3.38c-.072-.463-1.058.248-1.074-.36-.13-4.222-.331-8.335.923-12.62.087-.3 2.1-.576 1.71-1.192-.56-.043-1.218-.035-1.816-.052-.365-6.135.296-12.18.364-18.338.003-.262-1.062.195-1.062-.308-.005-2.895-.315-5.716.706-8.61.1-.283 1.981-.171 1.682-1.008-.048-.13-.273-1.144-.618-1.588a.7.7 0 0 0-.13-.134c-.063-.042-.934.211-.97-.195a29 29 0 0 1 .329-7.312c.07-.392 1.022-.02 1.08-.301.405-1.993-.412-4.11.337-6.049.504-1.3 2.14-.913 3.692-1.672.22-.107.213-.897 1.135-.987 2.316-.226 4.878.023 7.345-.263.531-.061-.098-1.087 1.223-.53.088.04.556.783 1.003.95.309.115 1.235-.171 1.636.077s-.371.584.106 1.006c.483.422 1.542.17 1.714 1.056M30.292 264.79c.9-.682-2.39-.791-1.604-.049.042.036 1.56.084 1.604.049m1.939 85.019c1.398-.99-.771-1.482-1.852-.778-1.08.692 1.428 1.078 1.852.778m1.754 9.611c.997-1.244-3.663-.938-2.57.236.064.07 2.513-.161 2.57-.236M29.508 22.877c.043-.012.057-.58.013-.591-1.06-.248-1.086.887-.013.59m6.932 345.449c.66-.279-.054-1.207-.846-.833-.629.265.037 1.141.846.833M33.732 228.2c.049-.011.09-.419-.186-.41-.893.032-.638.599.186.41M32.09 383.33c1.131-2.192 5.288-2.022 3.783.291-.264.392-.7-1.431-1.265-1.027-1.036.766.896 2.283-.443 2.566-.123.046-.745-.19-1.236-.684-.498-.476-.876-1.086-.843-1.152zm2.155-118.923c.044-.013.086-.569.043-.583-1.044-.304-1.13.817-.043.583m1.388-59.975c.092-.031.17-1.337.085-1.379-1.712-.67-1.876 1.969-.085 1.379m.282 97.952c1.035.645 1.142 1.36-.187 1.827.082-.612.107-1.212.187-1.827"/><path fill="#b59318" d="M35.959 14.826c1.269-.289 2.921.004 4.188.407.406.124.206.71.481.823.545.218 1.044-.076 1.572.184.179.09-.025 1.017.163 1.089 1.023.389 1.98.133 3.022.305 5.126.845 10.173 1.024 15.4 1.262 1.197.054 2.584.444 3.94.524.56.035 1.12.013 1.656-.117.209-.052.053-.857.09-.925.584-1.046.433.598.842.8 1.641.798 3.429.805 4.947.433.654-.16-.07-1.744.631-.866.049.059-.086.926.1 1.01.416.191 1.174.008 1.496.064.614.112.729.099 1.295.086.777-.009 1.755.381 2.579.153.178-.05-.095-.923.186-1.085.28-.16 1.047-.116 1.315.082.268.197.185.895.237 1.052.425 1.326 1.229-.566 1.341-.616 2.044-.865 3.85.122 5.796.041 1.47-.064 3.038-.477 4.438-.485 1.677-.008 3.111.412 4.73.264.17-.015-.073-1.043.136-1.063 2.22-.212 4.429-.19 6.672.419.225.062-.024.984.203 1.1 1.389.692 3.613 2.4 4.254-1.597.922.117 2.052.23 2.905.995.551.492.076 1.505.711 1.055.144-.1-.084-.961.134-1.046.919-.357 1.934-.116 2.84-.604.183-.101.1-.877.147-1.02.398-1.153 1.215.692 1.381.822 1.274.965 2.152.527 3.298.503.268-.005-.092-1.037.163-1.079 1.32-.206 2.702-.174 4.013.236.291.093.065.994.206 1.085.625.387.695-1.3 1.293-.962.126.07.089.834.115.917.407 1.3.631-.576.719-.62 1.117-.61 1.937 1.302 3.022.98.132-.04-.209-.992.164-1.047 2.448-.37 5.093-.218 7.572.448.383.103.145.839.172.927.448 1.379.611-.501.738-.577.979-.55 1.926.98 2.516-1.276q.593.082 1.165.119c3.796.235 7.473-.785 11.288.869.054.02-.002.945.104.983 1.26.467.988-.956 1.737-2.739.201-.448.919 1.64.977 1.794.223.563.067 1.941.139 2.05.611.845.341-3.682 1.114-3.712.025.007-.048.844.021.925.214.253.402-.086.606.195.468.648.712 2.844 1.351 1.54.081-.168-.128-2.736.561-2.635.284.041 1.506-.036 1.854.123.351.159.131.993.157 1.028.937 1.076.609 1.538 1.091 3.152.476 1.609.296-2.244.478-2.677.181-.432.874.465 1.038.778.167.314-.036.842.113 1.019.977 1.157.418-1.916.743-2.53.772-1.449 1.364 1.415 2.047 1.705.187.078.043-.575.212-.634.671-.222 1.049.679 1.825-.119.127-.13.79-1.83 1.151-.555.05.183-.131.89.142 1.059.411.253 1.169.437 1.622.217.341-.162.003-1.351.413-.97.158.146-.1.661.043.97a.34.34 0 0 0 .106.136c.341.262 1.231.269 1.567.26.336-.011.19-.909.22-.967.174-.337.848-.739.904-.735 2.893.013 5.488 1.63 8.318 1.26.222-.027.118-.972.152-.986.77-.358.065 2.109.55 2.968.011-1.908.304-1.549.85-1.733.261-.09.155-.834.182-.909.432-1.102.628.356.682.655.2 1.1.53-.173.671.562.139.73-.306 1.782.207 1.792.175-.675-.123-2.473.279-2.744 1.502-1.025 4.168.498 5.336.697 1.154.198 1.554.09 2.217.367 1.21.501.825-.84 1.611-1.411.784-.571.276 2.664.354 3.368.079.703.23-.01.348.38.119.39-.195.852.116 1.01.312.158 1.223-1.048 1.372-1.774.303-1.538-.013-3.18.793-2.573.046.036-.144.884.034.979 1.438.72 2.95.822 4.383 1.456.201.09-.016 1.034.101 1.096 1.209.652.807-.968 1.545-2.728-.227 2.367.092 3.831 1.024 3.872.562.026.493-1.013.865-1.734.115-.217.497.504.578.018.273-1.587-.059-3.378.869-2.648.041.034-.11.904.034.96.912.362 1.057-1.302 2.04-1.496.761-.152 2.126.857 2.983.985.075 2.67.94 2.017 1.091.155.253.017.513-.016.723-.033.315-.03.63-.04.939.05.206.058.187.84.223.92.557 1.243.555-.564.672-.651 1.268-.868 2.556.323 3.676-1.168.039-.053-.135-1.9.394-.607.035.09-.279.983.338.965.621-.018 1.897.813 2.637-.15.179-.233.497-1.793 1.07-.682.077.151.084.686.203.969.382.9.282-.976.79.563.505 1.54 1.293 2.64 2.002 1.442.023-.035.036-1.533.31-1.544.437-.016 1.077.215 1.527.15.215-.032-.036-.93-.001-.951 1.375-.691 2.512-.001 4.093.171.296.033.96-1.31 1.626-.386.728 1.012.625 5.578 1.876 4.352.505-.491.583-6.278 1.908-3.43 1.866-.942 3.822.387 5.67-.847.084-.055.21-1.677.418-1.675.307.007.552.736.775.765.932.141 1.723-.573 2.62-.549.337.008.284.79.691.8.407.008.584-1.03 1.174-.582.44.342 1.01 2.389 1.565 2.591-.133-2.052.247-2.038.873-2.625.119-.114-.066-.819-.012-.91.216-.384.495.192.701-.224.051-.1.007-.801.046-.922.325-1.059 1.098.476 1.219.745.492 1.017.646.094.995.486.349.393-.115.933.285 1.162.248.14.51.226.774.275l-.175-.009c.537.228 1.089.336 1.495.556.231.123.497-.79.539-.793.727.113.61 1.239 1.986.247l.13-.095c-2.835 3.922.615-.028.663 1.146 0 .09-1.016 2.148-1.542 2.216-.541.06-.613-.914-1.244-.783-.039.008-.188.095-.382.228-.579.374-1.478 1.2-1.543 1.273-.702.734 1.177-2.103 1.227-2.295.44-.918.188-.977-.101-.729-.298.242-.624.782-.694.842-.365.307-.588.29-.856.287l.601.03c-.296.045-.587.096-.868.34-.405.36-.32 2.594-.66 2.545-1.109-.16-1.726-3.243-2.586-.473-.184.59.208 3.01-.729 1.154-.056-.118-.798-1.824-1.054-.689-.033.143.024.853-.029.917-.354.416-.657-.129-1.051.176-.4.305-.864.75-1.365.552-.306-.119-.785-1.408-.954-1.719-.477-.896-.761.67-1.105-.437-.35-1.11-.024-2.877-.743-3.549.147 1.844.268 3.739.402 5.594-1.406.066-2.848-.392-4.253-.165-.174.03.107 1-.076 1.058-.778.24-1.538-.392-2.33-.023-.61.29-1.191 1.414-1.824 1.752-.646-2.058-1.548-1.232-2.286-1.34-.258-.038-.307-.602-.507-.764-.756-.598-.221 1.222-.372 1.536-.639 1.34-1.21-2.854-2.135-2.638-.049.01-.383 2.323-.449 2.473-.421.974-.184-.769-.537-.893-.637-.23-1.132-.711-1.758.033-.182.22-.502 1.678-1.044.65-.071-.135-.135-.878-.184-.916-.859-.625-.585 1.703-.924 2.547-.341.843-1.222-.674-1.423-1.117-.519-1.149.212-.548.216-.668.049-1.426-.416-1.122-.814-1.19-.355-2.27-.867-2.064-.409-.061.051.219.318-.032.409.062-.044 2.279-.579 2.64-1.505.638-.435-.938-.299-2.118-1.161-1.578-.391.245-.019 1.791-.33 2.268-.703 1.088-1.995-.225-2.826.125-.303.127.122.943-.08 1.06-.54.311-1.124-.263-1.652.147-.047.039.206.919.029.955-.649.143-1.273.12-1.916.08-1.123.017-1.925-.103-2.781-.075-.806.027-2.144.541-2.916.438-1.325-.171-2.871-1.52-3.96-1.229-.706.187-.575 1.097-.897 1.706-.635 1.18-1.588-.997-1.717-1.334-.01-.011.614-.204.302-.68-.16-.976-.294.676-.302.68-.072-.217-1.289-.465-1.519-.3-.132.09-.092.95-.16.98-1.635.71-3.262.86-4.854.39-.028-.018.057-.976-.01-1.008-.912-.467-1.577.68-2.368 1.343-.801.663-1.407.401-1.783-1.267-.594.181-1.39-.585-1.849-1.05-.46-.463-.615 1.402-.659 1.437-1.36 1.122-2.071.017-3.431-.212-.635-.112-1.948.1-2.645.272-.558.14-.88-.314-1.4-.057-.07.034-.038.87-.061.9-.609.97-.246-1.051-.346-1.42-.364-1.34-.599-2.056-1.357-1.467-.173.135-.791 3.042-1.105 3.2-.409.199-.211-.844-.642-.609-.036.02-.061.667-.314.627-1.18-.176-2.464-.61-3.712-.598-.17-.001.003 1.035-.243 1.051-1.142.073-2.404-.018-3.499-.544-.271-.133-.068-.846-.12-1.062-.118-.49-.277-.535-.433-.399-.261.228-.508.961-.561.981-2.032.826-3.466-.923-5.433-.13-.111.047-.921 2.058-1.288.332-.022-.115-.4-1.881-.712-.67-.019.076.214.984-.18.895-.401-.09-1.018.527-1.594-.461-.174-.312-.643-2.066-1.128-.648-.037.1-.752 3.298-1.115 1.115-.06-.359-.075-2.68-.676-1.471-.115.234.125.744-.19 1.078-.467.513-1.144-.086-1.718.97-.11.187-.482 1.777-.897.596-.065-.185.016-.963-.183-1.042-.917-.382-1.873.175-2.818-.323-.338-.174-.219-1.433-.583-1.754-.368-.32-1.056-.615-1.409-.027-.338.587.14 2.565-.388 2.747-2.32.793-4.721-.276-7.089-.345-.356-.01-.03.69-.539.726-.392.028-.849.086-1.352.147-1.834.228-4.169.497-5.523-.647-1.387-1.157.247-2.154-.785-2.605-.491-.215-.921 2.127-1.036 2.204-1.143.792-1.948-.203-2.992.158-.21.074.038 1.005-.14 1.058-.607.19-1.278-.203-1.875-.1-.268.048-.189.763-.434.718-.586-.1-1.117-.38-1.722-1.027-.055-.06.262-.967-.177-.982-.71-.021-1.596-.648-2.384.071-.233.217-.175 1.858-.734.746-.118-.232-.063-2.207-.59-.48-.087.287-1.005 2.626-1.563 1.167-.146-.384-.545-1.982-.822-1.717-.037.042.156.917-.079 1.013-.83.323-1.721.266-2.571.578-.227.085.155.983-.186 1.08-.942.271-2.128.088-3.069-.158-.347-.093-.142-.858-.17-.94-.457-1.32-.618.495-.746.606-.795.664-1.459-.157-2.212.099-.209.068-.023.922-.062 1.001-.401.768-.143-.791-.424-.95-.786-.45-1.641-.346-2.414-.203-.283.053.079 1.038-.176 1.074-1.506.235-3.087.205-4.589-.284-.283-.094-.14-.87-.205-1.042-.451-1.212-.968.487-1.096.652-.583.754-.85.084-1.386.233-2.62.74-5.909.424-8.416.248-3.267-.226-5.828-.855-8.926-.541-.196.019.043 1.033-.126 1.062-2.189.334-4.364.02-6.557.402-.18.03.118.988-.17 1.068a2.92 2.92 0 0 1-1.958-.139c-.3-.138.063-.984-.239-1.106a3.37 3.37 0 0 0-2.14-.143c-.299.08.194 1.053-.197 1.08-2.453.184-4.858.428-7.366-.466a10 10 0 0 1-.644-.25c-.19-.081-.426-2.09-.8-1.69-.01.56.015 1.218.024 1.816-3.878.463-7.72-.104-11.642-.092-.167 0 .154 1.06-.17 1.066-1.849.04-3.639.387-5.56-.627-.192-.1-.146-1.98-.69-1.682-.084.054-.934.324-1.128.736-.03.063.148.936-.128.968a11.6 11.6 0 0 1-4.811-.52c-.257-.085.004-1.022-.178-1.09-1.282-.481-2.687.237-3.906-.609-.814-.57-.516-2.184-.946-3.773-.061-.224-.56-.26-.586-1.184-.066-2.325.175-4.871.076-7.35-.021-.533-.688.042-.293-1.248.027-.086.51-.514.628-.952.082-.303-.066-1.243.102-1.63.169-.387.35.4.629-.055.273-.46.154-1.53.7-1.658m153.333 11.127c-.406-.918-.621 2.365-.103 1.601.025-.04.125-1.556.103-1.601m53.932-3.41c-.715-1.388-.895.776-.377 1.85.515 1.073.593-1.43.377-1.85m5.841-1.606c-.765-1.084-.468 3.574.159 2.574.037-.057-.115-2.511-.159-2.574m-212.368 7.51c-.007-.044-.367-.086-.375-.042-.188 1.045.532 1.127.375.041m218.192-9.094c-.246-.618-.813.148-.499.915.253.616.805-.147.499-.915M166.358 21.5c-.006-.05-.261-.097-.26.18.007.893.363.646.26-.18m97.378 1.107c-1.616-.625-.825-4.502.258-3.661.228.154-.908 1-.696 1.433.464.811 1.48-1.426 1.819-.018.078.264-1.28 2.295-1.385 2.25zm-74.519-.614c-.007-.044-.357-.101-.367-.059-.239 1.035.466 1.151.367.059m-37.901-2.16c-.019-.092-.859-.144-.884-.057-.363 1.725 1.33 1.834.884.057m61.762.483c.323-1.064.695-1.21 1.073.083-.346-.042-.711-.033-1.073-.083m-55.984 202.886c-.386 1.14-1.456 2.232-2.436 2.967-.306.23-.693-.243-.924-.102-.458.287-.456.806-.95 1.067-.166.085-.828-.591-.984-.491-.826.515-1.115 1.38-1.775 2.02-3.299 3.222-6.044 6.652-8.954 10.146-.968 1.166-2.669 2.155-3.257 3.646-.065.17.661.545.697.611.539 1.018-.705-.06-1.083.102-1.161.513-1.97 1.331-2.534 2.292a7 7 0 0 0-.445.891c-.234.561 1.42 1.016.339.974-.074-.002-.686-.625-.854-.549-.379.174-.667.831-.887 1.015-.431.356-.477.433-.793.841-.434.546-1.279.954-1.578 1.663-.063.154.766.523.729.818-.04.298-.51.783-.816.835-.304.052-.791-.451-.941-.517-1.261-.565-.275 1.187-.303 1.296-.52 1.92-2.329 2.47-3.403 3.782-.813.997-1.427 2.282-2.247 3.186-.983 1.077-2.143 1.707-2.991 2.833-.091.118.813.657.704.803-1.159 1.549-2.488 2.927-4.262 3.922-.179.099-.71-.681-.93-.618-1.33.402-3.903.641-1.337 3.745-.632.501-1.374 1.125-2.442 1.146-.686.014-1.156-.966-1.196-.266-.01.158.759.595.695.788-.274.814-1.05 1.294-1.213 2.185-.031.182.593.65.671.775.627 1.019-1.219.298-1.412.316-1.453.151-1.636.997-2.278 1.736-.148.17.829.63.715.817-.6.964-1.406 1.81-2.453 2.373-.237.125-.79-.609-.939-.578-.647.147.597 1.287.007 1.444-.03.009-.087-.016-.156-.059-.213-.132-.547-.435-.605-.463-1.219-.581.079.782.064.867-.16 1.109-2.077.399-2.443 1.315-.042.111.876.504.711.778-1.087 1.828-2.65 3.433-4.528 4.644-.29.188-.73-.433-.814-.471-1.318-.572.05.724.041.852-.097.975-1.826.67-.373 2.452-2.738 2.393-3.783 5.98-7.455 7.707-.044.023-.75-.576-.836-.527-1.05.586.245 1.236 1.26 2.836.256.4-1.785-.375-1.942-.422-.57-.184-1.584-1.124-1.709-1.139-.994-.097 2.764 2.442 2.382 2.987-.018.012-.65-.539-.75-.541-.313-.009-.138.32-.47.292-.769-.062-2.647-1.222-1.939.001.094.157 2.262 1.544 1.826 1.954-.179.167-.743 1.047-1.047 1.189-.303.141-.866-.499-.908-.502-1.353.018-1.55-.492-3.103-1.104-1.55-.608 1.665 1.524 1.923 1.904.26.376-.817.333-1.153.264-.338-.067-.667-.515-.884-.516-1.434.012 1.347 1.409 1.685 1.989q.072.123.109.217c.384 1.018-1.968-.07-2.509.229-.155.086.45.361.415.513-.147.599-1.07.351-.792 1.357.046.163 1.12 1.605-.098 1.132-.175-.069-.668-.602-.94-.501-.408.15-.92.581-.962 1.035-.03.336 1.11.772.6.845-.226.032-.6-.617-.98-.524-.378.093-.812.725-.969.973-.155.247.653.654.687.709.19.32.197 1.026.166 1.065-1.415 2.062-4 2.982-5.063 5.21-.085.174.74.64.735.672-.078.756-1.76-1.158-2.701-1.3 1.56 1.097 1.123 1.101 1.014 1.593-.051.238.61.586.658.648.698.937-.594.244-.866.113-1-.482-.114.481-.785.161-.666-.317-1.318-1.232-1.57-.873.47.508 2.09 1.32 2.122 1.759.12 1.657-2.397 2.693-3.112 3.419s-.804 1.06-1.35 1.388c-.983.59.311 1.061.418 1.944.106.886-2.343-1.281-2.965-1.615s-.099.171-.479.041c-.38-.131-.618-.613-.895-.477-.276.136.296 1.472.834 1.977 1.142 1.068 2.658 1.744 1.778 1.992-.052.014-.67-.593-.833-.515-1.265.638-2.054 1.685-3.249 2.38-.166.096-.858-.576-.964-.526-1.101.517.433 1.123 1.574 2.608-1.274-.985-2.315-1.563-3.002-1.627-.327-.028-.574.059-.725.27-.282.394.62.911 1.049 1.579.129.201-.648.075-.28.4 1.202 1.067 2.861 1.799 1.806 2.086-.048.011-.704-.575-.818-.502-.743.477.592 1.478.273 2.311-.254.659-1.76 1.078-2.33 1.637-2.214-1.488-2.1-.556-.736.717-.344.384-.551.888-1.026 1.148-.165.095-.75-.422-.832-.449-1.276-.441.102.721.102.85-.06 1.34-1.72 1.412-1.21 3.081.018.059 1.547 1.108.248.63-.09-.034-.606-.793-.939-.39-.342.417-1.702.713-1.368 1.802.08.265 1.136 1.415-.059 1.114-.161-.042-.586-.366-.874-.461-.922-.301.61.782-.882.173-1.488-.617-2.81-.74-2.246.453.016.035 1.195.955 1.054 1.144-.227.304-.755.586-.95.935-.09.163.765.529.763.565-.185 1.331-1.337 1.681-2.309 2.674-.175.173.573 1.409-.523 1.338-1.207-.064-4.906-2.734-4.554-1.132.143.641 4.905 3.905 1.874 3.269-.146 1.844-2.204 2.522-2.057 4.505.007.087 1.31 1.051 1.207 1.2-.156.217-.888-.002-1.02.14-.197.203-.304.452-.374.71-.158.494-.188 1.04-.499 1.438-.178.232-.794-.249-1.008.031s.554.99-.107 1.15c-.502.118-2.489-.607-2.937-.31 1.78 1.031 1.58 1.294 1.773 2.061.038.147.72.395.77.483.218.364-.395.246-.142.617.06.09.672.434.757.526.74.796-.91.518-1.198.472-1.093-.178-.375.411-.871.464-.497.053-.747-.564-1.124-.393-.783.361-1.101 1.199-1.456 1.805-.139.244.78.511.78.556-.014.15-.092.267-.182.375-.267.344-.644.621.554 1.408-4.58-1.57.284.501-.895.854-.094.027-2.26-.702-2.473-1.079-.21-.38.604-.484.273-1.031-.08-.123-1.815-1.479-1.898-1.606-.453-.637.8-.219 1.726.149.01-.017.034-.073.045-.09.448.197.819.376.878.397 1.932.669.159-.91.092-1.123-.317-.96.388-1.258.209-2.021-.112-.499-2.056-1.601-1.85-1.837.69-.787 3.58.432 1.688-1.721-.401-.46-2.628-1.487-.593-1.182.13.017 1.924.418 1.117-.409-.102-.104-.72-.458-.745-.533-.159-.499.45-.418.408-.885-.042-.468-.156-1.074.276-1.329.26-.155 1.571.235 1.914.294.279.052.39-.006.428-.097l-.094.164c.077-.221-.307-.678.476-.421 1.1.357 2.428 1.54 3.339 1.397-1.621-.89-3.274-1.825-4.9-2.728.604-.996 1.692-1.801 2.198-2.946.06-.143-.894-.462-.85-.629.188-.701 1.104-.921 1.204-1.711.074-.612-.55-1.674-.493-2.333 2.037.683 1.84-.45 2.325-.923.17-.166.656.123.896.07.896-.202-.876-.865-1.05-1.157-.735-1.251 2.974.789 3.302.009.02-.043-1.663-1.64-1.745-1.778-.55-.877.718.327 1.014.15.545-.329 1.19-.363.955-1.262-.076-.256-1.054-1.361.07-1.119.147.032.772.439.83.428.978-.213-1.02-1.438-1.488-2.196-.463-.767 1.228-.43 1.694-.297 1.199.353.307.484.4.56 1.094.911 1.117.409 1.4.177 1.983 1.16 2.11.693.281-.239-.199-.103-.156.235-.282.239-1.758-1.444-1.735-2.03.364-1.414.982.292 1.823 1.116 1.894.212.035-.413-1.38-1.135-1.568-1.645-.434-1.158 1.347-1.205 1.556-1.959.08-.28-.796-.521-.766-.729.08-.557.872-.584.866-1.186 0-.056-.822-.456-.745-.595.578-1.081 1.638-1.633 2.338-2.657.343-.503.527-1.676.962-2.142.754-.816 2.595-1.179 2.844-2.11.17-.61-.651-1.015-1.014-1.579-.284-.443-.08-.629.288-.688.54-.087 1.426.109 1.629.163.01.003-.11.554.43.59.89.418-.43-.583-.43-.59.22.058.984-.682.961-.95-.013-.146-.754-.587-.747-.654.172-1.587.807-2.861 1.96-3.778.028-.01.787.581.845.55.825-.418.178-1.528.01-2.486-.166-.957.341-1.255 1.907-.602.135-.535 1.153-.688 1.758-.762.604-.073-.866-1.231-.873-1.283-.264-1.633.99-1.524 1.838-2.378.404-.402.86-1.461 1.064-2.07.158-.483.685-.453.727-.974.006-.07-.695-.524-.71-.558-.495-.996.985.422 1.337.559 1.278.502 1.975.748 1.862-.132-.026-.203-2.108-2.309-2.084-2.625.035-.406.794.332.809-.108.002-.037-.519-.424-.362-.583.722-.748 1.699-1.412 2.286-2.299.083-.12-.85-.59-.745-.773.494-.857 1.167-1.69 2.12-2.161.237-.114.726.433.928.521 1.223.523-.02-.954-.007-1.033.304-1.925 2.455-1.981 2.817-3.872.013-.079-.662-1.084-.34-1.277.108-.064.331-.037.735.148.105.051 1.74.801.918-.129-.05-.059-.91-.419-.63-.655.283-.24.117-1.059 1.217-.884.348.054 2.004.765 1.123-.427-.06-.085-2.249-2.499-.302-1.455.32.172 2.193 1.543 1.542.4-.127-.221-.663-.358-.764-.777-.158-.641.685-.76.145-1.79-.096-.181-1.152-1.418.008-.989.183.067.761.591.93.503.804-.421.865-1.405 1.78-1.769.32-.126 1.256.719 1.705.667.45-.055 1.063-.36.782-.952-.282-.591-2.107-1.469-1.962-1.948.64-2.091 2.797-3.079 4.163-4.654.203-.234-.523-.452-.267-.824.945-1.381 2.15-4.119 4.241-4.364 1.67-.192 1.526 1.531 2.456 1.124.446-.199-1.12-1.972-1.115-2.099.026-1.259 1.271-1.192 1.579-2.106.063-.189-.794-.618-.732-.773.208-.535.894-.733 1.156-1.194.116-.209-.477-.617-.298-.754.417-.332.937-.506 1.781-.489.077.002.587.799.85.519.271-.291.782-.473 1.088-.831a1.03 1.03 0 0 0 .246-.802c-.028-.296-1.303-1.33-.13-.981.246.073 1.704 1.406.712-.078-.166-.245-1.379-2.399.047-1.803.376.157 1.811.949 1.777.591-.01-.052-.78-.504-.711-.722.25-.759.822-1.305 1.096-2.066.072-.205-.824-.555-.693-.842.36-.794 1.207-1.444 1.95-1.881.274-.16.719.485.796.521 1.248.595.001-.727-.004-.884-.015-.96.988-.831 1.246-1.482.073-.178-.667-.636-.702-.714-.327-.774.669.442.954.371.801-.198 1.231-.809 1.586-1.394.129-.216-.811-.652-.686-.838.723-1.113 1.684-2.087 2.931-2.696.236-.114.722.501.887.577 1.158.538.213-.936.167-1.128-.21-.874.439-.587.645-1.023.997-2.137 3.143-3.961 4.714-5.399 2.043-1.876 3.961-3.047 5.434-5.182.095-.135-.807-.646-.736-.771.943-1.57 2.352-2.721 3.19-4.32.07-.13-.83-.547-.745-.774a1.92 1.92 0 0 1 1.101-1.118c.257-.099.743.646.989.535.578-.26.978-.695 1.177-1.243.083-.234-.933-.516-.765-.773l.372-.586c1.092-1.712 2.214-3.34 4.307-4.363.162-.079 1.903.948 1.776.451-.446-.339-.988-.712-1.474-1.06 1.612-2.903 4.034-5.21 5.972-7.89.083-.115-.938-.511-.784-.734.884-1.284 1.475-2.698 3.241-3.437.176-.077 1.697 1.028 1.72.48.004-.099.177-.814-.059-1.198-.038-.054-.84-.431-.736-.634a8.4 8.4 0 0 1 2.688-3.004c.185-.123.85.567.989.484.999-.629 1.026-1.983 2.288-2.388.85-.272 2.066.823 3.614 1.351.209.088.481-.274 1.273.204 1.989 1.205 4.026 2.745 6.162 4.005.227.14.306-.003.387.028.02.008.029.044.024.119-.003.022.005.028-.012.072-.038.071-.086.164-.243.372-.083.107-.189.244-.406.464-.234.218-.506.539-1.397 1.021a5.7 5.7 0 0 1-2.14.627c-1.006.115-2.471-.118-3.607-.831-2.346-1.555-2.535-3.219-2.728-3.835-.145-.705-.131-.973-.149-1.117-.01-.133-.02-.119-.027.067.008.201-.042.531.194 1.475.135.473.347 1.155.995 2.029.618.86 1.902 1.873 3.332 2.208 3.017.611 4.307-.544 4.911-.859.627-.43.845-.672 1.033-.847.341-.338.434-.442.529-.524.196-.087.314-.029.451.057.1.002.25.563.559.894.215.224 1.077.622 1.33.945.252.326-.502.043-.252.498.253.46 1.221.932 1.057 1.425m-91.752 97.569c.95.227-1.653-1.785-1.272-.979.021.041 1.224.968 1.272.979m-24.817 39.645c1.52.224-.218-1.061-1.374-1.266-1.154-.208.913 1.2 1.374 1.266m-1.493 4.917c1.285.073-2.682-2.385-2.197-1.351.027.06 2.122 1.348 2.197 1.351M145.287 216.38c.041.018.236-.208.207-.243-.793-.699-1.191-.233-.207.243M37.47 370.417c.64.145.258-.669-.539-.85-.642-.144-.26.673.539.85m42.63-63.496c.044.024.209-.13-.019-.288-.732-.51-.707-.114.02.288m-46.246 71.727c.55-1.297 4.432-.699 3.634.368-.145.206-1.025-.85-1.446-.662-.78.383 1.453 1.389.054 1.618-.26.05-2.285-1.245-2.247-1.328zm34.789-55.694c.04.02.256-.201.225-.233-.737-.758-1.174-.312-.225.233m20.574-25.405c.085.041.567-.487.511-.556-1.175-1.294-2.157-.226-.51.556m-30.47 43.628c.69.86.584 1.242-.669.745.248-.248.43-.502.669-.745"/><path fill="#b59318" d="M155.877 208.3c1.391.797 2.453 2.234 3.061 3.429.189.37-.364.643-.255.916.217.537.756.678.917 1.23.051.185-.756.679-.689.857.373.97 1.155 1.452 1.655 2.271 2.45 4.024 5.08 7.524 7.773 10.918.234.296.454.645.664 1 .775 1.173 1.437 2.477 2.443 3.255.161.124.706-.488.781-.502 1.173-.192-.212.703-.138 1.136.303 1.724 1.223 3.065 2.307 4.04.461.413 1.42-1.016 1.039.008-.026.069-.817.442-.796.63.048.426.576.916.683 1.194.201.536.258.605.542 1.046.381.608.484 1.549 1.056 2.084.125.114.753-.543 1.02-.403.268.14.573.766.518 1.072s-.696.589-.809.708c-.964.99 1.028.685 1.122.752 1.637 1.185 1.525 3.097 2.375 4.59.649 1.135 1.63 2.187 2.179 3.297.652 1.326.816 2.648 1.552 3.862.077.128.912-.512 1.007-.356.646 1.055 1.199 2.146 1.58 3.297.209.641.368 1.304.467 2.003.027.194-.883.434-.902.656-.117 1.333-.696 3.859 3.02 2.308.264.714.622 1.557.337 2.565-.181.652-1.245.852-.586 1.069.147.047.776-.572.941-.466.696.454.948 1.302 1.76 1.659.168.073.773-.419.913-.465 1.126-.382-.02 1.229-.05 1.416-.206 1.43.578 1.799 1.146 2.572.134.183.796-.67.955-.517.794.777 1.452 1.749 1.777 2.889.074.259-.762.642-.762.795.01.667 1.379-.316 1.415.302.009.129-.619.566-.671.634-.822 1.073.779.085.86.118 1.053.394-.05 2.109.78 2.669.098.063.676-.75.907-.536 1.564 1.446 2.821 3.318 3.624 5.418.123.322-.576.623-.63.697-.835 1.169.721.106.844.14.952.32.269 1.921 2.333.894.698 1.256 1.633 2.298 2.582 3.365 1.507 1.691 2.942 3.468 3.326 5.982.01.051-.776.54-.753.639.246 1.191 1.268.168 3.127-.255.468-.106-.912 1.602-1.013 1.728-.361.479-1.588 1.118-1.644 1.232-.428.9 3.238-1.772 3.638-1.197.006.022-.732.422-.767.516-.113.296.259.251.121.56-.32.711-2.076 2.047-.676 1.835.18-.028 2.26-1.548 2.498-.965.092.23.718 1.119.74 1.467.021.345-.791.613-.809.65-.499 1.265-1.047 1.248-2.212 2.445-1.166 1.187 2.053-.939 2.505-1.026.45-.088-.01.891-.205 1.175s-.736.408-.823.608c-.556 1.323 1.829-.677 2.497-.755 1.582-.184-.605 1.729-.538 2.387.018.177.509-.27.635-.178.492.37-.099 1.121.935 1.257.169.024 1.91-.416 1.002.521-.132.135-.812.387-.824.675-.02.432.184 1.068.59 1.272.299.15 1.128-.742 1.004-.248-.055.22-.794.331-.848.716-.055.385.377 1.013.553 1.243s.84-.385.903-.397c.365-.068 1.02.151 1.045.19 1.088 1.501 1.378 3.412 2.387 4.902.308.45.66.862 1.094 1.215.151.125.796-.569.827-.556.722.261-1.539 1.44-1.896 2.324 1.434-1.257 1.338-.829 1.791-.604.219.107.715-.452.787-.484 1.078-.451.101.643-.092.875-.707.857.442.231-.03.805-.469.569-1.516.979-1.228 1.313.608-.333 1.788-1.709 2.224-1.63 1.654.306 2.047 3.039 2.562 3.927.521.894.818 1.068.994 1.691.311 1.12 1.107-.009 1.997.148s-1.878 1.899-2.371 2.405c-.494.504.137.142-.095.47s-.762.422-.709.725c.052.301 1.496.134 2.134-.237 1.351-.786 2.432-2.047 2.424-1.123-.002.054-.762.469-.733.649.258 1.413 1.024 2.482 1.329 3.847.04.188-.813.639-.798.755.152 1.209 1.204-.06 2.977-.673-1.972 1.327-2.94 2.454-2.47 3.103.281.389 1.06-.299 1.831-.49.232-.057-.132.644.295.401 1.398-.791 2.635-2.116 2.561-1.027-.005.049-.773.478-.741.61.21.86 1.603-.061 2.291.528.539.461.448 2.05.779 2.781-2.159 1.567-1.233 1.796.429.953.242.459.646.835.732 1.385.03.188-.66.553-.715.619-.867 1.035.709.159.83.207 1.254.565.716 2.137 2.457 2.287.062.004 1.605-1.025.683.01-.064.071-.968.259-.709.731.26.473.038 1.868 1.165 1.968.273.027 1.762-.477 1.015.499-.102.132-.566.397-.766.627-.635.732.962-.255-.18.885-1.143 1.138-1.791 2.282-.468 2.248.04.001 1.353-.714 1.47-.509.185.327.24.939.474 1.253.113.149.795-.482.828-.466q.142.09.258.189c.87.737.78 1.843 1.246 3.033.093.241 1.523.063 1.008 1.035-.56 1.069-4.511 3.346-2.91 3.682.649.144 5.584-2.85 3.757-.345 1.62.901 1.392 3.069 3.266 3.759.085.032 1.495-.766 1.591-.606.137.234-.367.807-.288.99.308.769 1.261.967 1.638 1.657.144.262-.544.63-.38.936.163.305 1.137-.081.994.591-.11.512-1.675 1.93-1.659 2.418 1.758-1.063 1.891-.775 2.647-.547.147.045.709-.414.811-.41.336.007.155.297.274.417l-.021-.037c.035.032.093.05.191.043.109-.006.712-.366.836-.391 1.078-.216.015 1.107-.181 1.322-.725.843.158.557-.067 1.012-.232.446-.884.306-.954.713-.148.834.304 1.543.508 2.175.085.249.9-.247.932-.219.435.484-.372 1.273 1.518 1.144-4.609 1.505.56.231-.255 1.346-.068.09-2.332.381-2.686.243-.353-.125.296-.55-.28-.708-.137-.056-2.289.185-2.421.202-1.052.019 2.155-1.13 2.323-1.22 1.82-.933-.54-.635-.728-.667-.899-.257-.687-.915-1.389-1.135-.455-.143-2.434.896-2.489.655-.119-.511.847-1.452.856-1.907-.016-.034-.08-.128-.095-.163.022-.249-.278-.349-1.269-.093-.583.148-2.588 1.547-1.239.072.09-.086 1.334-1.408.257-1.02-.134.05-.728.443-.8.442-.475-.016-.112-.49-.515-.593-.404-.104-.952-.172-.981-.619-.015-.264.865-1.301 1.055-1.588.549-.826-.884-.176-.11-1.027.774-.861 2.399-1.584 2.637-2.479-1.476 1.114-3.006 2.238-4.496 3.351-.676-.979-.969-2.314-1.809-3.259-.105-.115-.791.622-.925.513-.564-.467-.385-1.394-1.062-1.813-.53-.326-1.754-.195-2.33-.519 1.461-1.577.355-1.854.12-2.499-.085-.227.381-.548.434-.786.189-.894-1.15.442-1.487.48-1.443.155 1.938-2.392 1.366-3.005-.027-.031-2.183.836-2.341.856-1.022.146.593-.521.555-.86-.029-.259-.009-.521-.042-.748-.038-.306-.18-.545-.706-.62-.267-.038-1.662.427-.981-.494.089-.12.712-.531.725-.587.201-.974-1.717.372-2.589.516s.103-1.276.411-1.647c.797-.96.562-.1.668-.155 1.264-.653.813-.868.717-1.208 1.842-1.373 1.46-1.672-.107-.346-.171.145.154.231.107.346-2.003 1.075-2.537.823-1.15-.858.65-.789 1.733-1.255.92-1.666-.366-.183-1.57.852-2.107.844-1.229-.024-.586-1.658-1.216-2.132-.229-.173-.774.551-.955.45-.484-.269-.21-.997-.775-1.209-.051-.018-.72.604-.821.485-.771-.883-.909-2.057-1.618-3.049-.345-.483-1.375-1.038-1.656-1.587-.497-.955-.216-2.785-1.02-3.323-.518-.35-1.165.299-1.811.468-1.25.329-.055-1.648.138-1.943.007-.009.484.268.692-.229.678-.711-.685.231-.692.229.125-.19-.325-1.125-.584-1.18-.142-.03-.789.539-.85.513-1.433-.614-2.429-1.555-2.95-2.885-.001-.03.781-.589.769-.652-.152-.894-1.39-.572-2.345-.661-.952-.086-1.086-.635-.03-1.961-.468-.26-.334-1.268-.243-1.865.094-.595-1.408.523-1.459.518-1.624-.142-1.187-1.312-1.785-2.322-.282-.482-1.181-1.163-1.717-1.498-.427-.265-.264-.759-.757-.919-.066-.022-.673.551-.71.558-1.078.255.645-.854.863-1.162.792-1.121 1.195-1.74.317-1.827-.168-.018-1.961 1.054-2.72 1.355-.157.05-.274.071-.329.047-.434-.188.481-.727.013-.903-.039-.016-.541.396-.686.166-.678-1.059-1.162-2.358-1.916-3.338-.102-.136-.825.626-.987.437-.758-.89-1.404-1.959-1.559-3.114-.035-.286.662-.529.814-.69.915-.975-.934-.394-1.007-.445-1.765-1.151-1.007-3.221-2.612-4.322-.092-.06-2.194.354-.883-.816.088-.077 1.43-1.273.252-.883-.074.025-.747.668-.848.326-.102-.345-.902-.483-.303-1.409.191-.289 1.492-1.533.069-1.148-.1.025-3.127 1.194-1.417-.197.281-.229 2.245-1.467.965-1.247-.248.044-.58.479-.993.442-.629-.047-.411-.836-1.53-.636-.199.034-1.69.647-.871-.265.128-.144.81-.521.795-.693-.073-.824-.932-1.123-.932-2.015-.004-.318 1.075-.967 1.176-1.39.102-.42.019-1.056-.612-.932-.626.131-2.004 1.606-2.385 1.383-1.232-.722-1.681-2.056-2.305-3.314a11.4 11.4 0 0 0-.849-1.379c-.182-.244-.55.419-.857.092-1.153-1.222-3.568-2.962-3.372-5.056.151-1.683 1.814-1.176 1.606-2.173-.101-.477-2.155.694-2.283.657-1.233-.294-.908-1.497-1.743-1.991-.171-.101-.769.648-.907.555-.479-.312-.545-1.041-.936-1.388-.178-.154-.704.336-.804.131-.249-.491-.302-1.026-.118-1.859.017-.076.908-.401.683-.725-.362-.517-.344-1.542-1.331-1.667-.294-.034-1.574.994-.99-.087.123-.225 1.734-1.367.07-.718-.271.116-2.652.82-1.768-.451.234-.333 1.309-1.574.948-1.623-.054-.003-.659.654-.862.535-.696-.42-1.119-1.12-1.827-1.596-.19-.125-.723.682-.984.477-.716-.562-1.201-1.605-1.48-2.481-.105-.328.641-.586.694-.654.865-1.087-.729-.213-.888-.255-.974-.282-.623-1.263-1.215-1.734-.164-.136-.795.468-.882.477-.86.069.598-.536.591-.852-.009-.878-.523-1.535-1.018-2.11-.183-.211-.859.589-1.016.389-.943-1.168-1.664-2.566-1.886-4.085-.041-.287.713-.515.839-.65.885-.932-.847-.604-1.05-.643-.914-.165-.437-.682-.775-1.072l-.007-.008c-1.661-1.783-2.544-4.437-3.299-6.413-.983-2.564-1.368-4.748-2.825-6.844-.092-.133-.889.528-.979.421-1.119-1.403-1.692-3.088-2.888-4.376-.097-.106-.796.596-.977.446a1.81 1.81 0 0 1-.658-1.368c-.004-.271.854-.49.835-.754-.044-.616-.317-1.126-.757-1.474-.189-.145-.794.712-.975.48-1.26-1.575-2.525-2.904-2.803-5.111-.018-.15 1.385-1.604.912-1.542-.422.368-.899.821-1.34 1.226a19 19 0 0 1-.534-.46c-2.444-2.283-4.087-4.96-6.083-7.278-.092-.107-.714.795-.897.591-1.062-1.181-2.299-2.093-2.59-3.959-.03-.185 1.398-1.409.875-1.551-.094-.025-.746-.351-1.164-.199-.061.025-.613.718-.781.578a7.7 7.7 0 0 1-2.186-3.087c-.072-.194.722-.724.675-.869-.358-1.038-1.572-1.189-1.602-2.312-.034-.764 1.131-1.897 1.858-3.345.101-.206-.158-.442.362-1.206 1.302-1.928 2.987-3.851 4.361-5.916.296-.448-.705-.444.431-1.225.076-.056.834-.036 1.204-.303.265-.179.679-1.045 1.087-1.222.411-.173.12.598.662.45.55-.147 1.13-1.058 1.722-.728m69.23 116.871c.465-.858-2.14 1.153-1.27.982.045-.011 1.248-.939 1.27-.982m28.169 36.879c.83-1.293-1.06-.246-1.726.722-.659.974 1.473-.33 1.726-.722m3.936 3.401c.593-1.132-3.212 1.568-2.12 1.468.063-.005 2.085-1.403 2.12-1.468M147.507 219.07c.025-.038-.159-.254-.193-.226-.792.697-.436 1.118.193.226m113.311 149.969c.462-.468-.428-.544-.993.043-.459.464.415.529.993-.043m-44.653-62.36c.039-.03-.037-.244-.273-.098-.758.472-.383.608.273.098m46.826 70.087c.171-1.242 3.991-2.214 3.589-.705-.074.265-1.237-.552-1.579-.21-.624.608 1.795 1.003.499 1.614-.237.11-2.527-.628-2.514-.701zm-34.933-54.232c.029-.034-.131-.3-.169-.279-.92.523-.599 1.059.169.279m-17.435-27.862c.064-.069-.32-.703-.402-.668-1.573.761-.822 2.016.402.668m31.979 42.923c1.048-.349 1.385-.099.48.899-.143-.313-.332-.588-.48-.899"/><path fill="#b59318" d="M148.798 216.715c-.134.038-.272-.062-.366-.178-.029-.036.015-.162-.005-.193-.037-.06-.093-.005-.127-.074-.012-.023.046-.226.033-.246-.071-.108-.163-.07-.24-.128-.298-.229-.617-.344-.759-.404a.3.3 0 0 1-.068-.048c-.016-.029-.112-.195-.092-.107.003.01.116.155.125.167.143.183-.087-.109-.125-.141-.153-.128-.243-.059-.248.067q0 .014.023.038c.07.072.26.186.103.112-.013-.005-.163-.131-.187-.134-.055-.004-.059.061-.083.07-.049.017-.051.024-.072.053-.026.028-.146.059-.077.01.018-.024.191.094.246.035a.3.3 0 0 0 .048-.135c-.007-.103.116-.203-.136-.765-.147-.3-.541-.563-.806-.606a1.1 1.1 0 0 0-.466-.006c-.18.042-.199.072-.235.097-.078.086.04.207.041.246.081.302-.104-.075-.119-.08a.1.1 0 0 1-.006-.045c.086-.195.342-.144.484-.254.119-.093.201-.253.323-.33.147-.091.328-.087.453-.198.013-.012-.14-.192-.124-.207a.9.9 0 0 1 .655-.255c.028.001.118.19.152.201.21.066.607.298.198-.51.1-.021.218-.05.384.061.107.072.179.293.186.176.001-.026-.117-.185-.107-.212.045-.111.168-.108.198-.244.006-.028-.086-.179-.098-.209-.087-.248.192.084.221.104.225.138.26.015.368-.037.025-.011-.117-.205-.097-.224a.47.47 0 0 1 .416-.113c.038.008.103.202.126.215.098.056-.059-.293.033-.246.019.009.088.168.099.185.163.253.007-.142.012-.155.054-.168.31.201.387.097.01-.013-.109-.2-.077-.224.214-.162.502-.215.807-.137.047.012.075.177.084.195.144.286.027-.124.035-.143.064-.144.261.168.182-.338.318.023.593-.128.916-.119-.013.004-.035.008-.087.025-.043.023-.13.013-.342.214-.029.032-.171.177-.211.426a.82.82 0 0 0 .138.595c.09.121.155.16.169.172l.066.044c.151.081.149.061.172.068.017.002.022 0 .025-.003.008-.011-.017-.032-.036-.056q-.07-.069-.158-.195c-.004-.005.024-.213.016-.224-.108-.127-.113.199-.218.59-.024.099-.048-.385-.053-.42-.011-.131.03-.441.025-.466-.044-.201-.096.828-.166.825-.003-.002.017-.191.012-.21-.016-.06-.037.014-.052-.052-.033-.153-.028-.654-.105-.366-.01.038-.021.622-.084.592-.024-.012-.136-.006-.166-.044-.03-.039-.004-.226-.006-.235-.081-.251-.046-.353-.084-.723-.039-.368-.04.509-.059.606s-.08-.109-.096-.18c-.015-.072.006-.192-.008-.232-.092-.265-.043.435-.074.574-.07.329-.125-.321-.193-.384-.019-.017-.002.131-.018.145-.061.054-.103-.149-.17.039-.011.03-.057.422-.102.137-.006-.041.004-.204-.024-.239-.042-.053-.115-.086-.156-.03-.03.042.018.307-.025.225-.019-.036.006-.193-.03-.248s-.121-.044-.152-.036c-.032.007-.002.208-.004.222a.5.5 0 0 1-.07.18c-.261.043-.545-.271-.789-.121-.019.012.027.221.024.225-.053.099-.087-.47-.168-.65.077.426.035.354-.005.409-.019.027.023.19.023.207a.4.4 0 0 1 .001.061l.249-.1c.047.125-.122-.089-.16-.136-.159-.191-.017.066-.123-.062-.106-.127-.211-.35-.251-.319.076.136.334.45.341.525.028.281-.362.168-.472.209-.109.038-.121.084-.206.078-.154-.011.061.203.089.355s-.399-.452-.505-.571-.014.017-.078-.044c-.065-.06-.109-.163-.154-.17-.045-.006.063.269.159.406.202.289.462.554.32.502-.008-.003-.119-.164-.145-.168-.201-.03-.319.056-.512.048-.027-.001-.155-.176-.173-.178-.18-.027.091.221.312.566-.346-.413-.593-.636-.664-.576-.042.036.123.204.209.35.026.044-.112-.049-.042.037.23.281.53.555.357.497-.009-.003-.135-.157-.153-.156-.118.003.134.286.101.382-.027.076-.28.001-.367.036-.431-.426-.391-.269-.112.044-.05.028-.074.087-.152.086-.027 0-.147-.129-.162-.14-.243-.177.038.119.042.138.028.199-.273.073-.128.365.005.01.319.291.065.114-.017-.012-.135-.168-.185-.134-.048.033-.293-.027-.195.16.023.046.256.301.025.162-.032-.019-.121-.1-.178-.136-.182-.116.14.162-.16-.042-.299-.205-.552-.323-.409-.101.003.007.256.231.236.249-.033.027-.125.031-.15.067-.012.018.162.135.163.14.008.182-.2.148-.355.223-.029.013.155.245-.059.156-.235-.097-1.033-.75-.917-.492.046.104 1.07.916.461.606.027.253-.358.202-.27.496.004.013.289.242.273.256-.023.02-.173-.063-.194-.051-.094.045-.02.195-.087.254-.026.022-.165-.086-.195-.06-.023.021.075.115.067.15q0 .015-.041.01c-.094-.012-.517-.228-.595-.208.398.247.37.273.442.393.014.023.16.095.174.11.06.063-.067.013 0 .079.016.016.154.097.175.115.184.15-.157.022-.217.001-.226-.083-.056.037-.152.019-.098-.018-.176-.118-.244-.113-.141.012-.167.113-.212.18-.016.027.181.109.183.116.017.082-.214.035.144.265-.991-.472.076.084-.161.064-.019-.002-.484-.234-.538-.294-.054-.061.11-.024.023-.115-.02-.021-.424-.297-.446-.318-.175-.161.512.197.551.215.421.187-.008-.119-.031-.153-.107-.15.022-.159-.047-.277-.045-.076-.484-.332-.452-.356.108-.084.737.243.27-.172-.099-.089-.586-.356-.165-.208.027.009.401.163.208-.005-.025-.021-.161-.107-.169-.12-.022-.036-.011-.049.006-.058.007-.006.019-.031.025-.038.022-.008.054-.008.038-.047-.027-.07-.075-.163-.002-.172.043-.005.313.134.382.164.197.088-.067-.143.16-.018.227.126.524.387.698.429l-1.045-.73c.093-.109.284-.147.352-.277.008-.016-.188-.13-.184-.151.017-.087.19-.054.187-.161-.003-.083-.156-.281-.164-.374.416.245.344.066.425.03.028-.012.13.065.175.074.167.035-.195-.19-.237-.245-.179-.239.598.328.637.236.002-.004-.369-.364-.389-.391-.131-.171.148.1.2.095.094-.01.218.03.146-.122-.022-.044-.241-.284-.019-.166.029.016.16.123.171.125.181.039-.235-.294-.346-.445s.224.021.316.076c.237.143.072.098.091.116.233.221.224.145.27.131.408.326.419.264.047-.016-.041-.03-.023.025-.047.016-.374-.351-.382-.446.03-.192.193.12.374.311.362.176-.004-.061-.289-.281-.338-.375-.11-.215.222-.085.244-.189.008-.038-.161-.145-.16-.176.003-.083.149-.024.136-.121-.002-.009-.163-.138-.151-.155.085-.128.272-.132.383-.241.055-.053.07-.229.143-.268.126-.069.452.035.486-.095.024-.085-.126-.226-.197-.352-.135-.245.275.043.335.091.002.002-.014.081.081.137.161.152-.081-.136-.081-.137.04.03.166-.019.16-.065-.003-.025-.136-.168-.136-.179.019-.247.126-.399.321-.438.005.001.138.174.147.175.141.012.024-.236-.005-.414-.028-.178.058-.177.323.093.022-.075.194.003.294.055s-.145-.296-.146-.306c-.041-.303.168-.152.311-.205.068-.025.146-.153.184-.234a.05.05 0 0 1 .029-.029c.147-.057.517-.277.675-.271.044.001.086.041.125-.015.007-.009-.032-.195-.031-.203.035-.234.073.228.1.308.097.289.147.443.209.291.014-.034-.018-.702.015-.746.042-.055.053.184.095.121.004-.005-.014-.151.017-.148.145.011.305.081.446.055.019-.003-.025-.234.003-.242a.44.44 0 0 1 .412.064c.033.026.021.19.03.239.055.291.093-.138.103-.147.224-.214.408.168.636-.017.011-.011.111-.469.153-.076.003.026.043.428.082.154.003-.018-.022-.225.025-.203s.123-.116.184.113c.02.072.055.474.124.156.004-.022.122-.741.138-.242.003.082-.021.609.061.341.015-.051-.005-.17.034-.242.06-.111.131.034.212-.197.015-.041.09-.395.116-.121.004.043-.019.218.001.239.103.101.222-.008.331.124.037.046-.013.328.024.408.035.08.114.163.179.04.074-.122.068-.58.168-.603a.7.7 0 0 1 .288.008c.028.005.1.021.179.044.08.037.164.001.669.322q.049.034.104.077c.036.03.069.051.189.165.197.198.499.54.64 1.156.155.611-.05 1.382-.339 1.773-.219.311-.32.382-.457.502-.498.38-.748.395-.83.431-.161.044-.251.056-.327.067-.071-.015-.187-.136-.294-.137-.023-.001.035.152.006.163-.108.04-.259.248-.492-.032-.189-.225-.143-.466-.257-.544-.057-.036.094.471.093.49-.019.188-.165-.004-.212.094-.01.02.09.21.081.225-.029.053-.114-.014-.149.021-.016.016.055.163.032.16-.053-.007-.118-.052-.225-.171-.01-.011-.07-.207-.106-.199-.057.014-.189-.089-.181.081.002.051.169.385.015.173-.032-.044-.224-.449-.094-.081.021.062.187.564-.005.284-.05-.074-.245-.385-.241-.323.002.01.107.181.098.208-.031.091-.107.107-.141.198-.009.024.117.192.101.222-.044.084-.155.086-.255.07-.038-.007-.106-.166-.118-.181-.182-.246.007.119.009.146.012.159-.132.02-.162.097-.008.021.104.182.11.199.056.165-.102-.15-.142-.171-.113-.06-.169-.007-.212.049-.016.022.127.2.112.216-.09.102-.214.156-.39.121-.033-.006-.116-.161-.142-.191-.183-.214-.017.132-.006.169.047.167-.056.05-.079.101-.111.247-.4.326-.615.405-.277.103-.557.107-.745.312-.012.013.147.183.139.197a.5.5 0 0 1-.078.086 3 3 0 0 1-.269.197c-.074.046-.149.095-.309.173-.087.041-.188.09-.387.149-.216.031-.503.237-1.434-.052-.479-.163-.992-.629-1.201-1.068a2.2 2.2 0 0 1-.246-.892c-.016-.406.033-.542.057-.671.058-.241.103-.337.137-.427.07-.17.113-.261.149-.353.015-.037-.205-.097-.186-.159a.4.4 0 0 1 .232-.278c.055-.02.176.138.227.117a.38.38 0 0 0 .231-.232c.016-.046-.207-.127-.171-.178.228-.339.693-.89 1.446-.952.052-.005.291.387.328.272-.047-.118-.111-.254-.165-.378.42-.235.875-.312 1.252-.312.382.001.672.064.938.098.022.003.004-.243.048-.238.252.026.488-.009.667.264.018.027-.062.446.009.393.013-.01.113-.051.153-.138.006-.013.023-.212.054-.213a.63.63 0 0 1 .475.23c.021.025-.048.228-.033.247.105.136.273.007.35.22.052.144-.054.496-.087.858-.005.052.041.07-.001.276-.103.518-.247 1.079-.354 1.632-.024.119.067.005-.031.283-.007.019-.073.104-.105.199-.023.066-.053.278-.087.36-.034.083-.015-.096-.063 0-.047.097-.087.337-.144.354m-1.65-4.957c.155.141-.271-.474-.209-.299.004.009.201.292.209.299m-3.705 4.061c.303.14-.073-.168-.305-.28-.233-.111.212.237.305.28m-.136.622c.252.093-.617-.514-.48-.335.007.01.466.33.48.335m6.063-2.769c-.001.01.032.026.034.017.068-.229.002-.262-.034-.017m-6.165 3.429c.135.054.022-.082-.145-.149-.135-.053-.023.083.145.149m6.63-5.126c.001.011.026.021.025-.042-.003-.203-.039-.145-.025.042m-7.093 6.014c.103-.112.92.214.76.308-.029.017-.22-.183-.306-.187-.159-.006.309.285.016.211-.054-.014-.478-.326-.471-.332zm4.947-5.513c.006.007.04-.005.035-.013-.122-.205-.19-.18-.035.013m3.569.019c.001.021.069.049.075.03.093-.38-.066-.44-.075-.03m-4.962 1.872c.145.193.137.242-.099.054.036-.014.063-.039.099-.054"/><path fill="#403d3a" d="m51.01 162.694 10.26-1.53 9.81-2.88 2.34-3.78-.99-3.87-2.34-2.88q-.99-.63-2.07-1.17-.99-.63-2.07-.9-.99-.36-2.07-.27-.99 0-1.98.63l-2.25 1.62-7.47-3.51-2.7-6.93 2.34-11.61 4.14-5.49q.27.63 1.08.45t1.62-.72 1.35-1.26q.54-.81.27-1.44 1.53-.45 3.51-.9 1.98-.54 3.42-1.53l11.61-2.43 1.89-.18 1.62 1.89-1.44 3.87-3.33.9-4.32.45-6.57 3.33-3.06 3.96q-1.44 1.35-1.44 2.97.09 1.53.81 3.33.99 2.07 1.44 2.7.54.54 1.35.99l5.31 1.8q.9.72 1.62 1.17.81.36 1.8.45t2.79.18q1.89.09 4.77.27.81 1.53 1.89 2.7 1.08 1.08 2.07 2.88l1.8 4.05-2.7 9-2.16 2.34-4.41 6.39H76.3q-1.17 0-2.88.09h-3.87q-2.25 0-3.96.45t-3.06.99q-1.35.45-2.34.81t-1.8.27l-3.24-.99-5.4.9-1.89-3.87.54-2.25zm94.589 5.58-3.15.54q-1.08.18-2.25 0t-2.43-.18h-2.07q-.63 0-1.26.09h-1.08l-1.98-1.35q.27-1.8-.18-2.61-.36-.81-.54-1.53-.18-.54-.72-1.71t-.99-2.7q0-.27-.9-1.62t-1.44-2.43l-1.08.45q-.45 0-.99.27t-2.7.27q-.27-.54-.9-.72-.63-.27-1.44-.09-.72.09-1.53.54-.72.45-1.26 1.08l-3.69.54q-.36-.81-.81-1.26-.36-.54-.81-.99-.36-.45-.63-.99t-.27-1.44q1.8-.45 2.07-1.17.36-.72.54-.63.54.27.99.27-.63 0-.36-.18t2.43-.9l6.57-.81 1.35.99q1.44.36 2.16.18t.99-.63q.27-.54.27-1.17.09-.63.18-1.08.18-.99-.45-1.62-.54-.72-1.53-1.26-.18-.99-.72-2.25-.45-1.35-1.17-3.15-.63-1.71-1.17-3.6-.45-1.98-.81-3.6t-.54-2.7-.27-1.26q-1.26-.81-2.07-.09-.81.63-1.35 1.89-.45 1.26-.63 2.7-.09 1.35 0 1.89-.09.18-.45.63l-.81.81q-.45.45-.81.9-.36.36-.45.54-.36.63-.18 1.35t-.27 1.26q-1.8 3.24-4.23 5.13-.63.54-.99 1.53t-.45 2.07.18 2.16q.27.99.99 1.62-.9.54-1.44 1.17-.45.54-.81 1.26-.27.63-.54 1.44-.27.72-.63 1.62-1.53 4.05-1.53 4.23l-1.26 2.61-1.17 4.77q.09 1.35-.99 1.62-.99.27-3.24.27-2.16.54-3.78.54-1.62-.09-1.08-1.71 2.34-5.58 3.42-8.28 1.17-2.79 1.17-4.23 0-.45.36-.72.45-.36.72-.54.09-.18.63-1.89.63-1.71 1.35-3.78l1.35-4.05q.72-1.98 1.08-2.7.81-1.71 1.89-3.87 1.17-2.16 2.7-4.14.81-1.08 1.35-2.97.63-1.89 1.17-4.14t1.17-4.59 1.62-4.32q.54-.18 3.15-3.96.18-.18.27-.36.18-.27.36-.45l11.52-.72q.36.45.81 1.08t.99 1.35q1.71 2.16 2.07 3.42t.45 1.71q-.18.27 1.89 6.12.54 1.44.9 3.24t.54 3.42q.18 1.53.18 2.7 0 1.08-.09 1.17-.18.09 2.88 2.25.72.54.81.99.18.45 0 .81-.09.36-.36.63t-.27.36l2.43 3.24 2.07 7.83q1.17 3.78 1.71 6.48.54 2.61.54 4.05 0 .18.09.27 0-.09.18.45zm27.837-14.94q.36-.18.54-.81.18-.72.27-1.53.18-.81.27-1.62.18-.9.54-1.44l1.8-2.7q.81-1.17 1.35-1.89.63-.81.99-1.26.36-.54.54-1.08 1.17-.9 1.26-1.62.18-.72.81-1.98.45-.9.99-2.34.54-1.53.63-1.8.27-.81.9-1.8.72-1.08 1.35-2.25.72-1.26 1.26-2.61.54-1.44.54-2.97.09-1.98.09-3.42.09-1.53.27-2.61l2.79-.63 3.15 1.44q0 1.44.9 2.52.99.99 1.08 1.8 0 .72-1.08 2.52-1.08 1.71-1.62 4.23-.09.72-1.08 1.89-.99 1.08-1.08 2.61 0 1.53-.63 3.15-.63 1.53-.9 2.16-.81 1.98-2.43 5.31-1.53 3.33-3.87 8.19t-3.87 7.56-1.8 3.33l-.72 1.62-.72 1.44-3.51 2.43-5.85.09-1.8.9-3.24-3.69q-.54-1.35-1.62-2.97-.99-1.62-1.89-3.78l-2.07-5.31q.81-1.89.81-2.97.09-1.08-.36-1.62t-1.26-.63q-.81-.18-1.71-.27-.54-.09-1.17-1.08-.63-1.08-1.26-1.44l-.18-2.07-2.34-3.78-.72-7.74q.18-.63-.18-.99-.27-.36-.81-.54l-1.08-.45q-.63-.27-.72-.63-.72-1.44-1.17-2.61-.36-1.26-.63-2.25t-.63-1.8q-.27-.81-.81-1.35l.09-3.69q1.08-.63 2.88-.81 2.07-.18 3.15-1.44l2.97-.9q1.08.9 2.16 1.62t1.62 1.35q1.44 1.71 3.78 2.79.09.45.54 2.07.54 1.62 1.17 3.87.72 2.25 1.62 4.95.9 2.61 1.71 5.13.9 2.52 1.71 4.68.9 2.07 1.53 3.33.27.54.63 1.71t.72 2.43q.36 1.17.63 2.25.36 1.08.54 1.44.63 0 1.08.18l.9.36q.45.18.99.18t1.26-.36m73.45-14.22q0 .27-.18.9-.09.54-.27 1.17t-.36 1.17q-.09.54-.09.81-3.15.27-4.14.54-.9.18-1.08.18h-8.1q-.72-.09-1.17-.09-.36 0-.54.09-.18 0-.54.09l-1.89 1.17-2.79-1.26q-.09-.45-.9-.99-.72-.54-.99-1.26l2.88-3.96q1.8 0 1.89.09.18 0 .09-.09 0-.09.54-.18.54-.18 1.26-.27l1.35-.27q.63-.09 5.85.27.09 0 1.26.45.45.18 2.25-.09 1.89-.36 4.23-.36zm.36 24.48q-.18.54-.27 1.26 0 .72.18.99-.18.18-1.08.45t-2.52.9q-1.71.45-3.24.18a7.1 7.1 0 0 0-2.97.09q-4.41 0-9.09 1.35-1.26.36-2.16.63t-1.53.45q-.36.18-.72.27-.27 0-.54.09l-7.02.27q-.81.27-1.71.18l-1.8-.36q-.9-.27-1.62-.54t-1.17-.27-1.53.09h-1.98q-.9-.63-1.62-1.26-.72-.72-.09-2.43.18-.9.63-1.8.54-.99.36-1.98-.09-.36-.45-1.17-.27-.81-.45-1.71-.09-.9 0-1.8.18-.9.99-1.53.72-1.17.63-2.16-.09-1.08-.81-2.25.54-.63.63-1.44.18-.9.09-1.71t-.36-1.44q-.18-.63-.36-.9.27-1.26.54-3.33.27-2.16.45-4.32.27-2.25.36-4.14t0-2.79q-.09-1.17.18-2.43t.63-2.52q.36-1.35.54-2.61t-.09-2.34l.18-.54q.18-.18-.63-2.79l1.44-3.15h.09q1.8-.09 3.69-.18t3.42-.18q1.62-.09 2.61-.09 1.08-.09 1.17-.09h12.42q.63 0 1.62.63 1.08.54 7.2.54l.18.72.18.72q.27 1.62.63 2.52l-.54.9q-1.35.09-2.07.09h-1.08q-.27-.09-.36-.09-.09-.09-.18-.09l-7.02-.9q-2.61-.54-6.48.63-1.71.45-2.79.27-1.08-.27-1.44-.09-1.08-.36-1.8 0t-.45 1.35q.27.9.63 1.08t.54.72q-.18.27.09.81.36.45.81.9.54.54 1.08.72.54.09.54.18 0 .18-.45 1.89-.45 1.62-.72 3.96t-.18 5.04q.18 2.7 1.35 5.04-.45.99-.81 3.78-.36 2.7-.63 5.58-.18 2.88-.27 5.22-.09 2.25-.09 2.43-.09 0-.27.36-.09.27-.27.63t-.45.63q-.27.18-.63 0v.81h.9q-.09.45-.09 1.26t-.09 1.35l6.84-.9q1.8.18 4.14.09 2.43-.09 5.4-.63 2.97-.45 4.86-.27t2.79-.63l2.25-.09z"/></svg>